<svg width="123" height="111" viewBox="0 0 123 111" fill="none" xmlns="http://www.w3.org/2000/svg">
<path d="M39.8882 48.0386C38.1826 48.0386 36.5155 48.1981 34.8979 48.4953C34.5457 50.509 34.3477 52.5723 34.3477 54.6851C34.3477 71.89 46.5898 86.2339 62.8428 89.4856C65.4563 85.3206 66.9694 80.3962 66.9694 75.1142C66.9694 60.1596 54.8483 48.0386 39.8937 48.0386H39.8882Z" fill="#EC6371"/>
<path d="M46.3531 59.714C45.1262 59.714 43.9322 59.8296 42.7658 60.0441C42.5127 61.4912 42.3696 62.9712 42.3696 64.4898C42.3696 76.8474 51.1619 87.1473 62.8318 89.4802C64.708 86.487 65.7919 82.9492 65.7919 79.1583C65.7919 68.4183 57.0876 59.7085 46.3421 59.7085L46.3531 59.714Z" fill="#32AAAA"/>
<path d="M76.8456 91.3783C73.8305 91.3783 70.8043 91.0812 67.8497 90.4869L62.8428 89.4856L65.5554 85.1609C68.4054 80.6162 69.913 75.3673 69.913 69.9752C69.913 54.1953 57.0767 41.359 41.2968 41.359C39.5251 41.359 37.7479 41.5241 36.0203 41.8432L31.0244 42.773L31.9047 37.7662C33.7424 27.3288 39.228 17.7827 47.3545 10.8886C55.5801 3.91197 66.0505 0.0715332 76.8511 0.0715332C89.0437 0.0715332 100.51 4.81981 109.132 13.4415C117.753 22.0633 122.502 33.5241 122.502 45.7222C122.502 57.9202 117.753 69.381 109.132 78.0028C100.51 86.6245 89.0492 91.3728 76.8511 91.3728L76.8456 91.3783ZM73.9955 84.2256C74.9474 84.2971 75.8992 84.3301 76.8456 84.3301C98.1276 84.3301 115.448 67.0151 115.448 45.7277C115.448 24.4402 98.1331 7.12517 76.8456 7.12517C59.6957 7.12517 44.8676 18.3164 39.9598 34.3329C40.4054 34.3164 40.8511 34.3054 41.2968 34.3054C60.9611 34.3054 76.9556 50.3054 76.9556 69.9642C76.9556 74.8996 75.9433 79.7469 73.99 84.2146L73.9955 84.2256Z" fill="#2B2B5F"/>
<path d="M32.9609 110.757C24.6528 110.757 16.7959 107.461 10.7546 101.42C4.55377 95.2242 0.999436 86.8666 0.757346 77.8927C0.31718 61.6892 10.9252 47.4608 25.9898 44.0385L31.0242 42.7786L30.3089 47.945C30.0118 50.0743 29.8908 52.2091 29.9513 54.2889C30.419 71.4443 42.3199 86.0083 58.2429 88.9189L62.8481 89.4856L60.7353 94.0193L60.6748 94.1293L60.6198 94.2284C57.9238 99.0097 54.1109 103.048 49.5882 105.92C44.8509 108.924 39.4038 110.591 33.8357 110.746C33.5496 110.751 33.2635 110.757 32.9774 110.757H32.9609ZM22.8921 52.4842C13.6322 56.7153 7.49737 66.6135 7.79998 77.7002C7.99806 84.8638 10.8151 91.5158 15.734 96.4347C20.6033 101.304 26.9582 103.879 33.6267 103.697C40.7628 103.505 47.3213 100.16 51.8825 94.5585C44.6308 92.1926 38.0613 87.7249 33.0159 81.6451C26.7656 74.1183 23.1672 64.4677 22.8976 54.476C22.8811 53.8157 22.8756 53.15 22.8866 52.4787L22.8921 52.4842Z" fill="#2B2B5F"/>
</svg>
