<svg width="122" height="34" viewBox="0 0 122 34" fill="none" xmlns="http://www.w3.org/2000/svg">
<path d="M52.2811 30.5312C50.1661 30.5312 48.2528 30.0395 46.5411 29.0579C44.8278 28.0745 43.4811 26.7345 42.4995 25.0379C41.5161 23.3412 41.0261 21.4495 41.0261 19.3645C41.0261 17.2795 41.5178 15.3529 42.4995 13.6695C43.4828 11.9879 44.8295 10.6545 46.5411 9.67121C48.2528 8.68788 50.1661 8.19788 52.2811 8.19788C53.9478 8.19788 55.5045 8.51788 56.9495 9.15788C58.3928 9.79788 59.6211 10.7145 60.6345 11.9045L57.4178 15.1645C56.7928 14.4212 56.0395 13.8629 55.1611 13.4895C54.2828 13.1179 53.3228 12.9312 52.2795 12.9312C51.0578 12.9312 49.9795 13.2062 49.0411 13.7579C48.1028 14.3095 47.3728 15.0612 46.8528 16.0145C46.3311 16.9679 46.0711 18.0845 46.0711 19.3645C46.0711 20.6445 46.3311 21.7245 46.8528 22.6929C47.3728 23.6612 48.1028 24.4195 49.0411 24.9712C49.9795 25.5229 51.0578 25.7979 52.2795 25.7979C53.3211 25.7979 54.2811 25.6129 55.1611 25.2395C56.0395 24.8679 56.7911 24.3095 57.4178 23.5645L60.6345 26.8245C59.6211 28.0162 58.3928 28.9312 56.9495 29.5712C55.5045 30.2112 53.9495 30.5312 52.2811 30.5312Z" fill="#2B2B5F"/>
<path d="M61.9294 30.0845V8.64454H66.8428V30.0845H61.9294ZM66.8428 18.1579L65.1461 17.3095C65.1461 14.5995 65.7494 12.4045 66.9544 10.7212C68.1611 9.03954 69.9844 8.19788 72.4261 8.19788C73.4978 8.19788 74.4661 8.39121 75.3294 8.77788C76.1928 9.16454 76.9961 9.79121 77.7411 10.6545L74.5244 13.9595C74.1378 13.5429 73.7044 13.2445 73.2294 13.0662C72.7528 12.8879 72.2028 12.7979 71.5761 12.7979C70.2061 12.7979 69.0744 13.2295 68.1811 14.0929C67.2878 14.9562 66.8411 16.3112 66.8411 18.1579H66.8428Z" fill="#2B2B5F"/>
<path d="M88.336 30.4279C86.7927 30.4279 85.3393 30.1363 83.9743 29.5529C82.6093 28.9696 81.411 28.1563 80.3777 27.1146C79.346 26.0729 78.5377 24.8629 77.9543 23.4879C77.371 22.1129 77.0793 20.6329 77.0793 19.0479C77.0793 17.4629 77.376 15.9896 77.971 14.6229C78.5643 13.2579 79.3827 12.0596 80.426 11.0263C81.4677 9.99461 82.6877 9.19794 84.0843 8.63461C85.481 8.07128 86.9927 7.78961 88.6177 7.78961C90.431 7.78961 92.0927 8.12295 93.6043 8.78961C95.116 9.45628 96.381 10.4046 97.4027 11.6346L94.4943 14.5429C93.8277 13.6263 92.9827 12.9279 91.961 12.4479C90.9393 11.9679 89.8143 11.7296 88.5843 11.7296C87.1877 11.7296 85.9527 12.0379 84.8793 12.6513C83.806 13.2663 82.966 14.1263 82.3627 15.2313C81.7577 16.3363 81.456 17.6079 81.456 19.0463C81.456 20.4846 81.7577 21.8196 82.3627 22.9229C82.9677 24.0279 83.786 24.8879 84.8177 25.5029C85.8493 26.1179 87.011 26.4246 88.3043 26.4246C89.701 26.4246 90.8893 26.1746 91.8693 25.6746C92.8493 25.1746 93.5993 24.4296 94.121 23.4396C94.641 22.4496 94.9027 21.2346 94.9027 19.7963L97.686 21.7346L88.056 21.6413V17.8896H99.281V18.5146C99.281 21.1413 98.8127 23.3413 97.8743 25.1113C96.936 26.8829 95.6443 28.2129 93.9977 29.0979C92.351 29.9846 90.4643 30.4263 88.3377 30.4263L88.336 30.4279Z" fill="#2B2B5F" stroke="#2B2B5F" stroke-width="0.0833333" stroke-miterlimit="10"/>
<path d="M111.403 30.5313C109.259 30.5313 107.331 30.048 105.618 29.0796C103.904 28.113 102.551 26.7796 101.553 25.0813C100.554 23.3846 100.056 21.478 100.056 19.363C100.056 17.248 100.548 15.3513 101.529 13.668C102.513 11.9863 103.844 10.653 105.528 9.66962C107.209 8.68629 109.079 8.19629 111.133 8.19629C113.186 8.19629 114.891 8.65796 116.426 9.58129C117.959 10.5046 119.166 11.7696 120.044 13.378C120.923 14.9863 121.363 16.818 121.363 18.8713C121.363 19.228 121.341 19.593 121.296 19.9663C121.251 20.3396 121.184 20.748 121.094 21.1946H103.496V17.1746H118.549L116.718 18.783C116.658 17.473 116.404 16.3713 115.958 15.478C115.511 14.5846 114.878 13.8996 114.059 13.423C113.239 12.9463 112.234 12.708 111.044 12.708C109.794 12.708 108.706 12.9763 107.784 13.5113C106.861 14.048 106.146 14.7996 105.641 15.7663C105.134 16.7346 104.881 17.888 104.881 19.228C104.881 20.568 105.149 21.7446 105.684 22.7563C106.221 23.7696 106.979 24.5513 107.963 25.1013C108.946 25.653 110.076 25.928 111.358 25.928C112.459 25.928 113.479 25.7346 114.418 25.348C115.356 24.9613 116.153 24.3946 116.808 23.6513L119.934 26.823C118.891 28.0446 117.626 28.9663 116.138 29.593C114.648 30.218 113.071 30.5313 111.403 30.5313Z" fill="#2B2B5F"/>
<path d="M12.0829 14.848C11.5662 14.848 11.0612 14.8963 10.5712 14.9863C10.4645 15.5963 10.4045 16.2213 10.4045 16.8613C10.4045 22.073 14.1129 26.418 19.0362 27.403C19.8279 26.1413 20.2862 24.6496 20.2862 23.0496C20.2862 18.5196 16.6145 14.848 12.0845 14.848H12.0829Z" fill="#EC6371"/>
<path d="M14.0411 18.3846C13.6695 18.3846 13.3078 18.4196 12.9545 18.4846C12.8778 18.9229 12.8345 19.3713 12.8345 19.8313C12.8345 23.5746 15.4978 26.6946 19.0328 27.4013C19.6011 26.4946 19.9295 25.4229 19.9295 24.2746C19.9295 21.0213 17.2928 18.3829 14.0378 18.3829L14.0411 18.3846Z" fill="#32AAAA"/>
<path d="M23.2777 27.9763C22.3644 27.9763 21.4477 27.8863 20.5527 27.7063L19.036 27.4029L19.8577 26.0929C20.721 24.7163 21.1777 23.1263 21.1777 21.4929C21.1777 16.7129 17.2894 12.8246 12.5094 12.8246C11.9727 12.8246 11.4344 12.8746 10.911 12.9713L9.39771 13.2529L9.66437 11.7363C10.221 8.5746 11.8827 5.68293 14.3444 3.5946C16.836 1.48126 20.0077 0.317932 23.2794 0.317932C26.9727 0.317932 30.446 1.75626 33.0577 4.36793C35.6694 6.9796 37.1077 10.4513 37.1077 14.1463C37.1077 17.8413 35.6694 21.3129 33.0577 23.9246C30.446 26.5363 26.9744 27.9746 23.2794 27.9746L23.2777 27.9763ZM22.4144 25.8096C22.7027 25.8313 22.991 25.8413 23.2777 25.8413C29.7244 25.8413 34.971 20.5963 34.971 14.1479C34.971 7.6996 29.726 2.4546 23.2777 2.4546C18.0827 2.4546 13.591 5.8446 12.1044 10.6963C12.2394 10.6913 12.3744 10.6879 12.5094 10.6879C18.466 10.6879 23.311 15.5346 23.311 21.4896C23.311 22.9846 23.0044 24.4529 22.4127 25.8063L22.4144 25.8096Z" fill="#2B2B5F"/>
<path d="M9.98434 33.8462C7.46768 33.8462 5.08768 32.8479 3.25768 31.0179C1.37934 29.1412 0.302675 26.6096 0.229342 23.8912C0.0960084 18.9829 3.30934 14.6729 7.87268 13.6362L9.39767 13.2546L9.18101 14.8196C9.09101 15.4646 9.05434 16.1112 9.07268 16.7412C9.21434 21.9379 12.8193 26.3496 17.6427 27.2312L19.0377 27.4029L18.3977 28.7762L18.3793 28.8096L18.3627 28.8396C17.546 30.2879 16.391 31.5112 15.021 32.3812C13.586 33.2912 11.936 33.7962 10.2493 33.8429C10.1627 33.8446 10.076 33.8462 9.98934 33.8462H9.98434ZM6.93434 16.1946C4.12934 17.4762 2.27101 20.4746 2.36267 23.8329C2.42267 26.0029 3.27601 28.0179 4.76601 29.5079C6.24101 30.9829 8.16601 31.7629 10.186 31.7079C12.3477 31.6496 14.3343 30.6362 15.716 28.9396C13.5193 28.2229 11.5293 26.8696 10.001 25.0279C8.10768 22.7479 7.01768 19.8246 6.93601 16.7979C6.93101 16.5979 6.92934 16.3962 6.93267 16.1929L6.93434 16.1946Z" fill="#2B2B5F"/>
</svg>
