<svg width="240" height="92" viewBox="0 0 240 92" fill="none" xmlns="http://www.w3.org/2000/svg">
<g clip-path="url(#clip0_2219_12824)">
<path d="M154.003 77.4806C153.488 77.4806 153.009 77.3848 152.567 77.1967C152.128 77.0085 151.741 76.7444 151.415 76.4077C151.088 76.0709 150.834 75.6781 150.655 75.2324C150.477 74.7868 150.388 74.3081 150.388 73.7964C150.388 73.2847 150.477 72.7994 150.655 72.3505C150.834 71.9048 151.085 71.5119 151.408 71.1785C151.732 70.8451 152.114 70.5843 152.554 70.3928C152.993 70.2047 153.468 70.1089 153.976 70.1089C154.548 70.1089 155.046 70.2047 155.472 70.3994C155.898 70.5909 156.277 70.855 156.607 71.1851L155.937 71.8553C155.71 71.6011 155.432 71.3997 155.102 71.2578C154.772 71.1125 154.396 71.0399 153.976 71.0399C153.603 71.0399 153.26 71.1059 152.943 71.2412C152.626 71.3766 152.352 71.5681 152.118 71.8157C151.883 72.0633 151.702 72.3571 151.576 72.6938C151.451 73.0305 151.385 73.4002 151.385 73.7997C151.385 74.1991 151.448 74.5656 151.576 74.9056C151.705 75.2456 151.883 75.5362 152.118 75.7837C152.352 76.0313 152.626 76.2228 152.943 76.3582C153.26 76.4935 153.607 76.5595 153.986 76.5595C154.432 76.5595 154.822 76.4869 155.152 76.3384C155.482 76.1898 155.759 75.9884 155.987 75.7342L156.657 76.4044C156.327 76.7411 155.941 77.0052 155.495 77.2C155.053 77.3915 154.551 77.4905 153.993 77.4905L154.003 77.4806Z" fill="#32AAAA"/>
<path d="M159.764 77.4806C159.288 77.4806 158.859 77.3683 158.473 77.1406C158.086 76.9128 157.783 76.6058 157.555 76.2162C157.327 75.8267 157.215 75.3909 157.215 74.9089C157.215 74.4269 157.327 74.0044 157.555 73.6247C157.783 73.2418 158.09 72.9381 158.473 72.7103C158.859 72.4825 159.288 72.3703 159.764 72.3703C160.239 72.3703 160.681 72.4825 161.071 72.707C161.46 72.9315 161.767 73.2352 161.995 73.6214C162.223 74.0077 162.335 74.4368 162.335 74.9122C162.335 75.3876 162.223 75.83 161.995 76.2195C161.767 76.6091 161.46 76.9161 161.071 77.1439C160.681 77.3716 160.246 77.4839 159.764 77.4839V77.4806ZM159.764 76.5827C160.08 76.5827 160.358 76.51 160.599 76.3648C160.84 76.2195 161.028 76.0214 161.167 75.7705C161.305 75.5196 161.371 75.2324 161.371 74.9089C161.371 74.5854 161.302 74.3114 161.16 74.0638C161.018 73.8162 160.83 73.6214 160.592 73.4795C160.354 73.3375 160.077 73.2682 159.76 73.2682C159.443 73.2682 159.186 73.3375 158.945 73.4795C158.704 73.6214 158.516 73.8162 158.377 74.0638C158.238 74.3114 158.169 74.5953 158.169 74.9089C158.169 75.2225 158.238 75.5196 158.377 75.7705C158.516 76.0214 158.704 76.2195 158.945 76.3648C159.186 76.51 159.457 76.5827 159.76 76.5827H159.764Z" fill="#32AAAA"/>
<path d="M163.21 77.3783V72.476H164.138V77.3783H163.21ZM166.666 77.3783V74.5194C166.666 74.1464 166.551 73.8427 166.32 73.6017C166.089 73.3607 165.788 73.2418 165.415 73.2418C165.168 73.2418 164.946 73.298 164.755 73.4069C164.563 73.5158 164.412 73.6677 164.299 73.8625C164.19 74.0539 164.134 74.2751 164.134 74.5227L163.751 74.3048C163.751 73.9318 163.834 73.6017 163.999 73.3145C164.164 73.024 164.395 72.7962 164.689 72.6278C164.986 72.4595 165.319 72.3736 165.689 72.3736C166.059 72.3736 166.389 72.4661 166.676 72.6509C166.963 72.8358 167.188 73.0801 167.353 73.3772C167.518 73.6776 167.601 73.9945 167.601 74.3313V77.375H166.66L166.666 77.3783Z" fill="#32AAAA"/>
<path d="M170.271 77.4806C169.997 77.4806 169.733 77.4443 169.486 77.3716C169.238 77.299 169.014 77.1967 168.809 77.0613C168.608 76.926 168.429 76.7675 168.277 76.5827L168.875 75.9851C169.053 76.2063 169.261 76.3681 169.496 76.4737C169.73 76.5793 169.991 76.6355 170.281 76.6355C170.572 76.6355 170.793 76.586 170.951 76.4869C171.11 76.3879 171.189 76.2492 171.189 76.0677C171.189 75.8861 171.126 75.7507 170.998 75.6484C170.869 75.5494 170.707 75.4668 170.506 75.4008C170.304 75.3348 170.093 75.2721 169.872 75.2093C169.651 75.1466 169.436 75.0641 169.238 74.9617C169.04 74.8594 168.875 74.7141 168.746 74.5326C168.617 74.351 168.555 74.11 168.555 73.8162C168.555 73.5224 168.624 73.2649 168.766 73.047C168.908 72.8291 169.109 72.6641 169.37 72.5452C169.631 72.4264 169.945 72.3703 170.311 72.3703C170.697 72.3703 171.037 72.4363 171.338 72.5716C171.638 72.707 171.882 72.9084 172.077 73.1758L171.48 73.7733C171.334 73.595 171.163 73.4564 170.965 73.3606C170.767 73.2649 170.539 73.2154 170.285 73.2154C170.017 73.2154 169.813 73.2649 169.671 73.3606C169.529 73.4564 169.459 73.5851 169.459 73.7436C169.459 73.902 169.522 74.0374 169.644 74.1265C169.77 74.2157 169.931 74.2916 170.136 74.3543C170.337 74.417 170.549 74.4798 170.77 74.5458C170.991 74.6118 171.199 74.6976 171.4 74.8099C171.599 74.9188 171.764 75.0674 171.892 75.2522C172.018 75.4371 172.084 75.6814 172.084 75.9851C172.084 76.4473 171.919 76.8104 171.592 77.0778C171.265 77.3452 170.826 77.4806 170.275 77.4806H170.271Z" fill="#32AAAA"/>
<path d="M175.236 77.4806C174.741 77.4806 174.299 77.3684 173.909 77.1439C173.52 76.9194 173.213 76.6157 172.985 76.2295C172.757 75.8432 172.645 75.4075 172.645 74.9189C172.645 74.4303 172.757 74.0045 172.982 73.6182C173.206 73.232 173.506 72.9283 173.889 72.7038C174.272 72.4793 174.698 72.367 175.174 72.367C175.619 72.367 176.019 72.4694 176.372 72.6774C176.722 72.882 176.996 73.1692 177.194 73.5324C177.389 73.8988 177.488 74.3148 177.488 74.7802C177.488 74.8496 177.484 74.9222 177.478 75.0014C177.471 75.0807 177.458 75.1698 177.438 75.2655H173.298V74.493H176.943L176.603 74.7934C176.603 74.4633 176.544 74.1827 176.428 73.9516C176.312 73.7205 176.147 73.5423 175.933 73.4135C175.718 73.2848 175.461 73.2221 175.16 73.2221C174.86 73.2221 174.566 73.2914 174.325 73.4267C174.084 73.5654 173.899 73.7569 173.767 74.0044C173.635 74.252 173.572 74.5459 173.572 74.8826C173.572 75.2193 173.642 75.5263 173.78 75.7871C173.919 76.0446 174.114 76.246 174.368 76.3846C174.622 76.5266 174.916 76.5959 175.246 76.5959C175.52 76.5959 175.774 76.5464 176.005 76.4507C176.237 76.3549 176.435 76.2097 176.6 76.0182L177.197 76.6256C176.956 76.8996 176.666 77.1109 176.329 77.2562C175.992 77.4014 175.629 77.4741 175.246 77.4741L175.236 77.4806Z" fill="#32AAAA"/>
<path d="M178.818 71.4922C178.646 71.4922 178.504 71.4361 178.396 71.3205C178.287 71.2083 178.23 71.063 178.23 70.8914C178.23 70.7197 178.287 70.5877 178.396 70.4721C178.504 70.3566 178.646 70.3004 178.818 70.3004C178.99 70.3004 179.132 70.3566 179.241 70.4721C179.35 70.5844 179.406 70.7263 179.406 70.8914C179.406 71.0564 179.35 71.205 179.241 71.3205C179.132 71.4328 178.99 71.4922 178.818 71.4922ZM178.343 77.375V72.4727H179.284V77.375H178.343Z" fill="#32AAAA"/>
<path d="M180.498 77.3783V70.0066H181.426V77.3783H180.498Z" fill="#32AAAA"/>
<path d="M186.89 77.4806C186.394 77.4806 185.952 77.3683 185.562 77.1439C185.173 76.9194 184.866 76.6157 184.638 76.2294C184.41 75.8432 184.298 75.4074 184.298 74.9188C184.298 74.4303 184.41 74.0044 184.635 73.6181C184.859 73.2319 185.16 72.9282 185.543 72.7037C185.926 72.4792 186.351 72.367 186.827 72.367C187.273 72.367 187.672 72.4693 188.025 72.6773C188.375 72.882 188.649 73.1692 188.847 73.5323C189.042 73.8987 189.141 74.3147 189.141 74.7802C189.141 74.8495 189.138 74.9221 189.131 75.0014C189.124 75.0806 189.111 75.1697 189.091 75.2655H184.952V74.493H188.596L188.256 74.7934C188.256 74.4633 188.197 74.1827 188.081 73.9516C187.966 73.7205 187.801 73.5422 187.586 73.4135C187.372 73.2847 187.114 73.222 186.814 73.222C186.513 73.222 186.219 73.2913 185.978 73.4267C185.737 73.5653 185.553 73.7568 185.421 74.0044C185.288 74.252 185.226 74.5458 185.226 74.8825C185.226 75.2192 185.295 75.5263 185.434 75.7871C185.572 76.0446 185.767 76.2459 186.021 76.3846C186.276 76.5265 186.569 76.5959 186.899 76.5959C187.173 76.5959 187.428 76.5463 187.659 76.4506C187.89 76.3549 188.088 76.2096 188.253 76.0181L188.85 76.6256C188.61 76.8996 188.319 77.1109 187.982 77.2561C187.646 77.4014 187.282 77.474 186.899 77.474L186.89 77.4806Z" fill="#32AAAA"/>
<path d="M189.541 73.321V72.4759H192.885V73.321H189.541ZM190.749 77.3782V70.4225H191.676V77.3782H190.749Z" fill="#32AAAA"/>
<path d="M195.787 77.3783V70.2146H196.757V77.3783H195.787ZM196.437 74.2619V73.4465H198.378C198.797 73.4465 199.121 73.3409 199.342 73.1263C199.567 72.9117 199.679 72.6245 199.679 72.2581C199.679 71.9147 199.567 71.6275 199.342 71.403C199.118 71.1753 198.801 71.063 198.388 71.063H196.437V70.2179H198.418C198.873 70.2179 199.266 70.307 199.606 70.482C199.946 70.657 200.204 70.8979 200.385 71.1984C200.567 71.5021 200.659 71.8487 200.659 72.2416C200.659 72.6344 200.567 73.0008 200.385 73.3046C200.204 73.6083 199.943 73.8427 199.606 74.011C199.269 74.1794 198.873 74.2652 198.418 74.2652H196.437V74.2619ZM199.916 77.3783L197.315 74.1695L198.233 73.8493L201.145 77.3783H199.916Z" fill="#32AAAA"/>
<path d="M203.941 77.4806C203.446 77.4806 203.003 77.3683 202.614 77.1439C202.224 76.9194 201.917 76.6157 201.689 76.2294C201.461 75.8432 201.349 75.4074 201.349 74.9188C201.349 74.4303 201.461 74.0044 201.686 73.6181C201.91 73.2319 202.211 72.9282 202.594 72.7037C202.977 72.4792 203.403 72.367 203.878 72.367C204.324 72.367 204.723 72.4693 205.076 72.6773C205.426 72.882 205.7 73.1692 205.898 73.5323C206.093 73.8987 206.192 74.3147 206.192 74.7802C206.192 74.8495 206.189 74.9221 206.182 75.0014C206.176 75.0806 206.162 75.1697 206.143 75.2655H202.003V74.493H205.647L205.307 74.7934C205.307 74.4633 205.248 74.1827 205.132 73.9516C205.017 73.7205 204.852 73.5422 204.637 73.4135C204.423 73.2847 204.165 73.222 203.865 73.222C203.564 73.222 203.271 73.2913 203.03 73.4267C202.789 73.5653 202.604 73.7568 202.472 74.0044C202.34 74.252 202.277 74.5458 202.277 74.8825C202.277 75.2192 202.346 75.5263 202.485 75.7871C202.624 76.0446 202.818 76.2459 203.072 76.3846C203.327 76.5265 203.62 76.5959 203.951 76.5959C204.225 76.5959 204.479 76.5463 204.71 76.4506C204.941 76.3549 205.139 76.2096 205.304 76.0181L205.902 76.6256C205.661 76.8996 205.37 77.1109 205.033 77.2561C204.697 77.4014 204.334 77.474 203.951 77.474L203.941 77.4806Z" fill="#32AAAA"/>
<path d="M208.605 77.4806C208.331 77.4806 208.067 77.4443 207.819 77.3716C207.572 77.299 207.347 77.1967 207.143 77.0613C206.941 76.926 206.763 76.7675 206.611 76.5827L207.209 75.9851C207.387 76.2063 207.595 76.3681 207.829 76.4737C208.064 76.5793 208.325 76.6355 208.615 76.6355C208.906 76.6355 209.127 76.586 209.285 76.4869C209.444 76.3879 209.523 76.2492 209.523 76.0677C209.523 75.8861 209.46 75.7507 209.331 75.6484C209.203 75.5494 209.041 75.4668 208.84 75.4008C208.638 75.3348 208.427 75.2721 208.206 75.2093C207.985 75.1466 207.77 75.0641 207.572 74.9617C207.374 74.8594 207.209 74.7141 207.08 74.5326C206.951 74.351 206.889 74.11 206.889 73.8162C206.889 73.5224 206.958 73.2649 207.1 73.047C207.242 72.8291 207.443 72.6641 207.704 72.5452C207.965 72.4264 208.278 72.3703 208.645 72.3703C209.031 72.3703 209.371 72.4363 209.671 72.5716C209.972 72.707 210.216 72.9084 210.411 73.1758L209.813 73.7733C209.668 73.595 209.496 73.4564 209.298 73.3606C209.1 73.2649 208.873 73.2154 208.618 73.2154C208.351 73.2154 208.146 73.2649 208.004 73.3606C207.862 73.4564 207.793 73.5851 207.793 73.7436C207.793 73.902 207.856 74.0374 207.978 74.1265C208.103 74.2157 208.265 74.2916 208.47 74.3543C208.671 74.417 208.882 74.4798 209.104 74.5458C209.325 74.6118 209.533 74.6976 209.734 74.8099C209.932 74.9188 210.097 75.0674 210.226 75.2522C210.352 75.4371 210.418 75.6814 210.418 75.9851C210.418 76.4473 210.252 76.8104 209.926 77.0778C209.599 77.3452 209.16 77.4806 208.608 77.4806H208.605Z" fill="#32AAAA"/>
<path d="M212.857 77.4806C212.583 77.4806 212.319 77.4443 212.072 77.3716C211.824 77.299 211.6 77.1967 211.395 77.0613C211.194 76.926 211.015 76.7675 210.863 76.5827L211.461 75.9851C211.639 76.2063 211.847 76.3681 212.082 76.4737C212.316 76.5793 212.577 76.6355 212.867 76.6355C213.158 76.6355 213.379 76.586 213.537 76.4869C213.696 76.3879 213.775 76.2492 213.775 76.0677C213.775 75.8861 213.712 75.7507 213.584 75.6484C213.455 75.5494 213.293 75.4668 213.092 75.4008C212.89 75.3348 212.679 75.2721 212.458 75.2093C212.237 75.1466 212.022 75.0641 211.824 74.9617C211.626 74.8594 211.461 74.7141 211.332 74.5326C211.203 74.351 211.141 74.11 211.141 73.8162C211.141 73.5224 211.21 73.2649 211.352 73.047C211.494 72.8291 211.695 72.6641 211.956 72.5452C212.217 72.4264 212.531 72.3703 212.897 72.3703C213.283 72.3703 213.623 72.4363 213.924 72.5716C214.224 72.707 214.468 72.9084 214.663 73.1758L214.066 73.7733C213.92 73.595 213.749 73.4564 213.551 73.3606C213.353 73.2649 213.125 73.2154 212.871 73.2154C212.603 73.2154 212.398 73.2649 212.257 73.3606C212.115 73.4564 212.045 73.5851 212.045 73.7436C212.045 73.902 212.108 74.0374 212.23 74.1265C212.356 74.2157 212.517 74.2916 212.722 74.3543C212.923 74.417 213.135 74.4798 213.356 74.5458C213.577 74.6118 213.785 74.6976 213.986 74.8099C214.184 74.9188 214.35 75.0674 214.478 75.2522C214.604 75.4371 214.67 75.6814 214.67 75.9851C214.67 76.4473 214.505 76.8104 214.178 77.0778C213.851 77.3452 213.412 77.4806 212.861 77.4806H212.857Z" fill="#32AAAA"/>
<path d="M217.783 77.4806C217.307 77.4806 216.878 77.3683 216.492 77.1406C216.106 76.9128 215.802 76.6058 215.574 76.2162C215.346 75.8267 215.234 75.3909 215.234 74.9089C215.234 74.4269 215.346 74.0044 215.574 73.6247C215.802 73.2418 216.109 72.9381 216.492 72.7103C216.878 72.4825 217.307 72.3703 217.783 72.3703C218.258 72.3703 218.7 72.4825 219.09 72.707C219.48 72.9315 219.787 73.2352 220.014 73.6214C220.242 74.0077 220.354 74.4368 220.354 74.9122C220.354 75.3876 220.242 75.83 220.014 76.2195C219.787 76.6091 219.48 76.9161 219.09 77.1439C218.7 77.3716 218.265 77.4839 217.783 77.4839V77.4806ZM217.783 76.5827C218.1 76.5827 218.377 76.51 218.618 76.3648C218.859 76.2195 219.047 76.0214 219.186 75.7705C219.324 75.5196 219.39 75.2324 219.39 74.9089C219.39 74.5854 219.321 74.3114 219.179 74.0638C219.037 73.8162 218.849 73.6214 218.611 73.4795C218.374 73.3375 218.096 73.2682 217.779 73.2682C217.462 73.2682 217.205 73.3375 216.964 73.4795C216.723 73.6214 216.535 73.8162 216.396 74.0638C216.258 74.3114 216.188 74.5953 216.188 74.9089C216.188 75.2225 216.258 75.5196 216.396 75.7705C216.535 76.0214 216.723 76.2195 216.964 76.3648C217.205 76.51 217.476 76.5827 217.779 76.5827H217.783Z" fill="#32AAAA"/>
<path d="M223.213 77.4608C222.807 77.4608 222.444 77.3717 222.124 77.1967C221.804 77.0218 221.553 76.7709 221.374 76.4473C221.196 76.1238 221.107 75.7475 221.107 75.3216V72.4727H222.035V75.2787C222.035 75.5461 222.081 75.7805 222.173 75.9753C222.266 76.17 222.401 76.3219 222.583 76.4242C222.761 76.5266 222.972 76.5794 223.213 76.5794C223.576 76.5794 223.864 76.4638 224.068 76.2328C224.273 76.0017 224.379 75.6848 224.379 75.2787V72.4727H225.306V75.3216C225.306 75.7475 225.217 76.1238 225.039 76.4473C224.861 76.7709 224.613 77.0218 224.296 77.1967C223.979 77.3717 223.619 77.4608 223.213 77.4608Z" fill="#32AAAA"/>
<path d="M226.402 77.3783V72.476H227.33V77.3783H226.402ZM227.33 74.592L226.98 74.427C226.98 73.7998 227.125 73.3013 227.412 72.9315C227.703 72.5618 228.119 72.3736 228.66 72.3736C228.908 72.3736 229.132 72.4165 229.33 72.5024C229.528 72.5882 229.717 72.7302 229.888 72.9315L229.281 73.5621C229.178 73.4531 229.063 73.3739 228.941 73.3244C228.815 73.2749 228.673 73.2517 228.508 73.2517C228.165 73.2517 227.881 73.3607 227.663 73.5819C227.442 73.8031 227.333 74.1398 227.333 74.592H227.33Z" fill="#32AAAA"/>
<path d="M232.47 77.4806C231.988 77.4806 231.552 77.3683 231.163 77.1406C230.773 76.9128 230.466 76.6058 230.245 76.2162C230.024 75.8267 229.908 75.3942 229.908 74.9221C229.908 74.45 230.02 74.0077 230.245 73.6214C230.469 73.2352 230.776 72.9315 231.163 72.707C231.552 72.4825 231.988 72.3703 232.47 72.3703C232.849 72.3703 233.199 72.4396 233.523 72.5815C233.846 72.7235 234.124 72.9282 234.358 73.1956L233.738 73.8162C233.586 73.6379 233.401 73.5026 233.18 73.4069C232.958 73.3111 232.721 73.2682 232.467 73.2682C232.156 73.2682 231.882 73.3375 231.641 73.4795C231.4 73.6214 231.212 73.8162 231.073 74.0638C230.935 74.3114 230.865 74.5986 230.865 74.9221C230.865 75.2456 230.935 75.5296 231.073 75.7771C231.212 76.0247 231.4 76.2195 231.641 76.3648C231.882 76.51 232.156 76.5827 232.467 76.5827C232.727 76.5827 232.968 76.5364 233.183 76.444C233.401 76.3516 233.586 76.2162 233.744 76.0379L234.352 76.6586C234.124 76.9194 233.846 77.124 233.52 77.266C233.193 77.4113 232.84 77.4839 232.46 77.4839L232.47 77.4806Z" fill="#32AAAA"/>
<path d="M237.395 77.4806C236.9 77.4806 236.458 77.3684 236.068 77.1439C235.679 76.9194 235.372 76.6157 235.144 76.2295C234.916 75.8432 234.804 75.4075 234.804 74.9189C234.804 74.4303 234.916 74.0045 235.141 73.6182C235.365 73.232 235.666 72.9283 236.049 72.7038C236.431 72.4793 236.857 72.367 237.333 72.367C237.778 72.367 238.178 72.4694 238.531 72.6774C238.881 72.882 239.155 73.1692 239.353 73.5324C239.548 73.8988 239.647 74.3148 239.647 74.7802C239.647 74.8496 239.644 74.9222 239.637 75.0014C239.63 75.0807 239.617 75.1698 239.597 75.2655H235.458V74.493H239.102L238.762 74.7934C238.762 74.4633 238.703 74.1827 238.587 73.9516C238.472 73.7205 238.307 73.5423 238.092 73.4135C237.877 73.2848 237.62 73.2221 237.319 73.2221C237.019 73.2221 236.725 73.2914 236.484 73.4267C236.243 73.5654 236.058 73.7569 235.926 74.0044C235.794 74.252 235.732 74.5459 235.732 74.8826C235.732 75.2193 235.801 75.5263 235.94 75.7871C236.078 76.0446 236.273 76.246 236.527 76.3846C236.781 76.5266 237.075 76.5959 237.405 76.5959C237.679 76.5959 237.934 76.5464 238.165 76.4507C238.396 76.3549 238.594 76.2097 238.759 76.0182L239.356 76.6256C239.115 76.8996 238.825 77.1109 238.488 77.2562C238.151 77.4014 237.788 77.4741 237.405 77.4741L237.395 77.4806Z" fill="#32AAAA"/>
<path d="M80.7483 91.227V84.268H81.6759V85.5587L81.501 86.7472L81.6759 87.9455V91.227H80.7483ZM83.3299 89.2759C82.9568 89.2759 82.6234 89.2 82.323 89.0448C82.0226 88.8897 81.7849 88.6751 81.6066 88.4011C81.4283 88.1271 81.3293 87.8135 81.3062 87.4602V85.9846C81.326 85.6281 81.4283 85.3111 81.6099 85.0404C81.7915 84.7697 82.0325 84.5552 82.3329 84.4C82.6333 84.2448 82.9634 84.1689 83.3299 84.1689C83.7755 84.1689 84.1816 84.2812 84.5414 84.5089C84.9012 84.7367 85.1852 85.0437 85.3931 85.4267C85.6011 85.8129 85.7034 86.2454 85.7034 86.7274C85.7034 87.2094 85.6011 87.6418 85.3931 88.0281C85.1885 88.4143 84.9012 88.718 84.5414 88.9425C84.1816 89.167 83.7755 89.2792 83.3299 89.2792V89.2759ZM83.1747 88.3978C83.485 88.3978 83.7557 88.3252 83.9901 88.1799C84.2245 88.0347 84.4094 87.8366 84.5414 87.5857C84.6768 87.3348 84.7428 87.0443 84.7428 86.7142C84.7428 86.384 84.6768 86.1034 84.5414 85.8525C84.4061 85.6017 84.2245 85.4036 83.9901 85.2583C83.7557 85.1131 83.485 85.0404 83.1747 85.0404C82.8644 85.0404 82.6036 85.1131 82.3692 85.2583C82.1348 85.4036 81.9532 85.6017 81.8212 85.8525C81.6891 86.1034 81.6264 86.3939 81.6264 86.7241C81.6264 87.0542 81.6891 87.3348 81.8179 87.5857C81.9466 87.8366 82.1282 88.0347 82.3659 88.1799C82.6036 88.3252 82.8743 88.3978 83.1747 88.3978Z" fill="#32AAAA"/>
<path d="M88.8299 89.2759C88.3545 89.2759 87.9254 89.1637 87.5392 88.9359C87.1529 88.7081 86.8492 88.4011 86.6214 88.0116C86.3936 87.622 86.2814 87.1863 86.2814 86.7043C86.2814 86.2223 86.3936 85.7997 86.6214 85.4201C86.8492 85.0372 87.1562 84.7334 87.5392 84.5057C87.9254 84.2779 88.3545 84.1656 88.8299 84.1656C89.3053 84.1656 89.7477 84.2779 90.1372 84.5024C90.5268 84.7268 90.8338 85.0305 91.0616 85.4168C91.2894 85.803 91.4016 86.2322 91.4016 86.7076C91.4016 87.183 91.2894 87.6253 91.0616 88.0149C90.8338 88.4044 90.5268 88.7114 90.1372 88.9392C89.7477 89.167 89.3119 89.2792 88.8299 89.2792V89.2759ZM88.8299 88.378C89.1468 88.378 89.4242 88.3054 89.6651 88.1601C89.9061 88.0149 90.0943 87.8168 90.233 87.5659C90.3716 87.315 90.4376 87.0278 90.4376 86.7043C90.4376 86.3808 90.3683 86.1067 90.2264 85.8592C90.0844 85.6116 89.8962 85.4168 89.6585 85.2748C89.4209 85.1329 89.1436 85.0636 88.8266 85.0636C88.5097 85.0636 88.2522 85.1329 88.0112 85.2748C87.7702 85.4168 87.5821 85.6116 87.4434 85.8592C87.3048 86.1067 87.2354 86.3907 87.2354 86.7043C87.2354 87.0179 87.3048 87.315 87.4434 87.5659C87.5821 87.8168 87.7702 88.0149 88.0112 88.1601C88.2522 88.3054 88.5229 88.378 88.8266 88.378H88.8299Z" fill="#32AAAA"/>
<path d="M94.2601 89.2561C93.8541 89.2561 93.4909 89.167 93.1707 88.992C92.8505 88.817 92.5996 88.5661 92.4213 88.2426C92.2431 87.9191 92.1539 87.5428 92.1539 87.1169V84.2679H93.0816V87.074C93.0816 87.3414 93.1278 87.5758 93.2202 87.7706C93.3127 87.9653 93.448 88.1172 93.6296 88.2195C93.8079 88.3219 94.0191 88.3747 94.2601 88.3747C94.6233 88.3747 94.9105 88.2591 95.1151 88.028C95.3198 87.797 95.4255 87.48 95.4255 87.074V84.2679H96.3531V87.1169C96.3531 87.5428 96.264 87.9191 96.0857 88.2426C95.9074 88.5661 95.6598 88.817 95.3429 88.992C95.026 89.167 94.6662 89.2561 94.2601 89.2561Z" fill="#32AAAA"/>
<path d="M97.4493 89.1736V84.2713H98.377V89.1736H97.4493ZM98.377 86.3873L98.0271 86.2223C98.0271 85.595 98.1723 85.0966 98.4595 84.7268C98.75 84.3571 99.166 84.1689 99.7074 84.1689C99.955 84.1689 100.179 84.2118 100.378 84.2977C100.576 84.3835 100.764 84.5254 100.935 84.7268L100.328 85.3574C100.226 85.2484 100.11 85.1692 99.988 85.1197C99.8625 85.0702 99.7206 85.047 99.5555 85.047C99.2122 85.047 98.9283 85.156 98.7104 85.3772C98.4892 85.5984 98.3803 85.9351 98.3803 86.3873H98.377Z" fill="#32AAAA"/>
<path d="M103.603 89.1736V81.802H104.53V89.1736H103.603Z" fill="#32AAAA"/>
<path d="M108.01 89.2759C107.515 89.2759 107.072 89.1637 106.683 88.9392C106.293 88.7147 105.986 88.411 105.758 88.0248C105.531 87.6385 105.418 87.2028 105.418 86.7142C105.418 86.2256 105.531 85.7997 105.755 85.4135C105.98 85.0273 106.28 84.7235 106.663 84.499C107.046 84.2746 107.472 84.1623 107.947 84.1623C108.393 84.1623 108.792 84.2647 109.145 84.4726C109.495 84.6773 109.769 84.9645 109.967 85.3277C110.162 85.6941 110.261 86.1101 110.261 86.5755C110.261 86.6449 110.258 86.7175 110.251 86.7967C110.245 86.8759 110.232 86.9651 110.212 87.0608H106.072V86.2883H109.717L109.377 86.5887C109.377 86.2586 109.317 85.978 109.202 85.7469C109.086 85.5158 108.921 85.3376 108.706 85.2088C108.492 85.0801 108.234 85.0173 107.934 85.0173C107.633 85.0173 107.34 85.0867 107.099 85.222C106.858 85.3607 106.673 85.5521 106.541 85.7997C106.409 86.0473 106.346 86.3411 106.346 86.6779C106.346 87.0146 106.415 87.3216 106.554 87.5824C106.693 87.8399 106.887 88.0413 107.142 88.1799C107.396 88.3219 107.69 88.3912 108.02 88.3912C108.294 88.3912 108.548 88.3417 108.779 88.246C109.01 88.1502 109.208 88.005 109.373 87.8135L109.971 88.4209C109.73 88.6949 109.439 88.9062 109.103 89.0515C108.766 89.1967 108.403 89.2693 108.02 89.2693L108.01 89.2759Z" fill="#32AAAA"/>
<path d="M112.675 89.2759C112.401 89.2759 112.137 89.2396 111.889 89.167C111.641 89.0944 111.417 88.992 111.212 88.8567C111.011 88.7213 110.833 88.5629 110.681 88.378L111.278 87.7805C111.456 88.0017 111.664 88.1634 111.899 88.2691C112.133 88.3747 112.394 88.4308 112.685 88.4308C112.975 88.4308 113.196 88.3813 113.355 88.2823C113.513 88.1832 113.592 88.0446 113.592 87.863C113.592 87.6814 113.53 87.5461 113.401 87.4438C113.272 87.3447 113.11 87.2622 112.909 87.1962C112.708 87.1301 112.496 87.0674 112.275 87.0047C112.054 86.942 111.839 86.8594 111.641 86.7571C111.443 86.6548 111.278 86.5095 111.149 86.3279C111.021 86.1464 110.958 85.9054 110.958 85.6116C110.958 85.3178 111.027 85.0603 111.169 84.8424C111.311 84.6245 111.513 84.4594 111.773 84.3406C112.034 84.2217 112.348 84.1656 112.714 84.1656C113.1 84.1656 113.441 84.2316 113.741 84.367C114.041 84.5024 114.286 84.7037 114.48 84.9711L113.883 85.5686C113.738 85.3904 113.566 85.2517 113.368 85.156C113.17 85.0603 112.942 85.0107 112.688 85.0107C112.42 85.0107 112.216 85.0603 112.074 85.156C111.932 85.2517 111.863 85.3805 111.863 85.5389C111.863 85.6974 111.925 85.8327 112.047 85.9219C112.173 86.011 112.335 86.0869 112.539 86.1497C112.741 86.2124 112.952 86.2751 113.173 86.3411C113.394 86.4072 113.602 86.493 113.804 86.6052C114.002 86.7142 114.167 86.8627 114.296 87.0476C114.421 87.2325 114.487 87.4768 114.487 87.7805C114.487 88.2427 114.322 88.6058 113.995 88.8732C113.668 89.1406 113.229 89.2759 112.678 89.2759H112.675Z" fill="#32AAAA"/>
<path d="M120.746 89.2759C120.251 89.2759 119.786 89.1802 119.346 88.992C118.911 88.8039 118.528 88.5398 118.201 88.203C117.874 87.8663 117.617 87.4735 117.432 87.0278C117.247 86.5821 117.154 86.1001 117.154 85.5818C117.154 85.0635 117.247 84.5849 117.432 84.1425C117.617 83.7001 117.874 83.3073 118.208 82.9706C118.538 82.6338 118.924 82.373 119.37 82.1849C119.812 82 120.297 81.9076 120.819 81.9076C121.39 81.9076 121.918 82.0165 122.397 82.2377C122.875 82.4589 123.282 82.7758 123.605 83.1884L122.935 83.8586C122.707 83.5285 122.41 83.2743 122.037 83.0993C121.667 82.9243 121.258 82.8352 120.819 82.8352C120.297 82.8352 119.832 82.9508 119.429 83.1851C119.026 83.4195 118.713 83.743 118.488 84.1557C118.264 84.5684 118.151 85.0437 118.151 85.5818C118.151 86.1199 118.264 86.6052 118.491 87.0179C118.719 87.4305 119.026 87.7541 119.409 87.9884C119.795 88.2228 120.231 88.3384 120.72 88.3384C121.208 88.3384 121.667 88.2426 122.037 88.0479C122.407 87.8564 122.687 87.5725 122.882 87.1962C123.077 86.8198 123.179 86.3609 123.186 85.8195L123.773 86.252H120.677V85.3541H124.186V85.4993C124.186 86.3312 124.041 87.0278 123.747 87.589C123.453 88.1502 123.047 88.5728 122.529 88.8534C122.011 89.1373 121.413 89.2759 120.74 89.2759H120.746Z" fill="#32AAAA"/>
<path d="M125.163 89.1736V84.2713H126.091V89.1736H125.163ZM126.091 86.3873L125.741 86.2223C125.741 85.595 125.886 85.0966 126.174 84.7268C126.464 84.3571 126.88 84.1689 127.421 84.1689C127.669 84.1689 127.893 84.2118 128.092 84.2977C128.29 84.3835 128.478 84.5254 128.649 84.7268L128.042 85.3574C127.94 85.2484 127.824 85.1692 127.702 85.1197C127.577 85.0702 127.435 85.047 127.27 85.047C126.926 85.047 126.642 85.156 126.424 85.3772C126.203 85.5984 126.094 85.9351 126.094 86.3873H126.091Z" fill="#32AAAA"/>
<path d="M131.221 89.2759C130.746 89.2759 130.317 89.1637 129.93 88.9359C129.544 88.7081 129.24 88.4011 129.013 88.0116C128.785 87.622 128.672 87.1863 128.672 86.7043C128.672 86.2223 128.785 85.7997 129.013 85.4201C129.24 85.0372 129.547 84.7334 129.93 84.5057C130.317 84.2779 130.746 84.1656 131.221 84.1656C131.696 84.1656 132.139 84.2779 132.528 84.5024C132.918 84.7268 133.225 85.0305 133.453 85.4168C133.68 85.803 133.793 86.2322 133.793 86.7076C133.793 87.183 133.68 87.6253 133.453 88.0149C133.225 88.4044 132.918 88.7114 132.528 88.9392C132.139 89.167 131.703 89.2792 131.221 89.2792V89.2759ZM131.221 88.378C131.538 88.378 131.815 88.3054 132.056 88.1601C132.297 88.0149 132.485 87.8168 132.624 87.5659C132.763 87.315 132.829 87.0278 132.829 86.7043C132.829 86.3808 132.759 86.1067 132.617 85.8592C132.476 85.6116 132.287 85.4168 132.05 85.2748C131.812 85.1329 131.535 85.0636 131.218 85.0636C130.901 85.0636 130.643 85.1329 130.402 85.2748C130.161 85.4168 129.973 85.6116 129.835 85.8592C129.696 86.1067 129.627 86.3907 129.627 86.7043C129.627 87.0179 129.696 87.315 129.835 87.5659C129.973 87.8168 130.161 88.0149 130.402 88.1601C130.643 88.3054 130.914 88.378 131.218 88.378H131.221Z" fill="#32AAAA"/>
<path d="M136.651 89.2561C136.245 89.2561 135.882 89.167 135.562 88.992C135.242 88.817 134.991 88.5661 134.813 88.2426C134.634 87.9191 134.545 87.5428 134.545 87.1169V84.2679H135.473V87.074C135.473 87.3414 135.519 87.5758 135.612 87.7706C135.704 87.9653 135.839 88.1172 136.021 88.2195C136.199 88.3219 136.41 88.3747 136.651 88.3747C137.015 88.3747 137.302 88.2591 137.506 88.028C137.711 87.797 137.817 87.48 137.817 87.074V84.2679H138.744V87.1169C138.744 87.5428 138.655 87.9191 138.477 88.2426C138.299 88.5661 138.051 88.817 137.734 88.992C137.417 89.167 137.058 89.2561 136.651 89.2561Z" fill="#32AAAA"/>
<path d="M139.84 91.227V84.268H140.768V85.5587L140.593 86.7472L140.768 87.9455V91.227H139.84ZM142.422 89.2759C142.049 89.2759 141.716 89.2 141.415 89.0448C141.115 88.8897 140.877 88.6751 140.699 88.4011C140.521 88.1271 140.421 87.8135 140.398 87.4602V85.9846C140.418 85.6281 140.521 85.3111 140.702 85.0404C140.884 84.7697 141.125 84.5552 141.425 84.4C141.725 84.2448 142.056 84.1689 142.422 84.1689C142.868 84.1689 143.274 84.2812 143.634 84.5089C143.993 84.7367 144.277 85.0437 144.485 85.4267C144.693 85.8129 144.796 86.2454 144.796 86.7274C144.796 87.2094 144.693 87.6418 144.485 88.0281C144.281 88.4143 143.993 88.718 143.634 88.9425C143.274 89.167 142.868 89.2792 142.422 89.2792V89.2759ZM142.267 88.3978C142.577 88.3978 142.848 88.3252 143.082 88.1799C143.317 88.0347 143.502 87.8366 143.634 87.5857C143.769 87.3348 143.835 87.0443 143.835 86.7142C143.835 86.384 143.769 86.1034 143.634 85.8525C143.498 85.6017 143.317 85.4036 143.082 85.2583C142.848 85.1131 142.577 85.0404 142.267 85.0404C141.957 85.0404 141.696 85.1131 141.461 85.2583C141.227 85.4036 141.045 85.6017 140.913 85.8525C140.781 86.1034 140.719 86.3939 140.719 86.7241C140.719 87.0542 140.781 87.3348 140.91 87.5857C141.039 87.8366 141.22 88.0347 141.458 88.1799C141.696 88.3252 141.966 88.3978 142.267 88.3978Z" fill="#32AAAA"/>
<path d="M147.965 89.2759C147.47 89.2759 147.027 89.1637 146.638 88.9392C146.248 88.7147 145.941 88.411 145.713 88.0248C145.486 87.6385 145.373 87.2028 145.373 86.7142C145.373 86.2256 145.486 85.7997 145.71 85.4135C145.935 85.0273 146.235 84.7235 146.618 84.499C147.001 84.2746 147.427 84.1623 147.902 84.1623C148.348 84.1623 148.747 84.2647 149.101 84.4726C149.45 84.6773 149.724 84.9645 149.923 85.3277C150.117 85.6941 150.216 86.1101 150.216 86.5755C150.216 86.6449 150.213 86.7175 150.206 86.7967C150.2 86.8759 150.187 86.9651 150.167 87.0608H146.027V86.2883H149.672L149.332 86.5887C149.332 86.2586 149.272 85.978 149.157 85.7469C149.041 85.5158 148.876 85.3376 148.661 85.2088C148.447 85.0801 148.189 85.0173 147.889 85.0173C147.589 85.0173 147.295 85.0867 147.054 85.222C146.813 85.3607 146.628 85.5521 146.496 85.7997C146.364 86.0473 146.301 86.3411 146.301 86.6779C146.301 87.0146 146.37 87.3216 146.509 87.5824C146.648 87.8399 146.842 88.0413 147.097 88.1799C147.351 88.3219 147.645 88.3912 147.975 88.3912C148.249 88.3912 148.503 88.3417 148.734 88.246C148.965 88.1502 149.163 88.005 149.328 87.8135L149.926 88.4209C149.685 88.6949 149.394 88.9062 149.058 89.0515C148.721 89.1967 148.358 89.2693 147.975 89.2693L147.965 89.2759Z" fill="#32AAAA"/>
<path d="M151.071 89.1736V84.2712H151.999V89.1736H151.071ZM154.386 89.1736V86.2124C154.386 85.8492 154.274 85.562 154.049 85.3508C153.825 85.1395 153.544 85.0371 153.207 85.0371C152.98 85.0371 152.778 85.0867 152.6 85.1824C152.422 85.2781 152.276 85.4135 152.167 85.5851C152.058 85.7568 152.002 85.9681 152.002 86.2157L151.619 86.0209C151.619 85.6479 151.702 85.3243 151.864 85.0503C152.025 84.7763 152.247 84.5585 152.531 84.4066C152.811 84.2514 153.128 84.1755 153.481 84.1755C153.835 84.1755 154.138 84.2514 154.416 84.4033C154.693 84.5551 154.914 84.7664 155.076 85.0437C155.238 85.3177 155.32 85.6446 155.32 86.0242V89.1835H154.392L154.386 89.1736ZM157.7 89.1736V86.2124C157.7 85.8492 157.588 85.562 157.364 85.3508C157.139 85.1395 156.862 85.0371 156.532 85.0371C156.304 85.0371 156.099 85.0867 155.918 85.1824C155.736 85.2781 155.588 85.4135 155.479 85.5851C155.37 85.7568 155.314 85.9681 155.314 86.2157L154.789 86.0209C154.808 85.6413 154.911 85.3177 155.092 85.0437C155.274 84.773 155.512 84.5584 155.799 84.4033C156.089 84.2481 156.403 84.1722 156.75 84.1722C157.096 84.1722 157.426 84.2481 157.71 84.4C157.991 84.5519 158.219 84.7631 158.387 85.0404C158.555 85.3177 158.641 85.6446 158.641 86.0308V89.1802H157.704L157.7 89.1736Z" fill="#32AAAA"/>
<path d="M162.012 89.2759C161.516 89.2759 161.074 89.1637 160.685 88.9392C160.295 88.7147 159.988 88.411 159.76 88.0248C159.532 87.6385 159.42 87.2028 159.42 86.7142C159.42 86.2256 159.532 85.7997 159.757 85.4135C159.981 85.0273 160.282 84.7235 160.665 84.499C161.048 84.2746 161.474 84.1623 161.949 84.1623C162.395 84.1623 162.794 84.2647 163.147 84.4726C163.497 84.6773 163.771 84.9645 163.969 85.3277C164.164 85.6941 164.263 86.1101 164.263 86.5755C164.263 86.6449 164.26 86.7175 164.253 86.7967C164.247 86.8759 164.233 86.9651 164.214 87.0608H160.074V86.2883H163.718L163.378 86.5887C163.378 86.2586 163.319 85.978 163.203 85.7469C163.088 85.5158 162.923 85.3376 162.708 85.2088C162.494 85.0801 162.236 85.0173 161.936 85.0173C161.635 85.0173 161.341 85.0867 161.101 85.222C160.86 85.3607 160.675 85.5521 160.543 85.7997C160.411 86.0473 160.348 86.3411 160.348 86.6779C160.348 87.0146 160.417 87.3216 160.556 87.5824C160.694 87.8399 160.889 88.0413 161.143 88.1799C161.398 88.3219 161.691 88.3912 162.022 88.3912C162.296 88.3912 162.55 88.3417 162.781 88.246C163.012 88.1502 163.21 88.005 163.375 87.8135L163.973 88.4209C163.732 88.6949 163.441 88.9062 163.104 89.0515C162.768 89.1967 162.404 89.2693 162.022 89.2693L162.012 89.2759Z" fill="#32AAAA"/>
<path d="M165.118 89.1736V84.2713H166.046V89.1736H165.118ZM168.574 89.1736V86.3147C168.574 85.9417 168.459 85.638 168.228 85.397C167.997 85.156 167.696 85.0371 167.323 85.0371C167.076 85.0371 166.854 85.0933 166.663 85.2022C166.472 85.3111 166.32 85.463 166.207 85.6578C166.099 85.8492 166.042 86.0704 166.042 86.318L165.659 86.1001C165.659 85.7271 165.742 85.397 165.907 85.1098C166.072 84.8193 166.303 84.5915 166.597 84.4231C166.894 84.2548 167.228 84.1689 167.597 84.1689C167.967 84.1689 168.297 84.2613 168.584 84.4462C168.872 84.6311 169.096 84.8754 169.261 85.1725C169.426 85.4729 169.509 85.7898 169.509 86.1265V89.1703H168.568L168.574 89.1736Z" fill="#32AAAA"/>
<path d="M170.166 85.1164V84.2713H173.51V85.1164H170.166ZM171.374 89.1736V82.2179H172.302V89.1736H171.374Z" fill="#32AAAA"/>
<path d="M175.718 89.2759C175.444 89.2759 175.18 89.2396 174.933 89.167C174.685 89.0944 174.461 88.992 174.256 88.8567C174.054 88.7213 173.876 88.5629 173.724 88.378L174.322 87.7805C174.5 88.0017 174.708 88.1634 174.943 88.2691C175.177 88.3747 175.438 88.4308 175.728 88.4308C176.019 88.4308 176.24 88.3813 176.398 88.2823C176.557 88.1832 176.636 88.0446 176.636 87.863C176.636 87.6814 176.573 87.5461 176.445 87.4438C176.316 87.3447 176.154 87.2622 175.953 87.1962C175.751 87.1301 175.54 87.0674 175.319 87.0047C175.098 86.942 174.883 86.8594 174.685 86.7571C174.487 86.6548 174.322 86.5095 174.193 86.3279C174.064 86.1464 174.002 85.9054 174.002 85.6116C174.002 85.3178 174.071 85.0603 174.213 84.8424C174.355 84.6245 174.556 84.4594 174.817 84.3406C175.078 84.2217 175.392 84.1656 175.758 84.1656C176.144 84.1656 176.484 84.2316 176.785 84.367C177.085 84.5024 177.329 84.7037 177.524 84.9711L176.927 85.5686C176.781 85.3904 176.61 85.2517 176.412 85.156C176.214 85.0603 175.986 85.0107 175.732 85.0107C175.464 85.0107 175.259 85.0603 175.117 85.156C174.976 85.2517 174.906 85.3805 174.906 85.5389C174.906 85.6974 174.969 85.8327 175.091 85.9219C175.217 86.011 175.378 86.0869 175.583 86.1497C175.784 86.2124 175.996 86.2751 176.217 86.3411C176.438 86.4072 176.646 86.493 176.847 86.6052C177.045 86.7142 177.21 86.8627 177.339 87.0476C177.465 87.2325 177.531 87.4768 177.531 87.7805C177.531 88.2427 177.366 88.6058 177.039 88.8732C176.712 89.1406 176.273 89.2759 175.722 89.2759H175.718Z" fill="#32AAAA"/>
<path d="M182.459 89.2759C182.01 89.2759 181.608 89.1636 181.251 88.9392C180.895 88.7147 180.611 88.411 180.399 88.0247C180.188 87.6385 180.086 87.206 180.086 86.724C180.086 86.242 180.191 85.8096 180.399 85.4233C180.611 85.0371 180.895 84.7334 181.251 84.5056C181.608 84.2778 182.01 84.1656 182.459 84.1656C182.829 84.1656 183.166 84.2415 183.46 84.3967C183.757 84.5518 183.994 84.7664 184.176 85.0371C184.358 85.3078 184.46 85.6247 184.48 85.9812V87.4569C184.46 87.8068 184.361 88.1205 184.179 88.3978C184.001 88.6718 183.763 88.8896 183.466 89.0415C183.169 89.1967 182.832 89.2726 182.456 89.2726L182.459 89.2759ZM182.615 88.3978C182.925 88.3978 183.196 88.3251 183.43 88.1799C183.664 88.0346 183.846 87.8365 183.978 87.5857C184.11 87.3348 184.173 87.0475 184.173 86.724C184.173 86.4005 184.107 86.1034 183.978 85.8525C183.846 85.6016 183.664 85.4035 183.43 85.2583C183.196 85.113 182.925 85.0404 182.615 85.0404C182.304 85.0404 182.034 85.1097 181.799 85.2517C181.565 85.3936 181.38 85.5884 181.248 85.8393C181.113 86.0902 181.046 86.3807 181.046 86.7108C181.046 87.041 181.113 87.3348 181.248 87.589C181.383 87.8432 181.568 88.0412 181.806 88.1832C182.043 88.3251 182.314 88.3945 182.615 88.3945V88.3978ZM185.051 89.1702H184.113V87.8497L184.288 86.6514L184.113 85.463V81.7986H185.051V89.1702Z" fill="#32AAAA"/>
<path d="M186.167 84.2911L186.807 83.063L187.137 82.9805C187.104 83.0564 187.061 83.1191 187.009 83.1653C186.956 83.2149 186.893 83.238 186.817 83.238C186.672 83.238 186.54 83.1785 186.421 83.063C186.302 82.9475 186.239 82.7956 186.239 82.6074C186.239 82.4193 186.305 82.2509 186.441 82.1122C186.576 81.9736 186.738 81.9043 186.929 81.9043C187.108 81.9043 187.266 81.9736 187.405 82.1122C187.543 82.2509 187.613 82.416 187.613 82.6074C187.613 82.69 187.596 82.7857 187.566 82.8913C187.537 82.997 187.474 83.1323 187.385 83.3007L186.705 84.5816L186.167 84.2911Z" fill="#32AAAA"/>
<path d="M188.828 89.1736V82.0099H189.798V89.1736H188.828ZM189.488 82.8979V82.0099H193.545V82.8979H189.488ZM189.488 85.9417V85.0866H193.255V85.9417H189.488ZM189.488 89.1736V88.2855H193.595V89.1736H189.488Z" fill="#32AAAA"/>
<path d="M194.598 89.1736V84.2712H195.526V89.1736H194.598ZM197.912 89.1736V86.2124C197.912 85.8492 197.8 85.562 197.576 85.3508C197.351 85.1395 197.071 85.0371 196.734 85.0371C196.506 85.0371 196.305 85.0867 196.126 85.1824C195.948 85.2781 195.803 85.4135 195.694 85.5851C195.585 85.7568 195.529 85.9681 195.529 86.2157L195.146 86.0209C195.146 85.6479 195.229 85.3243 195.39 85.0503C195.552 84.7763 195.773 84.5585 196.057 84.4066C196.338 84.2514 196.655 84.1755 197.008 84.1755C197.361 84.1755 197.665 84.2514 197.942 84.4033C198.219 84.5551 198.441 84.7664 198.602 85.0437C198.764 85.3177 198.847 85.6446 198.847 86.0242V89.1835H197.919L197.912 89.1736ZM201.227 89.1736V86.2124C201.227 85.8492 201.115 85.562 200.89 85.3508C200.666 85.1395 200.388 85.0371 200.058 85.0371C199.83 85.0371 199.626 85.0867 199.444 85.1824C199.263 85.2781 199.114 85.4135 199.005 85.5851C198.896 85.7568 198.84 85.9681 198.84 86.2157L198.315 86.0209C198.335 85.6413 198.437 85.3177 198.619 85.0437C198.801 84.773 199.038 84.5584 199.325 84.4033C199.616 84.2481 199.93 84.1722 200.276 84.1722C200.623 84.1722 200.953 84.2481 201.237 84.4C201.517 84.5519 201.745 84.7631 201.914 85.0404C202.082 85.3177 202.168 85.6446 202.168 86.0308V89.1802H201.23L201.227 89.1736Z" fill="#32AAAA"/>
<path d="M203.267 91.227V84.268H204.195V85.5587L204.02 86.7472L204.195 87.9455V91.227H203.267ZM205.849 89.2759C205.475 89.2759 205.142 89.2 204.842 89.0448C204.541 88.8897 204.304 88.6751 204.125 88.4011C203.947 88.1271 203.848 87.8135 203.825 87.4602V85.9846C203.845 85.6281 203.947 85.3111 204.129 85.0404C204.31 84.7697 204.551 84.5552 204.852 84.4C205.152 84.2448 205.482 84.1689 205.849 84.1689C206.294 84.1689 206.7 84.2812 207.06 84.5089C207.42 84.7367 207.704 85.0437 207.912 85.4267C208.12 85.8129 208.222 86.2454 208.222 86.7274C208.222 87.2094 208.12 87.6418 207.912 88.0281C207.707 88.4143 207.42 88.718 207.06 88.9425C206.7 89.167 206.294 89.2792 205.849 89.2792V89.2759ZM205.693 88.3978C206.004 88.3978 206.274 88.3252 206.509 88.1799C206.743 88.0347 206.928 87.8366 207.06 87.5857C207.195 87.3348 207.261 87.0443 207.261 86.7142C207.261 86.384 207.195 86.1034 207.06 85.8525C206.925 85.6017 206.743 85.4036 206.509 85.2583C206.274 85.1131 206.004 85.0404 205.693 85.0404C205.383 85.0404 205.122 85.1131 204.888 85.2583C204.653 85.4036 204.472 85.6017 204.34 85.8525C204.208 86.1034 204.145 86.3939 204.145 86.7241C204.145 87.0542 204.208 87.3348 204.337 87.5857C204.465 87.8366 204.647 88.0347 204.885 88.1799C205.122 88.3252 205.393 88.3978 205.693 88.3978Z" fill="#32AAAA"/>
<path d="M209.12 89.1736V81.802H210.048V89.1736H209.12Z" fill="#32AAAA"/>
<path d="M213.488 89.2759C213.012 89.2759 212.583 89.1637 212.197 88.9359C211.811 88.7081 211.507 88.4011 211.279 88.0116C211.051 87.622 210.939 87.1863 210.939 86.7043C210.939 86.2223 211.051 85.7997 211.279 85.4201C211.507 85.0372 211.814 84.7334 212.197 84.5057C212.583 84.2779 213.012 84.1656 213.488 84.1656C213.963 84.1656 214.406 84.2779 214.795 84.5024C215.185 84.7268 215.492 85.0305 215.719 85.4168C215.947 85.803 216.059 86.2322 216.059 86.7076C216.059 87.183 215.947 87.6253 215.719 88.0149C215.492 88.4044 215.185 88.7114 214.795 88.9392C214.406 89.167 213.97 89.2792 213.488 89.2792V89.2759ZM213.488 88.378C213.805 88.378 214.082 88.3054 214.323 88.1601C214.564 88.0149 214.752 87.8168 214.891 87.5659C215.029 87.315 215.095 87.0278 215.095 86.7043C215.095 86.3808 215.026 86.1067 214.884 85.8592C214.742 85.6116 214.554 85.4168 214.316 85.2748C214.079 85.1329 213.801 85.0636 213.484 85.0636C213.168 85.0636 212.91 85.1329 212.669 85.2748C212.428 85.4168 212.24 85.6116 212.101 85.8592C211.963 86.1067 211.893 86.3907 211.893 86.7043C211.893 87.0179 211.963 87.315 212.101 87.5659C212.24 87.8168 212.428 88.0149 212.669 88.1601C212.91 88.3054 213.181 88.378 213.484 88.378H213.488Z" fill="#32AAAA"/>
<path d="M218.545 89.2132L216.419 84.2679H217.452L219.03 88.1403H218.7L220.361 84.2679H221.394L219.103 89.2132H218.545ZM217.142 91.2269L218.578 88.2657L219.103 89.2165L218.175 91.2303H217.142V91.2269Z" fill="#32AAAA"/>
<path d="M224.088 89.2759C223.593 89.2759 223.151 89.1637 222.761 88.9392C222.372 88.7147 222.065 88.411 221.837 88.0248C221.609 87.6385 221.497 87.2028 221.497 86.7142C221.497 86.2256 221.609 85.7997 221.833 85.4135C222.058 85.0273 222.358 84.7235 222.741 84.499C223.124 84.2746 223.55 84.1623 224.025 84.1623C224.471 84.1623 224.871 84.2647 225.224 84.4726C225.574 84.6773 225.848 84.9645 226.046 85.3277C226.241 85.6941 226.34 86.1101 226.34 86.5755C226.34 86.6449 226.336 86.7175 226.33 86.7967C226.323 86.8759 226.31 86.9651 226.29 87.0608H222.15V86.2883H225.795L225.455 86.5887C225.455 86.2586 225.395 85.978 225.28 85.7469C225.164 85.5158 224.999 85.3376 224.785 85.2088C224.57 85.0801 224.313 85.0173 224.012 85.0173C223.712 85.0173 223.418 85.0867 223.177 85.222C222.936 85.3607 222.751 85.5521 222.619 85.7997C222.487 86.0473 222.424 86.3411 222.424 86.6779C222.424 87.0146 222.494 87.3216 222.632 87.5824C222.771 87.8399 222.966 88.0413 223.22 88.1799C223.474 88.3219 223.768 88.3912 224.098 88.3912C224.372 88.3912 224.626 88.3417 224.857 88.246C225.088 88.1502 225.287 88.005 225.452 87.8135L226.049 88.4209C225.808 88.6949 225.518 88.9062 225.181 89.0515C224.844 89.1967 224.481 89.2693 224.098 89.2693L224.088 89.2759Z" fill="#32AAAA"/>
<path d="M229.175 89.2561C228.769 89.2561 228.406 89.167 228.086 88.992C227.766 88.817 227.515 88.5661 227.336 88.2426C227.158 87.9191 227.069 87.5428 227.069 87.1169V84.2679H227.997V87.074C227.997 87.3414 228.043 87.5758 228.135 87.7706C228.228 87.9653 228.363 88.1172 228.545 88.2195C228.723 88.3219 228.934 88.3747 229.175 88.3747C229.538 88.3747 229.825 88.2591 230.03 88.028C230.235 87.797 230.34 87.48 230.34 87.074V84.2679H231.268V87.1169C231.268 87.5428 231.179 87.9191 231.001 88.2426C230.822 88.5661 230.575 88.817 230.258 88.992C229.941 89.167 229.581 89.2561 229.175 89.2561Z" fill="#32AAAA"/>
<path d="M232.368 89.1736V84.2713H233.295V89.1736H232.368ZM233.295 86.3873L232.945 86.2223C232.945 85.595 233.091 85.0966 233.378 84.7268C233.668 84.3571 234.084 84.1689 234.626 84.1689C234.873 84.1689 235.098 84.2118 235.296 84.2977C235.494 84.3835 235.682 84.5254 235.854 84.7268L235.246 85.3574C235.144 85.2484 235.028 85.1692 234.906 85.1197C234.781 85.0702 234.639 85.047 234.474 85.047C234.13 85.047 233.847 85.156 233.629 85.3772C233.407 85.5984 233.299 85.9351 233.299 86.3873H233.295Z" fill="#32AAAA"/>
<path d="M237.805 89.2759C237.531 89.2759 237.267 89.2396 237.019 89.167C236.771 89.0944 236.547 88.992 236.342 88.8567C236.141 88.7213 235.963 88.5629 235.811 88.378L236.408 87.7805C236.587 88.0017 236.795 88.1634 237.029 88.2691C237.263 88.3747 237.524 88.4308 237.815 88.4308C238.105 88.4308 238.326 88.3813 238.485 88.2823C238.643 88.1832 238.722 88.0446 238.722 87.863C238.722 87.6814 238.66 87.5461 238.531 87.4438C238.402 87.3447 238.241 87.2622 238.039 87.1962C237.838 87.1301 237.626 87.0674 237.405 87.0047C237.184 86.942 236.97 86.8594 236.771 86.7571C236.573 86.6548 236.408 86.5095 236.28 86.3279C236.151 86.1464 236.088 85.9054 236.088 85.6116C236.088 85.3178 236.157 85.0603 236.299 84.8424C236.441 84.6245 236.643 84.4594 236.903 84.3406C237.164 84.2217 237.478 84.1656 237.844 84.1656C238.231 84.1656 238.571 84.2316 238.871 84.367C239.171 84.5024 239.416 84.7037 239.611 84.9711L239.013 85.5686C238.868 85.3904 238.696 85.2517 238.498 85.156C238.3 85.0603 238.072 85.0107 237.818 85.0107C237.551 85.0107 237.346 85.0603 237.204 85.156C237.062 85.2517 236.993 85.3805 236.993 85.5389C236.993 85.6974 237.055 85.8327 237.178 85.9219C237.303 86.011 237.465 86.0869 237.669 86.1497C237.871 86.2124 238.082 86.2751 238.303 86.3411C238.524 86.4072 238.732 86.493 238.934 86.6052C239.132 86.7142 239.297 86.8627 239.426 87.0476C239.551 87.2325 239.617 87.4768 239.617 87.7805C239.617 88.2427 239.452 88.6058 239.125 88.8732C238.798 89.1406 238.359 89.2759 237.808 89.2759H237.805Z" fill="#32AAAA"/>
<path d="M103.141 60.3306C98.9514 60.3306 95.1616 59.3568 91.7712 57.4123C88.3775 55.4646 85.7101 52.8104 83.7657 49.4498C81.818 46.0891 80.8474 42.3422 80.8474 38.2123C80.8474 34.0825 81.8213 30.2663 83.7657 26.932C85.7134 23.6011 88.3808 20.9601 91.7712 19.0123C95.1616 17.0646 98.9514 16.0941 103.141 16.0941C106.442 16.0941 109.525 16.7279 112.387 17.9956C115.246 19.2632 117.679 21.0789 119.686 23.436L113.315 29.8932C112.077 28.4209 110.585 27.315 108.845 26.5755C107.105 25.8393 105.204 25.4696 103.137 25.4696C100.718 25.4696 98.5817 26.0143 96.7231 27.107C94.8645 28.1997 93.4185 29.6885 92.3885 31.5769C91.3552 33.4652 90.8403 35.677 90.8403 38.2123C90.8403 40.7477 91.3552 42.8869 92.3885 44.8049C93.4185 46.7229 94.8645 48.225 96.7231 49.3177C98.5817 50.4104 100.718 50.9551 103.137 50.9551C105.201 50.9551 107.102 50.5887 108.845 49.8492C110.585 49.113 112.074 48.0071 113.315 46.5315L119.686 52.9887C117.679 55.3491 115.246 57.1614 112.387 58.4291C109.525 59.6968 106.445 60.3306 103.141 60.3306Z" fill="#2B2B5F"/>
<path d="M122.251 59.4459V16.9788H131.984V59.4459H122.251ZM131.984 35.8223L128.623 34.1419C128.623 28.7741 129.818 24.4264 132.205 21.0921C134.595 17.7612 138.206 16.0941 143.043 16.0941C145.165 16.0941 147.083 16.477 148.793 17.2429C150.503 18.0088 152.095 19.25 153.57 20.9601L147.199 27.5064C146.433 26.6811 145.575 26.0902 144.634 25.737C143.69 25.3837 142.6 25.2055 141.359 25.2055C138.645 25.2055 136.404 26.0605 134.634 27.7705C132.865 29.4806 131.98 32.1645 131.98 35.8223H131.984Z" fill="#2B2B5F"/>
<path d="M174.556 60.126C171.499 60.126 168.621 59.5483 165.917 58.3929C163.213 57.2374 160.84 55.6264 158.793 53.5632C156.749 51.4999 155.148 49.1032 153.993 46.3797C152.837 43.6561 152.26 40.7246 152.26 37.5852C152.26 34.4457 152.847 31.5274 154.026 28.8204C155.201 26.1167 156.822 23.7431 158.889 21.6963C160.952 19.6528 163.368 18.0749 166.135 16.959C168.901 15.8432 171.895 15.2853 175.114 15.2853C178.706 15.2853 181.997 15.9456 184.991 17.2661C187.986 18.5865 190.491 20.4649 192.515 22.9013L186.754 28.6619C185.434 26.8462 183.76 25.463 181.736 24.5123C179.713 23.5615 177.484 23.0894 175.048 23.0894C172.282 23.0894 169.835 23.7002 167.709 24.915C165.583 26.1332 163.92 27.8366 162.725 30.0253C161.526 32.214 160.929 34.7329 160.929 37.5819C160.929 40.4308 161.526 43.0751 162.725 45.2605C163.923 47.4493 165.544 49.1527 167.587 50.3709C169.631 51.589 171.932 52.1964 174.493 52.1964C177.26 52.1964 179.614 51.7013 181.555 50.7109C183.496 49.7205 184.982 48.2449 186.015 46.2839C187.045 44.323 187.563 41.9164 187.563 39.0674L193.076 42.9068L174.002 42.7219V35.2908H196.235V36.5288C196.235 41.7315 195.308 46.0892 193.449 49.5951C191.591 53.1043 189.032 55.7387 185.771 57.4916C182.509 59.2479 178.772 60.1227 174.56 60.1227L174.556 60.126Z" fill="#2B2B5F" stroke="#2B2B5F" stroke-width="0.165062" stroke-miterlimit="10"/>
<path d="M220.245 60.3307C216 60.3307 212.181 59.3734 208.787 57.4553C205.393 55.5406 202.713 52.8996 200.735 49.5357C198.758 46.175 197.771 42.3984 197.771 38.2091C197.771 34.0198 198.744 30.263 200.689 26.9288C202.637 23.5978 205.274 20.9568 208.609 19.0091C211.94 17.0614 215.644 16.0908 219.711 16.0908C223.778 16.0908 227.155 17.0053 230.195 18.8342C233.233 20.663 235.623 23.1687 237.362 26.3544C239.102 29.5401 239.974 33.1681 239.974 37.2353C239.974 37.9417 239.931 38.6647 239.842 39.4042C239.752 40.1436 239.62 40.9524 239.442 41.8372H204.584V33.8746H234.401L230.773 37.0603C230.654 34.4655 230.152 32.2834 229.268 30.5139C228.383 28.7445 227.129 27.3877 225.508 26.4435C223.883 25.4993 221.893 25.0273 219.536 25.0273C217.06 25.0273 214.904 25.5588 213.078 26.6185C211.25 27.6815 209.833 29.1703 208.833 31.085C207.83 33.0031 207.328 35.2875 207.328 37.9417C207.328 40.5959 207.859 42.9266 208.919 44.9304C209.982 46.9376 211.484 48.4859 213.432 49.5753C215.379 50.668 217.618 51.2127 220.156 51.2127C222.338 51.2127 224.359 50.8297 226.217 50.0639C228.076 49.298 229.654 48.1756 230.951 46.7032L237.144 52.9855C235.078 55.4053 232.572 57.2308 229.624 58.4721C226.673 59.7101 223.55 60.3307 220.245 60.3307Z" fill="#2B2B5F"/>
<path d="M23.5181 29.2661C22.4947 29.2661 21.4944 29.3618 20.5238 29.5401C20.3126 30.7483 20.1937 31.9863 20.1937 33.254C20.1937 43.577 27.539 52.1833 37.2908 54.1343C38.8589 51.6353 39.7668 48.6807 39.7668 45.5115C39.7668 36.5387 32.4941 29.2661 23.5214 29.2661H23.5181Z" fill="#EC6371"/>
<path d="M27.3971 36.2713C26.6609 36.2713 25.9445 36.3407 25.2446 36.4694C25.0928 37.3376 25.007 38.2257 25.007 39.1368C25.007 46.5514 30.2823 52.7313 37.2843 54.131C38.41 52.3352 39.0603 50.2125 39.0603 47.9379C39.0603 41.4939 33.8378 36.268 27.3905 36.268L27.3971 36.2713Z" fill="#32AAAA"/>
<path d="M45.6925 55.2699C43.8835 55.2699 42.0678 55.0916 40.295 54.7351L37.2909 54.1343L38.9184 51.5395C40.6284 48.8127 41.533 45.6633 41.533 42.4281C41.533 32.9601 33.8312 25.2583 24.3632 25.2583C23.3002 25.2583 22.2339 25.3574 21.1974 25.5488L18.1998 26.1067L18.728 23.1026C19.8306 16.8402 23.122 11.1125 27.9979 6.97607C32.9333 2.7901 39.2155 0.48584 45.6958 0.48584C53.0114 0.48584 59.8912 3.3348 65.0642 8.50784C70.2372 13.6809 73.0862 20.5574 73.0862 27.8762C73.0862 35.1951 70.2372 42.0715 65.0642 47.2446C59.8912 52.4176 53.0147 55.2666 45.6958 55.2666L45.6925 55.2699ZM43.9825 50.9783C44.5536 51.0212 45.1247 51.041 45.6925 51.041C58.4617 51.041 68.854 40.652 68.854 27.8795C68.854 15.107 58.465 4.71802 45.6925 4.71802C35.4026 4.71802 26.5057 11.4327 23.561 21.0426C23.8284 21.0327 24.0958 21.0261 24.3632 21.0261C36.1619 21.0261 45.7586 30.6261 45.7586 42.4215C45.7586 45.3827 45.1511 48.2911 43.9792 50.9717L43.9825 50.9783Z" fill="#2B2B5F"/>
<path d="M19.3617 66.8969C14.3768 66.8969 9.66265 64.9194 6.03789 61.2947C2.31739 57.5775 0.184794 52.5629 0.0395392 47.1786C-0.22456 37.4564 6.14023 28.9194 15.179 26.8661L18.1996 26.1101L17.7705 29.2099C17.5922 30.4875 17.5196 31.7684 17.5559 33.0163C17.8365 43.3095 24.9771 52.0479 34.5309 53.7943L37.294 54.1343L36.0263 56.8545L35.99 56.9205L35.957 56.98C34.3394 59.8487 32.0516 62.2718 29.338 63.9951C26.4957 65.7976 23.2274 66.7978 19.8866 66.8903C19.7149 66.8936 19.5433 66.8969 19.3716 66.8969H19.3617ZM13.3204 31.9335C7.76443 34.4721 4.08355 40.411 4.26512 47.063C4.38397 51.3612 6.0742 55.3524 9.02551 58.3037C11.9471 61.2253 15.76 62.7703 19.7611 62.6614C24.0428 62.5458 27.9779 60.5387 30.7146 57.178C26.3636 55.7585 22.4219 53.0779 19.3947 49.43C15.6445 44.9139 13.4855 39.1236 13.3237 33.1285C13.3138 32.7324 13.3105 32.3329 13.3171 31.9302L13.3204 31.9335Z" fill="#2B2B5F"/>
</g>
<defs>
<clipPath id="clip0_2219_12824">
<rect width="240" height="91.1142" fill="white" transform="translate(0 0.442932)"/>
</clipPath>
</defs>
</svg>
