<svg width="57" height="26" viewBox="0 0 57 26" fill="none" xmlns="http://www.w3.org/2000/svg">
<path d="M46.2497 0.0607091C39.9498 -0.583972 34.3178 3.97928 33.6706 10.2537C33.1667 15.1344 35.829 19.6115 40.0017 21.6631L36.5323 25.5L45.3204 22.836C51.0276 22.7231 55.8868 18.3889 56.4857 12.5888C57.1315 6.314 52.549 0.70539 46.2497 0.0607091ZM41.0652 15.0983C40.9582 15.3719 40.8052 15.6037 40.6062 15.7948C40.407 15.9855 40.1665 16.1327 39.8845 16.2351C39.6029 16.3382 39.2854 16.3896 38.9323 16.3896C38.4964 16.3896 38.1348 16.3309 37.8478 16.2148C37.5603 16.099 37.3307 15.9459 37.1599 15.7548C36.9894 15.5639 36.8687 15.3465 36.7993 15.1043C36.7298 14.8601 36.6949 14.6115 36.6949 14.3576C36.6949 14.1515 36.7073 13.9621 36.7315 13.7879C36.7561 13.6132 36.7927 13.4255 36.8415 13.2232H37.9745V13.6888C37.9745 13.947 37.9899 14.1756 38.0218 14.3731C38.0537 14.5718 38.1065 14.739 38.1801 14.8757C38.2533 15.012 38.3507 15.115 38.4729 15.184C38.5951 15.2533 38.7446 15.2881 38.9214 15.2881C39.1991 15.2881 39.4112 15.2126 39.5588 15.061C39.7047 14.9089 39.7783 14.6876 39.7783 14.3951C39.7783 14.2454 39.7674 14.1085 39.7475 13.9829C39.7272 13.8576 39.691 13.7334 39.641 13.6097C39.5901 13.4863 39.5212 13.3565 39.4345 13.2196C39.3482 13.0833 39.2374 12.9304 39.102 12.7621L37.5806 10.9605C37.3106 10.6162 37.1017 10.2694 36.9551 9.91958C36.8092 9.56976 36.7354 9.19656 36.7354 8.79962C36.7354 8.48195 36.7857 8.18971 36.8847 7.9244C36.9844 7.65871 37.1282 7.42948 37.3159 7.23671C37.5036 7.04394 37.7357 6.89437 38.0122 6.78779C38.2884 6.68122 38.6011 6.62793 38.9503 6.62793C39.3748 6.62793 39.7287 6.68776 40.0124 6.80761C40.296 6.92746 40.5224 7.08433 40.6918 7.27897C40.8604 7.47323 40.9796 7.69124 41.0489 7.93262C41.1185 8.17401 41.1534 8.41651 41.1534 8.65976C41.1534 8.86543 41.1369 9.05521 41.1054 9.22947C41.0731 9.40335 41.037 9.595 40.9954 9.80441H39.8686V9.34988C39.8686 8.84075 39.795 8.45091 39.6485 8.17943C39.5025 7.90851 39.2631 7.77295 38.9327 7.77295C38.6584 7.77295 38.453 7.8483 38.3186 8.00012C38.1831 8.15138 38.1158 8.35443 38.1158 8.60909C38.1158 8.74371 38.1264 8.86524 38.1466 8.97388C38.1669 9.08232 38.1975 9.18216 38.2366 9.27397C38.276 9.36539 38.324 9.45458 38.3809 9.5404C38.4371 9.62697 38.5009 9.71653 38.5726 9.80983L40.269 11.8531C40.5767 12.2534 40.8131 12.6378 40.9785 13.0063C41.1439 13.3752 41.2263 13.7652 41.2263 14.1764C41.2261 14.5189 41.1728 14.8256 41.0652 15.0983ZM47.1876 13.8473C47.1876 14.1949 47.1492 14.4974 47.0722 14.7538C46.9948 15.0101 46.8876 15.2289 46.7482 15.4104C46.609 15.5925 46.4436 15.7415 46.2518 15.8573C46.0601 15.9734 45.8498 16.0637 45.6208 16.1293C45.3916 16.1955 45.1475 16.2396 44.8883 16.2641C44.6292 16.2892 44.362 16.3006 44.0877 16.3006H42.5551V6.71375H44.0316C44.2498 6.71375 44.4749 6.72123 44.7082 6.73619C44.9408 6.75115 45.1684 6.78293 45.3899 6.83154C45.6124 6.88034 45.8222 6.95214 46.0209 7.04768C46.2201 7.14304 46.3939 7.27093 46.5422 7.4321C46.6907 7.59308 46.809 7.79221 46.897 8.03004C46.9856 8.26749 47.0298 8.553 47.0298 8.88562V9.35156C47.0298 9.60603 46.9933 9.83974 46.9201 10.0531C46.8462 10.2666 46.7498 10.4545 46.6295 10.617C46.5092 10.7798 46.3719 10.9146 46.2182 11.0212C46.0642 11.1278 45.9065 11.2002 45.7449 11.2372V11.2822C46.2223 11.3684 46.5816 11.5937 46.824 11.9585C47.0666 12.3233 47.1878 12.79 47.1878 13.3588V13.8473H47.1876ZM51.8446 16.2998L51.5799 14.5823H49.8218L49.568 16.2998H48.0856L49.8606 6.71356H51.5399L53.3204 16.2998H51.8446Z" fill="#F4F5F7"/>
<path d="M44.8036 10.746C44.9651 10.6996 45.1042 10.6261 45.2179 10.5268C45.3323 10.4283 45.4207 10.2989 45.483 10.1398C45.545 9.98088 45.5758 9.78923 45.5758 9.56468V9.17166C45.5758 8.94748 45.5534 8.74891 45.5084 8.57671C45.4637 8.40432 45.3888 8.25867 45.2855 8.1392C45.1821 8.01935 45.0469 7.92848 44.8802 7.86678C44.7127 7.80508 44.5089 7.77441 44.2684 7.77441H43.9866V10.8163H44.2684C44.4638 10.8163 44.6421 10.7929 44.8036 10.746Z" fill="#F4F5F7"/>
<path d="M45.4154 12.2055C45.3116 12.0879 45.1774 11.9984 45.0122 11.9367C44.847 11.8746 44.644 11.8438 44.4039 11.8438H43.9866V15.29H44.4039C44.599 15.29 44.7764 15.2648 44.9363 15.2145C45.0967 15.1638 45.2333 15.0859 45.3475 14.9787C45.462 14.8723 45.5502 14.7364 45.6124 14.5717C45.6745 14.407 45.7053 14.2123 45.7053 13.9881V13.2416C45.7053 13.0172 45.683 12.8173 45.6377 12.6438C45.5927 12.4697 45.5183 12.3237 45.4154 12.2055Z" fill="#F4F5F7"/>
<path d="M50.6727 8.71191L49.9902 13.4878H51.4108L50.7342 8.71191H50.6727Z" fill="#F4F5F7"/>
<path d="M1.9525 15.5784C1.7122 15.5784 1.49874 15.5305 1.3127 15.435C1.12721 15.3394 0.969889 15.2097 0.842228 15.0447C0.714567 14.88 0.617695 14.6846 0.551799 14.4582C0.485716 14.2318 0.453613 13.9861 0.453613 13.7202C0.453613 13.4022 0.49285 13.1195 0.5717 12.8729C0.650549 12.6259 0.766007 12.4034 0.918449 12.205C1.07089 12.0068 1.25919 11.826 1.48485 11.6633C1.71032 11.5005 1.97127 11.3464 2.26827 11.2002C2.41095 11.1294 2.57128 11.0574 2.74982 10.9844C2.92836 10.9115 3.08699 10.8485 3.22648 10.7965V9.77492C3.22648 9.62516 3.22066 9.48567 3.20921 9.35648C3.19776 9.22765 3.17072 9.11547 3.12754 9.02011C3.08418 8.92457 3.01941 8.84959 2.93305 8.79519C2.8465 8.74115 2.72842 8.71385 2.57785 8.71385C2.47647 8.71385 2.37791 8.73292 2.28217 8.76994C2.18623 8.80753 2.10175 8.87128 2.02816 8.96084C1.95494 9.05059 1.89674 9.17063 1.85375 9.3202C1.81057 9.46997 1.78879 9.65507 1.78879 9.87607V10.2124H0.70105C0.667257 10.0664 0.642101 9.9331 0.625392 9.81138C0.60812 9.68985 0.599672 9.56925 0.599672 9.44922C0.599672 9.16128 0.649235 8.90681 0.74911 8.68581C0.848611 8.46481 0.987724 8.28008 1.16607 8.13012C1.34442 7.98073 1.55769 7.86705 1.80569 7.79077C2.05369 7.71392 2.32591 7.67578 2.62272 7.67578C3.01002 7.67578 3.33086 7.71785 3.58675 7.8018C3.84226 7.88613 4.04595 8.01252 4.19802 8.18079C4.35046 8.34888 4.45728 8.56053 4.51942 8.815C4.58119 9.06929 4.61235 9.36695 4.61235 9.70724V15.494H3.55258L3.45139 14.8316C3.29726 15.0522 3.09131 15.2323 2.8343 15.3706C2.57691 15.509 2.28273 15.5784 1.9525 15.5784ZM2.58348 14.4835C2.70382 14.4835 2.82116 14.4528 2.93568 14.3907C3.05001 14.3294 3.14707 14.2535 3.22629 14.1635V11.7447C3.15101 11.775 3.06634 11.8101 2.9721 11.8513C2.87823 11.8926 2.77685 11.9466 2.66815 12.0141C2.56659 12.078 2.46709 12.1543 2.36928 12.2441C2.27147 12.3338 2.18436 12.4406 2.1072 12.5642C2.03004 12.6878 1.96808 12.8272 1.92115 12.9821C1.87422 13.1372 1.85094 13.3106 1.85094 13.5011C1.85094 13.7965 1.90913 14.0343 2.02553 14.214C2.14193 14.3937 2.32797 14.4835 2.58348 14.4835Z" fill="#F4F5F7"/>
<path d="M7.40816 16.0211C7.40816 16.3541 7.46992 16.59 7.59383 16.7284C7.71792 16.8667 7.9096 16.9361 8.16887 16.9361C8.274 16.9361 8.37538 16.92 8.47281 16.8882C8.57062 16.8568 8.65642 16.7985 8.72945 16.7134C8.80285 16.6293 8.8618 16.5126 8.90705 16.3628C8.95192 16.2125 8.97463 16.0203 8.97463 15.7842V14.5662C8.84678 14.7313 8.68233 14.8723 8.48145 14.9907C8.28057 15.1084 8.03126 15.1666 7.73444 15.1666C7.64827 15.1666 7.5469 15.1586 7.4305 15.1414C7.31392 15.1245 7.19358 15.0862 7.06986 15.0264C6.94558 14.9675 6.82373 14.876 6.7034 14.7543C6.58287 14.6333 6.47586 14.4697 6.38237 14.2631C6.28831 14.0573 6.21209 13.8002 6.15408 13.4915C6.09532 13.1836 6.06641 12.8098 6.06641 12.3717V10.3414C6.06641 9.9222 6.09532 9.56583 6.15408 9.2721C6.21209 8.97855 6.28831 8.7325 6.38237 8.53412C6.47586 8.33574 6.584 8.18056 6.7064 8.06837C6.82805 7.956 6.95252 7.87093 7.07812 7.81297C7.20428 7.75482 7.32687 7.71873 7.44702 7.7034C7.56774 7.68863 7.67474 7.68115 7.76842 7.68115C7.95654 7.68115 8.12287 7.70565 8.26724 7.75426C8.4118 7.80268 8.53777 7.86719 8.64459 7.94777C8.7516 8.02855 8.84322 8.11867 8.91812 8.21982C8.99303 8.32097 9.05667 8.42212 9.10961 8.5229L9.23915 7.75987H10.3494V15.1797C10.3494 15.6103 10.3081 15.9979 10.2257 16.3443C10.1433 16.691 10.0134 16.9868 9.83709 17.2313C9.66043 17.4766 9.43571 17.6638 9.16349 17.7956C8.89071 17.9259 8.56499 17.9921 8.18558 17.9921C7.93007 17.9921 7.68958 17.9697 7.4641 17.9254C7.23882 17.8805 7.0417 17.8009 6.87255 17.687C6.70358 17.5729 6.5701 17.4179 6.47229 17.2212C6.37448 17.0245 6.32605 16.7747 6.32605 16.4717C6.32605 16.4193 6.33149 16.3541 6.34275 16.2752C6.35439 16.1966 6.37317 16.1123 6.39926 16.022H7.40816V16.0211ZM8.21937 14.0681C8.31324 14.0681 8.39715 14.0524 8.47018 14.0206C8.54359 13.9889 8.60911 13.9466 8.6675 13.8941C8.72588 13.8415 8.77638 13.7817 8.81994 13.7142C8.86293 13.6474 8.89972 13.5779 8.92976 13.5068V9.2807C8.85805 9.12327 8.76343 8.98977 8.64478 8.87927C8.52669 8.76896 8.38289 8.71361 8.21374 8.71361C8.1086 8.71361 8.01305 8.73269 7.9265 8.76971C7.83995 8.80729 7.76523 8.8774 7.70103 8.98042C7.6372 9.08345 7.58745 9.22573 7.55178 9.40691C7.51592 9.58827 7.49808 9.8233 7.49808 10.1114V12.6539C7.49808 12.942 7.51592 13.178 7.55178 13.361C7.58726 13.544 7.6372 13.6886 7.70103 13.7933C7.76523 13.8984 7.84108 13.9698 7.92913 14.0089C8.01755 14.0483 8.11424 14.0681 8.21937 14.0681Z" fill="#F4F5F7"/>
<path d="M13.8728 15.5784C13.5384 15.5784 13.2427 15.5167 12.9849 15.3929C12.7279 15.2695 12.5105 15.0773 12.3344 14.8148C12.1574 14.553 12.0243 14.2174 11.934 13.8074C11.8437 13.3973 11.7988 12.9048 11.7988 12.3286V10.8693C11.7988 10.3792 11.8352 9.95928 11.9087 9.60908C11.9821 9.25963 12.0778 8.96608 12.1959 8.72806C12.3145 8.49042 12.4512 8.30251 12.6074 8.16397C12.7632 8.02561 12.9239 7.91959 13.0891 7.84686C13.2542 7.77394 13.4188 7.7272 13.5821 7.70644C13.7457 7.68606 13.897 7.67578 14.0359 7.67578C14.2914 7.67578 14.5375 7.71392 14.7741 7.79077C15.011 7.86705 15.2192 7.99812 15.3996 8.18341C15.58 8.36889 15.7242 8.61644 15.8305 8.92719C15.9377 9.23775 15.9914 9.62516 15.9914 10.0894C15.9914 10.2465 15.9869 10.4056 15.9775 10.5664C15.9679 10.727 15.9557 10.8852 15.9409 11.0407C15.9258 11.1959 15.9058 11.3464 15.8815 11.4923C15.8573 11.6381 15.8316 11.7729 15.8057 11.8967H13.2303V12.682C13.2303 13.0187 13.2436 13.3022 13.2697 13.5325C13.296 13.7623 13.3403 13.9478 13.4023 14.0882C13.4642 14.2282 13.5487 14.3296 13.6559 14.3911C13.7631 14.4528 13.8973 14.4834 14.0588 14.4834C14.1457 14.4834 14.2296 14.4659 14.3126 14.4307C14.395 14.3952 14.4675 14.3359 14.5296 14.2537C14.5916 14.1718 14.6412 14.0622 14.6789 13.9257C14.7164 13.789 14.735 13.6194 14.735 13.4175V13.1763H15.9245V13.4736C15.9245 14.2069 15.7484 14.7413 15.3975 15.0758C15.0459 15.4103 14.5379 15.5784 13.8728 15.5784ZM14.6616 10.9422C14.6654 10.9011 14.6691 10.8459 14.6733 10.7765C14.677 10.7075 14.6798 10.6354 14.6815 10.5608C14.6834 10.486 14.6845 10.4119 14.6845 10.3386C14.6845 10.2659 14.6845 10.2031 14.6845 10.1505C14.6845 9.6418 14.6243 9.27477 14.5039 9.05059C14.3838 8.82641 14.2054 8.71367 13.9687 8.71367C13.8446 8.71367 13.7357 8.74265 13.6418 8.80079C13.548 8.85932 13.4708 8.95598 13.4107 9.09285C13.351 9.22934 13.3054 9.40995 13.2756 9.63432C13.2455 9.85906 13.2305 10.1378 13.2305 10.4708V10.9422H14.6616Z" fill="#F4F5F7"/>
<path d="M17.356 7.76553H18.4548L18.5843 8.59082V8.59606C18.6971 8.42049 18.8184 8.27316 18.948 8.15555C19.0775 8.03776 19.2119 7.94315 19.3508 7.87229C19.49 7.80105 19.6317 7.75076 19.7766 7.72028C19.9212 7.69036 20.0648 7.67578 20.2077 7.67578C20.6622 7.67578 21.0123 7.83396 21.2588 8.14994C21.5049 8.46593 21.6277 8.94046 21.6277 9.57243V15.4938H20.202V9.62329C20.202 9.28281 20.1493 9.04629 20.0442 8.91335C19.939 8.78041 19.7851 8.71385 19.5819 8.71385C19.4391 8.71385 19.2973 8.76078 19.1565 8.85427C19.0155 8.94794 18.8903 9.07695 18.7818 9.24168V15.4938H17.356V7.76553Z" fill="#F4F5F7"/>
<path d="M25.0718 15.5784C24.4183 15.5784 23.9191 15.3106 23.5755 14.7755C23.2316 14.2408 23.0598 13.4244 23.0598 12.3286V10.8693C23.0598 10.3792 23.0959 9.95928 23.1668 9.60908C23.2385 9.25963 23.3332 8.96608 23.4516 8.72806C23.5701 8.49042 23.7054 8.30251 23.8573 8.16397C24.0098 8.02561 24.1663 7.91959 24.3278 7.84686C24.4894 7.77394 24.6492 7.7272 24.8069 7.70644C24.9648 7.68606 25.1093 7.67578 25.2411 7.67578C25.504 7.67578 25.7444 7.71037 25.9624 7.77955C26.1802 7.84873 26.3683 7.95381 26.526 8.09404C26.6837 8.23427 26.8057 8.41096 26.8923 8.62411C26.9786 8.83763 27.0216 9.08836 27.0216 9.37611C27.0216 9.55598 27.0134 9.71023 26.9966 9.83943C26.9794 9.96844 26.9559 10.0926 26.9261 10.2124H25.7876V9.95423C25.7876 9.56533 25.7416 9.26112 25.6496 9.04236C25.5573 8.82323 25.4063 8.71385 25.1957 8.71385C25.0793 8.71385 24.9779 8.74115 24.8917 8.79519C24.805 8.84959 24.7329 8.94233 24.6751 9.07303C24.6163 9.20409 24.5732 9.38022 24.5452 9.60104C24.517 9.82166 24.5031 10.0988 24.5031 10.4318V12.6257C24.5031 12.963 24.5142 13.2489 24.5365 13.4848C24.5593 13.7204 24.5987 13.9121 24.6552 14.06C24.7117 14.2079 24.7866 14.3154 24.8803 14.3829C24.9744 14.45 25.0909 14.4836 25.2299 14.4836C25.301 14.4836 25.3707 14.4661 25.4382 14.4311C25.5058 14.3958 25.5653 14.3357 25.6158 14.254C25.6665 14.1721 25.7076 14.0628 25.7396 13.9261C25.7715 13.7894 25.7876 13.6193 25.7876 13.4179V13.1767H27.016V13.474C27.016 14.2073 26.8536 14.7411 26.5284 15.0756C26.2036 15.4103 25.718 15.5784 25.0718 15.5784Z" fill="#F4F5F7"/>
<path d="M30.2003 15.5784C29.8663 15.5784 29.5704 15.5167 29.3128 15.3929C29.0555 15.2695 28.8384 15.0773 28.6614 14.8148C28.4847 14.553 28.3514 14.2174 28.2613 13.8074C28.1708 13.3979 28.126 12.9048 28.126 12.3286V10.8693C28.126 10.3792 28.1624 9.95928 28.236 9.60908C28.3094 9.25963 28.4048 8.96608 28.523 8.72806C28.6411 8.49042 28.7785 8.30251 28.9346 8.16397C29.0902 8.02561 29.2513 7.91959 29.4157 7.84686C29.5807 7.77394 29.7454 7.7272 29.9089 7.70644C30.0721 7.68606 30.2239 7.67578 30.3625 7.67578C30.6178 7.67578 30.8641 7.71392 31.1012 7.79077C31.338 7.86705 31.5463 7.99812 31.7269 8.18341C31.9074 8.36889 32.0515 8.61644 32.1578 8.92719C32.2644 9.23775 32.3181 9.62516 32.3181 10.0894C32.3181 10.2465 32.314 10.4056 32.3042 10.5664C32.2947 10.727 32.2832 10.8852 32.268 11.0407C32.253 11.1959 32.2327 11.3464 32.2092 11.4923C32.1846 11.6381 32.1589 11.7729 32.1332 11.8967H29.5578V12.682C29.5578 13.0187 29.571 13.3022 29.5971 13.5325C29.6237 13.7623 29.6675 13.9478 29.7298 14.0882C29.7914 14.2282 29.8761 14.3296 29.9834 14.3911C30.0903 14.4528 30.2247 14.4834 30.3863 14.4834C30.4729 14.4834 30.5572 14.4659 30.6405 14.4307C30.7227 14.3952 30.7946 14.3359 30.8566 14.2537C30.9189 14.1718 30.9691 14.0622 31.0068 13.9257C31.0436 13.789 31.0629 13.6194 31.0629 13.4175V13.1763H32.2522V13.4736C32.2522 14.2069 32.0761 14.7413 31.7245 15.0758C31.3736 15.4103 30.8654 15.5784 30.2003 15.5784ZM30.9893 10.9422C30.9931 10.9011 30.997 10.8459 31.0008 10.7765C31.0045 10.7075 31.0075 10.6354 31.0094 10.5608C31.0115 10.486 31.0122 10.4119 31.0122 10.3386C31.0122 10.2659 31.0122 10.2031 31.0122 10.1505C31.0122 9.6418 30.9527 9.27477 30.8318 9.05059C30.7113 8.82641 30.5333 8.71367 30.2964 8.71367C30.1725 8.71367 30.0636 8.74265 29.9694 8.80079C29.8757 8.85932 29.7985 8.95598 29.7386 9.09285C29.6786 9.22934 29.6329 9.40995 29.6033 9.63432C29.5729 9.85906 29.5582 10.1378 29.5582 10.4708V10.9422H30.9893Z" fill="#F4F5F7"/>
</svg>
