<svg width="50" height="50" viewBox="0 0 50 50" fill="none" xmlns="http://www.w3.org/2000/svg">
<path d="M6.75924 12.6606C8.06632 11.747 10.0367 11.9222 11.2103 12.8914L9.86425 10.935C8.78105 9.39013 9.169 7.71873 10.7152 6.63413C12.2615 5.55371 16.643 8.45848 16.643 8.45848C15.5501 6.89833 15.7545 4.92102 17.3146 3.82669C18.8748 2.73653 21.0273 3.11336 22.1202 4.67629L36.6093 25.1446L34.7627 43.0474L19.3517 37.427L5.90964 17.4968C4.80696 15.9269 5.18796 13.7619 6.75924 12.6606Z" fill="#EF9645"/>
<path d="M3.74734 24.0474C3.74734 24.0474 2.17328 21.753 4.46902 20.1804C6.76197 18.6077 8.33464 20.9007 8.33464 20.9007L15.6362 31.5492C15.8879 31.1293 16.1632 30.7149 16.4705 30.3061L6.33647 15.5291C6.33647 15.5291 4.7638 13.2362 7.05815 11.6635C9.3511 10.0908 10.9238 12.3838 10.9238 12.3838L20.4557 26.2847C20.8103 25.9955 21.1732 25.7049 21.5473 25.4198L10.4969 9.3024C10.4969 9.3024 8.92421 7.00945 11.2186 5.43678C13.5115 3.86411 15.0842 6.15707 15.0842 6.15707L26.1346 22.2717C26.5406 22.0228 26.9425 21.8073 27.3457 21.5792L17.017 6.51721C17.017 6.51721 15.4443 4.22426 17.7373 2.65159C20.0302 1.07892 21.6029 3.37187 21.6029 3.37187L32.524 19.2988L34.1842 21.7211C27.304 26.4405 26.6491 35.3189 30.58 41.0519C31.3657 42.1991 32.5128 41.4135 32.5128 41.4135C27.7948 34.5318 29.2354 26.7992 36.1171 22.0812L34.0883 11.9277C34.0883 11.9277 33.3305 9.25234 36.0044 8.49312C38.6798 7.7353 39.439 10.4106 39.439 10.4106L41.782 17.3688C42.7109 20.1275 43.6995 22.8766 45.008 25.4768C48.7026 32.8187 46.4958 41.9433 39.5294 46.7225C31.9302 51.9327 21.5417 49.9957 16.3301 42.398L3.74734 24.0474Z" fill="#FFDC5D"/>
<path d="M16.6862 44.4965C11.1241 44.4965 5.50368 38.876 5.50368 33.314C5.50368 32.545 4.94052 31.9235 4.17157 31.9235C3.40262 31.9235 2.72266 32.545 2.72266 33.314C2.72266 41.657 8.3431 47.2775 16.6862 47.2775C17.4551 47.2775 18.0767 46.5975 18.0767 45.8286C18.0767 45.0596 17.4551 44.4965 16.6862 44.4965Z" fill="#5DADEC"/>
<path d="M9.73358 47.219C5.56204 47.219 2.78102 44.438 2.78102 40.2665C2.78102 39.4975 2.15946 38.8759 1.39051 38.8759C0.621559 38.8759 0 39.4975 0 40.2665C0 45.8285 4.17153 50 9.73358 50C10.5025 50 11.1241 49.3785 11.1241 48.6095C11.1241 47.8406 10.5025 47.219 9.73358 47.219ZM33.3723 2.72266C32.6047 2.72266 31.9818 3.34561 31.9818 4.11317C31.9818 4.88073 32.6047 5.50368 33.3723 5.50368C38.9343 5.50368 44.4964 10.4942 44.4964 16.6278C44.4964 17.3953 45.1193 18.0183 45.8869 18.0183C46.6544 18.0183 47.2774 17.3953 47.2774 16.6278C47.2774 8.96049 41.7153 2.72266 33.3723 2.72266Z" fill="#5DADEC"/>
<path d="M40.3248 0C39.5573 0 38.9343 0.564548 38.9343 1.33211C38.9343 2.09967 39.5573 2.78102 40.3248 2.78102C44.4964 2.78102 47.219 5.87491 47.219 9.67518C47.219 10.4427 47.899 11.0657 48.6679 11.0657C49.4369 11.0657 50 10.4427 50 9.67518C50 4.33979 45.8869 0 40.3248 0Z" fill="#5DADEC"/>
</svg>
