<svg width="335" height="484" viewBox="0 0 335 484" fill="none" xmlns="http://www.w3.org/2000/svg">
<path d="M260.046 60.352L275.052 73.1972L332.831 1.8554L203.775 15.4114L233.019 37.6471L233.407 37.9426L233.391 38.4306L231.948 81.6684L258.844 60.3296L259.454 59.8458L260.046 60.352Z" fill="white" stroke="#070709" stroke-width="1.88921"/>
<path d="M245.262 49.4829C245.262 50.8683 230.936 83.6779 230.936 83.6779L259.494 58.6771L245.262 49.4829Z" fill="#070709"/>
<path d="M335 0.677734L244.129 48.0655L230.936 83.6772L232.447 38.3991L335 0.677734Z" fill="#070709"/>
<path d="M237.433 477.995C239.77 478.162 242.117 477.841 244.323 477.052C246.637 476.708 248.861 475.916 250.872 474.721C248.535 474.553 246.189 474.875 243.982 475.664C241.662 475.98 239.432 476.774 237.433 477.995Z" fill="#070709"/>
<path d="M216.005 483.235C216.005 483.628 217.969 483.497 220.17 482.947C222.37 482.397 224.099 481.663 224.021 481.27C223.942 480.877 222.056 481.008 219.829 481.558C217.602 482.108 215.9 482.894 216.005 483.235Z" fill="#070709"/>
<path d="M192.439 64.807C194.762 64.8577 197.075 64.5031 199.276 63.7591C201.581 63.4614 203.815 62.7609 205.878 61.6896C203.544 61.3658 201.167 61.59 198.936 62.3445C196.607 62.644 194.381 63.4876 192.439 64.807Z" fill="#070709"/>
<path d="M167.081 75.6784C169.355 75.2062 171.522 74.3181 173.473 73.0588C175.65 72.2316 177.664 71.0254 179.42 69.4961C177.081 69.7359 174.83 70.5162 172.845 71.7752C170.649 72.6162 168.677 73.9518 167.081 75.6784Z" fill="#070709"/>
<path d="M145.102 92.3656C145.39 92.6538 147.721 90.6891 150.655 88.2266C153.589 85.7641 155.895 83.6422 155.554 83.3279C153.339 84.1244 151.339 85.4247 149.712 87.1264C146.805 89.746 144.814 92.0775 145.102 92.3656Z" fill="#070709"/>
<path d="M128.336 114.24C128.703 114.423 130.432 111.882 132.528 108.712C133.995 106.91 135.146 104.873 135.933 102.687C135.645 102.451 133.314 104.704 131.323 107.926C129.841 109.764 128.817 111.928 128.336 114.24Z" fill="#070709"/>
<path d="M118.827 140.069C119.951 138.037 120.73 135.833 121.132 133.546C122.004 131.395 122.492 129.107 122.573 126.787C121.137 128.651 120.175 130.836 119.77 133.153C118.89 135.345 118.566 137.721 118.827 140.069Z" fill="#070709"/>
<path d="M117.413 167.575C117.84 165.294 117.893 162.958 117.57 160.659C117.75 158.344 117.537 156.015 116.941 153.77C116.113 155.984 115.835 158.366 116.129 160.712C115.984 163.071 116.425 165.429 117.413 167.575Z" fill="#070709"/>
<path d="M124.564 194.164C124.289 191.863 123.634 189.623 122.625 187.537C122.098 185.288 121.213 183.139 120.006 181.171C119.877 183.528 120.345 185.88 121.368 188.008C121.925 190.287 123.021 192.398 124.564 194.164Z" fill="#070709"/>
<path d="M140.57 216.511C140.832 216.222 138.788 213.891 136.3 211.062C133.811 208.233 131.82 205.822 131.48 206.111C132.216 208.358 133.504 210.384 135.226 212.005C137.767 214.939 140.308 216.799 140.57 216.511Z" fill="#070709"/>
<path d="M163.676 231.416C161.906 229.919 159.907 228.716 157.755 227.853C155.82 226.57 153.687 225.614 151.442 225.024C152.966 226.823 154.896 228.233 157.074 229.137C159.055 230.425 161.322 231.208 163.676 231.416Z" fill="#070709"/>
<path d="M190.553 237.179C188.365 236.437 186.078 236.031 183.768 235.974C181.499 235.47 179.165 235.328 176.852 235.555C178.912 236.712 181.223 237.35 183.585 237.415C185.89 237.931 188.288 237.85 190.553 237.179Z" fill="#070709"/>
<path d="M217.535 232.097C215.228 232.347 212.969 232.929 210.829 233.826C208.558 234.272 206.368 235.058 204.332 236.158C206.68 236.449 209.064 236.124 211.248 235.215C213.576 234.73 215.74 233.657 217.535 232.097Z" fill="#070709"/>
<path d="M236.659 213.131C236.266 213.131 235.061 215.751 232.913 218.842C230.764 221.933 228.695 224.081 228.983 224.474C229.271 224.867 231.839 222.902 234.091 219.654C235.658 217.831 236.563 215.533 236.659 213.131Z" fill="#070709"/>
<path d="M224.975 191.676C224.975 192.095 227.831 192.986 230.817 195.134C233.803 197.282 235.454 199.902 235.82 199.771C236.187 199.64 235.035 196.417 231.708 194.06C229.861 192.416 227.445 191.56 224.975 191.676Z" fill="#070709"/>
<path d="M201.398 201.5C201.765 201.709 203.442 199.116 206.166 196.627C208.891 194.138 211.667 192.855 211.405 192.462C208.969 192.623 206.693 193.733 205.066 195.553C203.181 197.041 201.882 199.147 201.398 201.5Z" fill="#070709"/>
<path d="M200.455 228.246C200.26 225.955 199.829 223.691 199.171 221.488C198.981 219.205 198.551 216.948 197.888 214.755C197.165 217.039 197.165 219.491 197.888 221.776C198.076 224.141 198.97 226.395 200.455 228.246Z" fill="#070709"/>
<path d="M218.399 248.81C218.635 248.47 216.251 246.505 213.396 244.043C210.54 241.58 208.157 239.511 207.973 239.773C207.79 240.035 209.493 242.628 212.453 245.012C214.082 246.761 216.128 248.068 218.399 248.81Z" fill="#070709"/>
<path d="M242.894 261.542C241.169 259.963 239.135 258.759 236.921 258.005C234.868 256.798 232.582 256.039 230.215 255.778C231.96 257.337 234 258.531 236.214 259.289C238.263 260.488 240.537 261.254 242.894 261.542Z" fill="#070709"/>
<path d="M267.518 274.064C267.727 273.723 265.239 271.863 261.938 269.872C260.018 268.519 257.813 267.623 255.494 267.253C255.284 267.646 257.956 269.217 261.231 271.13C263.113 272.511 265.25 273.508 267.518 274.064Z" fill="#070709"/>
<path d="M288.397 292.061C288.685 291.825 286.851 289.258 284.127 286.56C281.402 283.862 278.887 282.08 278.521 282.395C278.154 282.709 280.407 285.014 283.105 287.634C285.803 290.253 288.082 292.349 288.397 292.061Z" fill="#070709"/>
<path d="M304.219 314.668C303.78 312.357 302.811 310.178 301.39 308.303C299.373 305.028 297.303 302.67 296.963 302.906C297.679 305.121 298.759 307.202 300.159 309.062C302.149 312.415 303.852 314.852 304.219 314.668Z" fill="#070709"/>
<path d="M314.279 340.341C314.43 337.951 313.998 335.56 313.022 333.373C312.525 331.078 311.492 328.932 310.009 327.112C310.164 329.426 310.722 331.696 311.659 333.818C312.139 336.13 313.026 338.339 314.279 340.341Z" fill="#070709"/>
<path d="M317.894 367.664C318.843 363.08 318.517 358.323 316.951 353.911C316.536 356.198 316.536 358.54 316.951 360.827C316.858 363.144 317.178 365.459 317.894 367.664Z" fill="#070709"/>
<path d="M314.279 395.013C315.457 392.979 316.198 390.722 316.453 388.385C317.222 386.155 317.411 383.767 317.003 381.443C316.028 383.554 315.366 385.795 315.039 388.097C314.313 390.326 314.054 392.68 314.279 395.013Z" fill="#070709"/>
<path d="M303.564 420.423C305.298 418.834 306.635 416.86 307.468 414.66C308.714 412.663 309.476 410.402 309.694 408.059C308.189 409.823 307.001 411.835 306.184 414.005C304.927 415.967 304.039 418.142 303.564 420.423Z" fill="#070709"/>
<path d="M287.06 442.507C287.322 442.769 289.68 440.751 292.3 437.817C293.992 436.178 295.283 434.17 296.072 431.949C295.731 431.714 293.662 433.993 291.199 436.901C288.737 439.808 286.772 442.218 287.06 442.507Z" fill="#070709"/>
<path d="M265.789 460.058C268.066 459.447 270.166 458.307 271.919 456.731C275.01 454.452 277.158 452.199 276.949 451.911C274.78 452.77 272.783 454.012 271.055 455.579C267.99 457.805 265.58 459.718 265.789 460.058Z" fill="#070709"/>
<path d="M240.902 471.951C243.258 471.921 245.573 471.338 247.661 470.248C251.171 468.808 253.791 467.157 253.791 466.791C251.493 467.114 249.269 467.832 247.216 468.912C244.952 469.554 242.816 470.582 240.902 471.951Z" fill="#070709"/>
<path d="M93.479 103.18L125.441 92.6836L131.971 112.566L100.008 123.063L93.479 103.18Z" fill="#070709"/>
<path d="M131.34 112.247L125.122 93.3146L94.11 103.499L100.327 122.432L131.34 112.247Z" fill="white" stroke="#070709"/>
<path d="M100.399 122.215C101.929 119.642 102.582 117.365 103.5 114.678C105.429 110.293 106.777 107.76 106.192 107.789C104.402 110.009 103.937 111.484 103 114.178C101.638 116.671 100.756 119.397 100.399 122.215Z" fill="#070709"/>
<path d="M116.246 104.866C118.443 106.842 121 107.678 124 109.178C126.5 110.428 128.5 111.178 132 112.553C129.5 110.678 126.808 109.239 124 108.178C121 106.678 118.5 105.678 116.246 104.866Z" fill="#070709"/>
<path d="M93.5063 103.171C99.5 105.678 105.5 107.678 111.657 109.973L112.212 110.178L112.563 109.71L113.119 109.009C117 103.178 121.91 98.6922 125.453 92.6777C120.64 97.7154 116.214 103.109 112.212 108.812L112.037 109.046C105.5 107.178 100.017 104.698 93.5063 103.171Z" fill="#070709"/>
<path d="M95.0109 229.793L79.094 181.325L0.631087 207.092L16.548 255.56L95.0109 229.793Z" fill="white" stroke="#070709"/>
<path d="M0.0314789 206.77C1.17035 207.405 2.36053 207.944 3.58949 208.38L13.4729 212.22C21.9444 215.439 33.4939 219.788 46.5118 224.532L47.0483 224.73L47.3872 224.278L48.7144 222.527C57.3553 211.232 65.1491 200.699 70.7121 193.131L77.2351 184.095C78.0883 183.037 78.8267 181.892 79.4377 180.678C78.3984 181.609 77.4526 182.64 76.6139 183.756L69.6955 192.453C63.9066 199.88 55.9999 210.159 47.3307 221.595L46.0035 223.346L46.8789 223.092C33.8893 218.348 22.1703 214.168 13.6988 211.232L3.64598 207.815C2.47929 207.346 1.26834 206.996 0.0314789 206.77Z" fill="#070709"/>
<path d="M0.0314789 206.77C1.17035 207.405 2.36053 207.944 3.58949 208.38L13.4729 212.22C21.9444 215.439 33.4939 219.788 46.5118 224.532L47.0483 224.73L47.3872 224.278L48.7144 222.527C57.3553 211.232 65.1491 200.699 70.7121 193.131L77.2351 184.095C78.0883 183.037 78.8267 181.892 79.4377 180.678C78.3984 181.609 77.4526 182.64 76.6139 183.756L69.6955 192.453C63.9066 199.88 55.9999 210.159 47.3307 221.595L46.0035 223.346L46.8789 223.092C33.8893 218.348 22.1703 214.168 13.6988 211.232L3.64598 207.815C2.47929 207.346 1.26834 206.996 0.0314789 206.77Z" fill="#070709"/>
<path d="M56.5079 210.949C62.6706 214.837 69.107 218.272 75.7665 221.228C82.1798 224.668 88.8331 227.641 95.6746 230.123C89.5119 226.261 83.0861 222.836 76.4442 219.873C70.0155 216.436 63.3537 213.454 56.5079 210.949Z" fill="#070709"/>
<path d="M56.5079 210.949C62.6706 214.837 69.107 218.272 75.7665 221.228C82.1798 224.668 88.8331 227.641 95.6746 230.123C89.5119 226.261 83.0861 222.836 76.4442 219.873C70.0155 216.436 63.3537 213.454 56.5079 210.949Z" fill="#070709"/>
<path d="M14.8285 256.639C18.2904 250.567 21.3103 244.253 23.8648 237.747C26.8806 231.452 29.4198 224.939 31.4609 218.263C27.9725 224.315 24.9425 230.621 22.3964 237.126C19.3987 243.436 16.8693 249.958 14.8285 256.639Z" fill="#070709"/>
<path d="M14.8285 256.639C18.2904 250.567 21.3103 244.253 23.8648 237.747C26.8806 231.452 29.4198 224.939 31.4609 218.263C27.9725 224.315 24.9425 230.621 22.3964 237.126C19.3987 243.436 16.8693 249.958 14.8285 256.639Z" fill="#070709"/>
<path d="M52.7954 131.198L100.392 138.153L96.0644 167.766L48.4682 160.812L52.7954 131.198Z" fill="#070709"/>
<path d="M95.6429 167.2L99.8255 138.576L53.2188 131.765L49.0362 160.389L95.6429 167.2Z" fill="white" stroke="#070709"/>
<path d="M52.8164 131.205C53.2378 131.826 53.7118 132.41 54.2333 132.95L58.3582 137.467C61.8304 141.276 66.719 146.485 72.177 152.29L72.4545 152.428L72.7595 152.303L73.8822 151.719C81.284 148.062 87.8123 144.628 92.7746 142.25L98.4574 139.261C99.1622 138.93 99.8349 138.535 100.467 138.08C99.7088 138.289 98.9783 138.588 98.2906 138.97L92.4688 141.682C87.6035 144.004 80.8808 147.272 73.479 150.929L72.3702 151.485L72.8143 151.707C67.3424 145.93 62.3984 140.763 58.76 137.078L54.4827 132.728C53.9857 132.16 53.4268 131.649 52.8164 131.205Z" fill="#070709"/>
<path d="M52.8164 131.205C53.2378 131.826 53.7118 132.41 54.2333 132.95L58.3582 137.467C61.8304 141.276 66.719 146.485 72.177 152.29L72.4545 152.428L72.7595 152.303L73.8822 151.719C81.284 148.062 87.8123 144.628 92.7746 142.25L98.4574 139.261C99.1622 138.93 99.8349 138.535 100.467 138.08C99.7088 138.289 98.9783 138.588 98.2906 138.97L92.4688 141.682C87.6035 144.004 80.8808 147.272 73.479 150.929L72.3702 151.485L72.8143 151.707C67.3424 145.93 62.3984 140.763 58.76 137.078L54.4827 132.728C53.9857 132.16 53.4268 131.649 52.8164 131.205Z" fill="#070709"/>
<path d="M80.8264 147.869C83.0218 151.432 85.4541 154.844 88.1068 158.081C90.5376 161.493 93.2116 164.725 96.1078 167.752C93.9201 164.184 91.4875 160.771 88.8274 157.54C86.4103 154.117 83.7356 150.884 80.8264 147.869Z" fill="#070709"/>
<path d="M80.8264 147.869C83.0218 151.432 85.4541 154.844 88.1068 158.081C90.5376 161.493 93.2116 164.725 96.1078 167.752C93.9201 164.184 91.4875 160.771 88.8274 157.54C86.4103 154.117 83.7356 150.884 80.8264 147.869Z" fill="#070709"/>
<path d="M49.0781 160.275C52.4137 158.034 55.5898 155.565 58.5834 152.884C61.7486 150.398 63.3132 148.107 66.1074 145.21C62.7483 147.425 60.9872 149.482 58 152.178C54.826 154.648 51.8435 157.355 49.0781 160.275Z" fill="#070709"/>
</svg>
