<svg width="209" height="220" viewBox="0 0 209 220" fill="none" xmlns="http://www.w3.org/2000/svg">
<path d="M184.039 11.7656H38.438C34.3607 11.7656 31.0554 15.0709 31.0554 19.1482V132.463C31.0554 136.541 34.3607 139.846 38.438 139.846H184.039C188.116 139.846 191.421 136.541 191.421 132.463V19.1482C191.421 15.0709 188.116 11.7656 184.039 11.7656Z" fill="white"/>
<path d="M184.04 140.081H38.4378C36.4186 140.077 34.4832 139.273 33.0554 137.846C31.6276 136.418 30.8237 134.482 30.8198 132.463V19.1471C30.8237 17.1279 31.6276 15.1925 33.0554 13.7647C34.4832 12.3369 36.4186 11.533 38.4378 11.5291H184.04C186.059 11.533 187.994 12.3369 189.422 13.7647C190.85 15.1925 191.654 17.1279 191.657 19.1471V132.463C191.654 134.482 190.85 136.418 189.422 137.846C187.994 139.273 186.059 140.077 184.04 140.081ZM38.4378 12.0009C36.5432 12.0031 34.7268 12.7567 33.3871 14.0964C32.0474 15.4361 31.2938 17.2525 31.2916 19.1471V132.463C31.2938 134.358 32.0474 136.174 33.3871 137.514C34.7268 138.854 36.5432 139.607 38.4378 139.609H184.04C185.934 139.607 187.75 138.854 189.09 137.514C190.43 136.174 191.183 134.358 191.186 132.463V19.1471C191.183 17.2525 190.43 15.4361 189.09 14.0964C187.75 12.7567 185.934 12.0031 184.04 12.0009H38.4378Z" fill="#070709"/>
<path d="M191.458 27.7818H31.0923C31.0614 27.7818 31.0308 27.7757 31.0022 27.7639C30.9737 27.7521 30.9477 27.7347 30.9259 27.7129C30.904 27.691 30.8867 27.6651 30.8749 27.6365C30.863 27.608 30.8569 27.5774 30.8569 27.5465V19.1684C30.8606 17.1452 31.6659 15.2059 33.0966 13.7753C34.5272 12.3446 36.4665 11.5393 38.4897 11.5356H184.053C186.077 11.5393 188.016 12.3446 189.447 13.7753C190.877 15.2059 191.682 17.1452 191.686 19.1684V27.5433C191.687 27.605 191.664 27.6646 191.621 27.7092C191.578 27.7538 191.52 27.7799 191.458 27.7818ZM31.3287 27.3111H191.223V19.1684C191.221 17.2688 190.465 15.4476 189.122 14.1043C187.778 12.761 185.957 12.0054 184.058 12.0032H38.494C36.5943 12.0054 34.7731 12.761 33.4298 14.1043C32.0866 15.4476 31.3309 17.2688 31.3287 19.1684V27.3111Z" fill="#070709"/>
<path d="M173.203 128.205H49.2767C47.593 128.202 45.979 127.532 44.7885 126.342C43.598 125.151 42.9281 123.537 42.9255 121.854V44.8738C42.9281 43.1901 43.598 41.5761 44.7885 40.3856C45.979 39.1951 47.593 38.5252 49.2767 38.5226H173.203C174.887 38.5252 176.501 39.1951 177.692 40.3856C178.882 41.5761 179.552 43.1901 179.555 44.8738V121.854C179.552 123.537 178.882 125.151 177.692 126.342C176.501 127.532 174.887 128.202 173.203 128.205ZM49.2745 38.9923C47.7156 38.994 46.2211 39.6139 45.1187 40.7161C44.0163 41.8183 43.3961 43.3128 43.3941 44.8716V121.851C43.3961 123.41 44.0163 124.905 45.1187 126.007C46.2211 127.109 47.7156 127.729 49.2745 127.731H173.201C174.76 127.729 176.255 127.109 177.357 126.007C178.46 124.905 179.08 123.41 179.082 121.851V44.8738C179.08 43.3149 178.461 41.8202 177.359 40.7176C176.257 39.615 174.762 38.9945 173.203 38.9923H49.2745Z" fill="#070709"/>
<path d="M167.531 21.8409C168.583 20.7889 168.583 19.0834 167.531 18.0314C166.479 16.9794 164.773 16.9794 163.721 18.0314C162.669 19.0834 162.669 20.7889 163.721 21.8409C164.773 22.8929 166.479 22.8929 167.531 21.8409Z" fill="#070709"/>
<path d="M177.048 20.5531C177.389 19.1052 176.493 17.6544 175.045 17.3126C173.597 16.9709 172.146 17.8676 171.804 19.3155C171.463 20.7635 172.359 22.2143 173.807 22.556C175.255 22.8978 176.706 22.001 177.048 20.5531Z" fill="#070709"/>
<path d="M185.856 20.5522C186.198 19.1043 185.301 17.6535 183.853 17.3117C182.405 16.97 180.954 17.8667 180.612 19.3146C180.271 20.7626 181.167 22.2134 182.615 22.5551C184.063 22.8969 185.514 22.0001 185.856 20.5522Z" fill="#070709"/>
<path d="M92.9964 0.427673H5.65188C2.91943 0.427673 0.704346 2.64276 0.704346 5.3752V67.892C0.704346 70.6244 2.91943 72.8395 5.65188 72.8395H92.9964C95.7289 72.8395 97.9439 70.6244 97.9439 67.892V5.3752C97.9439 2.64276 95.7289 0.427673 92.9964 0.427673Z" fill="white"/>
<path d="M92.9953 73.0749H5.65293C4.27911 73.0721 2.96234 72.5252 1.9908 71.5538C1.01926 70.5825 0.472075 69.2658 0.468994 67.892L0.468994 5.37632C0.471795 4.00231 1.01886 2.68539 1.99043 1.71382C2.962 0.742246 4.27892 0.195184 5.65293 0.192383L92.9953 0.192383C94.3693 0.195184 95.6863 0.742246 96.6578 1.71382C97.6294 2.68539 98.1765 4.00231 98.1793 5.37632V67.892C98.1779 69.2664 97.6312 70.584 96.6593 71.5557C95.6874 72.5274 94.3697 73.0738 92.9953 73.0749ZM5.65293 0.664131C4.40361 0.665534 3.20586 1.16245 2.32246 2.04585C1.43906 2.92925 0.942146 4.127 0.940743 5.37632V67.892C0.942146 69.1413 1.43906 70.3391 2.32246 71.2225C3.20586 72.1059 4.40361 72.6028 5.65293 72.6042H92.9953C94.2447 72.6028 95.4424 72.1059 96.3258 71.2225C97.2092 70.3391 97.7061 69.1413 97.7075 67.892V5.37632C97.7061 4.127 97.2092 2.92925 96.3258 2.04585C95.4424 1.16245 94.2447 0.665534 92.9953 0.664131H5.65293Z" fill="#070709"/>
<path d="M88.5396 9.56685H71.9775C71.6489 9.56685 71.3337 9.43629 71.1013 9.20388C70.8688 8.97147 70.7383 8.65626 70.7383 8.32759C70.7383 7.99891 70.8688 7.6837 71.1013 7.45129C71.3337 7.21888 71.6489 7.08832 71.9775 7.08832H88.5396C88.8683 7.08832 89.1835 7.21888 89.4159 7.45129C89.6483 7.6837 89.7789 7.99891 89.7789 8.32759C89.7789 8.65626 89.6483 8.97147 89.4159 9.20388C89.1835 9.43629 88.8683 9.56685 88.5396 9.56685Z" fill="#070709"/>
<path d="M92.0963 14.8739H68.3784C68.0498 14.8739 67.7345 14.7433 67.5021 14.5109C67.2697 14.2785 67.1392 13.9633 67.1392 13.6346C67.1392 13.3059 67.2697 12.9907 67.5021 12.7583C67.7345 12.5259 68.0498 12.3953 68.3784 12.3953H92.0963C92.4249 12.3953 92.7401 12.5259 92.9725 12.7583C93.205 12.9907 93.3355 13.3059 93.3355 13.6346C93.3355 13.9633 93.205 14.2785 92.9725 14.5109C92.7401 14.7433 92.4249 14.8739 92.0963 14.8739Z" fill="#070709"/>
<path d="M92.1577 24.8495H68.4568C68.1281 24.8495 67.8129 24.7189 67.5805 24.4865C67.3481 24.2541 67.2175 23.9389 67.2175 23.6102C67.2175 23.2816 67.3481 22.9664 67.5805 22.7339C67.8129 22.5015 68.1281 22.371 68.4568 22.371H92.1577C92.4863 22.371 92.8015 22.5015 93.034 22.7339C93.2664 22.9664 93.3969 23.2816 93.3969 23.6102C93.3969 23.9389 93.2664 24.2541 93.034 24.4865C92.8015 24.7189 92.4863 24.8495 92.1577 24.8495Z" fill="#070709"/>
<path d="M92.0782 29.6411H68.8936C68.5649 29.6411 68.2497 29.5106 68.0173 29.2782C67.7849 29.0458 67.6543 28.7305 67.6543 28.4019C67.6543 28.0732 67.7849 27.758 68.0173 27.5256C68.2497 27.2932 68.5649 27.1626 68.8936 27.1626H92.0782C92.4068 27.1626 92.722 27.2932 92.9544 27.5256C93.1869 27.758 93.3174 28.0732 93.3174 28.4019C93.3174 28.7305 93.1869 29.0458 92.9544 29.2782C92.722 29.5106 92.4068 29.6411 92.0782 29.6411Z" fill="#070709"/>
<path d="M92.2354 34.5123H69.0508C68.7221 34.5123 68.4069 34.3818 68.1745 34.1494C67.9421 33.917 67.8115 33.6018 67.8115 33.2731C67.8115 32.9444 67.9421 32.6292 68.1745 32.3968C68.4069 32.1644 68.7221 32.0338 69.0508 32.0338H92.2354C92.5641 32.0338 92.8793 32.1644 93.1117 32.3968C93.3441 32.6292 93.4747 32.9444 93.4747 33.2731C93.4747 33.6018 93.3441 33.917 93.1117 34.1494C92.8793 34.3818 92.5641 34.5123 92.2354 34.5123Z" fill="#070709"/>
<path d="M92.1566 39.304H68.4568C68.1281 39.304 67.8129 39.1734 67.5805 38.941C67.3481 38.7086 67.2175 38.3934 67.2175 38.0647C67.2175 37.736 67.3481 37.4208 67.5805 37.1884C67.8129 36.956 68.1281 36.8254 68.4568 36.8254H92.1566C92.4853 36.8254 92.8005 36.956 93.0329 37.1884C93.2653 37.4208 93.3959 37.736 93.3959 38.0647C93.3959 38.3934 93.2653 38.7086 93.0329 38.941C92.8005 39.1734 92.4853 39.304 92.1566 39.304Z" fill="#070709"/>
<path d="M92.0782 44.2537H68.3784C68.0498 44.2537 67.7345 44.1231 67.5021 43.8907C67.2697 43.6583 67.1392 43.3431 67.1392 43.0144C67.1392 42.6857 67.2697 42.3705 67.5021 42.1381C67.7345 41.9057 68.0498 41.7751 68.3784 41.7751H92.0782C92.4069 41.7751 92.7221 41.9057 92.9545 42.1381C93.1869 42.3705 93.3175 42.6857 93.3175 43.0144C93.3175 43.3431 93.1869 43.6583 92.9545 43.8907C92.7221 44.1231 92.4069 44.2537 92.0782 44.2537Z" fill="#070709"/>
<path d="M77.0544 20.0747H68.4219C68.0932 20.0747 67.778 19.9441 67.5456 19.7117C67.3132 19.4793 67.1826 19.1641 67.1826 18.8354C67.1826 18.5067 67.3132 18.1915 67.5456 17.9591C67.778 17.7267 68.0932 17.5961 68.4219 17.5961H77.0544C77.383 17.5961 77.6982 17.7267 77.9307 17.9591C78.1631 18.1915 78.2936 18.5067 78.2936 18.8354C78.2936 19.1641 78.1631 19.4793 77.9307 19.7117C77.6982 19.9441 77.383 20.0747 77.0544 20.0747Z" fill="#070709"/>
<path d="M92.2149 20.0747H83.1065C82.7778 20.0747 82.4626 19.9441 82.2302 19.7117C81.9977 19.4793 81.8672 19.1641 81.8672 18.8354C81.8672 18.5067 81.9977 18.1915 82.2302 17.9591C82.4626 17.7267 82.7778 17.5961 83.1065 17.5961H92.2149C92.5436 17.5961 92.8588 17.7267 93.0912 17.9591C93.3236 18.1915 93.4542 18.5067 93.4542 18.8354C93.4542 19.1641 93.3236 19.4793 93.0912 19.7117C92.8588 19.9441 92.5436 20.0747 92.2149 20.0747Z" fill="#070709"/>
<path d="M30.5253 48.2014H7.16575C6.99988 48.2063 6.83473 48.1778 6.68007 48.1177C6.52542 48.0576 6.38439 47.967 6.26536 47.8514C6.14632 47.7358 6.05169 47.5975 5.98707 47.4447C5.92246 47.2918 5.88916 47.1276 5.88916 46.9616C5.88916 46.7957 5.92246 46.6315 5.98707 46.4786C6.05169 46.3258 6.14632 46.1875 6.26536 46.0719C6.38439 45.9563 6.52542 45.8657 6.68007 45.8056C6.83473 45.7455 6.99988 45.717 7.16575 45.7218H30.5253C30.8478 45.7313 31.154 45.866 31.3788 46.0975C31.6036 46.329 31.7293 46.639 31.7293 46.9616C31.7293 47.2843 31.6036 47.5943 31.3788 47.8258C31.154 48.0572 30.8478 48.192 30.5253 48.2014Z" fill="#070709"/>
<path d="M52.7015 48.1222H34.8164C34.4877 48.1222 34.1725 47.9916 33.9401 47.7592C33.7077 47.5268 33.5771 47.2116 33.5771 46.8829C33.5771 46.5542 33.7077 46.239 33.9401 46.0066C34.1725 45.7742 34.4877 45.6436 34.8164 45.6436H52.7005C53.0291 45.6436 53.3443 45.7742 53.5768 46.0066C53.8092 46.239 53.9397 46.5542 53.9397 46.8829C53.9397 47.2116 53.8092 47.5268 53.5768 47.7592C53.3443 47.9916 53.0291 48.1222 52.7005 48.1222H52.7015Z" fill="#070709"/>
<path d="M23.5518 43.0324H7.08619C6.75752 43.0324 6.4423 42.9019 6.2099 42.6695C5.97749 42.437 5.84692 42.1218 5.84692 41.7932C5.84692 41.4645 5.97749 41.1493 6.2099 40.9169C6.4423 40.6845 6.75752 40.5539 7.08619 40.5539H23.5518C23.8805 40.5539 24.1957 40.6845 24.4281 40.9169C24.6605 41.1493 24.7911 41.4645 24.7911 41.7932C24.7911 42.1218 24.6605 42.437 24.4281 42.6695C24.1957 42.9019 23.8805 43.0324 23.5518 43.0324Z" fill="#070709"/>
<path d="M52.7632 69.532H7.51345C6.99264 69.5314 6.49332 69.3243 6.12505 68.956C5.75677 68.5877 5.54963 68.0884 5.54907 67.5676V53.271C5.54963 52.7501 5.75677 52.2508 6.12505 51.8826C6.49332 51.5143 6.99264 51.3071 7.51345 51.3066H52.7632C53.2838 51.3074 53.7828 51.5147 54.1509 51.8829C54.5189 52.2512 54.7259 52.7503 54.7265 53.271V67.5676C54.7259 68.0882 54.5189 68.5874 54.1509 68.9556C53.7828 69.3239 53.2838 69.5311 52.7632 69.532ZM7.51345 51.7783C7.11767 51.7786 6.73818 51.936 6.45831 52.2158C6.17845 52.4957 6.0211 52.8752 6.02082 53.271V67.5676C6.0211 67.9634 6.17845 68.3429 6.45831 68.6227C6.73818 68.9026 7.11767 69.0599 7.51345 69.0602H52.7632C53.1589 69.0599 53.5384 68.9026 53.8183 68.6227C54.0982 68.3429 54.2555 67.9634 54.2558 67.5676V53.271C54.2555 52.8752 54.0982 52.4957 53.8183 52.2158C53.5384 51.936 53.1589 51.7786 52.7632 51.7783H7.51345Z" fill="#070709"/>
<path d="M92.513 69.532H60.1468C59.6259 69.5314 59.1266 69.3243 58.7583 68.956C58.3901 68.5877 58.1829 68.0884 58.1824 67.5676V53.2699C58.1832 52.7493 58.3905 52.2502 58.7587 51.8822C59.127 51.5141 59.6261 51.3071 60.1468 51.3066H92.513C93.0335 51.3071 93.5325 51.5142 93.9006 51.8822C94.2687 52.2503 94.4757 52.7494 94.4763 53.2699V67.5676C94.4757 68.0882 94.2687 68.5874 93.9007 68.9556C93.5326 69.3239 93.0336 69.5311 92.513 69.532ZM60.1468 51.7773C59.751 51.7775 59.3715 51.9349 59.0916 52.2148C58.8118 52.4946 58.6544 52.8741 58.6541 53.2699V67.5676C58.6544 67.9634 58.8118 68.3429 59.0916 68.6227C59.3715 68.9026 59.751 69.0599 60.1468 69.0602H92.513C92.9087 69.0597 93.288 68.9022 93.5678 68.6224C93.8476 68.3426 94.005 67.9633 94.0056 67.5676V53.2699C94.005 52.8742 93.8476 52.4949 93.5678 52.2151C93.288 51.9353 92.9087 51.7778 92.513 51.7773H60.1468Z" fill="#070709"/>
<path d="M62.1102 7.00031H7.67256C6.63098 7.00031 5.78662 7.84467 5.78662 8.88624V32.5341C5.78662 33.5757 6.63098 34.42 7.67256 34.42H62.1102C63.1518 34.42 63.9962 33.5757 63.9962 32.5341V8.88624C63.9962 7.84467 63.1518 7.00031 62.1102 7.00031Z" fill="#070709"/>
<path d="M173.736 127.923C173.51 126.744 173.295 125.869 173.1 125.04C171.662 118.906 170.118 113.909 168.991 110.536L165.935 99.3973L128.223 106.254C128.223 106.254 127.002 114.489 124.512 127.923H173.736Z" fill="#070709"/>
<path d="M133.098 126.516C137.238 126.516 139.932 122.006 138.081 118.173C137.657 117.294 137.223 116.408 136.798 115.549C133.618 109.128 124.511 110.53 123.377 117.65C123.357 117.776 123.102 117.902 123.087 118.029C122.498 122.534 125.965 126.516 130.357 126.516H133.098Z" fill="#070709"/>
<path d="M184.911 76.0241C184.911 60.1925 181.837 52.883 160.299 46.9623C154.829 45.4591 146.764 44.823 138.952 45.7061C117.19 45.9753 108.874 55.6849 101.254 55.4442C92.8659 55.1792 85.8988 44.2929 85.8988 44.2929C83.1224 41.2791 80.1742 42.8088 78.6021 43.7003C76.714 44.7742 75.9083 47.2856 75.568 49.0486C75.3479 50.1843 75.5356 51.3612 76.0981 52.372C78.8788 57.3546 88.6498 73.7163 97.6915 75.0584C104.865 76.127 119.243 72.1335 125.795 70.8688C130.413 86.9952 123.079 118.025 123.079 118.025C128.555 114.102 146.9 119.16 158.655 123.627C164.533 125.862 169.811 124.615 173.663 122.41C177.516 120.205 170.695 97.4299 170.695 97.4299C170.695 97.4299 184.911 89.8268 184.911 76.0241Z" fill="white"/>
<path d="M164.929 125.053C162.755 125.043 160.602 124.635 158.576 123.848C148.089 119.863 128.841 114.191 123.22 118.216C123.181 118.244 123.134 118.259 123.086 118.26C123.039 118.26 122.992 118.246 122.952 118.22C122.912 118.193 122.881 118.155 122.864 118.11C122.846 118.066 122.842 118.017 122.853 117.97C122.926 117.662 130.062 87.0831 125.631 71.1411C124.238 71.4157 122.534 71.7995 120.578 72.2405C113.29 73.8826 103.307 76.1321 97.6617 75.2915C88.5225 73.9303 78.6921 57.4891 75.8966 52.4822C75.3057 51.4235 75.1075 50.1902 75.3369 48.9997C75.7047 47.0915 76.5497 44.5928 78.4854 43.4871C79.8636 42.7048 83.0778 40.874 86.0716 44.1232C86.0809 44.1334 86.0895 44.1444 86.097 44.1561C86.1659 44.2621 93.0937 54.9448 101.263 55.2035C104.125 55.2946 107.129 53.9313 110.932 52.2129C117.067 49.4354 125.471 45.6317 138.949 45.4653C146.296 44.6373 154.511 45.1218 160.363 46.73C171.043 49.6654 177.367 53.0271 180.87 57.6279C184.42 62.2924 185.147 68.3531 185.147 76.0187C185.147 83.2275 181.246 88.7231 177.974 92.0624C175.89 94.1849 173.538 96.026 170.977 97.5389C171.277 98.5598 172.767 103.72 173.859 109.04C175.507 117.074 175.482 121.638 173.786 122.609C171.6 123.865 168.566 125.053 164.929 125.053ZM129.353 116.392C137.751 116.392 150.767 120.376 158.743 123.408C165.055 125.806 170.279 124.078 173.551 122.206C176.578 120.473 172.354 103.783 170.476 97.4976C170.461 97.4455 170.463 97.3896 170.484 97.3393C170.505 97.289 170.543 97.2476 170.591 97.222C170.732 97.1467 184.681 89.5234 184.681 76.0198C184.681 60.9864 182.27 53.2401 160.243 47.1848C154.445 45.5946 146.3 45.1123 138.984 45.9349C125.58 46.1014 117.229 49.8817 111.131 52.6422C107.273 54.3882 104.231 55.7685 101.253 55.6741C92.9209 55.4165 86.1341 45.0879 85.7122 44.4327C83.3015 41.8302 80.824 42.7027 78.7155 43.9027C76.9355 44.9151 76.1458 47.2834 75.7959 49.0909C75.5877 50.1723 75.7679 51.2926 76.3048 52.2542C79.077 57.2113 88.8045 73.4956 97.7306 74.824C103.29 75.653 113.222 73.414 120.474 71.7793C122.535 71.315 124.316 70.9132 125.754 70.6355C125.811 70.6249 125.871 70.6361 125.921 70.6668C125.971 70.6975 126.008 70.7456 126.025 70.8019C130.265 85.6159 124.392 113.253 123.439 117.52C124.862 116.728 126.913 116.392 129.353 116.392Z" fill="#070709"/>
<path d="M81.3753 54.5294C78.9497 54.5294 77.3765 51.8442 77.3108 51.7286C77.2796 51.6745 77.2712 51.6102 77.2874 51.5498C77.3036 51.4895 77.3431 51.4381 77.3972 51.4069C77.4513 51.3757 77.5156 51.3672 77.576 51.3834C77.6363 51.3996 77.6877 51.4391 77.7189 51.4933C77.7338 51.5198 79.254 54.0948 81.4187 54.0577C83.0863 54.0322 84.7369 52.5205 86.3249 49.5639C86.3395 49.5366 86.3594 49.5124 86.3833 49.4928C86.4073 49.4732 86.4348 49.4585 86.4645 49.4495C86.4941 49.4406 86.5252 49.4375 86.556 49.4406C86.5868 49.4437 86.6167 49.4528 86.644 49.4674C86.6713 49.482 86.6954 49.5019 86.715 49.5258C86.7347 49.5498 86.7494 49.5773 86.7583 49.607C86.7673 49.6366 86.7703 49.6677 86.7672 49.6985C86.7642 49.7293 86.7551 49.7592 86.7405 49.7865C85.0644 52.9064 83.276 54.5019 81.424 54.5294H81.3753Z" fill="#070709"/>
<path d="M151.136 90.5826C151.082 90.5831 151.029 90.565 150.987 90.5314C150.945 90.4979 150.916 90.4508 150.904 90.3982C150.892 90.3456 150.899 90.2905 150.923 90.2423C150.947 90.194 150.987 90.1555 151.036 90.1331C159.026 86.4365 162.9 81.0162 164.741 77.1129C166.739 72.8841 166.847 69.4801 166.848 69.4493C166.849 69.388 166.875 69.3298 166.919 69.287C166.963 69.2442 167.022 69.2203 167.083 69.2203H167.089C167.12 69.221 167.151 69.2278 167.179 69.2403C167.207 69.2528 167.233 69.2707 167.254 69.2931C167.275 69.3154 167.292 69.3418 167.303 69.3706C167.314 69.3994 167.319 69.4301 167.318 69.461C167.318 69.603 167.212 72.9774 165.177 77.2931C163.302 81.2695 159.363 86.8033 151.234 90.5603C151.204 90.5748 151.17 90.5824 151.136 90.5826Z" fill="#070709"/>
<path d="M154.667 101.687C154.607 101.683 154.551 101.657 154.51 101.613C154.469 101.569 154.447 101.511 154.447 101.451C154.447 101.391 154.469 101.334 154.51 101.29C154.551 101.246 154.607 101.22 154.667 101.216C164.465 101.099 170.927 97.4574 170.993 97.4203C171.02 97.4049 171.049 97.395 171.08 97.3911C171.111 97.3871 171.142 97.3893 171.172 97.3974C171.202 97.4055 171.23 97.4195 171.254 97.4384C171.279 97.4573 171.299 97.4809 171.315 97.5078C171.33 97.5346 171.34 97.5643 171.344 97.595C171.348 97.6257 171.346 97.6569 171.337 97.6868C171.329 97.7166 171.315 97.7446 171.296 97.7691C171.278 97.7936 171.254 97.8141 171.227 97.8295C171.162 97.8666 164.594 101.569 154.675 101.687H154.667Z" fill="#070709"/>
<path d="M145.598 100.827C145.598 100.827 147.605 101.039 151.577 100.048C154.58 99.2955 153.697 89.5531 150.042 92.1907C146.992 94.3947 145.209 94.6809 145.209 94.6809L142.269 93.2158C141.12 92.6399 139.881 92.2669 138.605 92.1133C133.537 91.5165 133.841 92.6868 133.841 92.6868C133.629 93.8699 134.047 94.0491 134.978 94.4402L138.942 96.1057C139.069 96.163 139.18 96.2507 139.265 96.361C139.35 96.4714 139.406 96.601 139.429 96.7383C139.452 96.8757 139.441 97.0167 139.397 97.1487C139.352 97.2808 139.276 97.3999 139.175 97.4955C138.491 98.1287 137.696 98.6297 136.83 98.9733C135.266 99.5903 132.543 100.583 129.736 101.218C128.416 101.515 127.997 103.151 129.214 103.756L137.965 104.401C139.069 104.48 140.177 104.331 141.22 103.964C142.264 103.597 143.221 103.019 144.032 102.267L145.598 100.827Z" fill="white"/>
<path d="M138.54 104.659C138.342 104.659 138.144 104.651 137.947 104.636L129.196 103.992C129.165 103.99 129.135 103.981 129.108 103.967C128.505 103.667 128.19 103.11 128.266 102.477C128.352 101.758 128.921 101.159 129.682 100.987C132.537 100.342 135.331 99.3114 136.742 98.7538C137.581 98.4222 138.351 97.9368 139.012 97.3227C139.087 97.2531 139.144 97.1656 139.176 97.0685C139.208 96.9714 139.215 96.8677 139.196 96.7672C139.181 96.6698 139.141 96.5778 139.08 96.5001C139.02 96.4223 138.94 96.3614 138.849 96.323L134.891 94.6565C133.978 94.2738 133.372 94.0204 133.607 92.6794C133.604 92.6037 133.616 92.5281 133.643 92.4572C133.669 92.3862 133.71 92.3212 133.762 92.266C134.266 91.6882 135.906 91.5578 138.638 91.879C139.941 92.0358 141.207 92.4167 142.38 93.0049L145.241 94.436C145.595 94.3554 147.277 93.8985 149.905 91.9978C150.878 91.296 151.601 91.4677 152.042 91.7349C153.366 92.5427 153.844 95.2777 153.526 97.3534C153.279 98.9743 152.589 100.042 151.633 100.28C148.135 101.157 146.153 101.105 145.681 101.074L144.196 102.444C142.654 103.863 140.636 104.654 138.54 104.659ZM129.279 103.525L137.981 104.161C139.052 104.235 140.128 104.089 141.14 103.733C142.153 103.376 143.083 102.816 143.872 102.088L145.437 100.648C145.461 100.626 145.491 100.609 145.523 100.598C145.554 100.588 145.588 100.584 145.621 100.588C145.641 100.588 147.645 100.784 151.519 99.8139C152.281 99.6231 152.843 98.6966 153.06 97.2697C153.355 95.3403 152.916 92.8172 151.788 92.1292C151.329 91.8483 150.785 91.9299 150.173 92.373C147.114 94.5844 145.315 94.8929 145.24 94.9046C145.191 94.9126 145.141 94.9051 145.098 94.8834L142.157 93.4183C141.033 92.8539 139.819 92.4888 138.57 92.3391C134.982 91.9151 134.247 92.407 134.107 92.567L134.063 92.619C134.07 92.6539 134.07 92.69 134.063 92.725C133.878 93.7226 134.129 93.8275 135.058 94.2187L139.022 95.8841C139.185 95.9538 139.328 96.0633 139.438 96.2026C139.548 96.3418 139.621 96.5065 139.651 96.6813C139.683 96.8594 139.67 97.0428 139.613 97.2145C139.556 97.3863 139.457 97.5409 139.324 97.664C138.619 98.318 137.799 98.835 136.905 99.1885C135.166 99.8744 132.517 100.823 129.777 101.442C129.511 101.493 129.267 101.624 129.078 101.819C128.89 102.013 128.766 102.261 128.724 102.529C128.683 102.952 128.881 103.311 129.279 103.525Z" fill="#070709"/>
<path d="M61.6267 29.3009C61.7119 29.0256 61.8965 28.7919 62.1446 28.6453C62.3928 28.4987 62.6865 28.4497 62.9688 28.5079C64.5749 28.862 72.849 30.6843 74.3915 31.0352C75.9339 31.3861 75.9965 33.1035 76.8753 34.6767C77.6396 36.0453 80.2677 41.0585 83.1374 44.5516C83.5588 45.0748 83.8137 45.7123 83.8693 46.3818C83.9249 47.0513 83.7785 47.7221 83.449 48.3076C83.0632 48.9935 82.5734 49.6677 81.9914 50.0652C80.4956 51.0861 79.3719 52.3052 76.3728 45.1198C76.1905 44.6804 75.8811 44.3054 75.4844 44.0427C74.625 43.4705 73.8515 42.7787 73.1872 41.9883C73.1872 41.9883 68.1559 48.1305 66.87 35.6573C66.7555 34.5484 67.2495 33.4692 68.1835 32.9233C68.2577 32.8798 68.3351 32.8363 68.4178 32.7929L62.39 30.8603C62.2374 30.8081 62.0966 30.7264 61.9756 30.6198C61.8546 30.5131 61.7558 30.3837 61.6849 30.2389C61.614 30.094 61.5724 29.9366 61.5624 29.7757C61.5524 29.6147 61.5743 29.4534 61.6267 29.3009Z" fill="white"/>
<path d="M80.377 51.0775C80.2422 51.0773 80.108 51.058 79.9784 51.0203C78.8632 50.6948 77.7183 48.9573 76.1514 45.2077C75.9874 44.8118 75.7087 44.474 75.3511 44.2377C74.5476 43.7035 73.8177 43.0662 73.18 42.3422C72.6987 42.8511 71.3566 44.0734 69.9339 43.6462C68.2377 43.1352 67.1236 40.4552 66.6317 35.6795C66.5151 34.5515 66.9868 33.4712 67.8466 32.8564L62.3138 31.0828C62.1361 31.0249 61.9716 30.9323 61.8298 30.8104C61.688 30.6885 61.5719 30.5397 61.488 30.3725C61.3992 30.1963 61.346 30.0043 61.3315 29.8075C61.3169 29.6107 61.3413 29.4129 61.4032 29.2255C61.5073 28.8962 61.7297 28.6171 62.0275 28.4421C62.3252 28.267 62.6773 28.2085 63.0156 28.2778C65.7126 28.8714 73.022 30.4828 74.4404 30.8051C75.6384 31.0775 76.0306 32.092 76.4546 33.1659C76.6295 33.6452 76.8374 34.1117 77.0769 34.5621C77.1607 34.7116 77.2667 34.9056 77.395 35.1356C78.4063 36.9823 80.7767 41.3076 83.3157 44.402C83.7687 44.9619 84.0432 45.6449 84.1037 46.3625C84.1642 47.0802 84.0078 47.7995 83.6549 48.4273C83.1757 49.2754 82.6605 49.8976 82.1252 50.2634L81.928 50.4001C81.4435 50.733 80.9463 51.0775 80.377 51.0775ZM73.1831 41.7486C73.2175 41.7483 73.2515 41.7556 73.2827 41.7701C73.3139 41.7846 73.3414 41.8058 73.3634 41.8323C74.0129 42.6072 74.7697 43.2854 75.6108 43.8465C76.0465 44.1344 76.3862 44.5461 76.5861 45.0286C78.0522 48.5354 79.1717 50.2962 80.1099 50.5697C80.64 50.7224 81.1085 50.3917 81.6577 50.009L81.8591 49.8701C82.3351 49.5457 82.8005 48.9806 83.2436 48.1919C83.55 47.6479 83.6863 47.0245 83.6349 46.4022C83.5835 45.78 83.3468 45.1874 82.9552 44.701C80.3876 41.5726 78.0024 37.2209 76.9847 35.3625C76.8585 35.1335 76.7536 34.9384 76.6667 34.7921C76.4161 34.3232 76.199 33.8372 76.0168 33.3377C75.6108 32.3009 75.2906 31.4814 74.3365 31.2652C72.9202 30.9471 65.6118 29.3315 62.9149 28.7379C62.6898 28.6928 62.456 28.7329 62.2587 28.8504C62.0615 28.9679 61.9149 29.1545 61.8474 29.3739C61.8041 29.5021 61.787 29.6377 61.797 29.7726C61.807 29.9075 61.844 30.0391 61.9057 30.1595C61.961 30.2712 62.038 30.3708 62.1323 30.4523C62.2266 30.5339 62.3363 30.5958 62.4548 30.6344L68.4826 32.568C68.5268 32.5821 68.5659 32.609 68.5949 32.6452C68.6239 32.6814 68.6416 32.7254 68.6456 32.7716C68.6497 32.8178 68.64 32.8642 68.6178 32.905C68.5956 32.9457 68.5618 32.979 68.5208 33.0006C68.4413 33.0419 68.366 33.0843 68.295 33.1257C67.4607 33.6133 66.99 34.5971 67.0971 35.6328C67.6833 41.3224 69.036 42.8861 70.0654 43.1956C71.5092 43.6292 72.9817 41.8557 72.9966 41.8376C73.0186 41.8108 73.0463 41.7893 73.0776 41.7744C73.1089 41.7596 73.1432 41.7518 73.1778 41.7518L73.1831 41.7486Z" fill="#070709"/>
<path d="M74.3351 39.408C74.2934 39.4083 74.2524 39.3973 74.2164 39.3762C73.8167 39.1429 73.0821 38.6214 72.7842 38.4083C71.1559 37.2422 70.2474 36.076 69.8509 35.4919C69.5795 35.1011 69.4375 34.6351 69.4449 34.1594C69.4682 33.2911 70.0184 33.0993 70.2834 33.006C71.2523 32.6678 72.8065 33.6007 72.9803 33.7088C73.0335 33.7417 73.0714 33.7944 73.0857 33.8552C73.1 33.916 73.0895 33.9801 73.0566 34.0332C73.0237 34.0863 72.9711 34.1242 72.9103 34.1386C72.8494 34.1529 72.7854 34.1424 72.7322 34.1095C72.3082 33.8509 71.0806 33.2275 70.4392 33.4512C70.1891 33.5381 69.9304 33.6282 69.9155 34.1721C69.9111 34.5507 70.0249 34.9213 70.241 35.2322C70.6205 35.7941 71.4909 36.904 73.0588 38.0288C73.2867 38.192 74.0616 38.7433 74.4539 38.9723C74.4987 38.9983 74.5337 39.0383 74.5534 39.0862C74.5731 39.1342 74.5764 39.1872 74.5629 39.2373C74.5494 39.2873 74.5197 39.3314 74.4785 39.3629C74.4374 39.3943 74.387 39.4113 74.3351 39.4111V39.408Z" fill="#070709"/>
<path d="M73.2507 42.2958C73.2186 42.2957 73.1868 42.2891 73.1572 42.2763C73.1277 42.2636 73.1011 42.2449 73.079 42.2216C71.7454 40.8042 71.8249 39.2967 71.8291 39.2331C71.8304 39.2018 71.8379 39.171 71.8512 39.1426C71.8645 39.1143 71.8834 39.0888 71.9067 39.0678C71.93 39.0468 71.9572 39.0307 71.9868 39.0204C72.0164 39.0101 72.0478 39.0058 72.0791 39.0077C72.1104 39.0097 72.141 39.0179 72.1691 39.0319C72.1971 39.0459 72.2222 39.0653 72.2426 39.0891C72.2631 39.1128 72.2786 39.1404 72.2882 39.1703C72.2979 39.2001 72.3014 39.2316 72.2987 39.2628C72.2987 39.2851 72.2394 40.641 73.4225 41.8983C73.4436 41.9208 73.4602 41.9473 73.4711 41.9762C73.482 42.0052 73.4871 42.036 73.4862 42.0669C73.4852 42.0978 73.4781 42.1282 73.4654 42.1564C73.4526 42.1846 73.4344 42.21 73.4119 42.2311C73.3686 42.2728 73.3108 42.296 73.2507 42.2958Z" fill="#070709"/>
<path d="M152.477 46.5922L151.931 31.8387L141.581 37.2739L141.694 46.6028C141.771 48.6806 143.478 49.8404 143.478 49.8404C145.598 51.4486 148.556 51.1571 150.712 49.6082L151.211 49.2489C151.626 48.9461 151.959 48.5447 152.18 48.0808C152.401 47.617 152.503 47.1054 152.477 46.5922Z" fill="white"/>
<path d="M146.784 51.1561C145.541 51.1683 144.329 50.7704 143.334 50.0239C143.271 49.9815 141.539 48.7793 141.459 46.6072L141.346 37.2782C141.345 37.2346 141.357 37.1918 141.379 37.1543C141.401 37.1169 141.433 37.0864 141.472 37.0662L151.821 31.631C151.856 31.6117 151.895 31.6016 151.935 31.6016C151.974 31.6016 152.014 31.6117 152.049 31.631C152.083 31.651 152.112 31.6794 152.132 31.7135C152.153 31.7476 152.165 31.7863 152.166 31.8261L152.712 46.5785C152.741 47.1303 152.631 47.6806 152.393 48.1792C152.155 48.6778 151.796 49.1089 151.349 49.4334L150.849 49.7917C149.67 50.6606 148.248 51.1378 146.784 51.1561ZM141.819 37.415L141.931 46.5955C142.001 48.5185 143.594 49.6306 143.61 49.6423C145.545 51.1126 148.34 51.0204 150.574 49.4122L151.073 49.0539C151.457 48.7752 151.764 48.4048 151.968 47.9767C152.172 47.5486 152.265 47.0763 152.239 46.6029L151.709 32.2236L141.819 37.415Z" fill="#070709"/>
<path d="M136.884 14.9418C139.646 14.7764 136.174 17.698 146.391 14.6322C150.46 13.4088 148.405 18.2949 149.458 17.9811C153.358 16.815 153.224 16.8553 155.128 17.3694C156.389 17.7097 157.21 20.1013 156.973 21.8876C156.655 24.2453 154.768 24.8559 153.094 29.8384C151.917 33.3368 152.206 35.4644 150.842 35.9754C149.479 36.4864 148.446 34.5888 146.9 35.0361C144.898 35.6139 145.294 39.179 143.344 40.6547C142.117 41.5866 139.257 42.0201 134.675 39.7271C134.311 39.5388 134.022 39.2313 133.858 38.8561C133.693 38.4808 133.662 38.0605 133.77 37.6652C134.051 36.6115 134.414 35.2821 134.863 34.0418C137.005 28.1306 139.05 26.7938 138.309 25.263C137.172 22.917 132.859 24.2633 132.144 22.336C131.402 20.3345 133.101 15.1665 136.884 14.9418Z" fill="#070709"/>
<path d="M146.526 25.1177L145.736 26.6368C145.363 27.3526 145.039 28.0929 144.766 28.8524C144.254 30.2804 143.282 32.6964 142.752 34.0608C141.043 38.4485 135.797 33.6282 135.797 33.6282L135.429 32.4197L134.724 32.1239C134.607 32.0777 134.502 32.0058 134.416 31.9135C134.331 31.8212 134.267 31.7108 134.23 31.5905C134.193 31.4702 134.183 31.3431 134.201 31.2186C134.22 31.094 134.266 30.9752 134.336 30.8709C135.39 29.2691 137.589 25.6763 138.379 22.4451C138.379 22.4462 142.88 21.2493 146.526 25.1177Z" fill="white"/>
<path d="M140.377 36.1407C138.207 36.1407 135.75 33.907 135.635 33.8021C135.604 33.7731 135.582 33.7366 135.569 33.6961L135.237 32.5946L134.633 32.3413C134.456 32.2701 134.301 32.153 134.184 32.002C134.047 31.8219 133.97 31.604 133.962 31.3782C133.954 31.1523 134.017 30.9296 134.14 30.7405C135.082 29.3104 137.356 25.6329 138.15 22.389C138.16 22.3478 138.181 22.31 138.21 22.2798C138.24 22.2495 138.277 22.2279 138.318 22.2172C138.364 22.2056 142.998 21.031 146.693 24.9555C146.727 24.9911 146.748 25.0362 146.755 25.0846C146.762 25.133 146.754 25.1823 146.731 25.2258L145.94 26.7439C145.573 27.4505 145.255 28.1812 144.986 28.9309C144.613 29.9687 143.99 31.5494 143.487 32.8204C143.293 33.3134 143.113 33.7692 142.967 34.1456C142.549 35.2173 141.89 35.8651 141.007 36.0697C140.8 36.1171 140.589 36.141 140.377 36.1407ZM136.002 33.4968C136.383 33.8328 138.996 36.0548 140.903 35.6117C141.625 35.4442 142.175 34.8929 142.53 33.9749C142.676 33.5986 142.857 33.1416 143.052 32.6476C143.552 31.3808 144.174 29.8034 144.544 28.7729C144.821 28.0032 145.149 27.253 145.527 26.5276L146.239 25.159C145.268 24.1397 144.06 23.3766 142.722 22.9379C141.384 22.4991 139.958 22.3983 138.572 22.6444C137.763 25.8014 135.702 29.2256 134.534 31.0013C134.464 31.1093 134.429 31.2362 134.433 31.3649C134.438 31.4935 134.482 31.6175 134.56 31.72C134.627 31.804 134.715 31.8688 134.816 31.9077L135.521 32.2034C135.553 32.2169 135.581 32.2373 135.605 32.2631C135.628 32.289 135.645 32.3196 135.655 32.3529L136.002 33.4968Z" fill="#070709"/>
<path d="M145.41 30.4172C145.41 30.4172 147.306 26.7641 148.731 28.0087C150.155 29.2532 147.97 33.2191 145.41 30.4172Z" fill="white"/>
<path d="M138.389 31.0415C138.205 31.047 138.021 31.0156 137.849 30.9494C137.677 30.8831 137.52 30.7833 137.387 30.6556C136.894 30.1807 136.681 29.2775 136.751 27.9598C136.807 26.9506 137.09 26.3474 137.615 26.1152C137.795 26.0306 137.99 25.984 138.189 25.9782C138.388 25.9723 138.585 26.0074 138.77 26.0813C138.909 26.1355 139.035 26.2172 139.142 26.3216C139.248 26.426 139.333 26.5509 139.39 26.6887C140.02 28.3605 139.757 29.7344 139.301 30.4627C139.089 30.8072 138.825 31.0097 138.568 31.033C138.51 31.0415 138.45 31.0415 138.389 31.0415ZM138.249 26.4491C138.098 26.4504 137.948 26.4833 137.81 26.5456C137.463 26.6993 137.272 27.1711 137.226 27.9863C137.162 29.1397 137.332 29.9464 137.714 30.3185C137.919 30.5168 138.187 30.5973 138.529 30.5655C138.61 30.5581 138.761 30.4457 138.905 30.2146C139.284 29.6114 139.522 28.3701 138.953 26.8562C138.918 26.7788 138.868 26.7091 138.806 26.651C138.744 26.593 138.671 26.5478 138.592 26.518C138.483 26.4723 138.367 26.4485 138.249 26.4481V26.4491Z" fill="#070709"/>
<path d="M147.123 27.576H147.091L138.454 26.447C138.422 26.4442 138.392 26.435 138.364 26.42C138.336 26.405 138.311 26.3845 138.292 26.3598C138.272 26.3351 138.257 26.3067 138.249 26.2762C138.24 26.2457 138.238 26.2138 138.242 26.1824C138.246 26.151 138.256 26.1207 138.272 26.0934C138.288 26.0661 138.31 26.0424 138.335 26.0235C138.361 26.0047 138.39 25.9912 138.42 25.9838C138.451 25.9764 138.483 25.9753 138.514 25.9806L147.152 27.1085C147.211 27.1165 147.265 27.1465 147.303 27.1925C147.34 27.2386 147.359 27.2972 147.356 27.3566C147.352 27.416 147.326 27.4718 147.282 27.5127C147.239 27.5536 147.182 27.5766 147.123 27.5771V27.576Z" fill="#070709"/>
<path d="M134.616 30.116C134.579 30.1166 134.543 30.1082 134.51 30.0917C134.262 29.9729 134.086 29.5118 134.001 29.2436C133.738 28.4082 133.649 27.1753 134.189 26.218C134.265 26.0696 134.374 25.9405 134.507 25.8403C134.64 25.7402 134.795 25.6718 134.959 25.6403C135.776 25.4855 136.733 26.2541 136.773 26.2869C136.822 26.3264 136.853 26.3836 136.859 26.4458C136.865 26.508 136.847 26.5702 136.807 26.6187C136.768 26.6672 136.711 26.6981 136.648 26.7044C136.586 26.7108 136.524 26.6922 136.476 26.6527C136.248 26.4671 135.543 26.0092 135.045 26.1035C134.949 26.123 134.859 26.1644 134.782 26.2246C134.704 26.2847 134.642 26.3619 134.599 26.4502C133.877 27.7319 134.493 29.498 134.723 29.6697C134.751 29.6829 134.776 29.7016 134.796 29.7245C134.816 29.7474 134.832 29.7742 134.842 29.8032C134.852 29.8323 134.856 29.863 134.854 29.8936C134.851 29.9242 134.843 29.954 134.829 29.9814C134.81 30.0217 134.78 30.0557 134.742 30.0795C134.704 30.1033 134.661 30.116 134.616 30.116Z" fill="#070709"/>
<path d="M80.4288 123.393C84.0395 123.393 86.9665 120.466 86.9665 116.855C86.9665 113.245 84.0395 110.318 80.4288 110.318C76.8181 110.318 73.8911 113.245 73.8911 116.855C73.8911 120.466 76.8181 123.393 80.4288 123.393Z" fill="white"/>
<path d="M101.806 123.393C105.416 123.393 108.343 120.466 108.343 116.855C108.343 113.245 105.416 110.318 101.806 110.318C98.1951 110.318 95.2681 113.245 95.2681 116.855C95.2681 120.466 98.1951 123.393 101.806 123.393Z" fill="white"/>
<path d="M101.806 123.629C100.466 123.629 99.1566 123.232 98.0426 122.488C96.9286 121.743 96.0603 120.685 95.5476 119.448C95.0349 118.21 94.9008 116.848 95.1621 115.534C95.4235 114.22 96.0687 113.013 97.0161 112.065C97.9635 111.118 99.1705 110.473 100.485 110.211C101.799 109.95 103.161 110.084 104.398 110.597C105.636 111.109 106.694 111.978 107.439 113.092C108.183 114.206 108.58 115.515 108.58 116.855C108.577 118.651 107.863 120.372 106.593 121.642C105.323 122.912 103.602 123.627 101.806 123.629ZM101.806 110.553C100.56 110.553 99.3411 110.922 98.3047 111.615C97.2683 112.308 96.4605 113.292 95.9835 114.443C95.5065 115.595 95.3817 116.862 95.6248 118.085C95.868 119.307 96.4683 120.43 97.3497 121.312C98.2311 122.193 99.354 122.793 100.577 123.036C101.799 123.28 103.066 123.155 104.218 122.678C105.369 122.201 106.354 121.393 107.046 120.357C107.739 119.32 108.108 118.102 108.108 116.855C108.107 115.184 107.443 113.581 106.261 112.399C105.08 111.217 103.478 110.552 101.806 110.55V110.553Z" fill="#070709"/>
<path d="M99.6338 119.386V114.325C99.6338 114.266 99.649 114.207 99.6778 114.156C99.7065 114.104 99.748 114.06 99.7983 114.029C99.8485 113.998 99.906 113.98 99.9651 113.977C100.024 113.974 100.083 113.986 100.136 114.012L105.198 116.512C105.256 116.541 105.305 116.585 105.339 116.64C105.373 116.695 105.391 116.759 105.391 116.824C105.391 116.888 105.373 116.952 105.339 117.007C105.305 117.062 105.256 117.106 105.198 117.135L100.136 119.698C100.083 119.724 100.024 119.736 99.9654 119.733C99.9063 119.73 99.849 119.712 99.7987 119.681C99.7485 119.65 99.707 119.606 99.6781 119.555C99.6493 119.503 99.634 119.445 99.6338 119.386Z" fill="#070709"/>
<path d="M123.183 123.393C126.794 123.393 129.721 120.466 129.721 116.855C129.721 113.245 126.794 110.318 123.183 110.318C119.572 110.318 116.645 113.245 116.645 116.855C116.645 120.466 119.572 123.393 123.183 123.393Z" fill="white"/>
<path d="M123.183 123.629C121.843 123.63 120.533 123.232 119.419 122.488C118.305 121.744 117.437 120.686 116.924 119.448C116.411 118.211 116.276 116.848 116.538 115.534C116.799 114.22 117.444 113.013 118.391 112.066C119.339 111.118 120.546 110.473 121.86 110.211C123.174 109.95 124.536 110.084 125.774 110.597C127.012 111.109 128.07 111.978 128.814 113.092C129.559 114.206 129.956 115.515 129.956 116.855C129.953 118.651 129.239 120.372 127.969 121.642C126.7 122.912 124.978 123.626 123.183 123.629ZM123.183 110.553C121.936 110.553 120.718 110.922 119.681 111.615C118.645 112.308 117.837 113.292 117.36 114.443C116.883 115.595 116.758 116.862 117.002 118.085C117.245 119.307 117.845 120.43 118.726 121.312C119.608 122.193 120.731 122.793 121.953 123.036C123.176 123.28 124.443 123.155 125.595 122.678C126.746 122.201 127.731 121.393 128.423 120.357C129.116 119.32 129.485 118.102 129.485 116.855C129.484 115.184 128.82 113.581 127.638 112.399C126.457 111.217 124.854 110.552 123.183 110.55V110.553Z" fill="#070709"/>
<path d="M125.328 119.228C125.297 119.228 125.266 119.222 125.237 119.21C125.208 119.198 125.182 119.181 125.16 119.159L120.799 114.798C120.777 114.776 120.759 114.75 120.748 114.721C120.736 114.693 120.73 114.662 120.729 114.631C120.729 114.6 120.735 114.569 120.747 114.541C120.759 114.512 120.776 114.486 120.798 114.464C120.82 114.442 120.846 114.425 120.875 114.413C120.903 114.401 120.934 114.395 120.965 114.395C120.996 114.395 121.026 114.401 121.055 114.413C121.084 114.425 121.11 114.442 121.132 114.464L125.494 118.826C125.527 118.859 125.549 118.901 125.558 118.947C125.568 118.992 125.563 119.04 125.545 119.083C125.527 119.126 125.497 119.162 125.458 119.188C125.42 119.214 125.374 119.228 125.328 119.228Z" fill="#070709"/>
<path d="M120.965 119.228C120.934 119.228 120.904 119.222 120.875 119.21C120.847 119.199 120.821 119.181 120.799 119.159C120.777 119.137 120.76 119.111 120.748 119.083C120.736 119.054 120.73 119.024 120.73 118.993C120.73 118.962 120.736 118.931 120.748 118.903C120.76 118.874 120.777 118.848 120.799 118.826L125.16 114.464C125.205 114.423 125.264 114.401 125.325 114.403C125.386 114.404 125.443 114.429 125.486 114.472C125.529 114.515 125.554 114.572 125.555 114.633C125.557 114.694 125.535 114.753 125.494 114.798L121.132 119.159C121.11 119.181 121.084 119.199 121.056 119.21C121.027 119.222 120.996 119.228 120.965 119.228Z" fill="#070709"/>
<path d="M91.9172 90.9154C91.8664 90.9151 91.817 90.8983 91.7764 90.8677C91.7358 90.8371 91.7062 90.7942 91.6919 90.7454C91.6776 90.6966 91.6794 90.6445 91.6971 90.5968C91.7148 90.5492 91.7474 90.5085 91.79 90.4808L103.361 83.043C103.414 83.0091 103.478 82.9975 103.539 83.0108C103.6 83.024 103.653 83.0609 103.687 83.1135C103.721 83.1661 103.733 83.23 103.719 83.2911C103.706 83.3523 103.669 83.4056 103.617 83.4395L92.0444 90.8772C92.0066 90.9021 91.9624 90.9153 91.9172 90.9154Z" fill="#070709"/>
<path d="M76.5456 100.797C76.4948 100.796 76.4454 100.78 76.4048 100.749C76.3642 100.718 76.3346 100.676 76.3203 100.627C76.306 100.578 76.3079 100.526 76.3255 100.478C76.3432 100.431 76.3758 100.39 76.4184 100.362L86.8944 93.6283C86.947 93.5946 87.0108 93.5831 87.0718 93.5964C87.1329 93.6097 87.1861 93.6468 87.2199 93.6993C87.2536 93.7519 87.2651 93.8157 87.2518 93.8768C87.2384 93.9378 87.2014 93.9911 87.1488 94.0248L76.6728 100.759C76.635 100.783 76.5908 100.797 76.5456 100.797Z" fill="#070709"/>
<path d="M86.5635 102.493C86.5126 102.493 86.4631 102.476 86.4223 102.446C86.3815 102.415 86.3517 102.372 86.3373 102.323C86.3229 102.275 86.3246 102.222 86.3423 102.175C86.3599 102.127 86.3925 102.086 86.4352 102.058L113.379 84.7392C113.405 84.7225 113.434 84.7111 113.465 84.7056C113.495 84.7001 113.526 84.7007 113.556 84.7073C113.587 84.7139 113.615 84.7264 113.641 84.7441C113.666 84.7617 113.688 84.7842 113.704 84.8102C113.721 84.8363 113.733 84.8653 113.738 84.8958C113.744 84.9262 113.743 84.9575 113.736 84.9877C113.73 85.0179 113.717 85.0465 113.7 85.0719C113.682 85.0973 113.659 85.119 113.633 85.1357L86.6907 102.453C86.6531 102.478 86.6089 102.492 86.5635 102.493Z" fill="#070709"/>
<path d="M54.7656 151.312L21.7453 150.983C15.7737 150.983 10.6661 147.085 9.62082 141.151L3.96726 109.078C3.29409 105.258 6.20515 101.751 10.0502 101.751H31.5948L54.7656 151.312Z" fill="white"/>
<path d="M54.7656 151.547L21.7453 151.219C15.5118 151.219 10.4307 147.096 9.39076 141.192L3.73508 109.12C3.56844 108.184 3.60929 107.223 3.85475 106.304C4.10021 105.386 4.54428 104.532 5.15563 103.804C5.7542 103.088 6.50279 102.511 7.34853 102.116C8.19426 101.721 9.11652 101.516 10.0502 101.516H31.5948C31.6393 101.516 31.6828 101.529 31.7203 101.553C31.7578 101.577 31.7878 101.611 31.8068 101.651L54.9765 151.212C54.9932 151.248 55.0007 151.288 54.9982 151.327C54.9957 151.366 54.9833 151.405 54.9622 151.438C54.9411 151.471 54.9119 151.499 54.8773 151.518C54.8428 151.537 54.804 151.547 54.7645 151.547H54.7656ZM10.0502 101.986C9.18527 101.986 8.33094 102.176 7.54748 102.542C6.76403 102.909 6.07056 103.443 5.51606 104.106C4.9492 104.782 4.53749 105.574 4.30998 106.425C4.08248 107.277 4.04474 108.169 4.19941 109.037L9.85297 141.11C10.8527 146.783 15.7429 150.747 21.7453 150.747L54.3966 151.071L31.4485 101.988L10.0502 101.986Z" fill="#070709"/>
<path d="M35.0655 190.526H29.6335V150.926L35.0655 151.133V190.526Z" fill="#070709"/>
<path d="M45.1792 183.902H20.7416C18.9115 183.902 17.1562 184.628 15.8617 185.922C14.5671 187.215 13.8393 188.97 13.8381 190.8H52.0816C52.0805 188.97 51.3527 187.216 50.0584 185.922C48.7641 184.629 47.0091 183.902 45.1792 183.902Z" fill="#070709"/>
<path d="M12.8999 126.749C12.8447 126.749 12.7914 126.73 12.7491 126.694C12.7069 126.659 12.6784 126.61 12.6687 126.555L9.92837 110.986C9.91754 110.924 9.93162 110.861 9.9675 110.809C10.0034 110.758 10.0581 110.723 10.1197 110.713C10.1813 110.702 10.2446 110.716 10.2958 110.752C10.347 110.788 10.3819 110.842 10.3927 110.904L13.132 126.473C13.1375 126.503 13.1369 126.534 13.1303 126.565C13.1237 126.595 13.1111 126.624 13.0934 126.649C13.0757 126.675 13.0531 126.696 13.027 126.713C13.0009 126.73 12.9717 126.741 12.9412 126.746L12.8999 126.749Z" fill="#070709"/>
<path d="M43.9643 75.8979C46.1343 75.706 47.6503 77.6842 48.8651 80.6801C49.8563 83.1257 49.4662 85.1622 48.1231 86.5032C43.7925 90.8423 39.0941 103.359 32.6709 107.167C27.5453 110.204 16.8149 109.642 11.8599 103.344C7.14772 97.3556 6.43109 88.6828 11.7634 84.7795C16.5573 81.2716 21.0203 87.2845 26.1078 84.0226C31.1232 80.8062 31.0436 78.139 34.0098 76.5711C37.1997 74.8866 37.8156 76.4428 43.9643 75.8979Z" fill="#070709"/>
<path d="M74.8887 171.206C74.8432 171.395 77.0535 181.51 77.0535 181.51L71.9724 180.662L70.4363 172.107L74.8887 171.206Z" fill="white"/>
<path d="M77.0514 181.746H77.0121L71.9321 180.898C71.884 180.89 71.8396 180.867 71.805 180.833C71.7704 180.799 71.7474 180.755 71.7391 180.707L70.2083 172.155C70.1974 172.094 70.2106 172.032 70.2451 171.981C70.2795 171.93 70.3326 171.895 70.3928 171.882L74.84 170.981C74.8751 170.974 74.9114 170.975 74.9461 170.985C74.9807 170.994 75.0129 171.011 75.04 171.034C75.0672 171.057 75.0887 171.087 75.1029 171.12C75.1171 171.153 75.1236 171.188 75.122 171.224C75.1559 171.648 76.4291 177.565 77.2814 181.466C77.289 181.5 77.2888 181.536 77.2808 181.57C77.2728 181.605 77.2571 181.637 77.2351 181.664C77.213 181.692 77.185 181.714 77.1532 181.729C77.1214 181.744 77.0866 181.752 77.0514 181.752V181.746ZM72.1749 180.454L76.7482 181.22C75.2375 174.303 74.8103 172.166 74.6958 171.486L70.714 172.293L72.1749 180.454Z" fill="#070709"/>
<path d="M74.3587 178.192C74.7261 177.869 75.1912 177.679 75.6796 177.651C76.5277 177.614 77.3079 178.148 77.6599 178.931C78.5408 180.889 80.8646 186.344 81.5208 190.804C81.7529 192.38 80.5667 193.667 78.7115 192.629C75.6753 190.932 71.4625 187.051 69.2574 181.315C69.1318 180.991 69.0892 180.641 69.1334 180.297C69.1777 179.953 69.3074 179.625 69.5108 179.343C69.9035 178.798 70.3507 178.293 70.8455 177.838C71.0939 177.618 71.413 177.494 71.745 177.488C72.077 177.483 72.3998 177.597 72.6551 177.809L73.1321 178.202C73.3051 178.344 73.5228 178.422 73.7471 178.42C73.9714 178.418 74.188 178.338 74.3587 178.192Z" fill="white"/>
<path d="M79.9571 193.238C79.585 193.238 79.1292 193.132 78.5917 192.836C75.4114 191.065 71.2356 187.132 69.0327 181.4C68.8915 181.04 68.8434 180.65 68.8929 180.267C68.9424 179.883 69.0878 179.518 69.3157 179.206C69.7168 178.645 70.1751 178.129 70.6833 177.663C70.9731 177.403 71.3472 177.256 71.7369 177.249C72.1265 177.243 72.5053 177.377 72.8035 177.628L73.2806 178.021C73.4114 178.127 73.5755 178.185 73.7444 178.184C73.9134 178.183 74.0767 178.123 74.206 178.014C74.6134 177.658 75.1279 177.449 75.6679 177.418C76.5934 177.378 77.4701 177.948 77.874 178.837C78.8217 180.943 81.0978 186.324 81.7529 190.77C81.8865 191.679 81.5855 192.509 80.9653 192.937C80.6682 193.139 80.3161 193.244 79.9571 193.238ZM71.7572 177.724C71.4766 177.723 71.2059 177.827 70.9971 178.014C70.5139 178.457 70.0773 178.949 69.6942 179.481C69.5133 179.731 69.3981 180.021 69.3592 180.327C69.3203 180.632 69.3589 180.943 69.4716 181.229C71.6289 186.848 75.7146 190.692 78.8196 192.422C79.5522 192.83 80.2179 192.875 80.6928 192.547C81.1678 192.22 81.3883 191.567 81.2812 190.837C80.6345 186.449 78.3786 181.117 77.4383 179.028C77.1203 178.314 76.4132 177.855 75.6828 177.887C75.2464 177.911 74.831 178.083 74.5039 178.372C74.2905 178.552 74.021 178.652 73.742 178.654C73.4631 178.655 73.1922 178.56 72.9763 178.383L72.4993 177.99C72.2906 177.817 72.0282 177.722 71.7572 177.722V177.724Z" fill="#070709"/>
<path d="M80.3597 191.46C79.959 191.46 75.6751 191.21 70.4806 180.943C70.4667 180.915 70.4584 180.885 70.4562 180.854C70.454 180.823 70.4579 180.792 70.4677 180.762C70.4776 180.733 70.4931 180.705 70.5135 180.682C70.5339 180.658 70.5588 180.639 70.5866 180.625C70.6144 180.611 70.6448 180.603 70.6758 180.601C70.7069 180.598 70.738 180.602 70.7676 180.612C70.7971 180.622 70.8244 180.638 70.8479 180.658C70.8714 180.678 70.8907 180.703 70.9046 180.731C76.1108 191.021 80.3269 190.989 80.3704 190.99C80.4013 190.988 80.4323 190.993 80.4614 191.004C80.4905 191.014 80.5172 191.031 80.5399 191.052C80.5626 191.073 80.5809 191.098 80.5936 191.127C80.6064 191.155 80.6134 191.186 80.6142 191.217C80.6153 191.247 80.6103 191.278 80.5995 191.307C80.5888 191.336 80.5724 191.363 80.5513 191.385C80.5302 191.408 80.5049 191.426 80.4768 191.439C80.4486 191.452 80.4182 191.459 80.3873 191.46H80.3597Z" fill="#070709"/>
<path d="M77.1075 185.808C77.0525 185.808 76.9992 185.789 76.9568 185.754C76.9144 185.719 76.8856 185.67 76.8754 185.616C76.8652 185.562 76.8743 185.506 76.901 185.458C76.9277 185.41 76.9704 185.373 77.0216 185.353L79.4302 184.399C79.4883 184.376 79.5531 184.377 79.6103 184.402C79.6676 184.427 79.7126 184.474 79.7355 184.532C79.7584 184.59 79.7573 184.655 79.7325 184.712C79.7076 184.769 79.6611 184.814 79.603 184.837L77.1944 185.791C77.1667 185.802 77.1373 185.808 77.1075 185.808Z" fill="#070709"/>
<path d="M76.2668 183.963C76.2121 183.963 76.1594 183.943 76.1176 183.908C76.0758 183.873 76.0474 183.824 76.0374 183.77C76.0274 183.717 76.0364 183.661 76.0627 183.613C76.0891 183.565 76.1312 183.528 76.182 183.508L79.0061 182.408C79.0637 182.389 79.1265 182.392 79.1816 182.418C79.2366 182.444 79.2797 182.49 79.3017 182.546C79.3238 182.603 79.3233 182.666 79.3002 182.722C79.2772 182.778 79.2333 182.823 79.1778 182.848L76.3526 183.948C76.3252 183.958 76.2961 183.963 76.2668 183.963Z" fill="#070709"/>
<path d="M53.2063 171.178C53.1692 171.256 52.8883 172.443 52.6667 174.444C52.2999 177.778 56.0315 180.865 56.0315 180.865L47.1934 179.669L47.5305 171.953L53.2063 171.178Z" fill="white"/>
<path d="M56.0315 181.1C56.0209 181.101 56.0103 181.101 55.9997 181.1L47.1615 179.908C47.1033 179.901 47.0501 179.871 47.0124 179.826C46.9748 179.781 46.9554 179.723 46.958 179.665L47.2951 171.95C47.2976 171.895 47.3193 171.842 47.3564 171.802C47.3936 171.761 47.4439 171.734 47.4987 171.727L53.1734 170.947C53.2147 170.942 53.2568 170.947 53.2954 170.963C53.334 170.978 53.3676 171.004 53.393 171.037C53.4183 171.07 53.4344 171.11 53.4396 171.151C53.4448 171.192 53.4389 171.234 53.4226 171.273C53.3706 171.424 53.1045 172.627 52.901 174.472C52.5522 177.642 56.1449 180.655 56.182 180.686C56.2193 180.716 56.2462 180.758 56.259 180.805C56.2717 180.852 56.2697 180.901 56.2533 180.947C56.2368 180.992 56.2067 181.032 56.167 181.06C56.1273 181.087 56.0799 181.102 56.0315 181.102V181.1ZM47.4382 179.469L55.318 180.529C54.2643 179.496 52.1377 177.058 52.4324 174.416C52.5346 173.423 52.6878 172.435 52.8914 171.457L47.7573 172.162L47.4382 179.469Z" fill="#070709"/>
<path d="M49.2341 177.434C49.7525 177.263 49.6337 176.462 50.0578 176.085C50.6938 175.515 51.4974 175.526 52.2596 175.911C54.1678 176.872 59.373 179.635 62.6635 182.682C63.8297 183.759 63.7024 185.509 61.6193 185.884C58.2047 186.499 52.5087 186.158 47.2177 183.101C46.9168 182.928 46.6643 182.682 46.4838 182.386C46.3033 182.089 46.2006 181.752 46.1852 181.405C46.1587 180.83 46.1852 178.918 46.3029 178.206C46.3575 177.878 46.527 177.579 46.7812 177.365C47.0354 177.15 47.3577 177.032 47.6905 177.033H48.3065C48.7676 177.04 48.7941 177.579 49.2341 177.434Z" fill="white"/>
<path d="M58.5237 186.378C54.5135 186.36 50.5767 185.301 47.0989 183.304C46.7636 183.112 46.4822 182.839 46.2809 182.51C46.0796 182.18 45.965 181.805 45.9477 181.419C45.9222 180.83 45.9477 178.907 46.0685 178.171C46.1318 177.788 46.3293 177.441 46.6255 177.191C46.9218 176.941 47.2975 176.805 47.6852 176.807H48.3011C48.4192 176.81 48.5352 176.838 48.6415 176.889C48.7477 176.941 48.8417 177.015 48.917 177.106C49.0474 177.234 49.0665 177.242 49.1545 177.212C49.3188 177.157 49.3845 176.974 49.4789 176.681C49.5626 176.42 49.658 176.123 49.8955 175.911C50.5666 175.313 51.4411 175.239 52.3603 175.699C54.4116 176.733 59.5372 179.468 62.8182 182.507C63.4872 183.126 63.7723 183.96 63.5603 184.684C63.4352 185.108 63.0207 185.868 61.6521 186.114C60.6191 186.294 59.5723 186.382 58.5237 186.378ZM47.6852 177.273C47.4086 177.271 47.1407 177.369 46.9296 177.547C46.7185 177.726 46.5781 177.974 46.5339 178.247C46.4205 178.942 46.394 180.839 46.4194 181.399C46.4331 181.706 46.5241 182.004 46.6841 182.266C46.8441 182.528 47.0677 182.745 47.3343 182.897C52.5108 185.887 58.0848 186.281 61.5758 185.653C62.4027 185.505 62.9539 185.115 63.1119 184.555C63.2698 183.995 63.0398 183.353 62.5023 182.859C59.2647 179.861 54.1858 177.151 52.1525 176.126C51.633 175.863 50.8803 175.675 50.2135 176.265C50.0725 176.391 50.0015 176.603 49.9326 176.827C49.8266 177.156 49.7068 177.531 49.3061 177.662C48.9372 177.785 48.7283 177.578 48.5905 177.442C48.4845 177.336 48.4198 177.279 48.3043 177.278H47.6852V177.273Z" fill="#070709"/>
<path d="M58.4399 184.835C56.2136 184.835 52.8446 184.228 47.9448 182.032C47.8877 182.006 47.8431 181.959 47.8209 181.901C47.7986 181.842 47.8005 181.777 47.8261 181.72C47.8516 181.663 47.8988 181.619 47.9573 181.596C48.0157 181.574 48.0807 181.576 48.1377 181.601C58.5989 186.287 61.8566 183.584 61.8884 183.556C61.9354 183.515 61.9968 183.494 62.0592 183.498C62.1217 183.502 62.1799 183.531 62.2213 183.577C62.2626 183.624 62.2836 183.686 62.2796 183.748C62.2756 183.811 62.247 183.869 62.2001 183.91C62.1206 183.976 61.088 184.835 58.4399 184.835Z" fill="#070709"/>
<path d="M55.9763 181.654C55.9358 181.655 55.8959 181.644 55.8608 181.624C55.8072 181.593 55.7677 181.542 55.7509 181.483C55.7341 181.424 55.7412 181.36 55.7707 181.306L57.0492 179.037C57.0819 178.987 57.1326 178.951 57.1909 178.936C57.2492 178.922 57.3107 178.931 57.3631 178.96C57.4154 178.989 57.4546 179.038 57.4727 179.095C57.4908 179.152 57.4864 179.214 57.4605 179.268L56.1809 181.538C56.1602 181.574 56.1303 181.603 56.0943 181.624C56.0584 181.644 56.0177 181.655 55.9763 181.654Z" fill="#070709"/>
<path d="M54.1689 180.756C54.1259 180.757 54.0837 180.745 54.0469 180.723C53.9936 180.69 53.9554 180.637 53.9407 180.577C53.926 180.516 53.936 180.452 53.9685 180.398L55.4081 178.035C55.4404 177.983 55.4917 177.946 55.5512 177.931C55.6106 177.916 55.6734 177.926 55.7262 177.957C55.7795 177.989 55.8177 178.042 55.8326 178.103C55.8475 178.163 55.8378 178.227 55.8057 178.281L54.365 180.644C54.3443 180.678 54.3156 180.706 54.2813 180.725C54.247 180.745 54.2084 180.756 54.1689 180.756Z" fill="#070709"/>
<path d="M29.2583 132.282C29.2583 132.282 60.1976 130.939 63.5794 134.084C68.1675 138.345 76.0547 173.813 76.0547 173.813L68.4442 175.947C68.4442 175.947 56.9728 146.838 54.1317 146.838C51.2906 146.838 24.5027 145.884 24.5027 145.884L29.2583 132.282Z" fill="#070709"/>
<path d="M23.1714 131.309C23.1714 131.309 19.0921 143.288 22.3381 145.473C25.5842 147.658 48.9914 147.471 48.1793 147.199C47.3673 146.926 46.0867 166.811 46.0867 174.461L53.4555 174.745C53.4555 174.745 65.1994 143.989 63.9336 140.551C61.6692 134.402 44.5941 132.334 39.0211 131.512C37.8666 131.347 23.1714 131.309 23.1714 131.309Z" fill="#070709"/>
<path d="M60.0472 157.476C60.0228 157.476 59.9985 157.472 59.9751 157.465C59.9156 157.446 59.8661 157.404 59.8375 157.348C59.8089 157.292 59.8035 157.228 59.8225 157.168C60.0875 156.341 60.3497 155.529 60.6091 154.73C62.6721 148.358 64.453 142.857 63.7152 140.63C62.1494 135.906 50.4416 134.094 46.5944 133.499C46.5639 133.494 46.5346 133.484 46.5081 133.468C46.4817 133.452 46.4587 133.43 46.4405 133.405C46.4222 133.381 46.409 133.352 46.4017 133.322C46.3944 133.292 46.3931 133.261 46.3978 133.23C46.4025 133.2 46.4132 133.17 46.4293 133.144C46.4454 133.118 46.4665 133.095 46.4914 133.076C46.5164 133.058 46.5447 133.045 46.5747 133.038C46.6048 133.03 46.636 133.029 46.6665 133.034C53.4661 134.085 62.6742 136.002 64.1583 140.483C64.9449 142.855 63.2276 148.16 61.0533 154.877C60.7953 155.674 60.5335 156.487 60.2677 157.316C60.252 157.362 60.2223 157.402 60.1829 157.431C60.1434 157.459 60.096 157.475 60.0472 157.476Z" fill="white"/>
<path d="M26.8393 94.9873C26.8393 94.9873 26.9453 93.0123 25.7283 113.6C25.7283 113.6 26.5679 129.531 26.6728 131.327C26.7778 133.123 42.3561 132.342 42.3561 132.342C44.1996 124.263 43.9982 114.993 42.7123 105.089L45.3827 104.851L45.5682 98.6256C45.0848 96.7927 43.0441 95.4749 41.6744 94.9852C38.0255 93.3452 31.5546 93.8721 26.8393 94.9873Z" fill="white"/>
<path d="M35.3625 132.747H34.5516C26.5159 132.687 26.4608 131.746 26.4375 131.344C26.3315 129.567 25.5014 113.775 25.4929 113.616V113.589C26.005 104.951 26.2827 100.286 26.4332 97.7786C26.5085 96.5255 26.5509 95.8121 26.5753 95.4114C26.5859 95.2407 26.5944 95.1092 26.6039 95.0096C26.6029 94.9987 26.6029 94.9877 26.6039 94.9767V94.9333H26.6113C26.641 94.7212 26.6951 94.6947 26.853 94.7032C26.8827 94.7051 26.9118 94.7122 26.9389 94.7244C31.4571 93.6781 37.9874 93.0738 41.7688 94.7732C43.3674 95.3446 45.3223 96.781 45.7972 98.5684C45.8023 98.5906 45.8048 98.6134 45.8046 98.6362L45.6191 104.86C45.6173 104.917 45.5949 104.972 45.5559 105.014C45.5169 105.056 45.464 105.082 45.4071 105.088L42.9815 105.3C44.383 116.234 44.2537 125.098 42.5904 132.393C42.5791 132.443 42.5517 132.488 42.5124 132.521C42.4732 132.554 42.4242 132.573 42.373 132.576C42.3317 132.58 38.951 132.747 35.3625 132.747ZM25.9647 113.601C25.9933 114.138 26.8053 129.561 26.9082 131.313C26.9082 131.405 27.1732 132.217 34.5558 132.272C37.9428 132.299 41.3585 132.153 42.1663 132.116C43.7925 124.855 43.8943 116.022 42.479 105.119C42.4749 105.087 42.4771 105.056 42.4857 105.025C42.4943 104.995 42.509 104.966 42.5289 104.942C42.5487 104.917 42.5732 104.896 42.6011 104.881C42.6289 104.866 42.6595 104.857 42.6911 104.854L45.1526 104.634L45.3307 98.6532C44.8876 97.045 43.0854 95.7411 41.5949 95.2068C37.9068 93.5509 31.508 94.1467 27.0619 95.1771C27.0131 95.9616 26.8064 99.39 25.9647 113.601Z" fill="#070709"/>
<path d="M36.1479 112.205C36.0954 112.204 36.0446 112.186 36.0036 112.153C35.9626 112.121 35.9337 112.075 35.9215 112.024C35.9093 111.973 35.9145 111.919 35.9363 111.871C35.9582 111.824 35.9953 111.785 36.0419 111.76C39.7523 109.808 39.994 104.312 39.9961 104.257C39.9984 104.195 40.0253 104.136 40.071 104.093C40.1168 104.051 40.1775 104.028 40.2399 104.03C40.3024 104.032 40.3613 104.059 40.4039 104.105C40.4464 104.151 40.4691 104.212 40.4668 104.274C40.4583 104.511 40.206 110.098 36.2614 112.178C36.2263 112.196 36.1873 112.205 36.1479 112.205Z" fill="#070709"/>
<path d="M29.4717 94.7129C29.4717 94.7129 25.7199 94.2803 23.3039 97.5752C20.9049 100.852 20.6123 104.588 21.065 107.591C21.8336 112.689 25.0372 118.493 24.8899 120.077C24.8178 120.846 24.0026 126.312 20.9176 131.208C18.3734 135.237 18.4858 144.128 18.9819 144.416C22.3265 146.366 27.8115 150.321 34.3429 150.793C35.5493 150.88 36.5352 150.255 36.7101 149.279C37.4076 145.377 39.2766 134.059 39.5586 123.433C39.8014 114.233 33.2488 100.26 32.9605 99.0614C32.2608 96.1567 29.4717 94.7129 29.4717 94.7129Z" fill="white"/>
<path d="M34.5717 151.038C34.4901 151.038 34.4085 151.038 34.3258 151.03C28.6786 150.622 23.9145 147.702 20.4384 145.571C19.8765 145.227 19.3454 144.901 18.8652 144.617C18.7592 144.556 18.6913 144.434 18.6362 144.209C18.2779 142.745 18.3362 134.862 20.7204 131.081C23.9865 125.899 24.6523 120.111 24.6576 120.056C24.718 119.41 24.1063 117.829 23.3993 116.005C22.4452 113.55 21.2663 110.492 20.8338 107.63C20.4309 104.954 20.4999 101.014 23.1162 97.4404C25.5841 94.0692 29.462 94.4721 29.5002 94.4795C29.5286 94.4827 29.5562 94.491 29.5818 94.5039C29.6995 94.5643 32.4748 96.0304 33.1862 99.0083C33.2349 99.2097 33.5042 99.8765 33.8795 100.799C35.7082 105.31 39.991 115.869 39.7907 123.442C39.5129 133.955 37.7033 145.042 36.939 149.322C36.7577 150.357 35.7983 151.038 34.5717 151.038ZM19.1323 144.233C19.6083 144.511 20.1299 144.831 20.6822 145.17C24.1191 147.275 28.827 150.16 34.3576 150.559C35.4506 150.638 36.323 150.096 36.4778 149.239C37.2411 144.97 39.0454 133.91 39.3221 123.43C39.5203 115.956 35.1071 105.073 33.4459 100.977C33.0356 99.9656 32.7876 99.3549 32.7314 99.1185C32.1102 96.5372 29.7345 95.1293 29.4016 94.9438C28.986 94.912 25.6605 94.7604 23.4936 97.7181C20.9727 101.162 20.908 104.971 21.2981 107.56C21.7222 110.375 22.8946 113.405 23.8424 115.839C24.6311 117.875 25.2004 119.346 25.1293 120.103C24.9905 121.588 23.9569 126.839 21.1221 131.341C18.6341 135.276 18.791 143.559 19.1323 144.233Z" fill="#070709"/>
<path d="M60.4224 123.322C56.0823 121.636 48.4156 114.623 46.3357 109.023L46.1353 99.2947C45.9063 97.7596 45.3646 97.1395 44.0819 96.2829C43.4458 95.8809 42.745 95.5919 42.0104 95.4285C42.0104 95.4285 41.6468 95.2228 41.5673 97.2137C41.5281 98.1826 42.761 108.962 42.9826 118.204C43.1373 124.671 42.1726 130.318 42.2405 131.561C42.2458 131.653 46.5011 132.505 46.7873 132.22L46.8159 132.134L46.571 120.233C48.9637 122.319 53.536 125.916 57.1668 125.786L60.4224 123.322Z" fill="white"/>
<path d="M46.3793 132.494C45.0955 132.494 42.2205 131.808 42.1887 131.796C42.1375 131.783 42.092 131.753 42.0585 131.712C42.0251 131.671 42.0053 131.62 42.0021 131.567C41.9798 131.143 42.0689 130.256 42.194 129.03C42.4558 126.446 42.8502 122.544 42.7473 118.204C42.5957 111.87 41.9724 104.869 41.6014 100.691C41.4254 98.7189 41.3194 97.5284 41.3321 97.2093C41.3946 95.6647 41.6247 95.3435 41.8187 95.2364C41.857 95.2138 41.8996 95.1995 41.9438 95.1944C41.988 95.1893 42.0328 95.1935 42.0752 95.2067C42.8336 95.3776 43.5572 95.677 44.2145 96.0919C45.5057 96.9549 46.1227 97.6174 46.3697 99.2648C46.3708 99.2747 46.3708 99.2847 46.3697 99.2945L46.569 108.983C48.597 114.389 56.039 121.373 60.5063 123.108C60.5453 123.123 60.5795 123.149 60.6054 123.182C60.6313 123.215 60.648 123.254 60.6537 123.295C60.6594 123.337 60.654 123.379 60.6379 123.418C60.6219 123.457 60.5959 123.491 60.5625 123.516L57.3026 125.974C57.2642 126.004 57.2175 126.02 57.1691 126.022C53.8891 126.14 49.7981 123.304 46.8118 120.757L47.045 132.129C47.0459 132.156 47.042 132.183 47.0334 132.209L47.0047 132.295C46.9932 132.329 46.9736 132.361 46.9475 132.387C46.869 132.462 46.6623 132.494 46.3793 132.494ZM42.4696 131.395C43.1576 131.597 45.9679 132.094 46.5743 132.031L46.3316 120.227C46.3306 120.182 46.3429 120.137 46.367 120.098C46.391 120.059 46.4259 120.028 46.4672 120.009C46.5085 119.99 46.5546 119.983 46.5998 119.989C46.645 119.996 46.6873 120.015 46.7217 120.045C50.9123 123.699 54.4944 125.598 57.0811 125.543L59.9518 123.377C55.3563 121.369 48.1062 114.459 46.1153 109.099C46.1061 109.075 46.1011 109.049 46.1005 109.022L45.9001 99.3125C45.6817 97.8655 45.1972 97.31 43.9516 96.4778C43.3607 96.1049 42.7119 95.833 42.0318 95.6732C41.9756 95.7792 41.8462 96.1322 41.8028 97.222C41.7911 97.5104 41.9088 98.8238 42.0699 100.642C42.442 104.831 43.0664 111.842 43.218 118.193C43.324 122.563 42.9254 126.483 42.6625 129.077C42.5555 130.15 42.4728 130.957 42.4696 131.397V131.395Z" fill="#070709"/>
<path d="M54.8853 124.048C55.0058 123.806 55.2144 123.619 55.4683 123.525C55.6508 123.458 55.8279 123.377 55.9984 123.283L58.3656 122.028C58.8088 121.816 59.4427 122.316 59.9028 122.467C61.2915 122.923 64.1676 123.998 63.9312 125.012C63.6757 126.102 61.2035 125.585 60.3268 125.366C60.1254 125.316 58.3126 125.973 57.7359 126.017C56.943 126.077 56.7596 125.876 56.3716 125.671C56.1895 125.579 55.9881 125.533 55.7843 125.535C55.6232 125.537 55.464 125.502 55.3181 125.434C55.1723 125.366 55.0436 125.266 54.9415 125.141V125.135C54.8301 124.997 54.7608 124.831 54.742 124.655C54.7232 124.479 54.7557 124.301 54.8355 124.144L54.8853 124.048Z" fill="white"/>
<path d="M57.4773 126.26C57.1062 126.272 56.7401 126.17 56.4288 125.968C56.3769 125.938 56.3228 125.907 56.2645 125.876C56.1154 125.802 55.9506 125.766 55.7843 125.77C55.5882 125.771 55.3944 125.728 55.217 125.645C55.0396 125.561 54.8831 125.439 54.7591 125.287C54.619 125.114 54.5321 124.903 54.5089 124.681C54.4858 124.459 54.5274 124.234 54.6288 124.035L54.6754 123.944C54.8234 123.649 55.0787 123.422 55.3889 123.308C55.5612 123.244 55.7288 123.167 55.8903 123.079L58.2575 121.823C58.6816 121.611 59.148 121.852 59.5614 122.059C59.6963 122.131 59.8359 122.194 59.9791 122.248C62.9633 123.229 64.3712 124.176 64.1623 125.066C64.1334 125.19 64.0792 125.306 64.0031 125.408C63.927 125.51 63.8308 125.595 63.7203 125.658C62.9167 126.148 61.2343 125.834 60.2897 125.599C59.9557 125.67 59.6255 125.759 59.3007 125.864C58.6996 126.043 58.0784 126.228 57.7561 126.252C57.6543 126.255 57.5621 126.26 57.4773 126.26ZM58.6126 122.21C58.5641 122.209 58.5158 122.218 58.4717 122.239L56.1108 123.492C55.9296 123.59 55.7415 123.676 55.5479 123.747C55.3507 123.821 55.1889 123.967 55.0952 124.155L55.0486 124.245C54.988 124.363 54.9629 124.496 54.9763 124.628C54.9897 124.759 55.0409 124.884 55.1238 124.987C55.2041 125.086 55.3055 125.165 55.4206 125.219C55.5356 125.274 55.6614 125.301 55.7885 125.3C56.0302 125.297 56.2689 125.353 56.4839 125.463C56.5486 125.496 56.6069 125.53 56.6642 125.563C56.9324 125.717 57.1253 125.827 57.7243 125.782C57.9967 125.761 58.6476 125.57 59.1703 125.413C60.0183 125.161 60.2463 125.102 60.3904 125.138C61.8481 125.503 63.0036 125.547 63.4796 125.257C63.5363 125.226 63.586 125.183 63.6252 125.132C63.6645 125.081 63.6925 125.022 63.7075 124.959C63.839 124.399 62.3188 123.512 59.836 122.695C59.6704 122.636 59.5092 122.566 59.3537 122.483C59.0982 122.35 58.8194 122.211 58.6126 122.211V122.21Z" fill="#070709"/>
<path d="M32.8955 119.319C35.9518 126.308 41.4156 127.969 50.3788 129.163L49.4247 131.813C36.0323 133.485 33.5114 130.835 28.0974 123.744L32.8955 119.319Z" fill="white"/>
<path d="M26.2475 136.61C25.171 136.598 24.1071 136.377 23.1149 135.959C23.0862 135.948 23.0601 135.931 23.0381 135.909C23.016 135.887 22.9985 135.861 22.9864 135.833C22.9743 135.804 22.968 135.774 22.9678 135.743C22.9675 135.712 22.9734 135.681 22.985 135.653C22.9967 135.624 23.0138 135.598 23.0355 135.576C23.0572 135.554 23.0831 135.536 23.1116 135.524C23.1401 135.512 23.1707 135.506 23.2016 135.505C23.2326 135.505 23.2633 135.511 23.2919 135.523C29.3579 137.973 32.5329 132.278 32.5647 132.22C32.5795 132.193 32.5994 132.169 32.6235 132.15C32.6475 132.13 32.6752 132.116 32.7049 132.107C32.7346 132.098 32.7657 132.095 32.7965 132.098C32.8273 132.102 32.8571 132.111 32.8843 132.126C32.9115 132.14 32.9356 132.16 32.9551 132.184C32.9746 132.208 32.9892 132.236 32.998 132.266C33.0068 132.295 33.0097 132.327 33.0064 132.357C33.0032 132.388 32.994 132.418 32.9792 132.445C32.9516 132.494 30.6576 136.61 26.2475 136.61Z" fill="#070709"/>
<path d="M46.5721 119.803C46.5111 119.803 46.4525 119.78 46.4086 119.737C46.3647 119.695 46.3389 119.637 46.3367 119.577L46.0187 110.614C46.0176 110.583 46.0225 110.553 46.0333 110.524C46.0441 110.495 46.0605 110.468 46.0816 110.445C46.1027 110.423 46.128 110.405 46.1561 110.392C46.1843 110.379 46.2147 110.372 46.2456 110.371C46.2767 110.369 46.3078 110.373 46.3371 110.384C46.3664 110.394 46.3933 110.411 46.4161 110.432C46.4389 110.453 46.4571 110.479 46.4697 110.507C46.4823 110.536 46.489 110.566 46.4894 110.597L46.8074 119.56C46.8086 119.59 46.8036 119.621 46.7928 119.65C46.782 119.679 46.7656 119.706 46.7445 119.728C46.7235 119.751 46.6981 119.769 46.67 119.782C46.6419 119.795 46.6115 119.802 46.5806 119.803H46.5721Z" fill="#070709"/>
<path d="M41.97 132.544C38.6763 132.544 37.0723 131.842 34.9129 130.896C34.3828 130.663 33.8284 130.423 33.205 130.171C31.4124 129.451 30.1138 128.338 28.9943 126.567C28.477 125.746 28.0402 124.871 27.6087 124.023C27.2313 123.281 26.8423 122.506 26.4055 121.783C26.387 121.756 26.3741 121.726 26.3677 121.694C26.3613 121.663 26.3615 121.63 26.3682 121.598C26.3749 121.567 26.3881 121.537 26.4068 121.51C26.4256 121.484 26.4496 121.462 26.4773 121.445C26.505 121.428 26.5358 121.418 26.5679 121.413C26.5999 121.409 26.6325 121.411 26.6637 121.42C26.6948 121.429 26.7238 121.444 26.7489 121.464C26.7739 121.485 26.7945 121.51 26.8094 121.539C27.2546 122.281 27.6479 123.057 28.0285 123.811C28.4526 124.647 28.8883 125.507 29.3939 126.314C30.4541 127.999 31.6859 129.055 33.381 129.737C34.0107 129.99 34.5652 130.233 35.1016 130.467C37.8833 131.685 39.7215 132.489 45.6772 131.845C46.1511 131.794 48.0614 131.812 48.53 131.831C48.5924 131.834 48.6513 131.861 48.6936 131.907C48.7359 131.953 48.7583 132.014 48.7558 132.076C48.7533 132.139 48.726 132.198 48.6801 132.24C48.6342 132.282 48.5733 132.305 48.5109 132.302C48.0635 132.284 46.1734 132.266 45.7281 132.314C44.4804 132.457 43.2259 132.534 41.97 132.544Z" fill="#070709"/>
<path d="M50.1807 129.289H50.1595C50.0768 129.282 41.8292 128.514 37.1265 125.232C35.7251 124.254 35.0264 122.089 34.2875 119.796C34.1402 119.34 33.9918 118.88 33.8359 118.424C33.8157 118.365 33.8198 118.3 33.8473 118.244C33.8749 118.188 33.9236 118.145 33.9828 118.125C34.0419 118.105 34.1067 118.109 34.1629 118.136C34.2191 118.164 34.262 118.213 34.2822 118.272C34.4381 118.73 34.5876 119.193 34.736 119.65C35.4505 121.865 36.1258 123.957 37.3958 124.844C41.9967 128.055 50.1171 128.811 50.2008 128.819C50.2317 128.82 50.2621 128.827 50.2901 128.841C50.3182 128.854 50.3434 128.872 50.3643 128.895C50.3852 128.918 50.4014 128.944 50.4121 128.973C50.4227 129.002 50.4274 129.033 50.4261 129.064C50.4248 129.095 50.4174 129.125 50.4043 129.153C50.3913 129.181 50.3729 129.207 50.3501 129.228C50.3273 129.249 50.3006 129.265 50.2715 129.275C50.2425 129.286 50.2116 129.291 50.1807 129.289Z" fill="#070709"/>
<path d="M48.2513 130.396C48.3724 130.154 48.5808 129.967 48.8343 129.873C49.0168 129.806 49.1939 129.724 49.3644 129.631L51.7316 128.375C52.1747 128.158 52.8087 128.664 53.2698 128.815C54.6586 129.271 57.5346 130.346 57.2982 131.36C57.0428 132.449 54.5706 131.933 53.6939 131.714C53.4935 131.664 51.6797 132.321 51.103 132.365C50.31 132.425 50.1266 132.224 49.7386 132.019C49.5567 131.927 49.3552 131.881 49.1513 131.883C48.9894 131.885 48.8291 131.851 48.6823 131.783C48.5355 131.715 48.4059 131.614 48.3032 131.489V131.483C48.1927 131.345 48.1244 131.178 48.1065 131.002C48.0886 130.826 48.122 130.649 48.2025 130.491L48.2513 130.396Z" fill="white"/>
<path d="M50.8431 132.607C50.472 132.62 50.106 132.518 49.7947 132.316C49.7427 132.286 49.6887 132.254 49.6304 132.224C49.4816 132.15 49.3171 132.114 49.1512 132.118C48.9551 132.119 48.7612 132.076 48.5838 131.993C48.4064 131.909 48.2499 131.787 48.1261 131.635C47.9858 131.461 47.8988 131.251 47.8755 131.029C47.8522 130.807 47.8935 130.582 47.9946 130.383L48.0412 130.292C48.1893 129.997 48.4445 129.769 48.7547 129.656C48.9271 129.592 49.0946 129.515 49.2561 129.427L51.6234 128.171C52.0474 127.959 52.5138 128.199 52.9273 128.407C53.0623 128.479 53.2018 128.542 53.345 128.596C56.3302 129.577 57.737 130.524 57.5282 131.414C57.4995 131.538 57.4455 131.654 57.3696 131.756C57.2937 131.858 57.1975 131.943 57.0872 132.006C56.2836 132.496 54.6012 132.182 53.6566 131.947C53.3222 132.018 52.9917 132.106 52.6665 132.212C52.0665 132.391 51.4442 132.576 51.1219 132.6C51.0212 132.6 50.93 132.607 50.8431 132.607ZM48.461 130.503L48.4144 130.594C48.3537 130.712 48.3285 130.845 48.3416 130.976C48.3548 131.108 48.4059 131.233 48.4886 131.336C48.5685 131.436 48.6698 131.516 48.7851 131.572C48.9004 131.627 49.0266 131.655 49.1544 131.654C49.396 131.652 49.6346 131.708 49.8498 131.818C49.9134 131.85 49.9728 131.884 50.029 131.917C50.2972 132.07 50.4912 132.181 51.0891 132.137C51.3615 132.115 52.0124 131.925 52.5361 131.767C53.3842 131.515 53.6121 131.456 53.7552 131.491C55.2129 131.857 56.3684 131.901 56.8444 131.611C56.9014 131.58 56.9513 131.537 56.9907 131.486C57.0302 131.434 57.0583 131.375 57.0734 131.312C57.2038 130.753 55.6846 129.866 53.2008 129.05C53.0356 128.99 52.8747 128.92 52.7195 128.838C52.4015 128.68 52.0463 128.499 51.8407 128.6L49.4777 129.844C49.2963 129.942 49.1082 130.027 48.9148 130.099C48.7179 130.172 48.5557 130.316 48.461 130.503Z" fill="#070709"/>
<path d="M46.6897 90.7057C46.7678 90.6951 46.8428 90.6684 46.91 90.6274C46.9773 90.5864 47.0353 90.5319 47.0805 90.4674C47.1257 90.4029 47.1571 90.3297 47.1727 90.2525C47.1882 90.1753 47.1877 90.0957 47.171 90.0188C46.7215 88.0045 46.8943 84.5496 46.8286 84.6472C46.1099 85.7073 44.613 84.3779 42.4822 84.2942C41.21 84.2443 40.7224 84.996 40.5347 85.6119C40.5207 85.6565 40.4943 85.6961 40.4586 85.7263C40.423 85.7565 40.3794 85.776 40.3331 85.7824C40.2869 85.7888 40.2397 85.782 40.1971 85.7627C40.1546 85.7434 40.1183 85.7124 40.0927 85.6734C39.781 85.1921 39.252 84.7839 38.4633 85.5674C37.5866 86.4441 38.3212 88.4784 39.1142 89.1442C38.9213 89.3636 35.8915 92.6298 33.5677 95.0808C33.459 95.1954 33.3757 95.3317 33.3233 95.4807C33.2708 95.6298 33.2504 95.7882 33.2633 95.9456C33.2762 96.1031 33.3221 96.2561 33.3982 96.3945C33.4742 96.533 33.5786 96.654 33.7045 96.7494L35.7706 98.3258C36.4008 98.804 37.1628 99.077 37.9534 99.1077C38.7439 99.1384 39.5248 98.9254 40.1902 98.4975L40.5082 98.2929C40.5849 98.2429 40.6498 98.1768 40.6983 98.0991C40.7467 98.0214 40.7777 97.9341 40.7889 97.8432C40.8001 97.7523 40.7913 97.6601 40.7632 97.573C40.735 97.4859 40.6882 97.4059 40.6259 97.3388L39.9994 96.6752C39.4916 96.073 39.5859 95.3098 39.9093 94.6737L41.1867 92.5089C41.4804 92.863 41.8503 93.269 42.1917 93.5076C42.5085 93.7371 42.8968 93.8459 43.2867 93.8144C43.6766 93.783 44.0424 93.6132 44.3183 93.3358C45.1409 92.5503 45.7166 91.6672 45.9784 90.8107L46.6897 90.7057Z" fill="white"/>
<path d="M38.1029 99.3433C37.2089 99.3444 36.3392 99.0529 35.6265 98.5133L33.5603 96.9454C33.4084 96.8301 33.2825 96.6842 33.1908 96.5171C33.099 96.35 33.0435 96.1654 33.0278 95.9754C33.0121 95.7854 33.0366 95.5942 33.0997 95.4143C33.1627 95.2344 33.263 95.0698 33.3939 94.9312C35.4685 92.7399 38.1124 89.8946 38.7835 89.1642C38.2704 88.6129 37.8665 87.6387 37.8294 86.8213C37.8039 86.2266 37.9651 85.7389 38.2937 85.4092C38.669 85.034 39.0358 84.8633 39.3952 84.9015C39.7323 84.9375 40.0312 85.1548 40.2867 85.5492C40.4828 84.9672 41.0044 84.0046 42.4875 84.065C43.3759 84.1 44.1667 84.346 44.8028 84.5431C45.7866 84.8485 46.3145 84.9852 46.6315 84.5209C46.6602 84.4788 46.7016 84.447 46.7496 84.43C46.7976 84.413 46.8498 84.4118 46.8986 84.4265C47.0799 84.4817 47.0799 84.4976 47.0799 85.2852C47.0799 86.3453 47.0799 88.5429 47.3979 89.9741C47.4217 90.0817 47.4231 90.1931 47.402 90.3012C47.3808 90.4094 47.3376 90.512 47.2749 90.6027C47.2107 90.6948 47.1282 90.7726 47.0327 90.8315C46.9372 90.8904 46.8305 90.9291 46.7194 90.9451L46.1533 91.0247C45.8597 91.8833 45.283 92.7378 44.4784 93.5074C44.1618 93.8205 43.7443 94.0111 43.3004 94.0453C42.8564 94.0794 42.4147 93.955 42.0539 93.694C41.7462 93.4643 41.4659 93.2001 41.2185 92.9063L40.1097 94.787C39.9178 95.1633 39.6623 95.9075 40.1765 96.5171L40.7934 97.1701C40.8806 97.2623 40.9464 97.3727 40.9861 97.4932C41.0258 97.6138 41.0385 97.7416 41.0232 97.8676C41.0079 97.9936 40.9651 98.1147 40.8977 98.2223C40.8303 98.3298 40.7401 98.4212 40.6334 98.4899L40.3153 98.6945C39.6554 99.1187 38.8874 99.344 38.1029 99.3433ZM39.2987 85.3647C39.1026 85.3647 38.8746 85.4898 38.6287 85.7389C38.3329 86.0347 38.2884 86.481 38.3022 86.7991C38.3393 87.6726 38.8322 88.6012 39.2637 88.9702C39.2875 88.9905 39.3071 89.0153 39.3213 89.0433C39.3355 89.0712 39.344 89.1017 39.3464 89.1329C39.3487 89.1641 39.3449 89.1955 39.3351 89.2253C39.3253 89.255 39.3096 89.2825 39.2891 89.3062C39.1004 89.5182 36.1194 92.7367 33.7363 95.2524C33.6502 95.3428 33.5841 95.4504 33.5424 95.5681C33.5007 95.6858 33.4843 95.811 33.4943 95.9355C33.5043 96.0599 33.5405 96.1809 33.6004 96.2905C33.6604 96.4 33.7428 96.4956 33.8423 96.5711L35.9085 98.139C36.5007 98.5866 37.216 98.842 37.9578 98.8708C38.6996 98.8996 39.4325 98.7005 40.0577 98.3002L40.3758 98.0956C40.4242 98.0643 40.4652 98.0228 40.4958 97.9739C40.5264 97.925 40.5459 97.87 40.5529 97.8127C40.5599 97.7555 40.5542 97.6974 40.5362 97.6426C40.5182 97.5877 40.4884 97.5376 40.4489 97.4956L39.8224 96.833C39.3103 96.2255 39.2669 95.4018 39.6941 94.5622L40.979 92.3848C40.9978 92.352 41.0244 92.3244 41.0563 92.3043C41.0883 92.2841 41.1247 92.2721 41.1624 92.2692C41.2001 92.2663 41.238 92.2724 41.2729 92.2872C41.3077 92.302 41.3385 92.3249 41.3627 92.354C41.6412 92.7111 41.9635 93.0316 42.3221 93.3081C42.5935 93.5085 42.9281 93.6042 43.2644 93.5777C43.6007 93.5512 43.9162 93.4043 44.1529 93.164C44.9448 92.4081 45.4971 91.5738 45.7494 90.7405C45.7627 90.6977 45.7879 90.6594 45.822 90.6303C45.8562 90.6012 45.8979 90.5825 45.9424 90.5762L46.6537 90.4755C46.7004 90.4692 46.7453 90.4532 46.7855 90.4286C46.8256 90.404 46.8602 90.3712 46.8869 90.3324C46.913 90.2954 46.931 90.2534 46.9397 90.209C46.9485 90.1646 46.9478 90.1189 46.9378 90.0748C46.6071 88.5906 46.6081 86.357 46.6081 85.2831V85.1654C46.095 85.4358 45.4187 85.2259 44.6618 84.9905C44.0204 84.7923 43.2942 84.5665 42.4684 84.5336C41.5769 84.4986 41.0002 84.8866 40.7563 85.6849C40.7294 85.7727 40.678 85.851 40.6081 85.9106C40.5382 85.9702 40.4528 86.0086 40.3618 86.0213C40.2708 86.034 40.1781 86.0205 40.0946 85.9823C40.011 85.9441 39.9401 85.8828 39.8902 85.8057C39.7164 85.5375 39.533 85.3912 39.3443 85.3711C39.3285 85.3679 39.3126 85.3658 39.2966 85.3647H39.2987Z" fill="#070709"/>
<path d="M41.1835 92.7399C41.1459 92.74 41.1089 92.7311 41.0756 92.7139C41.0422 92.6968 41.0134 92.6719 40.9916 92.6414L40.5845 92.0721C40.5642 92.0472 40.5493 92.0185 40.5405 91.9877C40.5317 91.9569 40.5293 91.9246 40.5335 91.8928C40.5376 91.861 40.5482 91.8304 40.5646 91.8029C40.581 91.7754 40.6028 91.7515 40.6288 91.7327C40.6548 91.7139 40.6843 91.7006 40.7156 91.6936C40.7468 91.6866 40.7792 91.6861 40.8107 91.692C40.8422 91.698 40.8721 91.7104 40.8987 91.7283C40.9252 91.7463 40.9478 91.7694 40.9651 91.7964L41.3732 92.3657C41.3987 92.4009 41.4139 92.4425 41.4171 92.4858C41.4204 92.5292 41.4116 92.5725 41.3918 92.6112C41.3719 92.6498 41.3417 92.6822 41.3046 92.7047C41.2674 92.7273 41.2248 92.7391 41.1813 92.7389L41.1835 92.7399Z" fill="#070709"/>
<path d="M61.1179 131.434L68.2895 110.3C68.5061 109.972 68.801 109.703 69.1475 109.518C69.494 109.333 69.8812 109.237 70.2741 109.239H89.3889C89.5816 109.235 89.7723 109.278 89.9447 109.365C90.1171 109.451 90.2659 109.578 90.3784 109.734C90.4909 109.891 90.5636 110.072 90.5903 110.263C90.617 110.454 90.5969 110.648 90.5317 110.83C90.4183 111.125 90.2974 111.418 90.1988 111.718L83.7173 131.479C83.7084 132.036 83.4811 132.567 83.0845 132.957C82.6878 133.347 82.1536 133.566 81.5971 133.566H46.3209C45.7586 133.566 45.2193 133.342 44.8217 132.945C44.4241 132.547 44.2007 132.008 44.2007 131.446L61.1179 131.434Z" fill="#070709"/>
<path d="M75.3256 120.063C75.0563 120.958 75.4687 121.874 76.2457 122.109C77.0228 122.344 77.8719 121.808 78.1412 120.913C78.4105 120.019 77.9981 119.102 77.221 118.867C76.444 118.633 75.5948 119.167 75.3256 120.063Z" fill="white"/>
<path d="M116.92 133.2H32.0529C30.4712 133.2 29.2425 134.684 29.4217 136.38L35.282 191.93H39.5139L35.8449 139.797C35.7802 138.878 36.4534 138.094 37.3068 138.094H110.157C111.43 138.094 112.441 139.267 112.344 140.639L108.713 192.255H112.947L118.907 135.598C119.039 134.32 118.113 133.2 116.92 133.2Z" fill="white"/>
<path d="M112.946 192.496H108.715C108.682 192.496 108.65 192.49 108.621 192.477C108.591 192.464 108.564 192.445 108.542 192.422C108.52 192.398 108.503 192.37 108.492 192.34C108.481 192.309 108.477 192.277 108.479 192.245L112.111 140.628C112.135 140.323 112.096 140.016 111.996 139.727C111.897 139.438 111.739 139.172 111.532 138.946C111.358 138.753 111.145 138.599 110.908 138.494C110.671 138.388 110.414 138.334 110.154 138.333H37.3066C37.1444 138.334 36.9842 138.369 36.8362 138.435C36.6881 138.501 36.5555 138.597 36.4469 138.718C36.3168 138.86 36.2172 139.028 36.1541 139.21C36.0911 139.392 36.0659 139.586 36.0801 139.778L39.7491 191.913C39.7511 191.945 39.7466 191.978 39.7357 192.008C39.7248 192.038 39.7078 192.066 39.6858 192.09C39.6637 192.114 39.6371 192.132 39.6076 192.145C39.578 192.158 39.5461 192.165 39.5138 192.165H35.2818C35.2235 192.165 35.1673 192.143 35.1241 192.104C35.0808 192.065 35.0536 192.011 35.0475 191.953L29.1873 136.404C29.137 135.955 29.1816 135.501 29.318 135.07C29.4544 134.64 29.6796 134.243 29.9792 133.905C30.238 133.609 30.5568 133.372 30.9143 133.21C31.2718 133.047 31.6599 132.962 32.0527 132.96H116.92C117.224 132.961 117.525 133.027 117.802 133.153C118.079 133.279 118.326 133.463 118.527 133.692C118.758 133.953 118.932 134.259 119.037 134.592C119.143 134.924 119.177 135.275 119.139 135.621L113.179 192.284C113.173 192.342 113.146 192.395 113.103 192.435C113.06 192.474 113.005 192.496 112.946 192.496ZM108.968 192.026H112.734L118.671 135.578C118.703 135.297 118.675 135.013 118.59 134.743C118.505 134.474 118.364 134.225 118.177 134.013C118.02 133.834 117.827 133.69 117.611 133.591C117.394 133.492 117.159 133.44 116.921 133.439H32.0527C31.726 133.44 31.4033 133.511 31.1061 133.647C30.809 133.783 30.5441 133.98 30.329 134.226C30.0738 134.515 29.8821 134.854 29.7661 135.222C29.6502 135.589 29.6126 135.977 29.6558 136.36L35.4938 191.698H39.2604L35.6105 139.809C35.5909 139.551 35.6244 139.292 35.7088 139.048C35.7932 138.804 35.9268 138.58 36.1013 138.389C36.254 138.221 36.44 138.087 36.6476 137.995C36.8551 137.902 37.0796 137.855 37.3066 137.854H110.157C110.481 137.855 110.801 137.923 111.097 138.055C111.393 138.186 111.658 138.378 111.876 138.617C112.126 138.891 112.318 139.212 112.439 139.563C112.56 139.913 112.608 140.284 112.58 140.654L108.968 192.026Z" fill="#070709"/>
<path d="M68.4272 91.1264C68.3823 91.1264 68.3384 91.1136 68.3006 91.0895C68.2628 91.0654 68.2326 91.031 68.2137 90.9904C68.1947 90.9497 68.1878 90.9045 68.1937 90.86C68.1996 90.8156 68.2181 90.7737 68.247 90.7394L69.4237 89.3401C69.4436 89.3164 69.468 89.2969 69.4954 89.2826C69.5229 89.2684 69.5529 89.2597 69.5837 89.257C69.6145 89.2544 69.6455 89.2578 69.675 89.2672C69.7045 89.2765 69.7318 89.2915 69.7555 89.3114C69.7792 89.3314 69.7987 89.3557 69.8129 89.3832C69.8272 89.4106 69.8359 89.4406 69.8385 89.4714C69.8412 89.5022 69.8378 89.5333 69.8284 89.5628C69.8191 89.5922 69.804 89.6196 69.7841 89.6433L68.6074 91.0437C68.5852 91.0697 68.5575 91.0905 68.5264 91.1048C68.4953 91.1191 68.4614 91.1264 68.4272 91.1264Z" fill="#070709"/>
<path d="M65.687 94.3863C65.6421 94.3863 65.5982 94.3736 65.5604 94.3495C65.5225 94.3254 65.4924 94.291 65.4734 94.2503C65.4545 94.2097 65.4476 94.1644 65.4535 94.12C65.4594 94.0755 65.4779 94.0337 65.5067 93.9994L66.6835 92.6C66.7237 92.5522 66.7812 92.5224 66.8434 92.517C66.9057 92.5116 66.9675 92.5312 67.0153 92.5714C67.0631 92.6116 67.0929 92.6691 67.0983 92.7314C67.1037 92.7936 67.0841 92.8554 67.0439 92.9032L65.8672 94.3026C65.845 94.3288 65.8174 94.3498 65.7863 94.3643C65.7552 94.3788 65.7213 94.3863 65.687 94.3863Z" fill="#070709"/>
<path d="M66.7154 91.2749C66.6599 91.2752 66.6061 91.2557 66.5638 91.2198L65.1645 90.043C65.1167 90.0028 65.0868 89.9453 65.0814 89.8831C65.0761 89.8208 65.0956 89.759 65.1358 89.7112C65.1761 89.6634 65.2336 89.6336 65.2958 89.6282C65.3581 89.6228 65.4199 89.6424 65.4677 89.6826L66.867 90.8593C66.904 90.8904 66.9305 90.9321 66.943 90.9788C66.9555 91.0254 66.9533 91.0748 66.9367 91.1202C66.9202 91.1656 66.8901 91.2048 66.8505 91.2324C66.8109 91.2601 66.7637 91.2749 66.7154 91.2749Z" fill="#070709"/>
<path d="M69.9751 94.012C69.9197 94.012 69.866 93.9925 69.8235 93.9569L68.422 92.7833C68.3742 92.7431 68.3444 92.6856 68.339 92.6234C68.3336 92.5611 68.3532 92.4993 68.3934 92.4515C68.4336 92.4037 68.4912 92.3739 68.5534 92.3685C68.6156 92.3631 68.6774 92.3827 68.7252 92.4229L70.1246 93.5986C70.162 93.6295 70.1889 93.6713 70.2016 93.7182C70.2143 93.765 70.2123 93.8147 70.1957 93.8603C70.1791 93.9059 70.1487 93.9453 70.1089 93.9731C70.069 94.0008 70.0215 94.0155 69.973 94.0152L69.9751 94.012Z" fill="#070709"/>
<path d="M61.966 85.4761C61.6309 85.4758 61.3022 85.3843 61.0151 85.2113C60.7281 85.0384 60.4935 84.7905 60.3367 84.4944C60.1013 84.0583 60.0458 83.5475 60.1821 83.0711C60.3184 82.5947 60.6356 82.1904 61.066 81.9448C61.2767 81.8268 61.5088 81.7522 61.7488 81.7252C61.9887 81.6983 62.2316 81.7196 62.4632 81.7879C62.7003 81.8571 62.9211 81.973 63.1127 82.1288C63.3042 82.2847 63.4626 82.4773 63.5785 82.6954C63.8122 83.1309 63.8668 83.6405 63.7306 84.1157C63.5944 84.5908 63.2781 84.9941 62.8491 85.2397C62.58 85.3931 62.2758 85.4745 61.966 85.4761ZM61.295 82.3572C60.9727 82.5422 60.7355 82.8459 60.6341 83.2035C60.5326 83.561 60.5751 83.944 60.7522 84.2707C60.8384 84.4339 60.9564 84.5782 61.0994 84.6949C61.2423 84.8117 61.4073 84.8985 61.5844 84.9503C61.7561 85.0008 61.9362 85.0165 62.114 84.9965C62.2919 84.9765 62.464 84.9211 62.6201 84.8336C62.9425 84.6484 63.1797 84.3445 63.2812 83.9868C63.3826 83.6291 63.3401 83.2459 63.1629 82.9191C63.0767 82.7561 62.9586 82.612 62.8156 82.4955C62.6727 82.3789 62.5078 82.2923 62.3307 82.2406C62.1591 82.1896 61.9789 82.1736 61.801 82.1936C61.6231 82.2137 61.451 82.2693 61.295 82.3572Z" fill="#070709"/>
<path d="M82.3164 88.3181C83.115 88.2488 83.7068 87.5528 83.6383 86.7636C83.5698 85.9744 82.8669 85.3909 82.0684 85.4602C81.2699 85.5295 80.6781 86.2254 80.7466 87.0146C80.8151 87.8038 81.5179 88.3874 82.3164 88.3181Z" fill="#070709"/>
<path d="M154.644 2.40367C154.613 2.40367 154.582 2.39759 154.554 2.38577C154.525 2.37394 154.499 2.35661 154.477 2.33476L153.449 1.30751C153.408 1.26255 153.386 1.20361 153.388 1.14291C153.389 1.08221 153.414 1.02441 153.457 0.981473C153.5 0.938539 153.558 0.913771 153.618 0.912301C153.679 0.910831 153.738 0.932772 153.783 0.973578L154.81 2.00082C154.843 2.03388 154.865 2.07587 154.874 2.12154C154.883 2.16721 154.879 2.21452 154.861 2.25754C154.843 2.30056 154.813 2.33737 154.774 2.36337C154.736 2.38936 154.69 2.40338 154.644 2.40367Z" fill="#070709"/>
<path d="M158.243 5.99973C158.212 5.99973 158.181 5.99365 158.153 5.98183C158.124 5.97001 158.098 5.95267 158.076 5.93082L157.048 4.90357C157.026 4.88172 157.009 4.85576 156.997 4.82717C156.985 4.79859 156.979 4.76794 156.979 4.73698C156.979 4.70602 156.985 4.67536 156.997 4.64674C157.008 4.61811 157.026 4.5921 157.048 4.57017C157.069 4.54824 157.095 4.53084 157.124 4.51894C157.153 4.50705 157.183 4.5009 157.214 4.50085C157.245 4.50081 157.276 4.50686 157.304 4.51866C157.333 4.53046 157.359 4.54778 157.381 4.56964L158.409 5.59689C158.431 5.61874 158.448 5.64469 158.46 5.67325C158.472 5.7018 158.478 5.73241 158.478 5.76332C158.478 5.79423 158.472 5.82484 158.46 5.8534C158.448 5.88196 158.431 5.90791 158.409 5.92976C158.388 5.95195 158.362 5.96957 158.333 5.98159C158.305 5.9936 158.274 5.99977 158.243 5.99973Z" fill="#070709"/>
<path d="M153.616 5.99973C153.569 5.99944 153.524 5.98542 153.485 5.95943C153.446 5.93343 153.416 5.89662 153.399 5.8536C153.381 5.81058 153.376 5.76327 153.385 5.7176C153.394 5.67193 153.416 5.62994 153.449 5.59689L154.477 4.56964C154.522 4.5255 154.582 4.50076 154.644 4.50085C154.707 4.50095 154.767 4.52589 154.811 4.57017C154.855 4.61445 154.88 4.67446 154.88 4.73698C154.88 4.79951 154.855 4.85943 154.81 4.90357L153.783 5.93082C153.738 5.97482 153.678 5.99956 153.616 5.99973Z" fill="#070709"/>
<path d="M157.214 2.40366C157.168 2.40337 157.122 2.38936 157.084 2.36336C157.045 2.33736 157.015 2.30055 156.997 2.25753C156.98 2.21451 156.975 2.1672 156.984 2.12153C156.993 2.07587 157.015 2.03387 157.048 2.00082L158.076 0.973571C158.121 0.929429 158.181 0.904686 158.243 0.904785C158.306 0.904885 158.366 0.929818 158.41 0.974101C158.454 1.01838 158.479 1.07839 158.479 1.14091C158.478 1.20344 158.453 1.26336 158.409 1.30751L157.381 2.33475C157.359 2.3566 157.333 2.37394 157.305 2.38576C157.276 2.39758 157.245 2.40366 157.214 2.40366Z" fill="#070709"/>
<path d="M156.312 175.476C156.262 175.477 156.213 175.462 156.173 175.433C156.132 175.404 156.102 175.363 156.086 175.316C156.07 175.269 156.07 175.218 156.084 175.171C156.099 175.123 156.129 175.082 156.168 175.052C165.823 167.715 173.981 158.594 180.199 148.184C180.231 148.13 180.283 148.092 180.344 148.076C180.405 148.061 180.469 148.071 180.522 148.103C180.576 148.135 180.614 148.187 180.63 148.248C180.645 148.309 180.635 148.373 180.603 148.426C174.354 158.889 166.156 168.055 156.454 175.429C156.413 175.46 156.363 175.477 156.312 175.476Z" fill="#070709"/>
<path d="M172.752 168.17C172.706 168.17 172.661 168.156 172.623 168.131C172.584 168.106 172.554 168.07 172.536 168.028C172.518 167.986 172.512 167.939 172.52 167.894C172.527 167.849 172.548 167.807 172.579 167.773C176.506 163.562 180.044 159.005 183.151 154.157C183.185 154.105 183.238 154.068 183.299 154.054C183.36 154.041 183.424 154.053 183.477 154.086C183.529 154.12 183.566 154.173 183.58 154.234C183.593 154.295 183.581 154.359 183.548 154.412C180.426 159.283 176.87 163.863 172.923 168.095C172.901 168.118 172.875 168.137 172.845 168.15C172.816 168.163 172.784 168.17 172.752 168.17Z" fill="#070709"/>
<path d="M95.085 179.475C96.2362 177.079 96.3465 174.665 95.085 172.226L95.9903 171.129L125.911 171.951L125.056 179.902L95.9299 180.181L95.085 179.475Z" fill="white"/>
<path d="M95.9296 180.417C95.8741 180.418 95.8204 180.398 95.778 180.362L94.93 179.656C94.8898 179.622 94.8619 179.576 94.8508 179.525C94.8397 179.474 94.8459 179.42 94.8685 179.373C96.0505 176.916 96.0516 174.613 94.8685 172.334C94.8474 172.293 94.8387 172.247 94.8436 172.201C94.8485 172.155 94.8667 172.112 94.896 172.076L95.8024 170.978C95.8254 170.951 95.8542 170.929 95.8866 170.914C95.9191 170.9 95.9544 170.892 95.9901 170.893L125.911 171.716C125.943 171.717 125.975 171.725 126.004 171.738C126.034 171.752 126.06 171.772 126.081 171.797C126.103 171.821 126.119 171.85 126.129 171.881C126.139 171.912 126.142 171.944 126.139 171.977L125.284 179.927C125.278 179.985 125.251 180.039 125.208 180.078C125.166 180.117 125.11 180.139 125.052 180.14L95.9254 180.418L95.9296 180.417ZM95.3752 179.411L96.0113 179.941L124.846 179.665L125.651 172.176L96.1014 171.363L95.3667 172.252C96.5021 174.55 96.5063 176.955 95.3752 179.411Z" fill="#070709"/>
<path d="M145.408 170.253H94.2886C94.0335 170.261 93.7915 170.369 93.614 170.552C93.4364 170.736 93.3372 170.981 93.3372 171.236C93.3372 171.491 93.4364 171.737 93.614 171.92C93.7915 172.104 94.0335 172.211 94.2886 172.219H120.579C120.949 172.221 121.315 172.296 121.656 172.44C121.997 172.583 122.307 172.792 122.567 173.055C122.827 173.318 123.033 173.629 123.173 173.972C123.312 174.314 123.383 174.681 123.381 175.051V176.641C123.383 177.011 123.312 177.378 123.173 177.72C123.033 178.063 122.827 178.374 122.567 178.637C122.307 178.9 121.997 179.109 121.656 179.253C121.315 179.396 120.949 179.471 120.579 179.473H94.2886C94.0335 179.481 93.7915 179.588 93.614 179.772C93.4364 179.955 93.3372 180.201 93.3372 180.456C93.3372 180.711 93.4364 180.957 93.614 181.14C93.7915 181.324 94.0335 181.431 94.2886 181.439H145.412C148.265 181.439 150.579 179.107 150.579 176.218V175.476C150.58 172.59 148.261 170.253 145.408 170.253Z" fill="#070709"/>
<path d="M97.6526 193.215H144.326V182.591H97.6526C98.8781 186.062 98.912 189.835 97.6526 193.215Z" fill="white"/>
<path d="M144.326 193.45H97.6523C97.6142 193.451 97.5766 193.441 97.5427 193.424C97.5089 193.406 97.4798 193.381 97.458 193.35C97.4362 193.318 97.4223 193.282 97.4176 193.244C97.4129 193.206 97.4174 193.168 97.4308 193.132C98.6541 189.846 98.6531 186.136 97.4308 182.668C97.4173 182.632 97.4128 182.594 97.4176 182.556C97.4224 182.518 97.4364 182.482 97.4583 182.45C97.4802 182.419 97.5095 182.393 97.5434 182.376C97.5774 182.358 97.6152 182.35 97.6534 182.35H144.326C144.357 182.35 144.387 182.356 144.416 182.368C144.445 182.38 144.471 182.397 144.493 182.419C144.514 182.441 144.532 182.467 144.544 182.496C144.555 182.525 144.561 182.555 144.561 182.586V193.211C144.562 193.242 144.556 193.273 144.545 193.302C144.533 193.331 144.516 193.358 144.494 193.38C144.472 193.403 144.446 193.42 144.417 193.432C144.388 193.444 144.357 193.45 144.326 193.45ZM97.9842 192.98H144.093V182.826H97.9778C99.0962 186.194 99.0983 189.774 97.9873 192.98H97.9842Z" fill="#070709"/>
<path d="M137.147 186.55H101.816C101.756 186.546 101.7 186.519 101.659 186.476C101.618 186.432 101.595 186.374 101.595 186.314C101.595 186.254 101.618 186.197 101.659 186.153C101.7 186.109 101.756 186.082 101.816 186.078H137.149C137.209 186.082 137.265 186.109 137.306 186.153C137.347 186.197 137.37 186.254 137.37 186.314C137.37 186.374 137.347 186.432 137.306 186.476C137.265 186.519 137.209 186.546 137.149 186.55H137.147Z" fill="#070709"/>
<path d="M137.147 189.52H108.115C108.053 189.52 107.993 189.495 107.949 189.451C107.905 189.406 107.88 189.347 107.88 189.284C107.88 189.222 107.905 189.162 107.949 189.118C107.993 189.074 108.053 189.049 108.115 189.049H137.147C137.209 189.049 137.269 189.074 137.313 189.118C137.357 189.162 137.382 189.222 137.382 189.284C137.382 189.347 137.357 189.406 137.313 189.451C137.269 189.495 137.209 189.52 137.147 189.52Z" fill="#070709"/>
<path d="M138.988 183.097H97.026C96.8112 183.097 96.6052 183.012 96.4533 182.86C96.3014 182.708 96.2161 182.502 96.2161 182.287C96.2161 182.073 96.3014 181.867 96.4533 181.715C96.6052 181.563 96.8112 181.477 97.026 181.477H149.945C150.884 181.482 151.782 181.86 152.443 182.528C153.104 183.195 153.472 184.098 153.467 185.037V190.633C153.472 191.572 153.104 192.474 152.443 193.142C151.782 193.809 150.884 194.187 149.945 194.192H97.026C96.8112 194.192 96.6052 194.107 96.4533 193.955C96.3014 193.803 96.2161 193.597 96.2161 193.382C96.2161 193.168 96.3014 192.962 96.4533 192.81C96.6052 192.658 96.8112 192.573 97.026 192.573H138.988C139.317 192.571 139.642 192.504 139.945 192.377C140.248 192.25 140.523 192.064 140.754 191.831C140.985 191.597 141.168 191.321 141.292 191.016C141.416 190.712 141.479 190.386 141.477 190.058V185.612C141.479 185.283 141.416 184.958 141.292 184.653C141.168 184.349 140.985 184.073 140.754 183.839C140.523 183.606 140.248 183.42 139.945 183.293C139.642 183.165 139.317 183.099 138.988 183.097Z" fill="#070709"/>
<path d="M119.975 174.744H98.4072C98.3448 174.744 98.2849 174.719 98.2408 174.675C98.1967 174.631 98.1719 174.571 98.1719 174.508C98.1719 174.446 98.1967 174.386 98.2408 174.342C98.2849 174.298 98.3448 174.273 98.4072 174.273H119.975C120.038 174.273 120.097 174.298 120.142 174.342C120.186 174.386 120.21 174.446 120.21 174.508C120.21 174.571 120.186 174.631 120.142 174.675C120.097 174.719 120.038 174.744 119.975 174.744Z" fill="#070709"/>
<g style="mix-blend-mode:multiply">
<path d="M121.702 86.6088C116.25 86.6088 110.914 87.114 105.741 88.0786C104.609 94.5114 103.985 101.118 103.985 107.875C103.985 162.892 143.137 208.755 195.098 219.147C203.453 205.829 208.285 190.077 208.285 173.195C208.285 125.377 169.52 86.6111 121.702 86.6111V86.6088Z" fill="#EC6371"/>
</g>
</svg>
