<svg width="208" height="220" viewBox="0 0 208 220" fill="none" xmlns="http://www.w3.org/2000/svg">
<g clip-path="url(#clip0_3027_22770)">
<g clip-path="url(#clip1_3027_22770)">
<path d="M124.802 36.6562L124.239 34.608L121.909 34.7134C121.693 34.2624 121.444 33.8349 121.161 33.435L122.393 31.4695L120.876 29.9761L118.911 31.2261C118.502 30.9471 118.07 30.7021 117.62 30.4944L117.701 28.1752L115.636 27.6366L114.564 29.6938C114.074 29.6556 113.577 29.6597 113.077 29.7043L111.981 27.6569L109.922 28.2174L110.028 30.535C109.575 30.7499 109.145 30.9982 108.743 31.2797L106.768 30.0531L105.266 31.5628L106.523 33.5177C106.243 33.9249 105.996 34.3541 105.788 34.8018L103.457 34.7215L102.916 36.7763L104.984 37.8422C104.945 38.3297 104.949 38.8245 104.994 39.3218L102.935 40.4104L103.498 42.4587L105.827 42.3532C106.044 42.8042 106.293 43.2317 106.576 43.6316L105.343 45.5972L106.861 47.0906L108.826 45.8405C109.235 46.1196 109.666 46.3645 110.116 46.5722L110.036 48.8914L112.101 49.43L113.172 47.3729C113.662 47.411 114.16 47.4069 114.66 47.3623L115.755 49.4098L117.814 48.8492L117.708 46.5317C118.162 46.3167 118.591 46.0685 118.993 45.787L120.969 47.0135L122.47 45.5039L121.214 43.5489C121.494 43.1417 121.74 42.7126 121.949 42.2648L124.28 42.3451L124.822 40.2904L122.754 39.2245C122.792 38.7369 122.788 38.2421 122.743 37.7448L124.801 36.6546L124.802 36.6562ZM115.32 43.8069C112.393 44.6043 109.369 42.8902 108.568 39.9772C107.766 37.0651 109.489 34.0572 112.417 33.2598C115.345 32.4624 118.368 34.1764 119.169 37.0894C119.971 40.0016 118.248 43.0095 115.32 43.8069Z" fill="#070709"/>
<path d="M159.588 15.8054L158.624 12.3003L154.638 12.4804C154.269 11.7081 153.841 10.9764 153.357 10.2926L155.468 6.9294L152.871 4.37334L149.509 6.51245C148.808 6.03466 148.07 5.61609 147.301 5.25997L147.439 1.29163L143.905 0.370117L142.071 3.88987C141.233 3.82498 140.381 3.83147 139.526 3.90772L137.652 0.403376L134.128 1.36301L134.309 5.32811C133.534 5.69558 132.798 6.12146 132.11 6.60249L128.73 4.50313L126.161 7.08677L128.311 10.4313C127.83 11.1273 127.41 11.8623 127.052 12.628L123.064 12.4909L122.137 16.0066L125.675 17.831C125.609 18.6649 125.617 19.5118 125.693 20.3627L122.171 22.2276L123.135 25.7328L127.121 25.5527C127.49 26.325 127.918 27.0567 128.402 27.7405L126.292 31.1037L128.889 33.6597L132.251 31.5206C132.95 31.9984 133.689 32.417 134.459 32.7731L134.321 36.7406L137.855 37.6622L139.688 34.1424C140.527 34.2081 141.378 34.2008 142.233 34.1246L144.108 37.6289L147.631 36.6693L147.45 32.7042C148.226 32.3367 148.962 31.9108 149.649 31.4298L153.03 33.5291L155.599 30.9455L153.449 27.601C153.929 26.9042 154.35 26.17 154.708 25.4043L158.696 25.5414L159.623 22.0257L156.085 20.2013C156.151 19.3674 156.144 18.5205 156.067 17.6696L159.589 15.8046L159.588 15.8054ZM143.362 28.0414C138.353 29.4059 133.18 26.4726 131.809 21.4886C130.437 16.5047 133.386 11.3585 138.395 9.99408C143.405 8.62966 148.578 11.5629 149.949 16.5469C151.321 21.5308 148.372 26.677 143.362 28.0414Z" fill="white"/>
<path d="M137.855 37.8438C137.84 37.8438 137.824 37.8422 137.809 37.8382L134.275 36.9166C134.194 36.8955 134.138 36.8209 134.141 36.7382L134.275 32.8875C133.573 32.5557 132.891 32.1695 132.247 31.7372L128.985 33.813C128.914 33.8576 128.822 33.8479 128.762 33.7895L126.165 31.2334C126.106 31.175 126.095 31.0826 126.139 31.012L128.187 27.7486C127.75 27.1191 127.354 26.4442 127.01 25.7384L123.143 25.9137C123.06 25.9209 122.984 25.8634 122.962 25.7822L121.997 22.2771C121.975 22.1968 122.012 22.1116 122.086 22.0727L125.503 20.2629C125.438 19.4809 125.432 18.6997 125.486 17.9372L122.053 16.1672C121.979 16.1291 121.941 16.0439 121.962 15.9636L122.888 12.4479C122.91 12.3676 122.985 12.3067 123.068 12.3149L126.938 12.4471C127.272 11.7486 127.66 11.0705 128.095 10.4296L126.008 7.18408C125.963 7.1135 125.973 7.02184 126.032 6.96262L128.601 4.37898C128.66 4.31976 128.752 4.30922 128.823 4.35302L132.104 6.39073C132.736 5.95593 133.415 5.56251 134.124 5.22018L133.949 1.37271C133.945 1.28915 133.999 1.21453 134.081 1.19262L137.603 0.232174C137.684 0.210271 137.769 0.246775 137.808 0.320593L139.627 3.72029C140.413 3.6554 141.198 3.64972 141.965 3.70326L143.745 0.288957C143.783 0.215139 143.868 0.177824 143.95 0.198104L147.483 1.11962C147.564 1.14071 147.62 1.21534 147.617 1.29808L147.483 5.1488C148.186 5.48058 148.867 5.8667 149.511 6.29907L152.774 4.22323C152.844 4.17861 152.937 4.18835 152.996 4.24675L155.593 6.80282C155.653 6.86122 155.663 6.9537 155.619 7.02427L153.572 10.2877C154.009 10.9172 154.404 11.5921 154.748 12.2978L158.616 12.1226C158.7 12.1169 158.775 12.1729 158.797 12.254L159.761 15.7592C159.783 15.8395 159.747 15.9247 159.672 15.9636L156.255 17.7734C156.32 18.5553 156.326 19.3365 156.272 20.099L159.705 21.8691C159.779 21.9072 159.818 21.9924 159.796 22.0727L158.87 25.5884C158.849 25.6687 158.776 25.7319 158.691 25.7214L154.82 25.5892C154.487 26.2876 154.099 26.9658 153.664 27.6066L155.75 30.8522C155.795 30.9228 155.786 31.0144 155.727 31.0736L153.158 33.6573C153.099 33.7165 153.007 33.727 152.935 33.6832L149.655 31.6463C149.023 32.0803 148.344 32.4737 147.634 32.8169L147.81 36.6644C147.814 36.7479 147.76 36.8225 147.678 36.8444L144.155 37.8041C144.073 37.8252 143.989 37.7895 143.95 37.7157L142.13 34.316C141.344 34.3809 140.559 34.3865 139.793 34.333L138.014 37.7481C137.983 37.8081 137.92 37.8446 137.855 37.8446V37.8438ZM134.505 36.6076L137.762 37.4569L139.529 34.0637C139.563 33.9996 139.632 33.9623 139.702 33.968C140.524 34.032 141.37 34.0264 142.217 33.9501C142.288 33.9428 142.357 33.9809 142.391 34.0442L144.199 37.422L147.446 36.5378L147.271 32.7147C147.268 32.6433 147.308 32.5768 147.373 32.5459C148.141 32.1825 148.872 31.7591 149.546 31.287C149.605 31.2456 149.683 31.244 149.744 31.2813L153.003 33.3052L155.37 30.9244L153.298 27.6999C153.259 27.6399 153.26 27.562 153.301 27.5028C153.774 26.8165 154.192 26.0856 154.545 25.3312C154.576 25.2663 154.641 25.2193 154.714 25.2282L158.559 25.3596L159.413 22.1197L156.002 20.3611C155.939 20.3278 155.9 20.2605 155.906 20.1891C155.971 19.3706 155.965 18.5294 155.888 17.6874C155.882 17.616 155.919 17.5478 155.983 17.5138L159.378 15.7154L158.489 12.4852L154.646 12.6588C154.576 12.6629 154.507 12.6223 154.477 12.5574C154.112 11.7949 153.686 11.0672 153.211 10.3956C153.17 10.3372 153.168 10.2593 153.206 10.1985L155.24 6.95613L152.847 4.60124L149.606 6.66329C149.545 6.70142 149.467 6.70061 149.408 6.66005C148.718 6.18956 147.984 5.77342 147.225 5.42217C147.16 5.39216 147.119 5.32564 147.121 5.25425L147.254 1.42868L143.998 0.579363L142.23 3.97257C142.196 4.03666 142.128 4.07559 142.057 4.06829C141.234 4.00421 140.388 4.00989 139.542 4.08614C139.471 4.09344 139.402 4.05531 139.368 3.99204L137.561 0.614244L134.314 1.49844L134.489 5.32158C134.492 5.39297 134.452 5.45948 134.387 5.49031C133.62 5.85372 132.889 6.27716 132.214 6.74928C132.155 6.79065 132.077 6.79227 132.016 6.75496L128.757 4.73104L126.39 7.11188L128.462 10.3364C128.501 10.3964 128.5 10.4743 128.459 10.5335C127.986 11.2197 127.567 11.9506 127.215 12.705C127.185 12.7699 127.122 12.817 127.046 12.8081L123.201 12.6766L122.347 15.9165L125.758 17.6752C125.821 17.7085 125.86 17.7758 125.854 17.8472C125.789 18.6657 125.795 19.5077 125.872 20.3497C125.878 20.4211 125.841 20.4892 125.777 20.5233L122.382 22.3209L123.271 25.551L127.114 25.3775C127.181 25.3702 127.252 25.414 127.283 25.4789C127.649 26.2414 128.074 26.969 128.549 27.6407C128.59 27.6991 128.592 27.777 128.554 27.8378L126.52 31.0801L128.913 33.435L132.154 31.373C132.215 31.3348 132.293 31.3356 132.352 31.3762C133.042 31.8467 133.777 32.2636 134.535 32.6141C134.6 32.6441 134.641 32.7106 134.639 32.782L134.506 36.6076H134.505ZM140.864 28.5565C139.221 28.5565 137.599 28.1323 136.133 27.3008C133.91 26.0394 132.312 23.9919 131.637 21.5357C130.961 19.0794 131.287 16.5079 132.554 14.2958C133.822 12.0837 135.88 10.4945 138.349 9.82207C140.818 9.14959 143.402 9.47407 145.626 10.7347C147.849 11.9961 149.447 14.0435 150.123 16.4998C150.799 18.9561 150.473 21.5267 149.205 23.7397C147.938 25.9526 145.88 27.5409 143.411 28.2134C142.569 28.4429 141.714 28.5557 140.864 28.5557V28.5565ZM140.893 9.83667C140.076 9.83667 139.253 9.94618 138.442 10.1668C136.066 10.8142 134.085 12.3432 132.864 14.4734C131.644 16.6028 131.331 19.0777 131.981 21.4424C132.632 23.807 134.169 25.7774 136.31 26.9917C138.451 28.2061 140.938 28.5176 143.315 27.8702C145.692 27.2229 147.673 25.6938 148.893 23.5636C150.114 21.4343 150.427 18.9593 149.776 16.5947C149.126 14.2301 147.589 12.2597 145.447 11.0453C144.037 10.2447 142.475 9.83667 140.893 9.83667Z" fill="#070709"/>
</g>
<path d="M43.0393 194.619C46.6898 192.009 50.4703 189.576 54.3103 187.257C62.1049 182.548 70.1875 178.338 78.3263 174.259C82.6079 172.113 87.002 170.172 91.3539 168.174C95.7318 166.165 100.118 164.175 104.506 162.185C108.515 160.366 112.524 158.548 116.528 156.72C129.864 128.416 144.584 96.3282 142.778 96.3282L6.18288 92.4547C2.95115 92.4547 0.322266 95.0836 0.322266 98.3153V193.169C0.322266 196.4 2.95115 199.029 6.18288 199.029L46.4571 199.289C48.5243 197.771 40.9559 196.11 43.0403 194.62L43.0393 194.619Z" fill="#070709"/>
<path d="M147.317 92.7859H8.97084C5.91702 92.7859 3.44141 95.2615 3.44141 98.3153V193.167C3.44141 196.221 5.91702 198.697 8.97084 198.697H147.317C150.371 198.697 152.846 196.221 152.846 193.167V98.3153C152.846 95.2615 150.371 92.7859 147.317 92.7859Z" fill="white"/>
<path d="M147.318 198.938H8.97098C5.78904 198.938 3.2002 196.349 3.2002 193.167V98.3142C3.2002 95.1323 5.78904 92.5435 8.97098 92.5435H147.318C150.5 92.5435 153.089 95.1323 153.089 98.3142V193.167C153.089 196.349 150.5 198.938 147.318 198.938ZM8.97098 93.0272C6.05528 93.0272 3.68398 95.3996 3.68398 98.3142V193.167C3.68398 196.083 6.05637 198.454 8.97098 198.454H147.318C150.234 198.454 152.605 196.082 152.605 193.167V98.3142C152.605 95.3985 150.233 93.0272 147.318 93.0272H8.97098Z" fill="#070709"/>
<path d="M142.68 100.71H13.6073C12.2678 100.71 11.1819 101.796 11.1819 103.136V104.919C11.1819 106.259 12.2678 107.345 13.6073 107.345H142.68C144.02 107.345 145.106 106.259 145.106 104.919V103.136C145.106 101.796 144.02 100.71 142.68 100.71Z" fill="#070709"/>
<path d="M140.821 105.59C141.68 105.387 142.212 104.527 142.009 103.668C141.806 102.81 140.946 102.278 140.087 102.481C139.229 102.683 138.697 103.544 138.9 104.402C139.102 105.261 139.963 105.793 140.821 105.59Z" fill="white"/>
<path d="M145.106 110.459H11.2371V191.002H145.106V110.459Z" fill="white"/>
<path d="M145.106 191.244H11.2372C11.1041 191.244 10.9958 191.136 10.9958 191.003V110.46C10.9958 110.327 11.1041 110.218 11.2372 110.218H145.107C145.24 110.218 145.348 110.327 145.348 110.46V191.003C145.348 191.136 145.24 191.244 145.107 191.244H145.106ZM11.4786 190.76H144.865V110.7H11.4786V190.76Z" fill="#070709"/>
<path d="M117.67 19.4813H176.241C177.946 19.4813 179.33 20.8656 179.33 22.5702V60.7437C179.33 62.4483 177.946 63.8326 176.241 63.8326H117.67C115.965 63.8326 114.581 62.4483 114.581 60.7437V22.5702C114.581 20.8656 115.965 19.4813 117.67 19.4813Z" fill="white"/>
<path d="M176.241 64.075H117.67C115.833 64.075 114.34 62.5815 114.34 60.7448V22.5702C114.34 20.7336 115.833 19.24 117.67 19.24H176.241C178.078 19.24 179.572 20.7336 179.572 22.5702V60.7437C179.572 62.5804 178.078 64.074 176.241 64.074V64.075ZM117.671 19.7238C116.102 19.7238 114.823 21.0009 114.823 22.5713V60.7448C114.823 62.3141 116.1 63.5923 117.671 63.5923H176.242C177.812 63.5923 179.09 62.3152 179.09 60.7448V22.5702C179.09 21.0009 177.813 19.7227 176.242 19.7227H117.671V19.7238Z" fill="#070709"/>
<path d="M146.955 58.3886C146.822 58.3886 146.714 58.2804 146.714 58.1473V24.9923C146.714 24.8592 146.822 24.751 146.955 24.751C147.089 24.751 147.197 24.8592 147.197 24.9923V58.1473C147.197 58.2804 147.089 58.3886 146.955 58.3886Z" fill="#070709"/>
<path d="M146.136 25.9545L146.956 25.1352L147.776 25.9545V25.2586L146.956 24.4393L146.136 25.2586V25.9545Z" fill="#070709"/>
<path d="M172.055 45.3514H121.304C121.171 45.3514 121.063 45.2431 121.063 45.11C121.063 44.9769 121.171 44.8687 121.304 44.8687H172.055C172.188 44.8687 172.296 44.9769 172.296 45.11C172.296 45.2431 172.188 45.3514 172.055 45.3514Z" fill="#070709"/>
<path d="M171.093 45.9295L171.912 45.1091L171.093 44.2898H171.789L172.608 45.1091L171.789 45.9295H171.093Z" fill="#070709"/>
<path d="M147.07 56.158C141.267 56.158 136.547 51.4371 136.547 45.6349V39.5373C136.547 34.0014 132.043 29.4969 126.507 29.4969H121.304C121.171 29.4969 121.063 29.3886 121.063 29.2555C121.063 29.1224 121.171 29.0142 121.304 29.0142H126.507C132.31 29.0142 137.031 33.7351 137.031 39.5384V45.636C137.031 51.1719 141.535 55.6764 147.071 55.6764C152.607 55.6764 157.112 51.173 157.112 45.636V39.5384C157.112 33.7351 161.833 29.0142 167.635 29.0142H170.683C170.816 29.0142 170.924 29.1224 170.924 29.2555C170.924 29.3886 170.816 29.4969 170.683 29.4969H167.635C162.099 29.4969 157.594 34.0014 157.594 39.5373V45.6349C157.594 51.4371 152.873 56.158 147.07 56.158Z" fill="#070709"/>
<path d="M49.2234 185.203H22.7473C19.5047 185.203 16.8672 182.565 16.8672 179.322V142.316C16.8672 139.073 19.5047 136.436 22.7473 136.436H49.2234C52.466 136.436 55.1035 139.073 55.1035 142.316V179.322C55.1035 182.565 52.466 185.203 49.2234 185.203ZM22.7473 136.919C19.7721 136.919 17.351 139.34 17.351 142.316V179.322C17.351 182.298 19.7721 184.719 22.7473 184.719H49.2234C52.1986 184.719 54.6197 182.298 54.6197 179.322V142.316C54.6197 139.34 52.1986 136.919 49.2234 136.919H22.7473Z" fill="#070709"/>
<path d="M29.821 150.476H21.5967V177.501H29.821V150.476Z" fill="#070709"/>
<path d="M40.0974 143.018H31.873V177.501H40.0974V143.018Z" fill="#070709"/>
<path d="M50.3747 161.39H42.1504V177.502H50.3747V161.39Z" fill="#070709"/>
<path d="M90.6488 33.5627C90.5462 33.4137 90.5462 33.2209 90.6488 33.071C90.7907 32.8648 90.8684 32.6426 90.8684 32.4106C90.8684 31.3333 89.1994 30.4596 87.1405 30.4596C85.0815 30.4596 83.4126 31.3333 83.4126 32.4106C83.4126 32.6426 83.4902 32.8648 83.6321 33.071C83.7348 33.22 83.7348 33.4128 83.6321 33.5627C83.4902 33.7689 83.4126 33.9911 83.4126 34.2232C83.4126 34.7346 83.7883 35.1995 84.4032 35.5476C84.3899 35.6056 84.3818 35.6645 84.3818 35.7243C84.3818 36.5213 85.617 37.1683 87.1405 37.1683C88.6639 37.1683 89.8991 36.5222 89.8991 35.7243C89.8991 35.6645 89.8911 35.6056 89.8777 35.5476C90.4926 35.1995 90.8684 34.7346 90.8684 34.2232C90.8684 33.9911 90.7907 33.7689 90.6488 33.5627Z" fill="#070709"/>
<path d="M97.2585 17.4537C97.2585 11.9284 92.6595 7.21436 87.1342 7.21436C81.6196 7.21436 77.0697 11.8008 77.0332 17.3154C77.0144 20.124 78.3692 22.7363 80.2157 24.5641C81.5482 25.8823 82.5192 27.5218 82.9904 29.3353L83.0136 29.4228C83.4715 31.1836 85.061 32.4126 86.8807 32.4126H87.6269C89.4466 32.4126 91.0361 31.1836 91.494 29.4228L91.5073 29.3701C91.9759 27.5691 92.9076 25.9144 94.2401 24.615C96.1027 22.7979 97.2585 20.2615 97.2585 17.4546V17.4537Z" fill="white"/>
<path d="M87.6269 32.6088H86.8808C84.9727 32.6088 83.3046 31.3192 82.8245 29.4718L82.8013 29.3843C82.3461 27.6351 81.4045 26.0161 80.0783 24.7024C78.0006 22.6461 76.8199 19.9535 76.8369 17.3136C76.8752 11.6365 81.4938 7.01794 87.1342 7.01794C92.7747 7.01794 97.4549 11.7972 97.4549 17.4537C97.4549 20.2257 96.3616 22.8184 94.3767 24.755C93.0906 26.0099 92.1643 27.6226 91.6966 29.4191L91.6832 29.4718C91.2031 31.3183 89.535 32.6088 87.6269 32.6088ZM87.1342 7.41063C81.7089 7.41063 77.2661 11.8543 77.2295 17.3171C77.2126 19.8518 78.3514 22.4426 80.3541 24.4248C81.7312 25.7876 82.7085 27.4691 83.1815 29.2861L83.2047 29.3736C83.6402 31.0479 85.1521 32.217 86.8817 32.217H87.6278C89.3574 32.217 90.8693 31.0479 91.3048 29.3736L91.3182 29.3209C91.8037 27.4548 92.7667 25.7787 94.1036 24.4748C96.0117 22.6131 97.0631 20.1195 97.0631 17.4546C97.0631 12.0105 92.5168 7.41153 87.1351 7.41153L87.1342 7.41063Z" fill="#070709"/>
<path d="M87.7028 31.1765C87.5939 31.1765 87.5073 31.0882 87.5073 30.9793C87.5288 25.595 90.673 19.5163 91.3031 18.3525C91.6779 17.66 91.8216 17.0932 91.7413 16.6193C91.6217 15.917 91.2629 15.4654 90.6747 15.2771C90.2535 15.1423 89.5984 15.1289 89.0406 15.4457C89.7528 16.1731 90.2303 17.3699 89.9331 18.4088C89.8162 18.8175 89.4878 19.104 89.0549 19.1763C88.5498 19.2602 88.0321 19.0397 87.734 18.614C87.4779 18.2481 87.1709 17.4172 87.9946 15.9652C88.116 15.7518 88.2579 15.5725 88.4132 15.4243C88.3909 15.4091 88.3677 15.394 88.3454 15.3797C87.9259 15.1155 87.236 14.9227 86.556 15.1762C86.3623 15.2485 86.1811 15.3529 86.0133 15.4886C86.7746 16.0214 87.1548 17.4279 86.9951 18.2195C86.8746 18.8175 86.5256 19.2441 86.0383 19.3914C85.6224 19.5163 85.1726 19.4021 84.8647 19.0924C84.4372 18.664 84.3355 17.9464 84.5863 17.1245C84.7889 16.4605 85.053 15.9759 85.3342 15.6233C84.1989 15.3092 83.4064 15.8527 83.1913 16.3837C82.9397 17.0049 83.0316 17.7447 83.4305 18.315C84.3524 19.6332 86.5096 23.4807 86.6149 30.733C86.6167 30.8418 86.5301 30.9302 86.4212 30.932H86.4185C86.3114 30.932 86.224 30.8463 86.2222 30.7383C86.1178 23.5949 84.0097 19.8278 83.1083 18.5399C82.6264 17.8518 82.5211 16.9906 82.8272 16.2365C83.1628 15.4082 84.2926 14.8504 85.6287 15.3038C85.9027 15.0495 86.1785 14.8977 86.4194 14.8085C87.2325 14.5059 88.0562 14.7335 88.5551 15.0486C88.6158 15.087 88.6756 15.128 88.7345 15.1735C89.4244 14.7273 90.2651 14.7344 90.7961 14.9049C91.7163 15.2003 92.0295 15.9652 92.1295 16.5551C92.2259 17.1263 92.0742 17.7572 91.6493 18.5408C91.0273 19.6903 87.9224 25.6923 87.9009 30.982C87.9009 31.09 87.8126 31.1774 87.7046 31.1774L87.7028 31.1765ZM85.7215 15.7679C85.4029 16.1303 85.145 16.6247 84.9584 17.2378C84.7514 17.917 84.8174 18.4918 85.1396 18.8148C85.3484 19.0246 85.6412 19.0995 85.9223 19.0147C86.2668 18.9112 86.5167 18.5926 86.6077 18.141C86.7443 17.4636 86.3855 16.1454 85.7215 15.767V15.7679ZM88.7184 15.6769C88.5748 15.8063 88.4445 15.9652 88.3356 16.1588C87.6189 17.4235 87.8518 18.0991 88.0553 18.39C88.2668 18.6926 88.6328 18.8505 88.9898 18.7898C89.2736 18.7425 89.4797 18.564 89.5547 18.3008C89.8189 17.377 89.3691 16.3052 88.7184 15.6769Z" fill="#070709"/>
<path d="M91.7752 23.9286C91.7101 23.9286 91.6467 23.8965 91.6092 23.8367C91.5512 23.7448 91.5789 23.6234 91.6708 23.5663C93.4584 22.4417 94.7454 20.6157 95.2014 18.5559C95.2246 18.4497 95.3299 18.3837 95.4353 18.4069C95.5415 18.4301 95.6075 18.5354 95.5843 18.6407C95.1059 20.8023 93.7556 22.7184 91.8787 23.8983C91.8466 23.9188 91.81 23.9286 91.7743 23.9286H91.7752Z" fill="#070709"/>
<path d="M80.885 22.7691C80.8306 22.7691 80.777 22.7468 80.7387 22.7031C79.3821 21.1778 78.636 19.2126 78.636 17.1697C78.636 13.9827 80.4093 11.1223 83.2644 9.70505C83.3617 9.65597 83.4795 9.69613 83.5277 9.79341C83.5758 9.89069 83.5366 10.0085 83.4393 10.0567C80.719 11.4079 79.0287 14.1335 79.0287 17.1697C79.0287 19.1162 79.74 20.9886 81.0323 22.4425C81.1046 22.5237 81.0974 22.6478 81.0162 22.7192C80.9787 22.7522 80.9323 22.7691 80.8859 22.7691H80.885Z" fill="#070709"/>
<path d="M87.7768 33.6512C87.6831 33.6512 87.6001 33.5834 87.584 33.4879C87.5653 33.3808 87.6376 33.28 87.7447 33.2612C88.0829 33.2032 88.4122 33.1291 88.7237 33.0417C88.8272 33.0113 88.9361 33.0729 88.9656 33.1773C88.995 33.2818 88.9343 33.3898 88.8299 33.4192C88.505 33.5111 88.1614 33.5879 87.8107 33.6486C87.7991 33.6504 87.7884 33.6512 87.7777 33.6512H87.7768Z" fill="white"/>
<path d="M86.2051 35.5683C86.0972 35.5683 86.0097 35.4817 86.0088 35.3737C86.0079 35.2649 86.0945 35.1765 86.2034 35.1756C86.97 35.1685 88.0945 35.0623 89.0994 34.5928C89.1985 34.5473 89.3145 34.5893 89.36 34.6874C89.4056 34.7856 89.3636 34.9025 89.2654 34.948C88.1971 35.4478 87.0119 35.5612 86.2069 35.5683H86.2051Z" fill="white"/>
<path d="M87.1896 5.00283H87.1851C87.0762 5.00016 86.9905 4.91091 86.9932 4.80292L87.0852 0.384265C87.0878 0.277168 87.1744 0.192383 87.2815 0.192383H87.286C87.3948 0.19506 87.4805 0.284308 87.4778 0.392298L87.3859 4.81095C87.3832 4.91805 87.2967 5.00283 87.1896 5.00283Z" fill="#070709"/>
<path d="M74.3817 14.0052L71.5606 14.0034C71.4526 14.0034 71.3643 13.9151 71.3643 13.8071C71.3643 13.6991 71.4526 13.6107 71.5606 13.6107L74.3817 13.6125C74.4897 13.6125 74.5781 13.7009 74.5781 13.8088C74.5781 13.9168 74.4897 14.0052 74.3817 14.0052Z" fill="#070709"/>
<path d="M76.986 8.10497C76.9547 8.10497 76.9226 8.09694 76.8922 8.08088L73.7097 6.35661C73.6142 6.30485 73.5794 6.18615 73.6311 6.09065C73.6829 5.99516 73.8016 5.96035 73.8971 6.01212L77.0797 7.73638C77.1752 7.78814 77.21 7.90684 77.1582 8.00234C77.1225 8.06749 77.0556 8.10497 76.986 8.10497Z" fill="#070709"/>
<path d="M99.8975 14.0052C99.7895 14.0052 99.7012 13.9177 99.7012 13.8088C99.7012 13.7 99.7886 13.6125 99.8975 13.6125L102.719 13.6107C102.827 13.6107 102.915 13.6982 102.915 13.8071C102.915 13.9159 102.828 14.0034 102.719 14.0034L99.8975 14.0052Z" fill="#070709"/>
<path d="M97.2932 8.10516C97.2236 8.10516 97.1558 8.06768 97.1209 8.00253C97.0692 7.90703 97.1049 7.78833 97.1995 7.73657L100.381 6.0123C100.477 5.96054 100.595 5.99624 100.647 6.09084C100.699 6.18633 100.663 6.30503 100.569 6.3568L97.3869 8.08106C97.3574 8.09713 97.3253 8.10516 97.2932 8.10516Z" fill="#070709"/>
<path d="M86.2625 88.6466C83.8641 89.3923 82.6422 85.9582 78.2048 85.4235C73.8832 84.9029 72.8637 87.8998 68.2142 88.0015C62.9142 88.1184 56.9648 84.3856 56.612 80.5889C56.3046 77.2814 60.3805 75.3885 59.4877 73.1416C58.6651 71.0701 55.0622 72.3267 51.4441 69.6437C48.339 67.3416 46.1895 62.8545 47.2653 59.64C48.0835 57.1952 50.1063 57.4571 51.1324 54.6442C52.2201 51.6625 50.3607 50.42 51.22 47.3788C52.1053 44.2466 55.3241 41.2303 58.4357 41.2C61.452 41.1696 61.9455 43.9685 65.3126 44.1708C69.1698 44.4035 70.7283 40.8623 73.0477 41.7541C75.5489 42.7152 74.4969 47.1244 77.8184 49.0087C79.2016 49.7934 79.5945 49.1732 82.3944 49.973C83.8219 50.381 86.5612 51.1635 88.2442 52.9634C91.4683 56.4127 88.4725 61.1011 91.2583 63.348C93.3331 65.0223 95.5994 62.9053 98.671 64.7983C100.569 65.9671 102.548 68.5278 102.123 70.7649C101.455 74.2845 95.5518 73.2142 91.4196 78.1732C87.6338 82.7167 89.1436 87.7515 86.2636 88.6476L86.2625 88.6466Z" fill="#070709"/>
<path d="M46.1257 127.308C46.1181 127.308 46.1095 127.308 46.1019 127.307C45.9688 127.294 45.8725 127.176 45.8855 127.043L46.5792 119.995C46.5922 119.862 46.708 119.768 46.8433 119.779C46.9764 119.792 47.0727 119.91 47.0597 120.043L46.366 127.091C46.3541 127.215 46.248 127.309 46.1257 127.309V127.308Z" fill="#070709"/>
<path d="M169.643 63.1672C168.565 62.1455 167.305 62.1141 165.83 62.297L165.311 61.9723C164.171 61.2602 162.792 61.0394 161.488 61.3598L151.21 63.8837C150.779 63.9897 150.388 63.6066 150.486 63.1737C150.682 62.3111 150.976 61.0167 151.203 59.9939C151.436 58.9473 151.023 58.3315 150.674 58.0155C150.475 57.8347 150.168 57.8542 149.991 58.0566C148.854 59.3608 144.652 64.3512 144.785 66.8199C144.939 69.6739 146.897 77.9838 146.897 77.9838H155.633L153.92 72.3883C153.8 71.9965 154.01 71.5788 154.397 71.4424L166.871 67.031C167.095 66.952 167.169 66.6727 167.015 66.4909C166.737 66.1662 166.299 65.703 165.822 65.3805L169.369 63.9789C169.691 63.8512 169.823 63.4659 169.646 63.1672H169.643Z" fill="white"/>
<path d="M155.631 78.2251H146.895C146.782 78.2251 146.685 78.1483 146.66 78.039C146.58 77.6991 144.696 69.6761 144.542 66.8329C144.406 64.2982 148.538 59.3532 149.807 57.8986C149.936 57.7503 150.116 57.6627 150.31 57.6518C150.503 57.6367 150.691 57.706 150.835 57.8369C151.175 58.1464 151.706 58.8445 151.438 60.047C151.211 61.0697 150.917 62.3652 150.721 63.2278C150.693 63.3501 150.728 63.4702 150.817 63.5579C150.907 63.6456 151.028 63.6791 151.15 63.6488L161.429 61.1249C162.788 60.7905 164.25 61.0253 165.438 61.7667L165.886 62.0459C167.451 61.8609 168.721 61.9594 169.809 62.9908C169.825 63.0059 169.839 63.0233 169.85 63.0427C169.97 63.2462 169.996 63.4908 169.919 63.7138C169.843 63.9378 169.674 64.1153 169.454 64.2019L166.308 65.4454C166.662 65.7387 166.975 66.0742 167.194 66.3318C167.319 66.4779 167.364 66.6749 167.314 66.86C167.265 67.044 167.128 67.1922 166.947 67.2561L154.474 71.6675C154.209 71.7617 154.065 72.0452 154.147 72.3147L155.86 77.9102C155.883 77.9838 155.869 78.0628 155.824 78.1245C155.778 78.1862 155.706 78.223 155.629 78.223L155.631 78.2251ZM147.087 77.7413H155.304L153.687 72.4587C153.529 71.9413 153.804 71.3948 154.315 71.214L166.788 66.8026C166.83 66.7875 166.845 66.755 166.849 66.7366C166.854 66.7182 166.858 66.6825 166.828 66.6478C166.557 66.3297 166.137 65.8859 165.684 65.5807C165.61 65.5309 165.57 65.4433 165.579 65.3545C165.589 65.2658 165.648 65.1889 165.731 65.1565L169.278 63.7549C169.365 63.7202 169.434 63.6488 169.464 63.5601C169.491 63.48 169.485 63.3934 169.45 63.3176C168.482 62.4193 167.358 62.3522 165.861 62.5373C165.806 62.5438 165.75 62.5319 165.703 62.5027L165.183 62.178C164.105 61.5048 162.781 61.2927 161.546 61.5946L151.267 64.1185C150.983 64.1889 150.688 64.1077 150.479 63.9021C150.272 63.6975 150.185 63.4053 150.25 63.1207C150.446 62.2581 150.74 60.9647 150.967 59.942C151.171 59.0263 150.832 58.4863 150.512 58.1941C150.464 58.1519 150.404 58.1291 150.34 58.1335C150.275 58.1367 150.215 58.167 150.173 58.2157C147.619 61.1422 144.926 64.9367 145.027 66.8069C145.164 69.3709 146.8 76.4956 147.088 77.7413H147.087Z" fill="#070709"/>
<path d="M155.152 68.2237C155.043 68.2237 154.945 68.1501 154.918 68.0408C154.885 67.9109 154.964 67.7799 155.093 67.7475L163.956 65.5288C164.086 65.4952 164.217 65.5753 164.249 65.7041C164.282 65.834 164.203 65.9649 164.074 65.9974L155.211 68.2161C155.192 68.2215 155.172 68.2237 155.153 68.2237H155.152Z" fill="#070709"/>
<path d="M154.249 65.6273C154.141 65.6273 154.042 65.5537 154.015 65.4443C153.983 65.3145 154.062 65.1835 154.191 65.151L163.054 62.9323C163.183 62.8999 163.314 62.9789 163.347 63.1077C163.379 63.2376 163.3 63.3685 163.172 63.401L154.309 65.6197C154.289 65.6251 154.27 65.6273 154.25 65.6273H154.249Z" fill="#070709"/>
<path d="M37.4338 101.852C39.9155 102.001 44.0747 102.205 46.6041 102.328C47.7762 102.384 48.655 103.417 48.5262 104.583L46.8184 120.019C46.8184 120.019 50.7211 118.263 54.9962 113.172C59.2701 108.081 63.1209 97.6154 72.5877 97.2453C78.6107 97.0094 93.7227 97.9737 103.92 98.7064C109.157 99.083 114.237 100.688 118.709 103.44C121.958 105.439 126.782 107.226 132.884 106.116C144.086 104.078 149.146 94.4898 144.482 79.0033C144.055 77.5855 145.111 76.1547 146.593 76.1547H156.093C157.125 76.1547 158.031 76.8343 158.322 77.8246C160.486 85.207 167.719 114.958 146.895 124.325C134.605 129.854 121.688 129.216 121.688 129.216L126.79 175.832C127.335 180.813 124.885 185.651 120.539 188.144C115.976 190.76 108.843 193.162 98.2327 192.811C89.3741 192.517 82.4896 190.948 77.4072 189.163C70.4535 186.721 65.4424 180.611 64.3764 173.319C63.2281 165.465 61.9001 153.285 61.6815 137.991C61.6815 137.991 54.4832 145.876 40.7867 143.324C23.8716 140.171 32.0602 111.635 34.6794 103.72C35.0679 102.544 36.1978 101.78 37.4338 101.855V101.852Z" fill="white"/>
<path d="M100.314 193.086C99.6267 193.086 98.9308 193.074 98.2251 193.051C90.5495 192.797 83.5189 191.565 77.3271 189.389C70.276 186.912 65.2217 180.767 64.1372 173.351C63.0419 165.863 61.6934 153.779 61.4477 138.552C59.7204 140.137 52.6 145.768 40.7424 143.559C37.1438 142.888 34.4207 141.026 32.6479 138.026C26.9529 128.382 32.5873 109.27 34.4499 103.642C34.872 102.365 36.1102 101.529 37.449 101.611C39.9675 101.763 44.2739 101.974 46.6171 102.086C47.2502 102.117 47.826 102.399 48.2373 102.881C48.6496 103.363 48.8379 103.977 48.7676 104.609L47.1084 119.6C48.194 119.017 51.3976 117.083 54.8111 113.016C55.8425 111.788 56.8556 110.233 57.9281 108.587C61.2085 103.553 65.292 97.2875 72.578 97.0029C78.4743 96.7723 92.8862 97.6706 103.937 98.464C109.231 98.8438 114.384 100.493 118.835 103.233C121.806 105.061 126.647 107.003 132.841 105.877C137.682 104.996 141.397 102.642 143.583 99.069C146.516 94.2755 146.746 87.3607 144.251 79.0725C144.024 78.3203 144.163 77.5281 144.631 76.8982C145.096 76.2716 145.811 75.9122 146.593 75.9122H156.093C157.223 75.9122 158.235 76.6709 158.554 77.7565C159.607 81.3475 162 90.7375 161.471 100.344C160.809 112.38 155.938 120.522 146.994 124.545C135.791 129.584 123.926 129.516 121.959 129.466L127.03 175.805C127.587 180.889 125.085 185.814 120.659 188.353C115.175 191.497 108.338 193.087 100.313 193.087L100.314 193.086ZM61.6815 137.748C61.7107 137.748 61.7389 137.753 61.767 137.764C61.8601 137.799 61.9218 137.888 61.9228 137.986C62.1436 153.451 63.5095 165.717 64.6156 173.282C65.6741 180.519 70.6061 186.516 77.4873 188.934C83.6326 191.093 90.6144 192.316 98.2413 192.568C107.08 192.859 114.544 191.302 120.419 187.933C124.678 185.49 127.086 180.75 126.551 175.857L121.449 129.241C121.441 129.171 121.465 129.1 121.513 129.05C121.561 128.998 121.63 128.971 121.701 128.974C121.83 128.981 134.705 129.543 146.797 124.103C155.563 120.161 160.338 112.157 160.989 100.317C161.513 90.7851 159.138 81.459 158.091 77.8917C157.832 77.0108 157.012 76.3949 156.094 76.3949H146.594C145.967 76.3949 145.394 76.6839 145.02 77.1861C144.645 77.6915 144.533 78.3279 144.715 78.9318C147.252 87.3564 147.004 94.4064 143.996 99.32C141.735 103.014 137.908 105.446 132.929 106.352C126.584 107.507 121.626 105.516 118.583 103.644C114.196 100.945 109.121 99.32 103.904 98.9456C92.8645 98.1523 78.4733 97.2561 72.5986 97.4856C65.5626 97.7605 61.7226 103.652 58.3351 108.851C57.2538 110.509 56.2332 112.076 55.1823 113.327C50.9214 118.403 47.0803 120.166 46.919 120.239C46.84 120.274 46.748 120.265 46.6777 120.214C46.6073 120.163 46.5705 120.078 46.5792 119.992L48.2871 104.556C48.3422 104.058 48.194 103.576 47.8693 103.195C47.5457 102.815 47.0922 102.593 46.5943 102.569C44.2501 102.457 39.9415 102.244 37.4208 102.093C36.2898 102.02 35.2638 102.724 34.9099 103.793C33.0635 109.372 27.4735 128.311 33.0657 137.78C34.7638 140.655 37.3765 142.44 40.8322 143.084C54.2407 145.584 61.4337 137.904 61.504 137.827C61.5505 137.776 61.6155 137.748 61.6826 137.748H61.6815Z" fill="#070709"/>
<path d="M46.4948 92.1033L45.3844 90.8728V82.5878C45.3844 81.7815 44.7307 81.1278 43.9244 81.1278C43.1181 81.1278 42.4644 81.7815 42.4644 82.5878V91.5092L34.6946 93.1997V97.754C34.6946 99.7378 35.8472 101.541 37.6471 102.374L38.0335 102.553C40.3636 103.632 43.0856 103.431 45.2318 102.02C46.2675 101.34 46.9526 100.239 47.1063 99.0094L47.55 95.4606C47.7027 94.2409 47.3163 93.0146 46.4926 92.1022L46.4948 92.1033Z" fill="white"/>
<path d="M41.1623 103.489C40.0681 103.489 38.9685 103.252 37.9327 102.773L37.5463 102.594C35.6675 101.725 34.4531 99.8244 34.4531 97.754V93.1997C34.4531 93.0861 34.5321 92.9876 34.6436 92.9638L42.2229 91.3144V82.5878C42.2229 81.6495 42.9859 80.8865 43.9243 80.8865C44.8626 80.8865 45.6256 81.6495 45.6256 82.5878V90.7808L46.6733 91.9421C47.5445 92.9075 47.9526 94.2019 47.7913 95.4931L47.3476 99.0419C47.1852 100.344 46.4622 101.504 45.3648 102.225C44.0866 103.065 42.6288 103.49 41.1612 103.49L41.1623 103.489ZM34.9369 93.3945V97.754C34.9369 99.6372 36.0409 101.365 37.7498 102.156L38.1362 102.334C40.4068 103.385 43.0097 103.193 45.1007 101.819C46.0791 101.176 46.7231 100.142 46.8692 98.9802L47.3129 95.4314C47.4569 94.2798 47.0932 93.1261 46.3161 92.2646L45.2057 91.034C45.1657 90.9897 45.1429 90.9323 45.1429 90.8717V82.5868C45.1429 81.9146 44.5964 81.3681 43.9243 81.3681C43.2522 81.3681 42.7056 81.9146 42.7056 82.5868V91.5081C42.7056 91.6217 42.6266 91.7202 42.5151 91.744L34.9358 93.3934L34.9369 93.3945Z" fill="#070709"/>
<path d="M40.3114 88.3545H40.9727C41.7314 88.3545 42.3472 88.9703 42.3472 89.729V92.7692C42.3472 93.3677 41.8612 93.8536 41.2627 93.8536H40.3125C39.714 93.8536 39.228 93.3677 39.228 92.7692V89.44C39.228 88.8415 39.714 88.3556 40.3125 88.3556L40.3114 88.3545Z" fill="white"/>
<path d="M41.2618 94.0961H40.3115C39.5799 94.0961 38.9846 93.5008 38.9846 92.7692V89.4401C38.9846 88.7084 39.5799 88.1132 40.3115 88.1132H40.9728C41.8635 88.1132 42.5887 88.8383 42.5887 89.729V92.7692C42.5887 93.5008 41.9934 94.0961 41.2618 94.0961ZM40.3115 88.5969C39.8461 88.5969 39.4684 88.9747 39.4684 89.4401V92.7692C39.4684 93.2346 39.8472 93.6123 40.3115 93.6123H41.2618C41.7271 93.6123 42.1049 93.2346 42.1049 92.7692V89.729C42.1049 89.1045 41.5973 88.5969 40.9717 88.5969H40.3104H40.3115Z" fill="#070709"/>
<path d="M38.1417 89.1229H37.9502C37.3513 89.1229 36.8657 89.6085 36.8657 90.2074V93.4532C36.8657 94.0521 37.3513 94.5376 37.9502 94.5376H38.1417C38.7407 94.5376 39.2262 94.0521 39.2262 93.4532V90.2074C39.2262 89.6085 38.7407 89.1229 38.1417 89.1229Z" fill="white"/>
<path d="M38.1417 94.78H37.9502C37.2186 94.78 36.6233 94.1847 36.6233 93.4531V90.2084C36.6233 89.4767 37.2186 88.8815 37.9502 88.8815H38.1417C38.8734 88.8815 39.4686 89.4767 39.4686 90.2084V93.4531C39.4686 94.1847 38.8734 94.78 38.1417 94.78ZM37.9502 89.3642C37.4848 89.3642 37.1071 89.7419 37.1071 90.2073V93.452C37.1071 93.9174 37.4848 94.2951 37.9502 94.2951H38.1417C38.6071 94.2951 38.9849 93.9174 38.9849 93.452V90.2073C38.9849 89.7419 38.6071 89.3642 38.1417 89.3642H37.9502Z" fill="#070709"/>
<path d="M35.7812 95.3927C35.1816 95.3927 34.6968 94.9067 34.6968 94.3082V91.097C34.6968 90.4974 35.1827 90.0126 35.7812 90.0126C36.3797 90.0126 36.8657 90.4985 36.8657 91.097V94.3082C36.8657 94.9078 36.3797 95.3927 35.7812 95.3927Z" fill="white"/>
<path d="M35.7812 95.634C35.0496 95.634 34.4543 95.0387 34.4543 94.3071V91.0959C34.4543 90.3643 35.0496 89.769 35.7812 89.769C36.5129 89.769 37.1081 90.3643 37.1081 91.0959V94.3071C37.1081 95.0387 36.5129 95.634 35.7812 95.634ZM35.7812 90.2539C35.3159 90.2539 34.9381 90.6316 34.9381 91.097V94.3082C34.9381 94.7736 35.3169 95.1513 35.7812 95.1513C36.2455 95.1513 36.6243 94.7736 36.6243 94.3082V91.097C36.6243 90.6327 36.2455 90.2539 35.7812 90.2539Z" fill="#070709"/>
<path d="M46.1258 94.0959C46.0771 94.0959 46.0273 94.0807 45.9851 94.0504L42.6668 91.6629C42.5585 91.585 42.5337 91.4334 42.6116 91.3252C42.6895 91.217 42.841 91.1921 42.9493 91.27L46.2676 93.6576C46.3758 93.7355 46.4007 93.887 46.3228 93.9952C46.2751 94.0613 46.2015 94.0959 46.1269 94.0959H46.1258Z" fill="#070709"/>
<path d="M40.2293 99.7086C40.1005 99.7086 39.9934 99.6068 39.988 99.478C39.8668 96.768 41.5974 95.6619 42.3744 95.3036L41.0898 94.0255C40.9956 93.9313 40.9945 93.7776 41.0898 93.6835C41.1839 93.5893 41.3365 93.5882 41.4318 93.6835L42.9773 95.2225C43.0379 95.2831 43.0628 95.3718 43.0401 95.4552C43.0184 95.5385 42.9535 95.6034 42.8712 95.6272C42.7684 95.6565 40.3332 96.3816 40.4707 99.4575C40.4761 99.5906 40.3733 99.7042 40.2402 99.7097C40.2369 99.7097 40.2326 99.7097 40.2293 99.7097V99.7086Z" fill="#070709"/>
<path d="M76.0597 198.863C76.0597 198.863 73.0791 161.188 81.6844 149.169L109.741 147.99C109.741 147.99 119.925 160.834 118.822 198.616L76.0587 198.862L76.0597 198.863Z" fill="#070709"/>
<path d="M74.0911 97.1805L70.4817 148.12C70.3182 150.421 71.9222 152.475 74.1961 152.867C81.4161 154.111 97.3972 156.025 113.593 152.352C115.421 151.938 116.591 150.152 116.214 148.317L106.087 98.9338C106.087 98.9338 87.8243 96.3525 74.0911 97.1805Z" fill="white"/>
<path d="M93.2996 154.741C85.3675 154.741 78.5598 153.863 74.156 153.105C71.7511 152.69 70.0693 150.54 70.2413 148.102L73.8508 97.1632C73.8594 97.0419 73.9558 96.9467 74.077 96.9391C87.676 96.1166 105.938 98.6686 106.12 98.6946C106.221 98.7087 106.302 98.7855 106.323 98.8851L116.45 148.268C116.855 150.242 115.623 152.14 113.646 152.588C106.585 154.189 99.5877 154.741 93.2985 154.741H93.2996ZM74.3173 97.4088L70.723 148.136C70.5682 150.325 72.0791 152.256 74.2372 152.628C82.0979 153.984 97.6569 155.718 113.538 152.117C115.257 151.727 116.328 150.079 115.977 148.365L105.883 99.1503C104.015 98.8959 87.1435 96.6718 74.3162 97.4099L74.3173 97.4088Z" fill="#070709"/>
<path d="M84.3684 147.046C84.2655 147.046 84.1692 146.98 84.1378 146.876C84.0989 146.748 84.1703 146.613 84.2969 146.574C98.4068 142.211 105.101 126.024 105.167 125.861C105.217 125.738 105.358 125.678 105.482 125.728C105.605 125.778 105.666 125.919 105.615 126.043C105.548 126.209 98.7661 142.607 84.4398 147.037C84.416 147.045 84.3922 147.048 84.3684 147.048V147.046Z" fill="#070709"/>
<path d="M97.6763 79.6408C96.8408 78.6375 96.2769 77.4351 96.0366 76.1526C95.6091 73.8668 95.1437 71.844 95.1437 71.844C91.7291 74.6742 87.8815 72.7271 87.8815 72.7271C84.6682 75.2251 85.2494 78.7414 85.2494 78.7414C85.2494 78.7414 82.2601 78.4135 82.469 80.3432C82.6768 82.2578 85.5589 82.7383 85.6022 82.7448L82.0924 96.9185C81.8727 97.8049 82.4257 98.7043 83.3186 98.8991C88.7225 100.079 92.1101 99.6362 93.8222 99.1794C94.3223 99.0463 94.4749 98.4273 94.1058 98.0636C92.2215 96.2021 91.9033 90.8826 91.9098 87.39C93.6534 87.7786 95.2617 87.4323 96.0604 85.8283C96.6308 84.6821 96.7834 83.4765 96.7163 81.6658C96.7044 81.3476 97.883 80.0099 97.6752 79.6419L97.6763 79.6408Z" fill="white"/>
<path d="M89.7032 99.8992C87.9759 99.8992 85.847 99.6968 83.2679 99.134C82.7744 99.0257 82.3545 98.7292 82.0871 98.2984C81.8176 97.8655 81.7365 97.3536 81.8588 96.859L85.308 82.931C84.5548 82.761 82.4194 82.1247 82.23 80.3681C82.1748 79.8616 82.309 79.4427 82.6272 79.1245C83.2517 78.5011 84.4281 78.4611 84.979 78.4806C84.9108 77.5531 84.9563 74.6936 87.7345 72.5345C87.8081 72.4771 87.9088 72.4674 87.9921 72.5096C88.0289 72.5291 91.7434 74.3495 94.9913 71.6567C95.0562 71.6026 95.1439 71.5864 95.2229 71.6134C95.3019 71.6405 95.3625 71.7065 95.3809 71.7888C95.3853 71.8093 95.8517 73.843 96.276 76.1071C96.5087 77.3474 97.0574 78.5163 97.8637 79.486C97.8735 79.4969 97.881 79.5088 97.8886 79.5217C98.0693 79.8421 97.7999 80.3032 97.3323 81.024C97.1819 81.2556 96.9762 81.5738 96.96 81.669C97.0325 83.6052 96.842 84.8044 96.2803 85.9343C95.5444 87.4127 94.0854 88.0275 92.1557 87.6833C92.1665 90.8566 92.4728 96.1068 94.2792 97.8904C94.5173 98.1264 94.6093 98.4575 94.5248 98.7768C94.4415 99.0896 94.2034 99.3277 93.8885 99.411C92.9036 99.674 91.528 99.8992 89.7054 99.8992H89.7032ZM84.7701 78.9611C84.2463 78.9611 83.401 79.0347 82.9692 79.4665C82.7571 79.6798 82.6727 79.9568 82.7116 80.3162C82.8989 82.0424 85.6154 82.5013 85.6436 82.5056C85.7107 82.5165 85.7691 82.5543 85.807 82.6106C85.8438 82.6669 85.8568 82.7362 85.8405 82.8022L82.3307 96.9759C82.2397 97.3428 82.3003 97.7227 82.4995 98.0441C82.6975 98.3634 83.0082 98.5831 83.3729 98.6621C88.8515 99.858 92.2336 99.3526 93.7629 98.9446C93.9112 98.9045 94.0183 98.7985 94.0573 98.6523C94.0973 98.5019 94.053 98.3461 93.9393 98.2335C92.0507 96.3676 91.6633 91.3057 91.6719 87.3868C91.6719 87.3132 91.7055 87.2439 91.7628 87.1984C91.8202 87.153 91.8949 87.1357 91.9663 87.1519C93.2672 87.442 94.9967 87.429 95.8485 85.719C96.3712 84.668 96.5476 83.5338 96.4784 81.6733C96.4708 81.4753 96.6277 81.2242 96.9275 80.761C97.1158 80.4698 97.4622 79.9352 97.4633 79.7577C96.6202 78.7328 96.0465 77.5022 95.8019 76.1959C95.487 74.5129 95.1482 72.9576 94.9956 72.2693C91.9544 74.5335 88.6426 73.317 87.9207 73.0063C84.9823 75.382 85.4866 78.6678 85.492 78.7003C85.5039 78.775 85.4812 78.8507 85.4293 78.9059C85.3773 78.9611 85.3026 78.9893 85.2279 78.9806C85.2225 78.9806 85.0396 78.9611 84.7734 78.9611H84.7701Z" fill="#070709"/>
<path d="M91.912 87.6303C91.898 87.6303 91.8828 87.6292 91.8677 87.626C90.4877 87.3706 88.5926 86.0859 88.5126 86.0318C88.4022 85.956 88.374 85.8056 88.4487 85.6963C88.5245 85.5859 88.6738 85.5577 88.7842 85.6324C88.8026 85.6454 90.675 86.9139 91.9543 87.1509C92.0852 87.1747 92.1718 87.3013 92.148 87.4323C92.1263 87.5492 92.0246 87.6303 91.911 87.6303H91.912Z" fill="#070709"/>
<path d="M29.6697 95.007H11.6084C9.77286 95.007 8.2793 93.5134 8.2793 91.6778V53.4556C8.2793 51.62 9.77286 50.1265 11.6084 50.1265H23.163C23.2961 50.1265 23.4043 50.2347 23.4043 50.3678C23.4043 50.5009 23.2961 50.6092 23.163 50.6092H11.6084C10.0391 50.6092 8.762 51.8863 8.762 53.4556V91.6778C8.762 93.2472 10.0391 94.5243 11.6084 94.5243H29.6697C29.8028 94.5243 29.9111 94.6325 29.9111 94.7656C29.9111 94.8987 29.8028 95.007 29.6697 95.007Z" fill="#070709"/>
<path d="M70.1821 95.007H51.4704C51.3372 95.007 51.229 94.8988 51.229 94.7657C51.229 94.6325 51.3372 94.5243 51.4704 94.5243H70.1821C71.7514 94.5243 73.0285 93.2472 73.0285 91.6779V85.8324C73.0285 85.6993 73.1368 85.5911 73.2699 85.5911C73.403 85.5911 73.5112 85.6993 73.5112 85.8324V91.6779C73.5112 93.5134 72.0177 95.007 70.1821 95.007Z" fill="#070709"/>
<path d="M73.2699 86.0737C73.1368 86.0737 73.0285 85.9655 73.0285 85.8324V53.4556C73.0285 51.8863 71.7514 50.6092 70.1821 50.6092H51.4704C51.3372 50.6092 51.229 50.5009 51.229 50.3678C51.229 50.2347 51.3372 50.1265 51.4704 50.1265H70.1821C72.0177 50.1265 73.5112 51.62 73.5112 53.4556V85.8324C73.5112 85.9655 73.403 86.0737 73.2699 86.0737Z" fill="white"/>
<path d="M51.4705 50.6092H30.9513C30.8182 50.6092 30.71 50.5009 30.71 50.3678C30.71 50.2347 30.8182 50.1265 30.9513 50.1265H51.4705C51.6036 50.1265 51.7118 50.2347 51.7118 50.3678C51.7118 50.5009 51.6036 50.6092 51.4705 50.6092Z" fill="#070709"/>
<path d="M60.3267 88.9374H52.6705C52.5374 88.9374 52.4292 88.8292 52.4292 88.6961C52.4292 88.5629 52.5374 88.4547 52.6705 88.4547H60.3267C60.4598 88.4547 60.568 88.5629 60.568 88.6961C60.568 88.8292 60.4598 88.9374 60.3267 88.9374Z" fill="#070709"/>
<path d="M33.6362 88.9374H18.1334C18.0003 88.9374 17.8921 88.8292 17.8921 88.6961C17.8921 88.5629 18.0003 88.4547 18.1334 88.4547H33.6362C33.7693 88.4547 33.8775 88.5629 33.8775 88.6961C33.8775 88.8292 33.7693 88.9374 33.6362 88.9374Z" fill="#070709"/>
<path d="M43.1378 81.7348H19.5861C19.453 81.7348 19.3447 81.6266 19.3447 81.4935V57.1981C19.3447 57.0997 19.4043 57.0109 19.4952 56.9741C19.5861 56.9373 19.6911 56.959 19.7592 57.0293L43.311 81.3246C43.3781 81.395 43.3976 81.4978 43.3597 81.5876C43.3218 81.6774 43.2342 81.7348 43.1368 81.7348H43.1378ZM19.8285 81.251H42.5675L19.8285 57.7934V81.251Z" fill="#070709"/>
<path d="M21.8091 81.4934C21.8091 82.7208 20.8145 83.7154 19.5872 83.7154C18.3599 83.7154 17.3652 82.7208 17.3652 81.4934C17.3652 80.2661 18.3599 79.2715 19.5872 79.2715C20.8145 79.2715 21.8091 80.2661 21.8091 81.4934Z" fill="#070709"/>
<path d="M45.3609 81.4934C45.3609 82.7208 44.3663 83.7154 43.1389 83.7154C41.9116 83.7154 40.917 82.7208 40.917 81.4934C40.917 80.2661 41.9116 79.2715 43.1389 79.2715C44.3663 79.2715 45.3609 80.2661 45.3609 81.4934Z" fill="#070709"/>
<path d="M19.8585 59.4021C21.0765 59.2521 21.9422 58.1432 21.7922 56.9252C21.6423 55.7073 20.5333 54.8415 19.3154 54.9915C18.0974 55.1415 17.2317 56.2504 17.3817 57.4684C17.5316 58.6863 18.6406 59.5521 19.8585 59.4021Z" fill="#070709"/>
<path d="M158.681 126.793C158.619 126.793 158.558 126.769 158.51 126.723C158.416 126.629 158.416 126.475 158.51 126.381L179.007 105.884C179.101 105.79 179.254 105.79 179.349 105.884C179.443 105.978 179.443 106.132 179.349 106.226L158.852 126.723C158.804 126.77 158.743 126.793 158.681 126.793Z" fill="#070709"/>
<path d="M136.778 148.697C136.716 148.697 136.654 148.673 136.607 148.626C136.512 148.532 136.512 148.378 136.607 148.284L149.886 135.005C149.98 134.91 150.134 134.91 150.228 135.005C150.322 135.099 150.322 135.252 150.228 135.347L136.949 148.626C136.901 148.674 136.839 148.697 136.778 148.697Z" fill="#070709"/>
<path d="M170.648 104.195C170.586 104.195 170.524 104.171 170.477 104.125C170.383 104.03 170.383 103.877 170.477 103.783L179.177 95.0821C180.813 93.4467 180.813 90.7843 179.177 89.1489C178.294 88.2658 177.807 87.0904 177.807 85.8404C177.807 84.5903 178.294 83.416 179.177 82.5318L191.127 70.5822C191.221 70.4881 191.375 70.4881 191.469 70.5822C191.563 70.6764 191.563 70.8301 191.469 70.9242L179.519 82.8738C178.727 83.666 178.291 84.7202 178.291 85.8404C178.291 86.9605 178.727 88.0147 179.519 88.8069C181.344 90.6317 181.344 93.5993 179.519 95.4241L170.819 104.125C170.771 104.172 170.71 104.195 170.648 104.195Z" fill="#070709"/>
<path d="M116.039 92.1685C115.977 92.1685 115.915 92.1447 115.868 92.0982C115.774 92.004 115.774 91.8504 115.868 91.7562L136.451 71.1732C136.545 71.079 136.699 71.079 136.793 71.1732C136.887 71.2673 136.887 71.421 136.793 71.5152L116.21 92.0982C116.162 92.1458 116.1 92.1685 116.039 92.1685Z" fill="#070709"/>
<path d="M14.7187 46.0292C14.657 46.0292 14.5953 46.0054 14.5477 45.9589C14.4535 45.8647 14.4535 45.711 14.5477 45.6169L31.2215 28.9431C31.3156 28.8489 31.4693 28.8489 31.5635 28.9431C31.6576 29.0372 31.6576 29.1909 31.5635 29.2851L14.8897 45.9589C14.8421 46.0065 14.7804 46.0292 14.7187 46.0292Z" fill="#070709"/>
<path d="M166.324 110.868C164.919 110.868 163.775 109.727 163.775 108.324C163.775 106.921 164.918 105.779 166.324 105.779C166.457 105.779 166.566 105.888 166.566 106.021C166.566 106.154 166.457 106.262 166.324 106.262C165.186 106.262 164.259 107.187 164.259 108.324C164.259 109.46 165.186 110.386 166.324 110.386C167.463 110.386 168.389 109.46 168.389 108.324C168.389 108.191 168.497 108.083 168.631 108.083C168.764 108.083 168.872 108.191 168.872 108.324C168.872 109.728 167.729 110.868 166.323 110.868H166.324Z" fill="#070709"/>
<path d="M133.325 88.0462C133.263 88.0462 133.202 88.0223 133.154 87.9758L132.101 86.9217C132.007 86.8275 132.007 86.6738 132.101 86.5797C132.195 86.4855 132.349 86.4855 132.443 86.5797L133.496 87.6338C133.59 87.728 133.59 87.8816 133.496 87.9758C133.448 88.0223 133.387 88.0462 133.325 88.0462Z" fill="#070709"/>
<path d="M137.01 91.7356C136.949 91.7356 136.887 91.7118 136.839 91.6653L135.786 90.6111C135.692 90.517 135.692 90.3633 135.786 90.2691C135.88 90.1749 136.034 90.1749 136.128 90.2691L137.181 91.3233C137.275 91.4174 137.275 91.5711 137.181 91.6653C137.134 91.7118 137.072 91.7356 137.01 91.7356Z" fill="#070709"/>
<path d="M132.272 91.7356C132.21 91.7356 132.149 91.7118 132.101 91.6653C132.007 91.5711 132.007 91.4174 132.101 91.3233L133.154 90.2691C133.248 90.1749 133.401 90.1749 133.496 90.2691C133.59 90.3633 133.59 90.517 133.496 90.6111L132.443 91.6653C132.395 91.7129 132.334 91.7356 132.272 91.7356Z" fill="#070709"/>
<path d="M135.957 88.0462C135.896 88.0462 135.834 88.0223 135.786 87.9758C135.692 87.8816 135.692 87.728 135.786 87.6338L136.839 86.5797C136.933 86.4855 137.086 86.4855 137.181 86.5797C137.275 86.6738 137.275 86.8275 137.181 86.9217L136.128 87.9758C136.081 88.0234 136.019 88.0462 135.957 88.0462Z" fill="#070709"/>
<path d="M27.1877 39.0139C27.126 39.0139 27.0643 38.99 27.0167 38.9435C26.9225 38.8493 26.9225 38.6957 27.0167 38.6015L39.541 26.0772C39.6351 25.9831 39.7888 25.9831 39.883 26.0772C39.9771 26.1714 39.9771 26.3251 39.883 26.4192L27.3587 38.9435C27.3111 38.9911 27.2494 39.0139 27.1877 39.0139Z" fill="#070709"/>
<path d="M179.344 172.854C179.691 165.273 173.435 158.829 165.372 158.46C157.308 158.091 150.49 163.937 150.143 171.518C149.797 179.099 156.052 185.543 164.115 185.912C172.179 186.281 178.997 180.435 179.344 172.854Z" fill="#070709"/>
<path d="M178.305 172.398C178.642 165.042 172.572 158.788 164.748 158.43C156.924 158.072 150.308 163.745 149.972 171.101C149.635 178.457 155.705 184.711 163.529 185.069C171.353 185.427 177.969 179.754 178.305 172.398Z" fill="#070709"/>
<path d="M164.232 185.321C163.994 185.321 163.755 185.316 163.516 185.305C155.573 184.941 149.39 178.568 149.732 171.093C150.074 163.618 156.811 157.828 164.756 158.196C168.601 158.372 172.151 159.945 174.757 162.627C177.363 165.308 178.708 168.788 178.547 172.411C178.386 176.035 176.725 179.372 173.884 181.808C171.217 184.086 167.815 185.321 164.232 185.321ZM150.206 171.109C149.876 178.321 155.857 184.479 163.537 184.827C167.26 184.999 170.823 183.796 173.567 181.442C176.312 179.088 177.906 175.875 178.065 172.388C178.224 168.901 176.928 165.545 174.414 162.956C171.9 160.368 168.457 158.84 164.729 158.67C157.051 158.322 150.536 163.899 150.206 171.112V171.109Z" fill="white"/>
<path d="M176.027 172.294C176.31 166.121 171.216 160.873 164.65 160.573C158.084 160.272 152.532 165.033 152.249 171.205C151.967 177.378 157.061 182.626 163.627 182.926C170.193 183.227 175.745 178.466 176.027 172.294Z" fill="white"/>
<path d="M164.217 183.177C164.016 183.177 163.814 183.177 163.613 183.163C160.377 183.015 157.388 181.689 155.191 179.433C152.994 177.177 151.865 174.246 152.004 171.194C152.144 168.141 153.539 165.332 155.93 163.281C158.322 161.229 161.416 160.187 164.652 160.333C171.338 160.639 176.549 166.008 176.256 172.303C176.116 175.356 174.722 178.164 172.33 180.216C170.067 182.142 167.188 183.193 164.217 183.177ZM164.054 160.795C161.195 160.777 158.424 161.785 156.245 163.637C153.953 165.603 152.617 168.294 152.484 171.217C152.35 174.141 153.431 176.937 155.537 179.103C157.642 181.27 160.519 182.547 163.634 182.69C166.75 182.833 169.729 181.827 172.025 179.857C174.321 177.888 175.653 175.202 175.785 172.277C176.062 166.245 171.06 161.098 164.635 160.802C164.442 160.8 164.247 160.795 164.054 160.795Z" fill="#070709"/>
<path d="M171.836 140.61C172.142 133.941 166.639 128.272 159.545 127.947C152.452 127.622 146.454 132.765 146.149 139.434C145.844 146.103 151.347 151.773 158.44 152.097C165.533 152.422 171.531 147.279 171.836 140.61Z" fill="#070709"/>
<path d="M170.921 140.209C171.217 133.738 165.878 128.237 158.995 127.922C152.113 127.607 146.293 132.598 145.997 139.068C145.701 145.539 151.04 151.04 157.923 151.355C164.806 151.67 170.625 146.68 170.921 140.209Z" fill="#070709"/>
<path d="M158.534 151.607C158.323 151.607 158.12 151.601 157.91 151.592C154.521 151.437 151.39 150.05 149.095 147.685C146.8 145.321 145.611 142.253 145.758 139.052C146.049 132.659 151.653 127.666 158.379 127.666C158.59 127.666 158.794 127.666 159.003 127.68C162.393 127.835 165.524 129.222 167.818 131.586C170.112 133.951 171.303 137.019 171.156 140.219C170.864 146.613 165.262 151.607 158.534 151.607ZM146.231 139.079C146.091 142.142 147.229 145.079 149.436 147.354C151.643 149.629 154.664 150.968 157.932 151.117C164.664 151.425 170.392 146.527 170.683 140.197C170.823 137.133 169.685 134.196 167.478 131.921C165.271 129.646 162.25 128.308 158.982 128.159C152.245 127.85 146.521 132.749 146.231 139.079Z" fill="white"/>
<path d="M168.919 140.117C169.167 134.687 164.686 130.07 158.91 129.806C153.134 129.541 148.25 133.729 148.001 139.16C147.753 144.591 152.234 149.207 158.01 149.472C163.786 149.736 168.67 145.548 168.919 140.117Z" fill="white"/>
<path d="M158.522 149.72C158.348 149.72 158.173 149.72 157.996 149.707C155.142 149.577 152.506 148.408 150.573 146.418C148.64 144.427 147.638 141.841 147.761 139.146C148.015 133.594 153.016 129.3 158.92 129.566C164.824 129.833 169.41 134.573 169.156 140.125C168.907 145.513 164.188 149.719 158.522 149.72ZM158.392 130.034C152.978 130.034 148.471 134.039 148.236 139.173C148.118 141.733 149.07 144.189 150.914 146.089C152.759 147.989 155.285 149.111 158.018 149.236C163.653 149.493 168.44 145.399 168.678 140.107C168.916 134.816 164.533 130.302 158.896 130.045C158.728 130.035 158.559 130.032 158.392 130.032V130.034Z" fill="#070709"/>
<path d="M164.589 179.283C163.524 179.283 162.541 179.096 161.642 178.722C160.756 178.335 159.974 177.795 159.296 177.103C158.632 176.411 158.113 175.609 157.739 174.696C157.379 173.768 157.2 172.772 157.2 171.707C157.2 170.641 157.379 169.652 157.739 168.738C158.113 167.811 158.632 167.008 159.296 166.33C159.96 165.652 160.735 165.126 161.621 164.753C162.52 164.365 163.503 164.172 164.568 164.172C165.689 164.172 166.686 164.358 167.557 164.732C168.443 165.106 169.225 165.618 169.903 166.268L167.723 168.468C167.336 168.039 166.879 167.707 166.353 167.472C165.841 167.223 165.233 167.098 164.527 167.098C163.724 167.098 163.018 167.292 162.41 167.68C161.815 168.053 161.351 168.586 161.019 169.278C160.687 169.97 160.521 170.779 160.521 171.707C160.521 172.634 160.687 173.45 161.019 174.156C161.365 174.848 161.842 175.387 162.451 175.775C163.06 176.149 163.773 176.335 164.589 176.335C165.281 176.335 165.89 176.218 166.416 175.982C166.942 175.747 167.405 175.415 167.806 174.986L170.007 177.186C169.301 177.837 168.505 178.349 167.62 178.722C166.748 179.096 165.738 179.283 164.589 179.283ZM155.809 171.105V169.133H165.793L165.295 171.105H155.809ZM155.809 174.426V172.454H165.046L164.548 174.426H155.809Z" fill="#070709"/>
<path d="M158.88 146.261C157.987 146.261 157.163 146.104 156.408 145.791C155.666 145.466 155.01 145.013 154.441 144.433C153.884 143.853 153.449 143.18 153.135 142.414C152.834 141.636 152.683 140.8 152.683 139.907C152.683 139.013 152.834 138.183 153.135 137.417C153.449 136.64 153.884 135.966 154.441 135.398C154.998 134.829 155.648 134.388 156.391 134.075C157.145 133.75 157.969 133.587 158.863 133.587C159.803 133.587 160.639 133.744 161.37 134.057C162.113 134.371 162.769 134.8 163.337 135.345L161.509 137.191C161.184 136.831 160.801 136.553 160.36 136.355C159.931 136.146 159.42 136.042 158.828 136.042C158.155 136.042 157.563 136.204 157.052 136.529C156.553 136.843 156.165 137.29 155.886 137.87C155.608 138.45 155.468 139.129 155.468 139.907C155.468 140.684 155.608 141.369 155.886 141.961C156.176 142.541 156.577 142.994 157.087 143.319C157.598 143.632 158.196 143.789 158.88 143.789C159.461 143.789 159.971 143.69 160.412 143.493C160.853 143.296 161.242 143.017 161.579 142.657L163.424 144.503C162.832 145.048 162.165 145.478 161.422 145.791C160.691 146.104 159.844 146.261 158.88 146.261ZM151.516 139.402V137.748H159.89L159.472 139.402H151.516ZM151.516 142.187V140.533H159.263L158.846 142.187H151.516Z" fill="#070709"/>
<circle cx="122.515" cy="63.7721" r="10.756" fill="white" stroke="#070709" stroke-width="0.478043"/>
<path d="M120.44 62.32L116.914 67.2988L118.366 68.5436L120.855 64.602L123.76 66.6765L126.249 62.5274L127.701 63.3572L127.494 59.0007L123.967 61.0753L125.212 61.9051L123.345 64.602L120.44 62.32Z" fill="#070709"/>
</g>
<g style="mix-blend-mode:darken">
<path d="M121.368 86.6088C115.916 86.6088 110.581 87.114 105.408 88.0786C104.276 94.5114 103.652 101.118 103.652 107.875C103.652 162.892 142.804 208.755 194.764 219.147C203.12 205.829 207.952 190.077 207.952 173.195C207.952 125.377 169.186 86.6111 121.368 86.6111V86.6088Z" fill="#EC6371"/>
</g>
<defs>
<clipPath id="clip0_3027_22770">
<rect width="191.217" height="198.866" fill="white" transform="translate(0.135742 0.192383)"/>
</clipPath>
<clipPath id="clip1_3027_22770">
<rect width="56.8871" height="49.2384" fill="white" transform="translate(102.915 0.192383)"/>
</clipPath>
</defs>
</svg>
