<svg width="208" height="220" viewBox="0 0 208 220" fill="none" xmlns="http://www.w3.org/2000/svg">
<g clip-path="url(#clip0_3029_24504)">
<path d="M64.4756 20.2871L65.1551 22.6908L67.8792 22.5447C68.1359 23.0728 68.4324 23.5738 68.7674 24.0414L67.3438 26.3647L69.1348 28.1066L71.4216 26.6173C71.9027 26.9418 72.41 27.2257 72.9391 27.4658L72.8671 30.1941L75.2885 30.8078L76.5222 28.378C77.0963 28.4177 77.6776 28.4093 78.2621 28.3509L79.5636 30.7483L81.9673 30.0688L81.8212 27.3447C82.3493 27.088 82.8503 26.7905 83.3178 26.4565L85.6412 27.8801L87.3831 26.0891L85.8937 23.8023C86.2183 23.3212 86.5022 22.8139 86.7423 22.2848L89.4706 22.3568L90.0843 19.9354L87.6545 18.7017C87.6952 18.1277 87.6858 17.5463 87.6274 16.9618L90.0248 15.6603L89.3453 13.2566L86.6212 13.4028C86.3645 12.8746 86.068 12.3736 85.733 11.9061L87.1566 9.58275L85.3656 7.84079L83.0788 9.33017C82.5977 9.00558 82.0904 8.72168 81.5613 8.48163L81.6333 5.75335L79.2119 5.13965L77.9782 7.56942C77.4041 7.52872 76.8228 7.53811 76.2383 7.59656L74.9368 5.19914L72.5331 5.8786L72.6792 8.6027C72.1511 8.85945 71.6501 9.15587 71.1826 9.4909L68.8592 8.06727L67.1173 9.85829L68.6067 12.1451C68.2821 12.6262 67.9982 13.1335 67.7581 13.6626L65.0298 13.5906L64.4161 16.012L66.8459 17.2457C66.8052 17.8198 66.8146 18.4011 66.873 18.9856L64.4746 20.2871H64.4756ZM75.5025 11.785C78.9207 10.8185 82.4745 12.8057 83.44 16.2239C84.4064 19.6421 82.4192 23.1959 79.001 24.1614C75.5829 25.1279 72.029 23.1406 71.0636 19.7225C70.0971 16.3043 72.0843 12.7504 75.5025 11.7839V11.785Z" fill="white"/>
<path d="M75.2895 31.0405C75.2708 31.0405 75.252 31.0384 75.2321 31.0332L72.8107 30.4195C72.7053 30.3923 72.6322 30.2963 72.6354 30.1878L72.7032 27.6119C72.2607 27.4031 71.8307 27.162 71.4215 26.8948L69.2621 28.3007C69.1702 28.3602 69.0512 28.3487 68.973 28.2726L67.182 26.5306C67.1037 26.4544 67.0891 26.3354 67.1454 26.2425L68.4897 24.0497C68.2142 23.651 67.9627 23.2272 67.7393 22.7847L65.1676 22.9225C65.0611 22.9277 64.9609 22.8578 64.9317 22.7534L64.2522 20.3497C64.223 20.2453 64.27 20.1337 64.365 20.0825L66.6288 18.8541C66.587 18.3604 66.5797 17.8667 66.6058 17.3835L64.3128 16.2187C64.2157 16.1696 64.1656 16.06 64.1927 15.9546L64.8065 13.5332C64.8336 13.4278 64.9369 13.3558 65.0382 13.3578L67.6141 13.4257C67.8228 12.9831 68.0639 12.5531 68.3311 12.144L66.9252 9.98559C66.8657 9.89479 66.8772 9.77476 66.9534 9.69648L68.6953 7.90546C68.7715 7.82719 68.8905 7.81257 68.9834 7.86893L71.1763 9.21324C71.5739 8.9377 71.9987 8.68616 72.4412 8.46281L72.3035 5.89109C72.2972 5.78254 72.3682 5.68444 72.4726 5.65521L74.8762 4.97575C74.9806 4.94653 75.0923 4.99349 75.1434 5.08847L76.3719 7.35229C76.8656 7.31055 77.3592 7.30324 77.8425 7.32933L79.0073 5.03629C79.0563 4.93922 79.1659 4.88912 79.2713 4.91626L81.6927 5.52997C81.7982 5.5571 81.8712 5.65312 81.8681 5.76167L81.8003 8.33756C82.2428 8.54631 82.6728 8.78741 83.0819 9.0546L85.2414 7.64871C85.3332 7.58922 85.4522 7.6007 85.5305 7.67689L87.3215 9.41885C87.3998 9.49505 87.4144 9.61403 87.358 9.70692L86.0137 11.8998C86.2893 12.2974 86.5408 12.7222 86.7642 13.1648L89.3359 13.027C89.4423 13.0207 89.5425 13.0917 89.5718 13.1961L90.2512 15.5997C90.2804 15.7041 90.2335 15.8158 90.1385 15.8669L87.8747 17.0954C87.9164 17.5901 87.9237 18.0827 87.8976 18.566L90.1907 19.7308C90.2878 19.7798 90.3379 19.8894 90.3107 19.9948L89.697 22.4163C89.6699 22.5217 89.5676 22.5937 89.4653 22.5916L86.8894 22.5238C86.6807 22.9663 86.4396 23.3963 86.1724 23.8054L87.5783 25.9649C87.6378 26.0557 87.6263 26.1757 87.5501 26.254L85.8081 28.045C85.7319 28.1233 85.6129 28.1379 85.5201 28.0816L83.3272 26.7372C82.9285 27.0128 82.5037 27.2654 82.0622 27.4877L82.2 30.0594C82.2063 30.1679 82.1353 30.2661 82.0309 30.2953L79.6272 30.9747C79.5229 31.004 79.4112 30.957 79.36 30.862L78.1316 28.5982C77.6379 28.6399 77.1442 28.6472 76.661 28.6212L75.4962 30.9142C75.4555 30.9935 75.3751 31.0415 75.2885 31.0415L75.2895 31.0405ZM73.105 30.0145L75.1664 30.5364L76.3166 28.2726C76.3594 28.1891 76.4481 28.139 76.5399 28.1463C77.0973 28.1849 77.6692 28.1765 78.2412 28.1202C78.333 28.1108 78.4238 28.1588 78.4687 28.2402L79.6815 30.4748L81.7272 29.8966L81.5905 27.3572C81.5852 27.2643 81.6364 27.1767 81.7209 27.1359C82.2376 26.8844 82.7302 26.5932 83.1842 26.2676C83.2604 26.2133 83.3616 26.2102 83.441 26.2582L85.6056 27.5847L87.0888 26.0609L85.7006 23.9296C85.6495 23.8514 85.6505 23.7501 85.7027 23.6729C86.019 23.2032 86.2987 22.7043 86.5325 22.1898C86.5711 22.1052 86.6588 22.051 86.7506 22.0541L89.2931 22.1209L89.8149 20.0595L87.5511 18.9094C87.4676 18.8666 87.4175 18.7789 87.4248 18.686C87.4635 18.1297 87.4551 17.5578 87.3987 16.9848C87.3894 16.8919 87.4374 16.8021 87.5188 16.7572L89.7534 15.5444L89.1751 13.4977L86.6358 13.6344C86.5419 13.6386 86.4552 13.5885 86.4145 13.504C86.163 12.9873 85.8707 12.4947 85.5462 12.0407C85.4919 11.9645 85.4887 11.8632 85.5368 11.7839L86.8633 9.61925L85.3395 8.13613L83.2082 9.52427C83.1299 9.57541 83.0287 9.57437 82.9515 9.52218C82.4818 9.20594 81.9829 8.92726 81.4673 8.69243C81.3828 8.65381 81.3285 8.56822 81.3316 8.47429L81.3984 5.9318L79.3371 5.40994L78.1869 7.67376C78.1441 7.75726 78.0564 7.80631 77.9635 7.80005C77.4072 7.76143 76.8342 7.76978 76.2623 7.82614C76.1694 7.83554 76.0796 7.78752 76.0348 7.70611L74.822 5.47152L72.7752 6.04974L72.912 8.5891C72.9172 8.68199 72.866 8.76966 72.7815 8.81037C72.2638 9.0619 71.7722 9.35414 71.3182 9.67874C71.242 9.73301 71.1408 9.73719 71.0614 9.68813L68.8968 8.36157L67.4137 9.8854L68.8018 12.0167C68.8529 12.0949 68.8519 12.1962 68.7997 12.2734C68.4835 12.742 68.2048 13.242 67.97 13.7565C67.9313 13.8411 67.8458 13.8943 67.7518 13.8922L65.2093 13.8254L64.6875 15.8868L66.9513 17.0369C67.0348 17.0797 67.0849 17.1674 67.0776 17.2603C67.039 17.8176 67.0473 18.3896 67.1037 18.9616C67.1131 19.0544 67.0651 19.1442 66.9836 19.1891L64.7491 20.4019L65.3273 22.4486L67.8666 22.3119C67.9606 22.3067 68.0472 22.3578 68.0879 22.4424C68.3394 22.959 68.6317 23.4516 68.9563 23.9056C69.0105 23.9818 69.0137 24.0831 68.9657 24.1624L67.6391 26.3271L69.1629 27.8102L71.2942 26.422C71.3725 26.3709 71.4737 26.3719 71.551 26.4241C72.0196 26.7404 72.5195 27.0191 73.0351 27.2539C73.1197 27.2925 73.1739 27.3781 73.1708 27.472L73.104 30.0145H73.105ZM77.2413 24.6394C76.1172 24.6394 75.0067 24.3524 73.9985 23.7887C72.4454 22.9204 71.3224 21.4988 70.8391 19.7861C70.3549 18.0734 70.5667 16.275 71.4351 14.7209C72.3035 13.1679 73.725 12.0448 75.4378 11.5616C77.1505 11.0773 78.9488 11.2892 80.5029 12.1576C82.056 13.0259 83.179 14.4475 83.6633 16.1602C84.1476 17.873 83.9357 19.6713 83.0673 21.2254C82.199 22.7784 80.7774 23.9015 79.0636 24.3858C78.4624 24.5559 77.8498 24.6404 77.2413 24.6404V24.6394ZM75.5651 12.0083C73.9713 12.4592 72.6489 13.5029 71.8411 14.9474C71.0333 16.393 70.836 18.066 71.2869 19.6588C71.7378 21.2525 72.7815 22.5749 74.226 23.3827C75.6715 24.1906 77.3446 24.3878 78.9373 23.937C80.5311 23.4861 81.8535 22.4424 82.6613 20.9978C83.4692 19.5523 83.6664 17.8792 83.2155 16.2865C82.7646 14.6928 81.7209 13.3704 80.2764 12.5625C78.8319 11.7547 77.1578 11.5574 75.5651 12.0083Z" fill="#070709"/>
<path d="M24.735 45.5743L25.8977 49.6876L30.56 49.4371C30.9994 50.3409 31.5077 51.1978 32.0797 51.9983L29.6426 55.9739L32.7069 58.9547L36.6209 56.406C37.4444 56.9612 38.3127 57.4465 39.2176 57.8578L39.0955 62.5263L43.2391 63.5763L45.3505 59.4181C46.3326 59.487 47.3273 59.4714 48.3282 59.3722L50.5555 63.475L54.6688 62.3123L54.4183 57.6501C55.3222 57.2107 56.1791 56.7024 56.9796 56.1304L60.9562 58.5675L63.937 55.5031L61.3883 51.5892C61.9435 50.7657 62.4288 49.8973 62.8401 48.9935L67.5086 49.1156L68.5586 44.972L64.4004 42.8606C64.4693 41.8785 64.4537 40.8828 64.3545 39.8829L68.4574 37.6556L67.2947 33.5423L62.6324 33.7928C62.193 32.8889 61.6847 32.032 61.1127 31.2315L63.5498 27.256L60.4854 24.2751L56.5715 26.8239C55.748 26.2686 54.8796 25.7833 53.9758 25.3721L54.0979 20.7035L49.9543 19.6536L47.8429 23.8117C46.8608 23.7428 45.8651 23.7585 44.8652 23.8577L42.6379 19.7548L38.5246 20.9175L38.7751 25.5798C37.8712 26.0192 37.0143 26.5275 36.2138 27.0994L32.2383 24.6624L29.2574 27.7267L31.8062 31.6396C31.2509 32.4631 30.7656 33.3315 30.3544 34.2364L25.6858 34.1143L24.6359 38.2578L28.794 40.3693C28.7251 41.3514 28.7408 42.3461 28.84 43.347L24.7371 45.5743H24.735ZM43.6033 31.0259C49.4513 29.3727 55.533 32.7731 57.1863 38.6221C58.8395 44.47 55.4391 50.5518 49.5901 52.205C43.7421 53.8582 37.6604 50.4578 36.0072 44.6088C34.3539 38.7609 37.7543 32.6791 43.6033 31.0259Z" fill="white"/>
<path d="M43.2391 63.81C43.2203 63.81 43.2015 63.8079 43.1817 63.8027L39.0381 62.7527C38.9327 62.7256 38.8596 62.6296 38.8628 62.521L38.9807 58.0059C38.1635 57.626 37.3713 57.1824 36.6188 56.6856L32.8343 59.1509C32.7424 59.2104 32.6234 59.1989 32.5451 59.1227L29.4808 56.1418C29.4025 56.0656 29.3879 55.9466 29.4443 55.8538L31.801 52.0087C31.2896 51.2791 30.8251 50.4964 30.418 49.6781L25.9092 49.9202C25.8017 49.9265 25.7025 49.8555 25.6733 49.7511L24.5106 45.6379C24.4814 45.5335 24.5284 45.4218 24.6233 45.3707L28.5915 43.2164C28.5091 42.3063 28.4955 41.3962 28.5498 40.5069L24.5284 38.4644C24.4313 38.4153 24.3812 38.3057 24.4083 38.2003L25.4583 34.0568C25.4844 33.9514 25.5773 33.8773 25.69 33.8814L30.2051 33.9994C30.585 33.1821 31.0286 32.3889 31.5254 31.6374L29.0602 27.8529C29.0007 27.7621 29.0122 27.6421 29.0884 27.5638L32.0692 24.4995C32.1454 24.4212 32.2644 24.4066 32.3573 24.4629L36.2023 26.8196C36.9308 26.3082 37.7136 25.8438 38.5329 25.4367L38.2908 20.9279C38.2845 20.8193 38.3555 20.7212 38.4599 20.692L42.5732 19.5293C42.6775 19.5001 42.7892 19.547 42.8404 19.642L44.9946 23.6102C45.9047 23.5278 46.8148 23.5142 47.7041 23.5685L49.7466 19.547C49.7957 19.45 49.9053 19.3999 50.0107 19.427L54.1543 20.477C54.2597 20.5041 54.3327 20.6001 54.3296 20.7087L54.2117 25.2238C55.0289 25.6037 55.8221 26.0473 56.5725 26.5441L60.3571 24.0788C60.4489 24.0194 60.5679 24.0308 60.6462 24.107L63.7105 27.0879C63.7888 27.1641 63.8034 27.2831 63.747 27.376L61.3903 31.221C61.9018 31.9495 62.3662 32.7323 62.7733 33.5516L67.2821 33.3095C67.3896 33.3032 67.4888 33.3742 67.518 33.4786L68.6807 37.5918C68.7099 37.6962 68.663 37.8079 68.568 37.859L64.5998 40.0133C64.6822 40.9234 64.6958 41.8335 64.6415 42.7228L68.6619 44.7653C68.759 44.8144 68.8091 44.924 68.7819 45.0294L67.732 49.1729C67.7048 49.2783 67.6067 49.3524 67.5003 49.3483L62.9851 49.2303C62.6052 50.0465 62.1616 50.8397 61.6648 51.5923L64.1301 55.3768C64.1896 55.4676 64.1781 55.5876 64.1019 55.6659L61.1211 58.7302C61.0449 58.8085 60.9259 58.8231 60.833 58.7668L56.9879 56.4101C56.2584 56.9225 55.4756 57.3859 54.6573 57.793L54.8995 62.3018C54.9057 62.4104 54.8348 62.5085 54.7304 62.5377L50.6171 63.7004C50.5127 63.7296 50.401 63.6827 50.3499 63.5877L48.1957 59.6195C47.2856 59.7019 46.3765 59.7155 45.4862 59.6612L43.4436 63.6827C43.4029 63.762 43.3226 63.81 43.2359 63.81H43.2391ZM39.3324 62.3478L43.1159 63.3059L45.1438 59.3137C45.1866 59.2302 45.2743 59.1811 45.3672 59.1874C46.3295 59.2552 47.319 59.2396 48.3063 59.1415C48.3982 59.1321 48.489 59.1801 48.5338 59.2615L50.6724 63.2015L54.4287 62.1401L54.1887 57.6636C54.1835 57.5707 54.2346 57.483 54.3192 57.4423C55.2115 57.0081 56.0622 56.504 56.847 55.9425C56.9232 55.8882 57.0245 55.8851 57.1038 55.9331L60.9217 58.2731L63.6437 55.4759L61.1962 51.7186C61.1451 51.6403 61.1461 51.539 61.1983 51.4618C61.7452 50.6508 62.2274 49.7887 62.6313 48.8995C62.6699 48.8149 62.7566 48.7607 62.8495 48.7638L67.3322 48.8817L68.2904 45.0983L64.2981 43.0703C64.2146 43.0275 64.1645 42.9399 64.1718 42.847C64.2397 41.8847 64.224 40.8963 64.127 39.9079C64.1176 39.815 64.1656 39.7252 64.247 39.6803L68.187 37.5417L67.1256 33.7854L62.6491 34.0255C62.5551 34.0307 62.4685 33.9795 62.4278 33.895C61.9936 33.0016 61.4884 32.151 60.928 31.3671C60.8737 31.2909 60.8706 31.1897 60.9186 31.1104L63.2586 27.2925L60.4614 24.5704L56.7041 27.018C56.6258 27.0691 56.5245 27.0681 56.4473 27.0159C55.6363 26.47 54.7742 25.9878 53.885 25.5828C53.8004 25.5442 53.7462 25.4586 53.7493 25.3647L53.8672 20.8819L50.0838 19.9238L48.0558 23.916C48.0141 23.9995 47.9264 24.0496 47.8325 24.0423C46.8702 23.9745 45.8818 23.9901 44.8934 24.0872C44.8015 24.0966 44.7107 24.0486 44.6658 23.9672L42.5262 20.0271L38.7699 21.0886L39.0099 25.5651C39.0151 25.658 38.964 25.7457 38.8795 25.7864C37.986 26.2206 37.1354 26.7257 36.3516 27.2862C36.2754 27.3405 36.1741 27.3446 36.0948 27.2956L32.2769 24.9556L29.5549 27.7527L32.0024 31.5101C32.0536 31.5884 32.0525 31.6896 32.0003 31.7669C31.4545 32.5768 30.9723 33.4389 30.5673 34.3292C30.5287 34.4137 30.4452 34.468 30.3492 34.4649L25.8664 34.3469L24.9083 38.1304L28.9005 40.1583C28.984 40.2011 29.0341 40.2888 29.0268 40.3817C28.9589 41.344 28.9746 42.3324 29.0717 43.3208C29.081 43.4137 29.033 43.5035 28.9516 43.5483L25.0116 45.6869L26.0731 49.4433L30.5496 49.2032C30.6456 49.198 30.7301 49.2502 30.7708 49.3337C31.205 50.226 31.7091 51.0767 32.2706 51.8615C32.3249 51.9377 32.328 52.039 32.28 52.1183L29.94 55.9362L32.7372 58.6582L36.4946 56.2107C36.5728 56.1596 36.6741 56.1606 36.7513 56.2128C37.5623 56.7587 38.4244 57.2409 39.3136 57.6458C39.3982 57.6844 39.4525 57.77 39.4493 57.864L39.3314 62.3467L39.3324 62.3478ZM46.6009 52.8531C41.6985 52.8531 37.1813 49.6165 35.7838 44.6714C34.0982 38.7086 37.5779 32.487 43.5397 30.8014C46.4276 29.9852 49.4617 30.3422 52.0814 31.8065C54.7012 33.2719 56.5934 35.6693 57.4106 38.5573C58.2268 41.4452 57.8699 44.4793 56.4055 47.0991C54.9402 49.7188 52.5428 51.611 49.6548 52.4283C48.6372 52.7163 47.6112 52.8531 46.6019 52.8531H46.6009ZM46.6134 30.838C45.6292 30.838 44.6397 30.9736 43.667 31.2492C37.9516 32.8649 34.6159 38.8297 36.2315 44.5461C37.8472 50.2615 43.8121 53.5972 49.5285 51.9816C52.2975 51.1988 54.5957 49.3848 55.9995 46.8736C57.4033 44.3624 57.7457 41.4546 56.9629 38.6857C56.1801 35.9167 54.3661 33.6184 51.8549 32.2146C50.2257 31.3035 48.4295 30.84 46.6134 30.84V30.838Z" fill="#070709"/>
<path d="M180.56 0.425049H132.474C130.597 0.425049 129.076 1.94607 129.076 3.82235V56.8776C129.076 58.7539 130.597 60.2749 132.474 60.2749H180.56C182.436 60.2749 183.957 58.7539 183.957 56.8776V3.82235C183.957 1.94607 182.436 0.425049 180.56 0.425049Z" fill="white"/>
<path d="M180.56 60.5067H132.474C130.472 60.5067 128.844 58.8785 128.844 56.8766V3.82243C128.844 1.82058 130.472 0.192383 132.474 0.192383H180.56C182.562 0.192383 184.19 1.82058 184.19 3.82243V56.8766C184.19 58.8785 182.562 60.5067 180.56 60.5067ZM132.474 0.656837C130.729 0.656837 129.309 2.07629 129.309 3.82139V56.8756C129.309 58.6207 130.729 60.0401 132.474 60.0401H180.56C182.305 60.0401 183.724 58.6207 183.724 56.8756V3.82243C183.724 2.07734 182.305 0.65788 180.56 0.65788H132.474V0.656837Z" fill="#070709"/>
<path d="M181.301 6.23247H131.778C131.649 6.23247 131.545 6.12809 131.545 5.99972C131.545 5.87134 131.649 5.76697 131.778 5.76697H181.301C181.429 5.76697 181.534 5.87134 181.534 5.99972C181.534 6.12809 181.429 6.23247 181.301 6.23247Z" fill="#070709"/>
<path d="M132.648 3.91012C133.129 3.91012 133.519 3.51994 133.519 3.03862C133.519 2.5573 133.129 2.16711 132.648 2.16711C132.167 2.16711 131.776 2.5573 131.776 3.03862C131.776 3.51994 132.167 3.91012 132.648 3.91012Z" fill="#070709"/>
<path d="M136.133 3.91012C136.614 3.91012 137.004 3.51994 137.004 3.03862C137.004 2.5573 136.614 2.16711 136.133 2.16711C135.652 2.16711 135.261 2.5573 135.261 3.03862C135.261 3.51994 135.652 3.91012 136.133 3.91012Z" fill="#070709"/>
<path d="M139.617 3.91012C140.098 3.91012 140.488 3.51994 140.488 3.03862C140.488 2.5573 140.098 2.16711 139.617 2.16711C139.136 2.16711 138.745 2.5573 138.745 3.03862C138.745 3.51994 139.136 3.91012 139.617 3.91012Z" fill="#070709"/>
<path d="M181.301 3.27031H176.393C176.265 3.27031 176.161 3.16594 176.161 3.03756C176.161 2.90918 176.265 2.80481 176.393 2.80481H181.301C181.429 2.80481 181.534 2.90918 181.534 3.03756C181.534 3.16594 181.429 3.27031 181.301 3.27031Z" fill="#070709"/>
<path d="M174.186 3.27031H153.86C153.731 3.27031 153.627 3.16594 153.627 3.03756C153.627 2.90918 153.731 2.80481 153.86 2.80481H174.186C174.314 2.80481 174.419 2.90918 174.419 3.03756C174.419 3.16594 174.314 3.27031 174.186 3.27031Z" fill="#070709"/>
<path d="M148.517 3.27031H144.191C144.062 3.27031 143.958 3.16594 143.958 3.03756C143.958 2.90918 144.062 2.80481 144.191 2.80481H148.517C148.645 2.80481 148.749 2.90918 148.749 3.03756C148.749 3.16594 148.645 3.27031 148.517 3.27031Z" fill="#070709"/>
<path d="M148.19 28.8121C149.773 26.0421 152.72 24.0851 156.143 23.7313L156.381 10.1891C146.547 10.2225 137.869 15.7625 133.916 23.9515L148.19 28.8132V28.8121Z" fill="white"/>
<path d="M148.19 29.0449C148.165 29.0449 148.14 29.0407 148.115 29.0324L133.841 24.1707C133.778 24.1488 133.727 24.1019 133.701 24.0403C133.675 23.9787 133.677 23.9098 133.706 23.8493C137.764 15.4411 146.664 9.98768 156.38 9.95532C156.449 9.95845 156.502 9.98037 156.546 10.0242C156.59 10.0691 156.614 10.1286 156.613 10.1912L156.375 23.7334C156.373 23.8514 156.283 23.9484 156.166 23.961C152.88 24.3012 149.974 26.1569 148.39 28.9259C148.348 29 148.27 29.0428 148.189 29.0428L148.19 29.0449ZM134.242 23.8159L148.086 28.5303C149.728 25.7812 152.63 23.9244 155.915 23.5226L156.144 10.4229C146.789 10.5408 138.24 15.7699 134.241 23.8159H134.242Z" fill="#070709"/>
<path d="M147.519 14.1019C147.427 14.1019 147.34 14.0466 147.303 13.9569C147.255 13.8379 147.312 13.7022 147.431 13.6542C149.651 12.7555 151.99 12.1951 154.383 11.9874C154.512 11.9769 154.623 12.0709 154.635 12.1992C154.646 12.3276 154.551 12.4393 154.423 12.4508C152.076 12.6543 149.782 13.2033 147.604 14.0852C147.576 14.0967 147.546 14.1019 147.518 14.1019H147.519Z" fill="#070709"/>
<path d="M139.684 19.3247C139.625 19.3247 139.567 19.3028 139.521 19.258C139.429 19.1682 139.428 19.021 139.518 18.9292C141.193 17.2185 143.137 15.7761 145.296 14.6426C145.41 14.5831 145.549 14.627 145.61 14.7407C145.669 14.8545 145.626 14.9954 145.512 15.0549C143.396 16.1654 141.491 17.5786 139.85 19.2548C139.804 19.3018 139.744 19.3247 139.684 19.3247Z" fill="#070709"/>
<path d="M167.161 34.8134C166.355 39.2627 162.301 42.7613 157.335 42.9157C155.854 42.9617 154.44 42.7059 153.156 42.206L145.404 54.2077C149.007 55.8338 153.078 56.6312 157.335 56.3859C169.717 55.6752 179.45 46.3537 180.532 35.1338L167.161 34.8134Z" fill="white"/>
<path d="M155.85 56.6614C152.195 56.6614 148.579 55.8954 145.309 54.4195C145.248 54.3914 145.201 54.3381 145.182 54.2734C145.163 54.2087 145.173 54.1388 145.21 54.0814L152.962 42.0797C153.021 41.9868 153.138 41.9492 153.242 41.9889C154.537 42.494 155.911 42.7268 157.329 42.6829C162.09 42.5347 166.129 39.2074 166.933 34.7716C166.954 34.6589 167.057 34.5795 167.167 34.5806L180.538 34.901C180.603 34.9031 180.663 34.9313 180.706 34.9793C180.749 35.0273 180.77 35.092 180.763 35.1557C179.652 46.6877 169.586 55.9152 157.349 56.6176C156.849 56.6468 156.349 56.6604 155.85 56.6604V56.6614ZM145.748 54.1054C149.333 55.6751 153.329 56.3838 157.323 56.1542C169.245 55.4695 179.067 46.551 180.276 35.3602L167.353 35.0502C166.428 39.6029 162.252 42.995 157.343 43.1474C155.927 43.1912 154.551 42.97 153.25 42.4888L145.748 54.1043V54.1054Z" fill="#070709"/>
<path d="M155.826 54.7203C153.213 54.7203 150.664 54.307 148.247 53.4908C148.125 53.4501 148.061 53.3176 148.101 53.1965C148.142 53.0744 148.273 53.0097 148.396 53.0504C150.764 53.8499 153.263 54.2548 155.825 54.2548C156.285 54.2548 156.752 54.2412 157.21 54.2152C157.337 54.2068 157.448 54.306 157.455 54.4333C157.462 54.5617 157.364 54.6713 157.236 54.6786C156.768 54.7057 156.292 54.7193 155.824 54.7193L155.826 54.7203Z" fill="#070709"/>
<path d="M162.119 53.8821C162.017 53.8821 161.923 53.8143 161.895 53.711C161.862 53.5868 161.935 53.4594 162.058 53.426C170.192 51.2081 176.473 44.7517 178.06 36.9771C178.086 36.8508 178.208 36.7704 178.335 36.7955C178.46 36.8216 178.541 36.9437 178.516 37.07C176.893 45.0147 170.482 51.611 162.181 53.8748C162.16 53.8801 162.14 53.8832 162.119 53.8832V53.8821Z" fill="#070709"/>
<path d="M142.979 52.9449L150.801 40.9077C148.461 39.1752 146.957 36.4792 146.957 33.4211C146.957 32.6822 147.046 31.962 147.213 31.269L132.885 26.4658C132.116 28.7213 131.7 31.1218 131.7 33.609C131.7 41.8429 136.219 48.9318 142.98 52.9449H142.979Z" fill="white"/>
<path d="M142.979 53.1775C142.938 53.1775 142.897 53.1671 142.861 53.1452C135.727 48.9108 131.468 41.6079 131.468 33.6089C131.468 31.1488 131.87 28.7201 132.665 26.3905C132.705 26.2694 132.837 26.2047 132.959 26.2454L147.287 31.0486C147.402 31.0872 147.468 31.2062 147.44 31.3231C147.275 32.0099 147.19 32.7154 147.19 33.421C147.19 36.2954 148.556 38.9558 150.94 40.7208C151.039 40.7938 151.063 40.9316 150.997 41.0339L143.174 53.0711C143.129 53.1389 143.055 53.1765 142.979 53.1765V53.1775ZM133.031 26.76C132.301 28.9737 131.932 31.2772 131.932 33.6089C131.932 41.3699 136.03 48.4641 142.906 52.6306L150.488 40.9629C148.094 39.1103 146.725 36.3747 146.725 33.422C146.725 32.7509 146.797 32.0798 146.939 31.4233L133.03 26.761L133.031 26.76Z" fill="#070709"/>
<path d="M160.586 23.2189C165.109 23.892 168.585 27.3958 168.999 31.7272L190.863 32.3608C190.863 32.3514 190.863 32.342 190.863 32.3326C190.863 16.2928 178.083 2.56474 160.978 0.797729L160.586 23.2178V23.2189Z" fill="white"/>
<path d="M190.861 32.5935C190.861 32.5935 190.858 32.5935 190.857 32.5935L168.992 31.96C168.875 31.9568 168.778 31.866 168.768 31.7502C168.365 27.5231 164.987 24.1091 160.553 23.4495C160.437 23.4328 160.352 23.3326 160.355 23.2157L160.746 0.795639C160.747 0.730928 160.775 0.669349 160.824 0.625513C160.873 0.582721 160.937 0.561846 161.003 0.568109C169.302 1.425 176.939 5.15002 182.505 11.0543C188.045 16.9315 191.097 24.4891 191.097 32.3336C191.097 32.3963 191.072 32.4704 191.026 32.5142C190.982 32.557 190.923 32.5935 190.861 32.5935ZM169.208 31.5007L190.631 32.1218C190.52 16.1967 177.926 2.9029 161.205 1.05657L160.821 23.0205C165.297 23.772 168.704 27.2184 169.207 31.5007H169.208Z" fill="#070709"/>
<path d="M136.07 26.5577H107.454C106.043 26.5577 104.9 27.7012 104.9 29.1117V67.1354C104.9 68.5459 106.043 69.6893 107.454 69.6893H136.07C137.481 69.6893 138.624 68.5459 138.624 67.1354V29.1117C138.624 27.7012 137.481 26.5577 136.07 26.5577Z" fill="white"/>
<path d="M136.071 69.9221H107.454C105.917 69.9221 104.668 68.6728 104.668 67.1364V29.1117C104.668 27.5754 105.917 26.326 107.454 26.326H136.071C137.608 26.326 138.857 27.5754 138.857 29.1117V67.1364C138.857 68.6728 137.608 69.9221 136.071 69.9221ZM107.453 26.7905C106.173 26.7905 105.132 27.8321 105.132 29.1117V67.1364C105.132 68.416 106.173 69.4576 107.453 69.4576H136.07C137.35 69.4576 138.392 68.416 138.392 67.1364V29.1117C138.392 27.8321 137.35 26.7905 136.07 26.7905H107.453Z" fill="#070709"/>
<path d="M116.255 38.884H108.909V63.0262H116.255V38.884Z" fill="white"/>
<path d="M116.255 63.259H108.909C108.78 63.259 108.676 63.1546 108.676 63.0262V38.884C108.676 38.7556 108.78 38.6512 108.909 38.6512H116.255C116.384 38.6512 116.488 38.7556 116.488 38.884V63.0262C116.488 63.1546 116.384 63.259 116.255 63.259ZM109.141 62.7935H116.023V39.1167H109.141V62.7935Z" fill="#070709"/>
<path d="M125.436 32.222H118.089V63.0263H125.436V32.222Z" fill="white"/>
<path d="M125.435 63.259H118.088C117.96 63.259 117.855 63.1546 117.855 63.0263V32.222C117.855 32.0936 117.96 31.9893 118.088 31.9893H125.435C125.563 31.9893 125.668 32.0936 125.668 32.222V63.0263C125.668 63.1546 125.563 63.259 125.435 63.259ZM118.321 62.7935H125.202V32.4548H118.321V62.7935Z" fill="#070709"/>
<path d="M134.615 48.6332H127.269V63.026H134.615V48.6332Z" fill="white"/>
<path d="M134.615 63.2589H127.269C127.14 63.2589 127.036 63.1545 127.036 63.0261V48.6333C127.036 48.5049 127.14 48.4005 127.269 48.4005H134.615C134.744 48.4005 134.848 48.5049 134.848 48.6333V63.0261C134.848 63.1545 134.744 63.2589 134.615 63.2589ZM127.502 62.7934H134.383V48.865H127.502V62.7934Z" fill="#070709"/>
<path d="M78.9822 156.389L79.6241 162.505L83.7593 162.989V155.738L78.9822 156.389Z" fill="white"/>
<path d="M83.7593 163.222C83.7499 163.222 83.7416 163.222 83.7322 163.22L79.597 162.736C79.4884 162.723 79.4039 162.637 79.3924 162.529L78.7505 156.413C78.7369 156.287 78.8257 156.175 78.9499 156.158L83.727 155.507C83.7938 155.497 83.8606 155.518 83.9117 155.562C83.9618 155.606 83.991 155.67 83.991 155.737V162.989C83.991 163.056 83.9628 163.119 83.9127 163.162C83.8699 163.2 83.8146 163.221 83.7583 163.221L83.7593 163.222ZM79.836 162.295L83.5266 162.728V156.005L79.2369 156.589L79.836 162.296V162.295Z" fill="#070709"/>
<path d="M84.4107 173.636C82.6875 173.878 79.8611 174.092 76.5442 173.633C75.4566 173.483 74.7365 172.428 74.9984 171.362C75.729 168.393 76.9877 162.761 79.1472 160.151L79.6837 161.567L80.4247 160.234C80.5259 160.051 80.7086 159.928 80.9163 159.902L82.5393 159.696C82.8785 159.653 83.1937 159.878 83.2636 160.212L83.5214 161.44L84.0871 159.828L85.9752 171.566C86.1077 172.569 85.4105 173.495 84.4086 173.636H84.4107Z" fill="white"/>
<path d="M80.5008 174.136C79.2922 174.136 77.9479 174.062 76.5117 173.863C75.9262 173.781 75.4012 173.456 75.0703 172.967C74.7405 172.482 74.632 171.875 74.7729 171.306L74.9294 170.665C75.6746 167.601 76.9219 162.476 78.9686 160.002C79.0218 159.939 79.1043 159.908 79.1857 159.921C79.2671 159.934 79.336 159.991 79.3652 160.068L79.7243 161.016L80.2221 160.12C80.3588 159.874 80.6072 159.706 80.887 159.67L82.5099 159.465C82.9629 159.407 83.3971 159.714 83.491 160.164L83.5777 160.578L83.8678 159.751C83.9033 159.65 84.0035 159.587 84.1079 159.596C84.2133 159.606 84.2999 159.686 84.3166 159.79L86.2047 171.529C86.3539 172.662 85.5628 173.708 84.4408 173.866C83.4274 174.009 82.0789 174.136 80.4987 174.136H80.5008ZM79.0772 160.62C77.2433 163.12 76.0848 167.88 75.3814 170.775L75.2248 171.417C75.1142 171.866 75.1966 172.324 75.4565 172.706C75.7133 173.085 76.1224 173.339 76.5775 173.402C79.838 173.853 82.6206 173.653 84.3803 173.406C85.2507 173.283 85.8644 172.471 85.7486 171.597L84.0066 160.769L83.7436 161.518C83.7092 161.616 83.6121 161.679 83.5088 161.672C83.4044 161.666 83.3178 161.59 83.2969 161.488L83.0381 160.26C82.9932 160.046 82.7886 159.899 82.5694 159.927L80.9465 160.133C80.8129 160.149 80.6949 160.23 80.6292 160.348L79.8881 161.68C79.8443 161.76 79.7587 161.806 79.6679 161.799C79.5781 161.793 79.4999 161.735 79.4675 161.65L79.0772 160.621V160.62Z" fill="#070709"/>
<path d="M79.6209 172.169C78.5188 172.169 77.3258 172.071 76.137 171.8C76.0118 171.772 75.9335 171.647 75.9617 171.522C75.9909 171.396 76.1151 171.318 76.2403 171.346C80.2921 172.27 84.5358 171.082 84.5786 171.071C84.7018 171.035 84.8301 171.107 84.8656 171.23C84.9011 171.354 84.8291 171.483 84.7059 171.517C84.5786 171.554 82.3847 172.168 79.6209 172.168V172.169Z" fill="#070709"/>
<path d="M78.6336 167.621C78.5083 167.621 78.406 167.522 78.4019 167.397C78.3977 167.268 78.4979 167.161 78.6263 167.157L82.5026 167.028C82.63 167.027 82.7385 167.124 82.7427 167.253C82.7468 167.381 82.6467 167.489 82.5183 167.493L78.6419 167.621C78.6419 167.621 78.6367 167.621 78.6336 167.621Z" fill="#070709"/>
<path d="M98.3505 153.132L98.9704 162.057H103.946L104.178 153.132H98.3505Z" fill="white"/>
<path d="M103.946 162.29H98.9705C98.8484 162.29 98.7471 162.195 98.7388 162.074L98.1188 153.149C98.1146 153.084 98.1365 153.022 98.1804 152.975C98.2242 152.928 98.2858 152.901 98.3505 152.901H104.178C104.24 152.901 104.301 152.926 104.345 152.97C104.388 153.015 104.412 153.076 104.41 153.138L104.179 162.063C104.175 162.19 104.072 162.29 103.946 162.29ZM99.1876 161.825H103.719L103.939 153.366H98.5989L99.1865 161.825H99.1876Z" fill="#070709"/>
<path d="M97.671 167.096C97.6585 167.941 98.2356 168.682 99.0581 168.873C101.919 169.539 108.363 171.021 110.201 171.294C112.587 171.649 115.519 170.918 116.779 169.523C118.04 168.127 113.957 164.796 112.019 163.583C109.14 161.783 106.375 158.223 105.215 158.063C104.055 157.903 101.891 161.267 101.891 161.267L98.3525 159.781C98.3525 159.781 97.7357 162.813 97.672 167.095L97.671 167.096Z" fill="white"/>
<path d="M111.448 171.617C111.015 171.617 110.584 171.586 110.165 171.525C108.309 171.248 101.742 169.737 99.0049 169.099C98.0833 168.884 97.4247 168.041 97.4383 167.092C97.502 162.838 98.1167 159.765 98.123 159.735C98.1366 159.667 98.1804 159.609 98.242 159.575C98.3036 159.543 98.3766 159.54 98.4403 159.567L101.8 160.978C102.348 160.15 104.094 157.674 105.245 157.833C105.901 157.924 106.84 158.815 108.14 160.048C109.351 161.197 110.724 162.501 112.14 163.386C113.696 164.36 116.988 166.935 117.232 168.682C117.288 169.075 117.193 169.41 116.951 169.677C115.887 170.855 113.635 171.615 111.448 171.615V171.617ZM98.5269 160.108C98.3777 160.951 97.955 163.624 97.9028 167.099C97.8923 167.83 98.3996 168.481 99.1093 168.646C101.841 169.282 108.393 170.79 110.233 171.065C112.625 171.42 115.424 170.675 116.604 169.367C116.751 169.204 116.807 169.001 116.771 168.747C116.564 167.265 113.492 164.781 111.893 163.781C110.437 162.871 109.047 161.551 107.819 160.386C106.723 159.347 105.688 158.365 105.181 158.295C104.445 158.192 102.89 160.142 102.084 161.394C102.022 161.489 101.902 161.527 101.798 161.483L98.5248 160.109L98.5269 160.108Z" fill="#070709"/>
<path d="M111.398 169.981C106.226 169.981 99.2741 167.172 98.8827 167.012C98.7637 166.963 98.7074 166.827 98.7554 166.709C98.8034 166.59 98.9401 166.534 99.0581 166.582C99.1854 166.634 111.787 171.726 115.497 168.376C115.593 168.29 115.739 168.298 115.825 168.393C115.911 168.488 115.904 168.635 115.809 168.721C114.793 169.639 113.204 169.981 111.398 169.981Z" fill="#070709"/>
<path d="M105.883 164.573C105.819 164.573 105.757 164.546 105.71 164.495C105.624 164.4 105.632 164.253 105.727 164.168L108.258 161.885C108.354 161.799 108.5 161.807 108.586 161.902C108.672 161.997 108.665 162.144 108.57 162.229L106.039 164.512C105.994 164.552 105.938 164.572 105.883 164.572V164.573Z" fill="#070709"/>
<path d="M77.5712 94.9514C77.5712 94.9514 76.0296 122.851 75.2228 132.482C74.416 142.114 77.1098 157.595 77.1098 157.595L84.7906 157.191C84.7906 157.191 85.3166 138.368 85.8875 133.14C85.8875 133.14 89.1314 126.053 90.0937 119.733C91.0549 113.414 94.3301 103.431 94.3301 103.431C94.3301 103.431 96.9895 153.257 97.2463 157.172C97.2463 157.172 103.27 157.44 105.428 156.081C105.428 156.081 109.254 137.913 108.704 128.028C108.155 118.143 108.758 93.5841 108.758 93.5841L77.5712 94.9514Z" fill="#070709"/>
<path d="M84.4722 133.372H82.1248C81.9965 133.372 81.8921 133.267 81.8921 133.139C81.8921 133.01 81.9965 132.906 82.1248 132.906H84.4722C84.6005 132.906 84.7049 133.01 84.7049 133.139C84.7049 133.267 84.6005 133.372 84.4722 133.372Z" fill="white"/>
<path d="M101.197 147.863C101.197 147.863 101.194 147.863 101.192 147.863C101.064 147.861 100.962 147.754 100.964 147.626C101.048 143.021 106.103 134.764 106.318 134.415C106.385 134.306 106.529 134.272 106.638 134.339C106.747 134.406 106.781 134.55 106.714 134.659C106.662 134.743 101.511 143.156 101.428 147.634C101.426 147.761 101.322 147.863 101.196 147.863H101.197Z" fill="white"/>
<path d="M111.189 50.3305C111.749 50.2866 114.493 55.9071 123.082 55.6712C131.67 55.4353 138.561 45.8248 138.561 45.8248C138.561 45.8248 141.527 40.8233 143.778 39.0145C146.03 37.2068 146.382 36.9678 146.382 36.9678C146.382 36.9678 147.088 37.9082 146.382 39.0145C145.677 40.1208 143.728 42.1916 143.728 42.1916C143.728 42.1916 145.875 43.3699 144.907 45.8248C143.793 48.648 140.656 48.4215 140.656 48.4215C140.656 48.4215 134.288 76.6144 107.971 63.2172L111.189 50.3294V50.3305Z" fill="white"/>
<path d="M121.021 67.0622C117.025 67.0622 112.625 65.8484 107.865 63.4249C107.769 63.3758 107.719 63.2662 107.745 63.1618L110.964 50.274C110.988 50.177 111.071 50.106 111.172 50.0987C111.402 50.0809 111.584 50.2834 112.023 50.7729C113.325 52.2247 116.371 55.6241 123.076 55.4394C131.453 55.2098 138.305 45.785 138.373 45.69C138.484 45.5011 141.376 40.6478 143.633 38.8349C145.866 37.0407 146.238 36.7861 146.253 36.7767C146.355 36.7078 146.495 36.7308 146.569 36.8299C146.602 36.8737 147.362 37.9133 146.58 39.1417C145.992 40.0633 144.593 41.6028 144.085 42.1529C144.652 42.5756 145.948 43.8228 145.125 45.9113C144.128 48.4381 141.571 48.65 140.839 48.6573C140.438 50.2229 137.323 61.2863 128.449 65.4507C126.16 66.5247 123.68 67.0622 121.023 67.0622H121.021ZM108.241 63.094C115.962 66.985 122.692 67.6373 128.248 65.0311C137.551 60.6653 140.402 48.4934 140.429 48.3703C140.454 48.2586 140.558 48.1824 140.672 48.1897C140.793 48.1981 143.655 48.3661 144.691 45.7401C145.569 43.5118 143.696 42.4399 143.615 42.396C143.553 42.3616 143.509 42.299 143.499 42.228C143.487 42.157 143.51 42.085 143.559 42.0328C143.578 42.012 145.5 39.9663 146.186 38.8902C146.617 38.2149 146.449 37.6117 146.31 37.31C146.024 37.5271 145.366 38.0375 143.923 39.196C141.731 40.9578 138.79 45.8935 138.76 45.9426C138.68 46.0564 131.692 55.6669 123.088 55.9028C122.907 55.908 122.728 55.9101 122.552 55.9101C116.004 55.9101 112.986 52.542 111.676 51.0819C111.555 50.9472 111.432 50.8105 111.333 50.7093L108.24 63.0929L108.241 63.094Z" fill="#070709"/>
<path d="M68.6223 63.2183C68.6223 63.2183 71.1993 46.5825 80.3057 42.4901C89.4111 38.3967 101.73 38.9665 105.127 41.0101C108.525 43.0537 117.378 52.2958 117.378 52.2958L109.555 63.2183C109.555 63.2183 111.343 92.6219 109.929 100.384C109.929 100.384 101.226 101.4 97.5343 99.9457C93.8427 98.4918 81.7043 96.4545 75.9022 99.1201L76.9564 61.8939L68.6234 63.2183H68.6223Z" fill="white"/>
<path d="M103.786 100.965C101.474 100.965 99.0288 100.784 97.4476 100.162C93.8134 98.7308 81.7971 96.6674 75.9982 99.332C75.9251 99.3654 75.8406 99.3591 75.7728 99.3143C75.706 99.2704 75.6663 99.1942 75.6684 99.1139L76.7152 62.1673L68.6588 63.448C68.5857 63.4595 68.5106 63.4355 68.4584 63.3833C68.4062 63.3311 68.3812 63.2559 68.3926 63.1829C68.4991 62.4982 71.0938 46.3759 80.2096 42.2783C89.1835 38.2443 101.584 38.6075 105.246 40.8108C108.631 42.8471 117.183 51.7563 117.545 52.1351C117.623 52.2155 117.632 52.3407 117.566 52.4315L109.791 63.2872C109.894 65.0219 111.522 92.9278 110.157 100.426C110.138 100.526 110.057 100.603 109.956 100.615C109.751 100.639 106.889 100.965 103.786 100.965ZM83.7885 97.5869C89.292 97.5869 95.2349 98.7903 97.6188 99.7286C100.932 101.033 108.493 100.303 109.73 100.171C111.067 92.2723 109.34 63.5231 109.322 63.2319C109.319 63.1787 109.333 63.1255 109.365 63.0827L117.077 52.3167C115.955 51.154 108.112 43.0767 105.007 41.2085C101.81 39.2849 89.5112 38.6054 80.4006 42.701C72.2001 46.3874 69.3226 60.6268 68.9061 62.9376L76.9188 61.6643C76.9876 61.6538 77.0565 61.6737 77.1087 61.7196C77.1609 61.7655 77.1891 61.8313 77.188 61.9012L76.1443 98.7621C78.2036 97.9115 80.9371 97.589 83.7885 97.589V97.5869Z" fill="#070709"/>
<path d="M83.8992 91.6804C83.7885 91.6804 83.6904 91.601 83.6706 91.4883C83.6487 91.362 83.7322 91.241 83.8595 91.219C97.6992 88.7726 101.739 79.1902 101.778 79.0942C101.826 78.9752 101.962 78.9178 102.081 78.9658C102.2 79.0138 102.257 79.1495 102.209 79.2685C102.169 79.3676 98.0447 89.1838 83.9399 91.6762C83.9263 91.6783 83.9127 91.6793 83.8992 91.6793V91.6804Z" fill="#070709"/>
<path d="M108.895 74.8452H91.176L96.7255 55.0532H114.445L108.895 74.8452Z" fill="#070709"/>
<path d="M70.1847 63.2819L79.1523 59.2729C79.1523 59.2729 77.8894 74.4674 96.0323 67.4515C96.0323 67.4515 95.3633 65.4987 95.4583 63.2182C95.5533 60.9377 96.9174 63.1441 97.1084 64.9977C97.2994 66.8514 101.559 66.0989 104.119 65.3683C106.679 64.6377 110.039 65.1157 104.119 68.3815C98.1991 71.6473 96.9018 70.1902 96.9018 70.1902C96.9018 70.1902 89.3421 80.7693 79.9351 78.5212C68.3655 75.7574 70.1847 63.2808 70.1847 63.2808V63.2819Z" fill="white"/>
<path d="M82.5601 79.0639C81.6865 79.0639 80.7931 78.9658 79.8819 78.7477C73.796 77.2938 71.4205 73.1492 70.4979 69.9293C69.5042 66.4568 69.9353 63.3779 69.9541 63.2485C69.9656 63.1702 70.0167 63.1023 70.0898 63.07L79.0574 59.0611C79.1325 59.0277 79.2191 59.036 79.287 59.084C79.3538 59.132 79.3914 59.2114 79.3841 59.2928C79.3799 59.3481 78.9697 64.8652 82.5851 67.5674C85.3813 69.6579 89.8087 69.5723 95.7454 67.3127C95.5742 66.7387 95.1473 65.0948 95.2256 63.2088C95.2381 62.9176 95.2746 62.0304 95.8142 62.0148C95.8184 62.0148 95.8226 62.0148 95.8268 62.0148C96.5281 62.0148 97.2149 63.7755 97.3391 64.9748C97.3652 65.2263 97.4852 65.4215 97.7065 65.5718C98.7701 66.2909 101.791 65.792 104.054 65.1459C105.242 64.8067 107.254 64.5813 107.6 65.4204C107.895 66.1375 106.793 67.1728 104.231 68.5871C99.3796 71.2621 97.5364 70.8425 96.9498 70.5148C95.976 71.7861 90.0686 79.066 82.5601 79.066V79.0639ZM70.3987 63.4405C70.3298 64.0532 70.0887 66.8221 70.9487 69.8166C72.2419 74.3192 75.2843 77.1716 79.9894 78.2957C80.864 78.5045 81.7251 78.5994 82.5653 78.5994C90.5059 78.5994 96.645 70.1495 96.7129 70.0556C96.7536 69.9982 96.8193 69.9627 96.8893 69.9585C96.9634 69.9543 97.0281 69.9836 97.0751 70.0357C97.0834 70.0431 98.4121 71.2632 104.006 68.1779C107.355 66.3306 107.199 65.6657 107.171 65.5958C107.028 65.2482 105.663 65.1689 104.183 65.5916C102.982 65.9339 98.9496 66.9724 97.4466 65.9548C97.1095 65.7262 96.9175 65.4121 96.8778 65.0207C96.739 63.6733 96.0564 62.5168 95.8288 62.4782C95.833 62.4865 95.7172 62.6107 95.6911 63.2265C95.5992 65.434 96.2463 67.3555 96.2536 67.3753C96.2943 67.4933 96.2338 67.6227 96.118 67.6676C89.9183 70.065 85.2706 70.1558 82.3054 67.9379C79.0146 65.4758 78.8674 60.9888 78.9029 59.6393L70.4008 63.4405H70.3987Z" fill="#070709"/>
<path d="M94.1213 34.9075C93.3468 35.6172 91.8324 36.4824 90.6467 35.8854C89.7638 35.4408 89.2711 34.2896 89.3024 32.9703C88.8943 33.0037 88.3579 32.9745 87.9759 32.6374C87.3872 32.1176 87.4978 31.1605 87.5208 30.5312C87.6273 27.6286 85.9406 27.1829 86.3529 25.2134C86.6775 23.6656 87.8934 22.743 88.1209 22.5707C89.269 21.7003 90.0466 21.981 91.9764 21.4748C95.2245 20.6242 95.3278 19.2246 97.4674 19.2173C97.5916 19.2173 100.504 19.2486 101.492 21.2609C102.296 22.8974 101.357 24.8857 100.386 25.9305C99.129 27.2831 98.2262 26.6151 96.9643 27.7497C94.7496 29.7421 96.4216 32.7992 94.1202 34.9054L94.1213 34.9075Z" fill="#070709"/>
<path d="M100.603 29.7285L100.474 29.6178C99.8315 29.0636 99.1625 28.4207 98.9923 27.5899C98.267 24.0569 95.0304 22.7742 94.8811 26.0181C94.8436 26.8363 91.8533 26.7946 92.2082 27.6536C93.1329 29.8944 93.1538 29.2912 91.8481 30.1167C91.6999 30.123 91.5538 30.1554 91.415 30.2201C90.7459 30.5321 90.508 31.4412 90.8858 32.2501C91.1144 32.7417 91.5183 33.0788 91.9483 33.202V36.7423C91.9483 38.0688 91.1457 39.2639 89.9172 39.7669L88.7222 40.2554C88.7222 40.2554 94.2956 43.8928 99.9526 39.8995L99.198 39.5613C97.8683 38.9654 96.9957 37.6618 96.9498 36.2058L96.9435 35.5138C97.3234 35.5472 97.6919 35.5221 98.0321 35.423C99.6144 34.9627 100.14 33.1393 99.8712 30.8734L100.515 30.5269C100.816 30.3651 100.861 29.9529 100.603 29.7295V29.7285Z" fill="white"/>
<path d="M94.233 41.9911C91.0142 41.9911 88.6324 40.4736 88.5948 40.4496C88.5228 40.4026 88.4821 40.3191 88.4905 40.2325C88.4988 40.1469 88.5541 40.0717 88.6334 40.0394L89.8285 39.5509C90.9745 39.0823 91.7145 37.9801 91.7145 36.7423V33.3679C91.2699 33.1895 90.8962 32.8262 90.6739 32.3482C90.2429 31.4245 90.5309 30.3746 91.3158 30.0093C91.4577 29.9425 91.6112 29.9028 91.774 29.8882C91.99 29.7535 92.1675 29.6596 92.3115 29.5824C92.4764 29.4947 92.6319 29.4112 92.6361 29.3695C92.6465 29.264 92.5171 28.9666 92.3386 28.5543C92.2437 28.3351 92.1278 28.069 91.9932 27.7423C91.9285 27.5868 91.9305 27.4302 91.9994 27.2893C92.179 26.9209 92.7572 26.7591 93.4252 26.5713C93.9084 26.4356 94.6379 26.231 94.6484 26.0076C94.7308 24.2208 95.665 23.9557 96.0626 23.9244C97.2055 23.8357 98.7366 25.1925 99.2188 27.5429C99.3764 28.3122 100.028 28.9269 100.626 29.4415L100.754 29.5521C100.934 29.7066 101.025 29.9393 100.999 30.1752C100.973 30.4111 100.833 30.6177 100.625 30.7305L100.119 31.0018C100.378 33.5057 99.6457 35.1934 98.0968 35.6443C97.8129 35.7267 97.503 35.7643 97.1773 35.758L97.1815 36.2027C97.2243 37.5553 98.053 38.7921 99.2919 39.3484L100.046 39.6866C100.123 39.721 100.175 39.7931 100.183 39.8766C100.192 39.96 100.154 40.0404 100.086 40.0884C98.0488 41.5267 96.0125 41.9911 94.2319 41.9911H94.233ZM89.2534 40.2888C90.5831 40.986 94.9928 42.8605 99.4777 39.9402L99.103 39.7722C97.7023 39.1439 96.7661 37.7463 96.7181 36.2121L96.7118 35.5149C96.7118 35.4491 96.7379 35.3865 96.787 35.3416C96.835 35.2967 96.8997 35.2748 96.9654 35.2811C97.3307 35.3134 97.6689 35.2863 97.9695 35.1986C99.3107 34.8083 99.9202 33.2416 99.6426 30.8995C99.6311 30.8046 99.6791 30.7127 99.7636 30.6678L100.408 30.3213C100.483 30.2806 100.531 30.2096 100.54 30.1251C100.55 30.0406 100.518 29.9602 100.454 29.9049L100.325 29.7942C99.6697 29.2296 98.9537 28.5491 98.7669 27.6369C98.3494 25.6016 97.05 24.3137 96.1023 24.3878C95.5209 24.4337 95.1619 25.0318 95.116 26.0296C95.0899 26.589 94.3436 26.7988 93.5535 27.02C93.112 27.1432 92.5077 27.3133 92.4201 27.4939C92.4148 27.5043 92.4075 27.521 92.4253 27.5659C92.5589 27.8895 92.6737 28.1535 92.7676 28.3706C93.2049 29.3768 93.2957 29.5865 92.5328 29.9946C92.3846 30.074 92.1998 30.1731 91.9744 30.3151C91.9399 30.337 91.9003 30.3495 91.8596 30.3505C91.7354 30.3558 91.6195 30.3829 91.5152 30.432C90.963 30.6898 90.7762 31.4611 91.0977 32.153C91.2876 32.5611 91.631 32.8701 92.013 32.9797C92.1132 33.0079 92.1821 33.0997 92.1821 33.203V36.7423C92.1821 38.1701 91.3283 39.4413 90.007 39.982L89.2545 40.2899L89.2534 40.2888Z" fill="#070709"/>
<path d="M96.9446 35.7445C96.9331 35.7445 96.9206 35.7445 96.9091 35.7414C94.6286 35.3917 93.6036 33.6508 93.5608 33.5777C93.4972 33.4671 93.5347 33.3252 93.6464 33.2605C93.7571 33.1968 93.899 33.2344 93.9637 33.345C93.9731 33.3607 94.926 34.9669 96.979 35.2821C97.1063 35.302 97.193 35.4199 97.1731 35.5472C97.1554 35.6621 97.0562 35.7445 96.9435 35.7445H96.9446Z" fill="#070709"/>
<path d="M21.3732 66.3849C21.081 66.3849 20.7888 66.3255 20.5111 66.2086C19.9694 65.9779 19.5499 65.551 19.3296 65.0052C18.8746 63.8779 19.4215 62.591 20.5487 62.137C21.6759 61.682 22.9618 62.2289 23.4168 63.3561C23.8719 64.4833 23.325 65.7702 22.1978 66.2242C21.9316 66.3317 21.6519 66.386 21.3732 66.386V66.3849ZM21.3701 62.4407C21.1541 62.4407 20.9349 62.4814 20.722 62.567C19.8327 62.9261 19.4017 63.9416 19.7607 64.8309C19.935 65.2619 20.2659 65.599 20.6927 65.7806C21.1207 65.9622 21.5924 65.9664 22.0235 65.7932C22.9127 65.4341 23.3438 64.4186 22.9847 63.5293C22.7113 62.853 22.0579 62.4407 21.3701 62.4407Z" fill="#070709"/>
<path d="M183.812 71.2746C183.755 71.2746 183.696 71.2538 183.651 71.2099C183.559 71.1212 183.555 70.9741 183.644 70.8812L184.734 69.7425C184.822 69.6496 184.97 69.6464 185.063 69.7352C185.155 69.8239 185.159 69.971 185.07 70.0639L183.98 71.2026C183.934 71.2506 183.874 71.2746 183.812 71.2746Z" fill="#070709"/>
<path d="M179.998 75.2595C179.941 75.2595 179.883 75.2386 179.838 75.1948C179.745 75.1061 179.742 74.9589 179.83 74.866L180.92 73.7273C181.009 73.6344 181.156 73.6313 181.249 73.72C181.342 73.8087 181.345 73.9559 181.256 74.0488L180.166 75.1875C180.121 75.2355 180.06 75.2595 179.998 75.2595Z" fill="#070709"/>
<path d="M181.067 71.3351C181.009 71.3351 180.949 71.3132 180.904 71.2683L179.798 70.1787C179.706 70.0889 179.705 69.9418 179.796 69.8499C179.886 69.7581 180.033 69.757 180.125 69.8478L181.23 70.9375C181.322 71.0272 181.323 71.1744 181.232 71.2663C181.186 71.3122 181.127 71.3351 181.066 71.3351H181.067Z" fill="#070709"/>
<path d="M184.938 75.15C184.88 75.15 184.82 75.128 184.776 75.0832L183.67 73.9935C183.578 73.9038 183.577 73.7566 183.668 73.6648C183.758 73.5729 183.905 73.5719 183.997 73.6627L185.103 74.7523C185.195 74.8421 185.196 74.9892 185.105 75.0811C185.059 75.127 185 75.15 184.939 75.15H184.938Z" fill="#070709"/>
<path d="M104.881 4.80662C104.824 4.80662 104.765 4.78575 104.72 4.74191C104.627 4.6532 104.624 4.50603 104.713 4.41314L105.803 3.27445C105.891 3.18156 106.039 3.17843 106.131 3.26714C106.224 3.35586 106.228 3.50302 106.139 3.59591L105.049 4.73461C105.003 4.78262 104.943 4.80662 104.881 4.80662Z" fill="#070709"/>
<path d="M101.067 8.79161C101.01 8.79161 100.951 8.77074 100.907 8.7269C100.814 8.63818 100.811 8.49102 100.899 8.39813L101.989 7.25943C102.078 7.16654 102.225 7.16341 102.318 7.25213C102.411 7.34084 102.414 7.48801 102.325 7.5809L101.235 8.71959C101.189 8.7676 101.129 8.79161 101.067 8.79161Z" fill="#070709"/>
<path d="M102.137 4.86725C102.079 4.86725 102.019 4.84533 101.974 4.80045L100.869 3.71081C100.777 3.62105 100.776 3.47389 100.867 3.38204C100.957 3.2902 101.104 3.28915 101.196 3.37996L102.302 4.4696C102.394 4.55936 102.395 4.70652 102.304 4.79837C102.258 4.84429 102.199 4.86725 102.138 4.86725H102.137Z" fill="#070709"/>
<path d="M106.007 8.68195C105.949 8.68195 105.889 8.66003 105.844 8.61515L104.738 7.52551C104.646 7.43575 104.645 7.28859 104.736 7.19674C104.826 7.10489 104.973 7.10385 105.065 7.19465L106.171 8.28429C106.263 8.37405 106.264 8.52122 106.173 8.61306C106.127 8.65899 106.068 8.68195 106.007 8.68195Z" fill="#070709"/>
<path d="M71.3673 150.849L67.8375 186.993L65.319 186.887L66.5704 148.891L71.3673 150.849Z" fill="white"/>
<path d="M67.8375 187.226C67.8375 187.226 67.8312 187.226 67.8281 187.226L65.3096 187.12C65.1823 187.115 65.0831 187.007 65.0873 186.88L66.3387 148.884C66.3408 148.807 66.3805 148.737 66.4441 148.696C66.5078 148.654 66.5881 148.647 66.6581 148.676L71.455 150.635C71.55 150.674 71.6084 150.771 71.598 150.873L68.0681 187.017C68.0567 187.137 67.9565 187.227 67.8364 187.227L67.8375 187.226ZM65.559 186.665L67.6277 186.752L71.1189 150.999L66.7906 149.232L65.558 186.665H65.559Z" fill="#070709"/>
<path d="M24.0201 149.548L27.4655 187.083L30.0695 186.887L28.8181 147.519L24.0201 149.548Z" fill="white"/>
<path d="M27.4643 187.315C27.3453 187.315 27.2441 187.224 27.2326 187.104L23.7884 149.57C23.779 149.469 23.8364 149.374 23.9293 149.335L28.7262 147.306C28.7972 147.276 28.8775 147.283 28.9422 147.325C29.0069 147.367 29.0466 147.437 29.0497 147.514L30.3011 186.882C30.3053 187.006 30.2103 187.112 30.0861 187.121L27.4821 187.316C27.4758 187.316 27.4706 187.316 27.4643 187.316V187.315ZM24.2674 149.697L27.6752 186.834L29.8294 186.672L28.5957 147.866L24.2674 149.697Z" fill="#070709"/>
<path d="M12.0299 140.716L13.0434 180.13L15.0765 179.69L16.9416 138.843L12.0299 140.716Z" fill="white"/>
<path d="M13.0434 180.363C12.9922 180.363 12.9411 180.346 12.8993 180.313C12.8451 180.27 12.8127 180.205 12.8106 180.137L11.7972 140.723C11.7951 140.625 11.8546 140.535 11.9464 140.499L16.8582 138.625C16.9312 138.597 17.0137 138.608 17.0773 138.654C17.141 138.7 17.1765 138.775 17.1734 138.853L15.3082 179.7C15.303 179.806 15.2279 179.894 15.1256 179.916L13.0924 180.357C13.0757 180.36 13.0601 180.362 13.0434 180.362V180.363ZM12.2668 140.875L13.2688 179.843L14.8532 179.5L16.6932 139.185L12.2668 140.874V140.875Z" fill="#070709"/>
<path d="M51.7631 139.836L52.7765 179.248L54.89 179.26L56.6748 137.961L51.7631 139.836Z" fill="white"/>
<path d="M41.5545 109.053V118.224C41.5545 127.193 48.6278 134.465 57.3543 134.465C66.0808 134.465 73.1541 141.735 73.1541 150.705C73.1541 151.504 72.507 152.152 71.7096 152.152H29.8868C16.8059 152.152 6.20068 141.252 6.20068 127.806V108.238C6.20068 102.89 10.4183 98.5546 15.6213 98.5546H31.3396C36.9809 98.5546 41.5545 103.255 41.5545 109.053Z" fill="white"/>
<path d="M71.7096 152.383H29.8868C16.6984 152.383 5.96899 141.357 5.96899 127.805V108.237C5.96899 102.77 10.2994 98.3218 15.6223 98.3218H31.3407C37.101 98.3218 41.7883 103.136 41.7883 109.053V118.224C41.7883 127.051 48.7718 134.232 57.3553 134.232C65.9389 134.232 73.3879 141.621 73.3879 150.704C73.3879 151.63 72.6354 152.383 71.7117 152.383H71.7096ZM15.6213 98.7873C10.5551 98.7873 6.43345 103.027 6.43345 108.238V127.806C6.43345 141.102 16.9552 151.919 29.8868 151.919H71.7096C72.3775 151.919 72.9213 151.374 72.9213 150.704C72.9213 141.877 65.9378 134.696 57.3543 134.696C48.7708 134.696 41.3218 127.307 41.3218 118.224V109.053C41.3218 103.392 36.8442 98.7862 31.3397 98.7862H15.6213V98.7873Z" fill="#070709"/>
<path d="M2.15005 91.9427C1.50921 91.6775 0.944555 91.2152 0.589691 90.5816C0.063658 89.6433 -0.217102 88.1414 0.964385 85.9956C3.63317 81.1496 8.09088 83.4405 9.79632 82.879C13.6174 81.6213 12.7135 79.5548 14.2666 77.5477C15.4282 76.0458 19.4392 73.2121 25.5314 78.4902C25.5314 78.4902 28.267 82.2236 31.3678 80.8031C35.1774 79.058 42.832 83.0064 40.4137 88.8773C39.7165 90.5702 38.4599 91.8717 36.9288 92.5783C36.6511 92.7066 36.3474 92.8298 36.0176 92.9436C35.0626 93.2723 34.3247 94.124 34.0857 95.222C33.3071 98.7978 30.3586 105.7 19.4163 98.754C18.5907 98.23 17.6117 98.1642 16.7579 98.5598C15.709 99.0472 14.5713 100.934 9.51347 100.138C6.26438 99.6265 5.23214 95.8451 4.37421 94.124C3.69057 92.7536 2.70948 92.1733 2.15005 91.9416V91.9427Z" fill="#070709"/>
<path d="M58.4158 118.331C54.1126 119.676 45.8693 115.943 44.4634 109.681C43.3487 104.716 41.6068 102.196 40.9325 101.364C40.61 100.814 40.1863 100.298 39.6258 99.8049C35.6179 96.2824 28.6762 97.4232 25.6723 97.9169C22.2646 98.4763 19.4414 98.9407 17.522 101.102C17.0116 101.676 16.6505 102.277 16.4021 102.917V102.915C12.7334 109.821 15.7069 116.952 17.5397 120.246C17.8424 133.454 13.4744 131.378 14.657 137.243C16.3217 145.505 29.627 142.417 34.4667 141.362C36.1648 140.991 45.0552 143.632 47.2282 136.772C48.4963 132.77 46.0864 130.921 43.9583 124.111C54.8599 130.887 62.957 119.332 62.957 119.332L63.7972 115.281C63.7972 115.281 61.5981 117.335 58.4148 118.331H58.4158Z" fill="white"/>
<path d="M24.0932 143.045C21.5141 143.045 19.0259 142.639 17.1869 141.438C15.7194 140.48 14.7916 139.084 14.4294 137.288C13.8992 134.658 14.4523 133.576 15.2163 132.08C16.1682 130.218 17.4708 127.669 17.309 120.309C15.3124 116.702 12.5486 109.678 16.1943 102.81C16.4615 102.13 16.8383 101.521 17.3476 100.948C19.3223 98.7247 22.2468 98.2435 25.6347 97.6872C28.6438 97.1925 35.6888 96.035 39.7792 99.6306C40.3396 100.122 40.7791 100.646 41.1235 101.232C41.8332 102.11 43.5741 104.662 44.6899 109.629C45.2952 112.326 47.3326 114.849 50.279 116.549C53.0657 118.158 56.2323 118.769 58.3458 118.109C61.4373 117.142 63.6166 115.131 63.6385 115.111C63.7126 115.042 63.8233 115.029 63.9109 115.079C63.9986 115.129 64.0456 115.229 64.0247 115.328L63.1845 119.379C63.1783 119.41 63.1657 119.439 63.1469 119.465C63.1261 119.495 61.0553 122.418 57.6653 124.462C54.6166 126.299 49.8719 127.777 44.3674 124.626C45.0447 126.69 45.7471 128.296 46.3212 129.608C47.5152 132.34 48.3042 134.143 47.4494 136.842C45.6814 142.422 39.6237 141.916 36.3683 141.644C35.549 141.577 34.8424 141.517 34.5157 141.588L34.213 141.654C31.8052 142.181 27.8537 143.045 24.0932 143.045ZM16.594 103.049C13.0506 109.749 15.7914 116.628 17.7432 120.133C17.762 120.167 17.7714 120.203 17.7724 120.241C17.9446 127.763 16.6076 130.381 15.6307 132.292C14.8824 133.757 14.3866 134.726 14.8855 137.197C15.2216 138.866 16.0816 140.162 17.4405 141.049C21.7991 143.895 30.1164 142.075 34.1139 141.201L34.4176 141.134C34.8121 141.048 35.4811 141.104 36.408 141.181C39.7531 141.46 45.3516 141.927 47.008 136.701C47.8106 134.169 47.0894 132.522 45.8964 129.794C45.2649 128.35 44.479 126.553 43.7369 124.18C43.7077 124.087 43.7401 123.986 43.8163 123.926C43.8935 123.867 43.9989 123.862 44.0814 123.913C48.5182 126.67 53.0031 126.723 57.4138 124.07C60.5157 122.204 62.4884 119.581 62.7399 119.236L63.4329 115.895C62.5938 116.564 60.8069 117.827 58.4847 118.552C56.2522 119.25 52.9404 118.622 50.0462 116.952C46.9871 115.187 44.8694 112.555 44.2358 109.732C43.1368 104.835 41.4324 102.352 40.7509 101.511C40.7436 101.502 40.7373 101.493 40.731 101.482C40.4106 100.934 39.9984 100.444 39.4723 99.9803C35.5469 96.5308 28.6542 97.6632 25.7099 98.1465C22.274 98.7111 19.5603 99.1568 17.6952 101.257C17.2171 101.794 16.8654 102.365 16.6181 103.002C16.6118 103.019 16.6034 103.034 16.594 103.049Z" fill="#070709"/>
<path d="M39.393 117.251C39.393 117.251 47.2428 114.389 49.6934 109.158L54.7461 104.449C54.7461 104.449 54.6751 106.726 53.1742 107.676C53.1742 107.676 54.4622 110.269 52.5616 112.059C52.5616 112.059 51.1358 113.193 50.2863 113.213C50.2863 113.213 47.798 121.386 41.0796 123.82C41.0796 123.82 39.1926 120.952 39.3919 117.251H39.393Z" fill="white"/>
<path d="M41.0807 124.053C41.0045 124.053 40.9304 124.015 40.8866 123.948C40.8083 123.828 38.9599 120.974 39.1613 117.238C39.1665 117.145 39.226 117.064 39.3137 117.032C39.3909 117.004 47.1019 114.142 49.4837 109.06C49.4962 109.032 49.514 109.008 49.5359 108.989L54.5885 104.28C54.6574 104.217 54.7576 104.2 54.8432 104.239C54.9288 104.277 54.982 104.364 54.9799 104.458C54.9768 104.552 54.8922 106.706 53.4644 107.76C53.7233 108.412 54.4215 110.628 52.7223 112.229C52.6514 112.287 51.3759 113.294 50.4616 113.431C50.0765 114.563 47.4056 121.777 41.1611 124.039C41.135 124.048 41.1079 124.053 41.0818 124.053H41.0807ZM39.6185 117.414C39.5026 120.442 40.8104 122.904 41.1799 123.536C47.5799 121.089 50.041 113.225 50.065 113.146C50.0943 113.05 50.1819 112.984 50.2821 112.981C50.9146 112.965 52.0387 112.179 52.4186 111.878C54.1533 110.242 53.0167 107.878 52.9676 107.779C52.9154 107.672 52.9509 107.543 53.0511 107.479C53.9675 106.899 54.3119 105.759 54.4403 105.054L49.8855 109.299C47.5591 114.199 40.7373 116.987 39.6185 117.416V117.414Z" fill="#070709"/>
<path d="M32.3176 126.418C25.7767 126.418 22.0224 123.177 21.9723 123.132C21.8763 123.046 21.868 122.9 21.9525 122.804C22.0381 122.708 22.1842 122.699 22.2802 122.784C22.346 122.843 29.0278 128.589 40.1476 124.463C40.2676 124.418 40.4012 124.479 40.4461 124.599C40.491 124.72 40.4294 124.853 40.3094 124.898C37.3212 126.006 34.643 126.417 32.3176 126.417V126.418Z" fill="#070709"/>
<path d="M36.3318 117.567C30.6332 117.567 27.3152 114.322 25.4981 111.461C23.3605 108.096 22.7917 104.521 22.7865 104.485C22.7667 104.358 22.8543 104.24 22.9806 104.22C23.109 104.2 23.2259 104.288 23.2457 104.414C23.2509 104.448 23.8083 107.941 25.8978 111.223C28.6814 115.596 32.7227 117.547 37.9089 117.019C38.0352 117.005 38.151 117.099 38.1636 117.227C38.1761 117.354 38.0832 117.469 37.9559 117.481C37.3943 117.539 36.8527 117.566 36.3318 117.566V117.567Z" fill="#070709"/>
<path d="M40.752 113.445C40.7405 113.445 40.729 113.445 40.7175 113.443C40.5902 113.424 40.5025 113.306 40.5213 113.179C41.5462 106.172 38.3399 102.208 38.3076 102.168C38.2262 102.069 38.2397 101.923 38.3378 101.84C38.437 101.758 38.5831 101.771 38.6645 101.87C38.8023 102.036 42.0378 106.022 40.9805 113.246C40.9638 113.362 40.8647 113.445 40.7509 113.445H40.752Z" fill="#070709"/>
<path d="M39.3033 93.7535C39.0851 92.2944 39.4348 88.4212 39.3711 88.5151C38.7459 89.4315 36.6877 88.3471 34.8351 88.274C32.9815 88.2009 33.6056 90.9845 33.6056 90.9845C33.6056 90.9845 33.0629 89.0954 31.9065 90.2779C31.2354 90.9637 31.9753 91.8498 32.6642 92.429C32.4753 92.6451 29.1364 96.2428 27.0918 98.3824L31.6267 101.825L33.8968 99.7037L33.4345 98.9658C33.1047 98.4398 33.0744 97.7791 33.3562 97.226L34.4667 95.3441C34.7214 95.652 35.0439 96.0048 35.3403 96.2125C35.9321 96.6248 36.6669 96.5611 37.1887 96.0633C37.9037 95.3807 38.4046 94.6135 38.6311 93.8683L39.3033 93.7535Z" fill="white"/>
<path d="M31.6268 102.056C31.5777 102.056 31.5276 102.041 31.4859 102.009L26.9509 98.5671C26.8977 98.5274 26.8653 98.4658 26.8601 98.4001C26.8549 98.3343 26.8778 98.2686 26.9238 98.2206C28.792 96.2657 31.6257 93.217 32.3334 92.4467C31.8939 92.0449 31.4389 91.498 31.4118 90.9386C31.3971 90.6307 31.5078 90.353 31.7405 90.1151C32.11 89.7372 32.4763 89.5911 32.8323 89.6809C33.0034 89.7237 33.1495 89.8186 33.2737 89.9366C33.2821 89.4419 33.376 88.8856 33.6944 88.5036C33.9657 88.1769 34.3519 88.0224 34.8445 88.0412C35.5438 88.0683 36.2765 88.2374 36.9236 88.3856C37.9694 88.6257 38.8722 88.8334 39.1801 88.3835C39.2386 88.2969 39.3503 88.2593 39.4494 88.2927C39.5712 88.3338 39.6129 88.6949 39.5747 89.3761C39.5089 90.5482 39.3868 92.7306 39.535 93.719C39.5538 93.8443 39.4692 93.9612 39.344 93.982L38.8107 94.0728C38.5529 94.8191 38.0508 95.5622 37.3505 96.2302C36.7472 96.8063 35.8862 96.8752 35.2088 96.4014C35.0021 96.2573 34.7652 96.035 34.5032 95.7407L33.5587 97.3428C33.3228 97.8083 33.3478 98.3865 33.6328 98.8405L34.0951 99.5784C34.1546 99.6724 34.1379 99.7955 34.0565 99.8717L31.7864 101.993C31.7416 102.034 31.6852 102.055 31.6278 102.055L31.6268 102.056ZM27.4394 98.3542L31.6111 101.521L33.5983 99.6651L33.2372 99.09C32.8656 98.4982 32.8323 97.7436 33.1495 97.1215L34.2663 95.2272C34.3049 95.1614 34.3728 95.1197 34.4479 95.1134C34.5231 95.1072 34.5972 95.1385 34.6452 95.1969C34.9677 95.5862 35.2464 95.8639 35.4729 96.0225C35.9718 96.3711 36.5823 96.321 37.028 95.8962C37.7127 95.2418 38.1907 94.5175 38.4088 93.8015C38.4349 93.7169 38.5059 93.6554 38.5925 93.6397L39.0455 93.5625C38.9349 92.4572 39.0465 90.4595 39.1092 89.3511C39.1154 89.231 39.1227 89.1121 39.1279 89.0045C38.5716 89.2425 37.7429 89.0526 36.8182 88.8396C36.1607 88.6883 35.4812 88.5328 34.8247 88.5067C34.4824 88.4931 34.2267 88.5902 34.0503 88.8021C33.6004 89.3427 33.7392 90.5242 33.8311 90.9344C33.8582 91.0565 33.7841 91.1786 33.662 91.2099C33.5409 91.2412 33.4157 91.1703 33.3812 91.0492C33.3207 90.8394 33.0671 90.2205 32.7164 90.1328C32.5337 90.0869 32.3167 90.1902 32.0714 90.4417C31.9305 90.5858 31.8658 90.7413 31.8741 90.9177C31.8919 91.2851 32.2259 91.7589 32.8124 92.2526C32.8604 92.2933 32.8897 92.3507 32.8949 92.4133C32.9001 92.476 32.8792 92.5375 32.8375 92.5845C32.6621 92.7838 29.5352 96.1561 27.4383 98.3563L27.4394 98.3542Z" fill="#070709"/>
<path d="M34.4667 95.5769C34.3947 95.5769 34.3227 95.5435 34.2778 95.4798L33.9229 94.9851C33.8478 94.8807 33.8718 94.7356 33.9762 94.6605C34.0805 94.5853 34.2256 94.6094 34.3008 94.7137L34.6556 95.2084C34.7308 95.3128 34.7068 95.4579 34.6024 95.533C34.5617 95.5623 34.5137 95.5769 34.4667 95.5769Z" fill="#070709"/>
<path d="M73.5434 168.379C73.4986 168.564 75.6716 178.505 75.6716 178.505L70.6784 177.669L69.1744 169.264L73.5445 168.379H73.5434Z" fill="white"/>
<path d="M75.6716 178.738C75.659 178.738 75.6465 178.738 75.6329 178.735L70.6398 177.899C70.5427 177.882 70.4666 177.807 70.4499 177.711L68.9459 169.306C68.9239 169.182 69.0043 169.062 69.1285 169.037L73.4986 168.152C73.5768 168.136 73.6572 168.161 73.7125 168.218C73.7574 168.265 73.7804 168.328 73.7772 168.392C73.8106 168.804 75.062 174.623 75.9001 178.457C75.9168 178.532 75.8949 178.612 75.8417 178.667C75.7979 178.714 75.7363 178.739 75.6737 178.739L75.6716 178.738ZM70.8778 177.467L75.371 178.219C73.8868 171.424 73.4672 169.325 73.3545 168.655L69.4427 169.447L70.8778 177.467Z" fill="#070709"/>
<path d="M73.0194 175.245C73.3252 174.988 73.7615 174.737 74.3178 174.713C75.1549 174.678 75.9178 175.202 76.2644 175.971C77.1306 177.896 79.4132 183.257 80.0593 187.639C80.2879 189.188 79.1189 190.448 77.2976 189.432C74.3136 187.769 70.1743 183.951 68.0065 178.312C67.7581 177.665 67.8468 176.933 68.2549 176.374C68.5889 175.918 69.0408 175.366 69.5668 174.894C70.0688 174.444 70.8245 174.438 71.3453 174.866L71.8139 175.252C72.1657 175.541 72.6708 175.537 73.0194 175.244V175.245Z" fill="white"/>
<path d="M78.5272 190.031C78.1608 190.031 77.7131 189.93 77.1839 189.634C74.0622 187.895 69.9541 184.029 67.7894 178.396C67.5087 177.666 67.613 176.858 68.0671 176.237C68.5054 175.638 68.9573 175.128 69.4114 174.722C70 174.195 70.8746 174.179 71.4925 174.687L71.9622 175.074C72.2252 175.291 72.6072 175.288 72.8702 175.066C73.3002 174.705 73.7971 174.503 74.3074 174.481C75.2092 174.442 76.0828 175.003 76.4763 175.875C77.4083 177.946 79.645 183.234 80.289 187.604C80.4205 188.498 80.1241 189.314 79.5156 189.735C79.3162 189.872 78.9864 190.031 78.5282 190.031H78.5272ZM70.4686 174.782C70.2004 174.782 69.9353 174.878 69.7224 175.068C69.2924 175.454 68.8624 175.939 68.4428 176.512C68.0817 177.006 68.0003 177.647 68.2236 178.229C70.3444 183.746 74.3596 187.528 77.4104 189.229C78.1306 189.63 78.7839 189.673 79.2505 189.352C79.7128 189.032 79.9341 188.389 79.8287 187.672C79.1941 183.361 76.9762 178.119 76.0525 176.066C75.7373 175.365 75.0453 174.914 74.3283 174.945C73.915 174.963 73.5257 175.124 73.1698 175.422C72.7356 175.788 72.1041 175.792 71.6668 175.433L71.1972 175.046C70.9821 174.87 70.7244 174.782 70.4676 174.782H70.4686Z" fill="#070709"/>
<path d="M78.9227 188.286C78.5292 188.286 74.3189 188.04 69.213 177.949C69.1546 177.834 69.2005 177.694 69.3153 177.637C69.4301 177.579 69.57 177.624 69.6274 177.739C74.7447 187.853 78.8862 187.823 78.93 187.822C79.0647 187.816 79.1659 187.918 79.1711 188.046C79.1753 188.174 79.0751 188.282 78.9467 188.286C78.9415 188.286 78.9331 188.286 78.9227 188.286Z" fill="#070709"/>
<path d="M75.7269 182.731C75.634 182.731 75.5463 182.676 75.5109 182.584C75.4639 182.465 75.5223 182.329 75.6413 182.283L78.0085 181.348C78.1285 181.301 78.2631 181.36 78.3101 181.479C78.3571 181.598 78.2986 181.734 78.1796 181.78L75.8125 182.715C75.7843 182.726 75.7561 182.731 75.7269 182.731Z" fill="#070709"/>
<path d="M74.8971 180.917C74.8042 180.917 74.7165 180.861 74.68 180.769C74.633 180.649 74.6925 180.514 74.8126 180.469L77.5889 179.388C77.7089 179.341 77.8435 179.401 77.8894 179.521C77.9364 179.641 77.8769 179.775 77.7569 179.821L74.9806 180.902C74.9524 180.912 74.9242 180.917 74.8961 180.917H74.8971Z" fill="#070709"/>
<path d="M52.0554 169.282C51.9375 169.431 49.73 179.365 49.73 179.365L45.5499 176.508L47.7177 168.249L52.0554 169.282Z" fill="white"/>
<path d="M49.73 179.597C49.6841 179.597 49.6381 179.583 49.5985 179.556L45.4184 176.699C45.337 176.643 45.2994 176.543 45.3244 176.448L47.4922 168.189C47.5246 168.067 47.6478 167.993 47.7709 168.022L52.1086 169.056C52.1858 169.074 52.2485 169.131 52.2746 169.206C52.2954 169.267 52.2902 169.333 52.261 169.39C52.118 169.778 50.8081 175.583 49.9565 179.415C49.9398 179.491 49.8865 179.553 49.8145 179.581C49.7874 179.592 49.7582 179.598 49.7289 179.598L49.73 179.597ZM45.8171 176.407L49.5776 178.979C51.0878 172.19 51.5888 170.109 51.7673 169.452L47.8847 168.527L45.816 176.408L45.8171 176.407Z" fill="#070709"/>
<path d="M48.6946 175.292C49.0798 175.187 49.5818 175.144 50.0953 175.355C50.8697 175.675 51.3415 176.471 51.3331 177.315C51.3102 179.425 51.1286 185.249 49.8719 189.497C49.4284 190.998 47.8388 191.65 46.6124 189.963C44.6033 187.2 42.4522 181.996 42.8561 175.969C42.902 175.277 43.2903 174.651 43.8956 174.316C44.3903 174.042 45.0333 173.731 45.7075 173.525C46.3525 173.328 47.0403 173.64 47.3336 174.247L47.5977 174.794C47.796 175.204 48.2552 175.413 48.6946 175.293V175.292Z" fill="white"/>
<path d="M48.2218 191.193C47.7605 191.193 47.0789 191.001 46.4245 190.1C44.3225 187.209 42.2204 181.975 42.6243 175.954C42.6765 175.173 43.1097 174.485 43.7839 174.112C44.4331 173.753 45.0572 173.481 45.6407 173.302C46.3963 173.072 47.1968 173.426 47.5434 174.146L47.8074 174.693C47.9556 175 48.3032 175.158 48.634 175.068C49.1757 174.921 49.7122 174.946 50.185 175.141C51.0221 175.486 51.5773 176.362 51.5669 177.319C51.5418 179.59 51.3488 185.329 50.0963 189.564C49.8406 190.43 49.2279 191.046 48.4984 191.171C48.419 191.184 48.3272 191.194 48.2228 191.194L48.2218 191.193ZM46.1051 173.696C45.9966 173.696 45.8849 173.712 45.7763 173.745C45.2242 173.914 44.6293 174.174 44.0093 174.517C43.4739 174.814 43.1305 175.362 43.0888 175.984C42.6943 181.881 44.7483 187.001 46.8013 189.826C47.2856 190.492 47.8596 190.807 48.419 190.711C48.9722 190.616 49.444 190.124 49.6496 189.43C50.8853 185.251 51.0763 179.563 51.1014 177.311C51.1097 176.542 50.6703 175.842 50.0076 175.569C49.6245 175.412 49.2039 175.394 48.7562 175.515C48.2082 175.664 47.6342 175.402 47.3889 174.893L47.1248 174.346C46.9286 173.939 46.5299 173.696 46.1051 173.696Z" fill="#070709"/>
<path d="M48.6811 189.633C48.6508 189.633 48.6205 189.627 48.5913 189.616C48.4243 189.546 44.5062 187.766 44.1044 176.146C44.1002 176.017 44.2004 175.91 44.3288 175.905C44.454 175.902 44.5647 176.001 44.5688 176.13C44.9613 187.456 48.7333 189.172 48.7719 189.188C48.8898 189.238 48.9462 189.374 48.8961 189.493C48.8585 189.581 48.7729 189.635 48.6821 189.635L48.6811 189.633Z" fill="#070709"/>
<path d="M50.6433 183.391C50.6433 183.391 50.6339 183.391 50.6298 183.391L48.0894 183.244C47.961 183.237 47.8629 183.127 47.8712 182.999C47.8785 182.87 47.986 182.773 48.1165 182.78L50.6569 182.928C50.7853 182.935 50.8834 183.044 50.875 183.173C50.8677 183.296 50.7655 183.392 50.6433 183.392V183.391Z" fill="#070709"/>
<path d="M51.0858 181.436C51.0858 181.436 51.0764 181.436 51.0711 181.436L48.0976 181.249C47.9692 181.241 47.8722 181.131 47.8805 181.003C47.8889 180.875 48.0005 180.778 48.1268 180.786L51.1004 180.973C51.2287 180.981 51.3258 181.091 51.3175 181.219C51.3102 181.342 51.2079 181.437 51.0858 181.437V181.436Z" fill="#070709"/>
<path d="M28.6992 130.127C28.6992 130.127 59.1068 128.808 62.431 131.894C66.9399 136.081 74.6864 170.941 74.6864 170.941L67.2071 173.037C67.2071 173.037 55.937 144.429 53.1451 144.429C50.3531 144.429 24.0254 143.49 24.0254 143.49L28.6981 130.127H28.6992Z" fill="#070709"/>
<path d="M26.6889 129.366C24.2852 129.243 22.1372 130.848 21.5715 133.188C20.6959 136.812 19.9371 141.768 21.8982 143.087C25.0899 145.234 48.0934 145.051 47.295 144.783C46.4976 144.515 45.2378 164.06 45.2378 171.576L52.4802 171.856C52.4802 171.856 64.0226 141.629 62.7785 138.253C60.5523 132.215 43.4186 130.831 37.936 130.025C37.1991 129.916 30.9462 129.584 26.6878 129.366H26.6889Z" fill="#070709"/>
<path d="M58.9543 154.885C58.9303 154.885 58.9074 154.882 58.8834 154.873C58.7613 154.834 58.6934 154.703 58.7331 154.581C58.994 153.768 59.2529 152.969 59.5054 152.185C61.5323 145.922 63.2826 140.513 62.5583 138.325C61.0199 133.682 49.5129 131.901 45.7315 131.317C45.6042 131.297 45.5175 131.178 45.5374 131.052C45.5572 130.924 45.6762 130.838 45.8025 130.858C52.4854 131.892 61.5396 133.775 62.9988 138.179C63.7711 140.511 62.0834 145.725 59.9469 152.328C59.6933 153.111 59.4345 153.91 59.1746 154.722C59.1433 154.82 59.0514 154.884 58.9533 154.884L58.9543 154.885Z" fill="white"/>
<path d="M125.56 145.485L129.09 181.629L131.61 181.524L130.358 143.526L125.56 145.485Z" fill="white"/>
<path d="M129.09 181.862C128.971 181.862 128.871 181.771 128.858 181.652L125.328 145.508C125.318 145.406 125.376 145.309 125.471 145.27L130.268 143.311C130.338 143.282 130.419 143.29 130.482 143.331C130.546 143.373 130.586 143.443 130.588 143.519L131.839 181.515C131.843 181.643 131.744 181.75 131.617 181.755L129.098 181.861C129.098 181.861 129.092 181.861 129.089 181.861L129.09 181.862ZM125.809 145.634L129.3 181.387L131.368 181.3L130.136 143.867L125.809 145.634Z" fill="#070709"/>
<path d="M172.907 144.185L169.463 181.719L166.859 181.524L168.11 142.156L172.907 144.185Z" fill="white"/>
<path d="M169.463 181.952C169.457 181.952 169.452 181.952 169.445 181.952L166.841 181.756C166.717 181.747 166.622 181.642 166.626 181.517L167.878 142.149C167.88 142.073 167.92 142.002 167.985 141.961C168.05 141.919 168.13 141.913 168.201 141.942L172.998 143.971C173.091 144.01 173.148 144.105 173.139 144.206L169.695 181.74C169.683 181.86 169.583 181.951 169.463 181.951V181.952ZM167.098 181.308L169.252 181.469L172.66 144.332L168.332 142.501L167.098 181.308Z" fill="#070709"/>
<path d="M184.899 135.353L183.885 174.765L181.851 174.325L179.987 133.478L184.899 135.353Z" fill="white"/>
<path d="M183.885 174.998C183.868 174.998 183.852 174.996 183.836 174.993L181.803 174.553C181.7 174.531 181.624 174.441 181.62 174.337L179.755 133.49C179.752 133.411 179.788 133.336 179.851 133.29C179.915 133.244 179.997 133.234 180.07 133.261L184.982 135.136C185.074 135.171 185.135 135.26 185.131 135.359L184.118 174.773C184.116 174.842 184.083 174.906 184.029 174.949C183.987 174.982 183.937 174.999 183.885 174.999V174.998ZM182.075 174.136L183.66 174.48L184.662 135.511L180.235 133.823L182.075 174.137V174.136Z" fill="#070709"/>
<path d="M145.164 134.471L144.151 173.885L142.038 173.896L140.253 132.597L145.164 134.471Z" fill="white"/>
<path d="M142.038 174.129C141.914 174.129 141.812 174.031 141.807 173.907L140.021 132.608C140.018 132.53 140.053 132.455 140.117 132.409C140.181 132.364 140.263 132.353 140.336 132.381L145.248 134.256C145.34 134.291 145.4 134.38 145.397 134.479L144.384 173.893C144.38 174.018 144.278 174.118 144.153 174.12L142.04 174.131H142.039L142.038 174.129ZM140.5 132.94L142.261 173.662L143.924 173.653L144.927 134.629L140.5 132.94Z" fill="#070709"/>
<path d="M155.373 103.69V112.861C155.373 121.829 148.3 129.101 139.573 129.101C130.847 129.101 123.773 136.371 123.773 145.341C123.773 146.141 124.42 146.788 125.218 146.788H167.041C180.122 146.788 190.727 135.888 190.727 122.442V102.874C190.727 97.5264 186.509 93.1908 181.306 93.1908H165.588C159.946 93.1908 155.373 97.8917 155.373 103.69Z" fill="white"/>
<path d="M167.042 147.02H125.219C124.294 147.02 123.543 146.266 123.543 145.34C123.543 136.258 130.735 128.868 139.575 128.868C148.415 128.868 155.142 121.687 155.142 112.861V103.69C155.142 97.7718 159.828 92.9581 165.589 92.9581H181.307C186.63 92.9581 190.96 97.4065 190.96 102.873V122.441C190.96 135.994 180.231 147.02 167.042 147.02ZM165.588 93.4226C160.083 93.4226 155.606 98.0285 155.606 103.69V112.861C155.606 121.943 148.413 129.333 139.573 129.333C130.733 129.333 124.006 136.513 124.006 145.34C124.006 146.01 124.55 146.555 125.218 146.555H167.041C179.973 146.555 190.494 135.738 190.494 122.442V102.874C190.494 97.6632 186.372 93.4236 181.306 93.4236H165.588V93.4226Z" fill="#070709"/>
<path d="M152.388 104.122C152.388 104.122 150.108 124.846 134.799 126.203L152.388 126.453C152.388 126.453 158.901 113.242 159.165 108.097C159.429 102.953 152.388 104.122 152.388 104.122Z" fill="white"/>
<path d="M152.388 126.685H152.385L134.796 126.434C134.672 126.432 134.572 126.334 134.568 126.211C134.563 126.088 134.656 125.981 134.779 125.971C142.573 125.281 146.879 119.388 149.119 114.566C151.561 109.311 152.152 104.148 152.157 104.096C152.169 103.992 152.248 103.909 152.35 103.892C152.51 103.866 156.285 103.263 158.257 105.023C159.081 105.759 159.464 106.798 159.398 108.109C159.133 113.242 152.864 126.014 152.597 126.555C152.557 126.635 152.477 126.685 152.388 126.685ZM137.364 126.006L152.244 126.218C152.921 124.826 158.688 112.85 158.933 108.085C158.993 106.921 158.662 106.008 157.947 105.37C156.363 103.956 153.344 104.232 152.597 104.327C152.468 105.293 151.759 109.984 149.546 114.751C146.711 120.859 142.533 124.704 137.365 126.006H137.364Z" fill="#070709"/>
<path d="M174.176 90.9501C171.206 90.2508 169.967 90.2414 159.172 90.6328C156.534 90.7289 153.395 94.0437 153.085 96.6686C153.924 99.1861 157.794 111.618 151.037 121.331C150.078 122.708 148.776 124.22 146.986 125.669C147.991 126.483 149.553 127.543 151.651 128.166C155.134 129.201 156.885 128.082 159.692 128.166C167.117 128.387 169.839 136.666 174.635 135.626C175.915 135.349 177.613 134.349 179.203 130.994C180.105 128.213 180.908 124.947 181.354 121.257C182.566 111.251 180.584 102.921 178.813 97.6925C178.287 96.0424 177.676 91.7736 174.176 90.9501Z" fill="#070709"/>
<path d="M150.377 106.444C150.377 106.444 152.123 92.43 157.154 91.2339L155.998 109.668L150.377 106.444Z" fill="#070709"/>
<path d="M175.946 102.703C178.244 103.677 180.943 104.825 183.32 105.846C183.32 105.876 183.32 105.904 183.322 105.935L175.948 102.752L175.946 102.702V102.703Z" fill="white"/>
<path d="M183.322 106.167C183.29 106.167 183.259 106.161 183.23 106.149L175.857 102.966C175.776 102.931 175.721 102.853 175.717 102.764L175.715 102.714C175.711 102.633 175.748 102.557 175.814 102.512C175.88 102.466 175.964 102.458 176.038 102.489C178.845 103.679 181.395 104.766 183.412 105.633C183.496 105.669 183.55 105.75 183.553 105.841L183.555 105.931C183.556 106.01 183.518 106.084 183.452 106.128C183.413 106.154 183.368 106.167 183.323 106.167H183.322Z" fill="#070709"/>
<path d="M184.609 109.013C184.609 109.013 184.117 100.688 183.398 97.4712C181.887 90.7048 173.127 90.6338 173.127 90.6338L174.657 107.856L184.607 109.013H184.609Z" fill="#070709"/>
<path d="M165.586 89.4858L165.289 85.2754C165.088 85.2619 164.949 85.2525 164.908 85.2525C163.735 85.2389 163.354 84.8579 163.253 83.8936C163.189 83.2903 163.168 82.3937 163.462 81.2728C163.493 81.1528 163.486 81.0254 163.438 80.9117L163.237 80.4409C163.196 80.2865 163.249 80.1205 163.373 80.0193L163.48 79.9316C163.863 79.6174 164.181 79.2313 164.436 78.8023C164.67 78.4078 165.069 77.6688 165.343 77.5373C166.114 77.1689 169.241 75.5302 170.99 78.3932C172.353 80.6246 170.126 83.6973 169.316 84.7035C169.121 84.9467 170.637 89.7175 170.637 89.7175L172.6 90.1924C172.6 90.1924 171.086 92.8841 166.489 91.7705C163.215 90.9783 163.734 89.7582 163.734 89.7582L165.587 89.4847L165.586 89.4858Z" fill="white"/>
<path d="M168.607 92.2766C167.971 92.2766 167.248 92.1941 166.432 91.9969C164.879 91.6211 163.923 91.0941 163.591 90.4323C163.382 90.0159 163.505 89.7017 163.519 89.6673C163.55 89.5932 163.619 89.54 163.699 89.5285L165.338 89.2863L165.071 85.4924C164.987 85.4872 164.929 85.4841 164.905 85.483C163.65 85.4684 163.139 85.0436 163.021 83.9164C162.926 83.0105 162.997 82.1254 163.236 81.2122C163.255 81.1401 163.251 81.065 163.223 81.0013L163.022 80.5306C163.018 80.5202 163.015 80.5108 163.012 80.5003C162.946 80.2572 163.03 79.9973 163.224 79.8376L163.33 79.7499C163.678 79.465 163.982 79.1049 164.234 78.6811L164.338 78.5027C164.68 77.9171 164.963 77.4589 165.24 77.3254L165.323 77.2857C168.019 75.9821 169.991 76.3129 171.186 78.2699C172.572 80.54 170.517 83.5668 169.528 84.8067C169.527 85.2085 170.166 87.4619 170.817 89.5212L172.652 89.9648C172.723 89.9815 172.781 90.0316 172.81 90.0984C172.84 90.1652 172.835 90.2413 172.8 90.305C172.746 90.401 171.65 92.2745 168.606 92.2745L168.607 92.2766ZM163.936 89.9637C163.938 90.0326 163.956 90.1297 164.018 90.2445C164.177 90.5409 164.716 91.1024 166.542 91.5449C170.052 92.3945 171.689 90.9532 172.206 90.3374L170.582 89.9449C170.503 89.9261 170.44 89.8667 170.415 89.7894C168.86 84.8996 169.045 84.67 169.133 84.5594C170.048 83.4227 172.038 80.5588 170.79 78.5152C169.208 75.9257 166.436 77.2669 165.525 77.7073L165.442 77.7481C165.271 77.8305 164.913 78.4442 164.74 78.7396L164.634 78.9222C164.354 79.3919 164.015 79.7927 163.626 80.1121L163.519 80.1997C163.47 80.2405 163.446 80.3072 163.458 80.3688L163.651 80.8208C163.719 80.9794 163.731 81.16 163.686 81.3311C163.462 82.1891 163.395 83.0199 163.484 83.8684C163.566 84.6533 163.792 85.0061 164.91 85.0186C164.953 85.0186 165.096 85.028 165.304 85.0426C165.42 85.0509 165.512 85.1428 165.52 85.2586L165.816 89.469C165.825 89.5901 165.739 89.6976 165.618 89.7153L163.934 89.9637H163.936Z" fill="#070709"/>
<path d="M170.025 74.7535C169.177 74.5708 168.202 74.7013 167.791 74.5499C167.127 74.3057 167.11 73.5104 166.191 73.286C165.079 73.0157 164.616 73.4906 164.182 74.1523C164.11 74.2629 164.046 74.3861 163.994 74.5259C163.296 76.4015 164.178 77.3168 164.57 77.6143C164.57 77.6143 167.07 78.9075 167.498 79.2769C167.899 79.6224 168.36 80.4407 168.07 81.617C168.032 81.7683 168.098 81.9259 168.226 82.0042C168.377 82.095 168.571 82.0522 168.674 81.9019C168.999 81.4301 169.709 80.5179 170.215 80.734C170.849 81.0053 170.652 82.9101 169.251 83.1303C168.821 83.1982 168.472 83.6386 168.514 84.0895C168.543 84.3839 168.819 84.7408 169.23 84.8347C169.482 84.8921 169.729 84.7909 169.951 84.649C170.865 84.0645 173.443 81.5877 173.763 79.3667C174.149 76.6917 171.153 74.9967 170.025 74.7535Z" fill="#070709"/>
<path d="M164.973 85.4653C164.849 85.4653 164.746 85.3672 164.741 85.242C164.736 85.1136 164.836 85.0061 164.965 85.0009C164.974 85.0009 165.87 84.9591 166.481 84.4393C166.579 84.3559 166.726 84.3684 166.809 84.4654C166.893 84.5636 166.88 84.7097 166.783 84.7932C166.047 85.4194 165.026 85.4632 164.984 85.4653C164.98 85.4653 164.977 85.4653 164.975 85.4653H164.973Z" fill="#070709"/>
<path d="M144.925 169.949C144.497 169.516 142.026 161.816 142.026 161.816L137.141 165.305L142.497 172.511L144.926 169.948L144.925 169.949Z" fill="white"/>
<path d="M142.496 172.744C142.496 172.744 142.486 172.744 142.482 172.744C142.413 172.74 142.35 172.705 142.309 172.651L136.953 165.445C136.916 165.395 136.901 165.333 136.911 165.271C136.92 165.209 136.954 165.154 137.006 165.118L141.89 161.628C141.951 161.586 142.028 161.573 142.098 161.597C142.169 161.62 142.223 161.676 142.246 161.746C143.183 164.667 144.785 169.431 145.092 169.788C145.17 169.879 145.176 170.023 145.093 170.11L142.664 172.673C142.62 172.719 142.558 172.745 142.494 172.745L142.496 172.744ZM137.468 165.357L142.517 172.15L144.635 169.916C144.056 168.809 142.432 163.831 141.902 162.189L137.469 165.356L137.468 165.357Z" fill="#070709"/>
<path d="M136.123 179.684L139.372 179.665C141.521 179.652 143.52 178.559 144.693 176.755L147.905 171.664C148.792 170.257 148.297 168.393 146.828 167.611C145.487 166.898 144.083 166.203 143.753 166.234C143.085 166.298 142.815 169.464 142.815 169.464L139.921 169.575C139.921 169.575 138.491 175.528 137.233 176.204C136.317 176.697 135.677 177.421 135.246 178.082C134.795 178.774 135.298 179.689 136.123 179.685V179.684Z" fill="#070709"/>
<path d="M136.448 178.646C136.336 178.646 136.236 178.564 136.219 178.448C136.2 178.321 136.287 178.203 136.414 178.184L140.858 177.514C141.789 177.373 142.601 176.829 143.084 176.019L147.011 169.452C147.077 169.342 147.22 169.306 147.329 169.372C147.44 169.438 147.475 169.581 147.409 169.69L143.483 176.257C142.928 177.186 141.996 177.811 140.927 177.972L136.483 178.642C136.471 178.644 136.46 178.645 136.448 178.645V178.646Z" fill="white"/>
<path d="M141.934 173.707C141.914 173.707 141.893 173.704 141.873 173.699L139.397 173.024C139.273 172.99 139.2 172.862 139.234 172.739C139.267 172.615 139.395 172.542 139.519 172.576L141.995 173.251C142.119 173.285 142.192 173.413 142.157 173.536C142.129 173.64 142.035 173.707 141.933 173.707H141.934Z" fill="white"/>
<path d="M140.644 174.98C140.625 174.98 140.608 174.978 140.589 174.973L138.929 174.566C138.804 174.536 138.728 174.41 138.759 174.286C138.789 174.16 138.917 174.084 139.04 174.115L140.699 174.522C140.825 174.553 140.901 174.679 140.869 174.803C140.843 174.91 140.748 174.981 140.644 174.981V174.98Z" fill="white"/>
<path d="M128.257 168.479L122.586 174.184L119.58 173.079L124.808 165.78L128.257 168.479Z" fill="white"/>
<path d="M122.586 174.417C122.558 174.417 122.531 174.413 122.505 174.403L119.498 173.297C119.43 173.272 119.378 173.217 119.356 173.147C119.335 173.078 119.347 173.002 119.39 172.943L124.618 165.645C124.654 165.594 124.711 165.559 124.773 165.55C124.836 165.54 124.9 165.558 124.95 165.597L128.399 168.296C128.451 168.336 128.484 168.398 128.488 168.465C128.492 168.532 128.468 168.596 128.421 168.643L122.749 174.348C122.705 174.393 122.645 174.417 122.585 174.417H122.586ZM119.946 172.966L122.526 173.915L127.907 168.501L124.855 166.113L119.945 172.966H119.946Z" fill="#070709"/>
<path d="M158.278 126.363C158.278 126.363 132.358 123.182 124.65 130.217C116.942 137.25 136.817 167.497 136.817 167.497L143.102 162.583L137.14 141.205L161.1 134.031L158.277 126.363H158.278Z" fill="white"/>
<path d="M136.817 167.73C136.804 167.73 136.792 167.73 136.779 167.727C136.715 167.716 136.658 167.68 136.623 167.625C135.806 166.383 116.729 137.131 124.493 130.045C132.192 123.02 157.243 126.003 158.306 126.134C158.392 126.144 158.465 126.202 158.496 126.284L161.319 133.952C161.341 134.013 161.338 134.079 161.309 134.137C161.279 134.194 161.229 134.237 161.168 134.256L137.426 141.363L143.326 162.523C143.351 162.614 143.32 162.711 143.246 162.768L136.961 167.682C136.92 167.714 136.869 167.731 136.818 167.731L136.817 167.73ZM145.498 125.891C137.823 125.891 128.79 126.754 124.808 130.389C117.667 136.906 135.13 164.452 136.874 167.159L142.837 162.498L136.917 141.268C136.882 141.146 136.952 141.02 137.074 140.984L160.797 133.881L158.108 126.579C157.177 126.473 151.794 125.892 145.498 125.892V125.891Z" fill="#070709"/>
<path d="M172.542 140.285C168.777 141.545 162.04 143.173 152.625 143.039C149.95 143 147.479 144.558 146.264 147.072C143.476 152.838 137.439 163.22 127.606 169.949L122.91 167.281L134.896 138.836C135.991 136.239 138.037 134.22 140.568 133.241L164.323 124.058C164.323 124.058 171.688 121.887 175.3 128.819C175.945 130.057 177.142 127.844 177.428 128.843C178.406 132.268 175.776 139.202 172.542 140.284V140.285Z" fill="white"/>
<path d="M127.606 170.181C127.566 170.181 127.527 170.17 127.491 170.15L122.795 167.483C122.693 167.424 122.65 167.299 122.696 167.19L134.682 138.746C135.795 136.105 137.909 134.021 140.484 133.025L164.239 123.842C164.332 123.813 171.849 121.693 175.506 128.713C175.582 128.86 175.666 128.945 175.756 128.967C175.942 129.015 176.225 128.825 176.474 128.658C176.771 128.459 177.052 128.27 177.325 128.37C177.481 128.427 177.591 128.564 177.652 128.779C178.647 132.262 175.995 139.375 172.617 140.505C168.627 141.84 161.919 143.404 152.623 143.269C152.59 143.269 152.559 143.269 152.527 143.269C149.955 143.269 147.642 144.758 146.475 147.172C143.735 152.836 137.659 163.352 127.739 170.14C127.7 170.167 127.654 170.181 127.608 170.181H127.606ZM123.205 167.181L127.594 169.674C137.354 162.945 143.346 152.569 146.055 146.969C147.298 144.401 149.877 142.767 152.628 142.806C161.859 142.94 168.512 141.389 172.468 140.065C175.589 139.02 178.129 132.15 177.203 128.908C177.179 128.824 177.156 128.804 177.156 128.804C177.092 128.796 176.867 128.954 176.732 129.045C176.402 129.266 176.028 129.516 175.639 129.418C175.416 129.362 175.233 129.196 175.093 128.928C171.614 122.25 164.681 124.195 164.387 124.282L140.651 133.46C138.193 134.409 136.174 136.403 135.11 138.927L123.205 167.181Z" fill="#070709"/>
<path d="M124.378 173.292C124.378 173.292 124.652 175.719 124.187 177.863C123.939 179.006 122.91 179.81 121.742 179.81H107.823C106.829 179.81 106.378 178.567 107.14 177.927C109.614 175.851 114.167 172.681 119.764 171.751L121.326 173.939L124.378 173.292Z" fill="#070709"/>
<path d="M122.91 178.127H108.485C108.357 178.127 108.252 178.022 108.252 177.894C108.252 177.765 108.357 177.661 108.485 177.661H122.91C123.039 177.661 123.143 177.765 123.143 177.894C123.143 178.022 123.039 178.127 122.91 178.127Z" fill="white"/>
<path d="M116.534 175.561C116.442 175.561 116.356 175.507 116.319 175.417L115.555 173.562C115.506 173.443 115.562 173.308 115.681 173.259C115.799 173.209 115.936 173.266 115.985 173.385L116.749 175.24C116.798 175.359 116.742 175.494 116.623 175.543C116.594 175.555 116.564 175.561 116.534 175.561Z" fill="white"/>
<path d="M114.023 176.048C113.925 176.048 113.834 175.987 113.802 175.889L113.25 174.216C113.209 174.094 113.276 173.962 113.398 173.922C113.52 173.882 113.651 173.948 113.691 174.071L114.243 175.744C114.284 175.866 114.217 175.997 114.095 176.037C114.071 176.045 114.046 176.048 114.022 176.048H114.023Z" fill="white"/>
<path d="M177.238 107.4C174.711 116.608 167.202 122.483 156.315 125.575L157.976 128.678C173.106 128.146 181.04 121.571 184.212 108.951L177.238 107.399V107.4Z" fill="white"/>
<path d="M157.976 128.911C157.89 128.911 157.811 128.864 157.771 128.788L156.111 125.685C156.077 125.623 156.074 125.549 156.101 125.484C156.129 125.42 156.184 125.371 156.252 125.352C167.635 122.117 174.621 116.058 177.013 107.338C177.046 107.218 177.167 107.146 177.288 107.173L184.262 108.725C184.323 108.739 184.377 108.777 184.409 108.83C184.442 108.883 184.452 108.948 184.436 109.008C181.154 122.067 172.749 128.392 157.983 128.911C157.98 128.911 157.978 128.911 157.975 128.911H157.976ZM156.657 125.719L158.113 128.441C172.463 127.897 180.673 121.755 183.928 109.126L177.403 107.674C174.93 116.376 167.953 122.445 156.657 125.719Z" fill="#070709"/>
<path d="M158.9 125.321C158.745 125.019 158.487 124.781 158.169 124.666C157.942 124.585 157.717 124.476 157.503 124.362L154.54 122.791C153.985 122.519 153.192 123.153 152.615 123.342C150.877 123.913 147.277 125.258 147.573 126.522C147.894 127.885 150.987 127.24 152.085 126.965C152.337 126.903 154.609 127.726 155.328 127.781C156.321 127.856 156.55 127.603 157.036 127.348C157.257 127.233 157.503 127.179 157.771 127.178C158.181 127.175 158.57 127.004 158.826 126.685L158.832 126.677C159.114 126.325 159.164 125.839 158.958 125.436L158.9 125.323V125.321Z" fill="white"/>
<path d="M155.654 128.025C155.549 128.025 155.436 128.021 155.311 128.011C154.915 127.981 154.139 127.751 153.391 127.529C152.884 127.378 152.25 127.187 152.122 127.194C150.975 127.483 148.866 127.883 147.874 127.279C147.595 127.108 147.419 126.873 147.349 126.575C147.035 125.235 150.001 123.957 152.545 123.121C152.7 123.07 152.883 122.978 153.076 122.881C153.58 122.628 154.151 122.341 154.644 122.582L157.614 124.157C157.86 124.287 158.063 124.38 158.25 124.447C158.618 124.58 158.924 124.852 159.108 125.214L159.167 125.328C159.414 125.811 159.355 126.397 159.016 126.819C158.716 127.193 158.266 127.405 157.776 127.408C157.534 127.41 157.328 127.457 157.147 127.552C157.073 127.591 157.005 127.63 156.939 127.668C156.619 127.851 156.315 128.024 155.656 128.024L155.654 128.025ZM152.121 126.729C152.303 126.729 152.646 126.822 153.523 127.082C154.214 127.288 154.998 127.521 155.346 127.547C156.11 127.604 156.359 127.462 156.705 127.264C156.776 127.223 156.848 127.181 156.928 127.14C157.173 127.011 157.456 126.945 157.77 126.942C158.121 126.94 158.439 126.792 158.645 126.535C158.876 126.247 158.915 125.859 158.752 125.539L158.693 125.425C158.562 125.168 158.348 124.976 158.091 124.883C157.882 124.808 157.661 124.708 157.395 124.566L154.432 122.994C154.153 122.857 153.691 123.09 153.283 123.295C153.075 123.399 152.877 123.498 152.689 123.561C149.499 124.609 147.626 125.722 147.801 126.467C147.842 126.64 147.944 126.774 148.115 126.879C148.726 127.251 150.189 127.198 152.03 126.737C152.056 126.731 152.086 126.726 152.122 126.726L152.121 126.729Z" fill="#070709"/>
<path d="M48.2428 129.476H164.645C166.814 129.476 168.5 130.902 168.253 132.531L160.216 185.857H154.412L159.443 135.809C159.532 134.927 158.608 134.174 157.438 134.174H57.5172C55.7659 134.174 54.385 135.301 54.5176 136.62L59.4992 186.17H53.6951L45.5197 131.78C45.335 130.552 46.6062 129.477 48.2417 129.477L48.2428 129.476Z" fill="white"/>
<path d="M59.4993 186.402H53.6952C53.5804 186.402 53.4822 186.317 53.4655 186.204L45.2901 131.813C45.2087 131.269 45.3778 130.72 45.7671 130.267C46.3192 129.626 47.244 129.243 48.2417 129.243H164.644C165.946 129.243 167.15 129.741 167.868 130.575C168.37 131.158 168.589 131.865 168.483 132.565L160.444 185.892C160.428 186.005 160.33 186.089 160.215 186.089H154.411C154.345 186.089 154.282 186.061 154.238 186.013C154.195 185.964 154.173 185.899 154.18 185.833L159.212 135.785C159.247 135.43 159.076 135.159 158.927 134.993C158.595 134.625 158.038 134.406 157.437 134.406H57.5162C56.5863 134.406 55.7221 134.748 55.2033 135.321C54.86 135.701 54.7024 136.142 54.7483 136.595L59.7299 186.145C59.7362 186.211 59.7153 186.276 59.6715 186.325C59.6277 186.374 59.565 186.401 59.4993 186.401V186.402ZM53.8956 185.938H59.2425L54.287 136.643C54.2285 136.063 54.432 135.483 54.86 135.01C55.4653 134.341 56.4589 133.942 57.5183 133.942H157.44C158.169 133.942 158.855 134.218 159.273 134.682C159.574 135.015 159.717 135.423 159.676 135.832L154.671 185.624H160.018L168.026 132.496C168.113 131.924 167.936 131.365 167.519 130.878C166.888 130.146 165.815 129.708 164.647 129.708H48.2428C47.3786 129.708 46.5854 130.031 46.1199 130.57C45.8151 130.924 45.6878 131.33 45.7494 131.745L53.8945 185.936L53.8956 185.938Z" fill="#070709"/>
<path d="M144.861 127.769L138.606 109.334C138.231 108.756 137.578 108.406 136.875 108.406H120.202C119.445 108.406 118.959 109.141 119.205 109.79C119.303 110.048 119.41 110.303 119.495 110.566L125.149 127.804H125.151C125.169 128.812 125.989 129.623 127.001 129.623H157.769C158.791 129.623 159.62 128.793 159.62 127.77H144.862L144.861 127.769Z" fill="white"/>
<path d="M157.768 129.855H126.999C125.887 129.855 124.962 128.959 124.919 127.851L119.274 110.638C119.214 110.456 119.142 110.271 119.072 110.093L118.987 109.873C118.843 109.496 118.897 109.068 119.131 108.73C119.374 108.377 119.764 108.174 120.202 108.174H136.875C137.661 108.174 138.38 108.561 138.801 109.209C138.811 109.225 138.82 109.242 138.826 109.261L145.028 127.539H159.62C159.748 127.539 159.853 127.643 159.853 127.771C159.853 128.921 158.918 129.857 157.769 129.857L157.768 129.855ZM125.36 127.703C125.373 127.733 125.382 127.764 125.382 127.798C125.397 128.676 126.123 129.39 126.998 129.39H157.767C158.58 129.39 159.257 128.786 159.369 128.002H144.86C144.76 128.002 144.672 127.938 144.639 127.844L138.394 109.437C138.058 108.936 137.491 108.639 136.873 108.639H120.2C119.918 108.639 119.667 108.768 119.512 108.994C119.365 109.207 119.331 109.474 119.42 109.708L119.504 109.924C119.576 110.108 119.65 110.298 119.713 110.493L125.358 127.703H125.36Z" fill="#070709"/>
<path d="M132.467 117.855C132.702 118.636 132.343 119.435 131.665 119.64C130.986 119.844 130.246 119.378 130.012 118.597C129.777 117.816 130.136 117.017 130.814 116.812C131.493 116.608 132.233 117.074 132.467 117.855Z" fill="#070709"/>
<path d="M44.5302 128.072H78.3414V128.365C78.3414 129.205 77.6598 129.887 76.8196 129.887H46.0519C45.2117 129.887 44.5302 129.205 44.5302 128.365V128.072Z" fill="white"/>
<path d="M76.8186 130.12H46.0509C45.0834 130.12 44.2964 129.333 44.2964 128.365V128.072C44.2964 127.943 44.4008 127.839 44.5291 127.839H78.3403C78.4687 127.839 78.5731 127.943 78.5731 128.072V128.365C78.5731 129.333 77.7861 130.12 76.8186 130.12ZM44.7619 128.304V128.365C44.7619 129.076 45.3401 129.654 46.0509 129.654H76.8186C77.5294 129.654 78.1076 129.076 78.1076 128.365V128.304H44.7619Z" fill="#070709"/>
<path d="M78.3414 128.104H58.9951L65.1416 110.01C65.509 109.444 66.1498 109.101 66.8387 109.101H83.1926C83.9347 109.101 84.4128 109.821 84.1706 110.457C84.0746 110.709 83.9702 110.96 83.8857 111.217L78.3404 128.105L78.3414 128.104Z" fill="white"/>
<path d="M78.3414 128.337H58.9951C58.92 128.337 58.85 128.3 58.8062 128.24C58.7624 128.179 58.7509 128.101 58.7749 128.03L64.9213 109.936C64.9276 109.918 64.9359 109.901 64.9464 109.884C65.3597 109.248 66.0673 108.868 66.8386 108.868H83.1937C83.6237 108.868 84.0078 109.068 84.2478 109.415C84.4774 109.748 84.5296 110.169 84.3887 110.539L84.3052 110.755C84.2374 110.93 84.1664 111.11 84.108 111.289L78.5627 128.177C78.5314 128.272 78.4427 128.337 78.3414 128.337ZM59.3186 127.871H78.1723L83.6654 111.144C83.7281 110.954 83.8011 110.767 83.871 110.586L83.9535 110.373C84.0401 110.146 84.0067 109.886 83.8648 109.678C83.7134 109.458 83.4692 109.333 83.1937 109.333H66.8386C66.2343 109.333 65.6801 109.624 65.3513 110.113L59.3186 127.87V127.871Z" fill="#070709"/>
<path d="M71.1617 118.358C70.9311 119.123 71.2838 119.906 71.9487 120.106C72.6135 120.306 73.34 119.849 73.5706 119.084C73.8013 118.319 73.4485 117.536 72.7836 117.336C72.1188 117.136 71.3924 117.593 71.1617 118.358Z" fill="#070709"/>
<path d="M184.618 187.033H152.937C151.035 187.033 149.613 185.288 149.996 183.425L154.802 160.061C155.206 158.095 156.935 156.685 158.941 156.685H186.116L184.617 187.033H184.618Z" fill="white"/>
<path d="M184.618 187.265H152.937C151.96 187.265 151.046 186.831 150.429 186.074C149.812 185.318 149.571 184.334 149.767 183.378L154.573 160.014C154.998 157.95 156.834 156.454 158.94 156.454H186.114C186.178 156.454 186.239 156.48 186.283 156.526C186.326 156.572 186.349 156.634 186.346 156.698L184.847 187.046C184.841 187.17 184.739 187.267 184.616 187.267L184.618 187.265ZM158.941 156.918C157.054 156.918 155.409 158.259 155.029 160.108L150.223 183.472C150.055 184.292 150.261 185.133 150.79 185.781C151.318 186.429 152.101 186.801 152.938 186.801H184.398L185.873 156.918H158.943H158.941Z" fill="#070709"/>
<path d="M188.674 187.033H182.526C180.625 187.033 179.202 185.288 179.585 183.425L184.879 157.69C184.999 157.105 185.514 156.685 186.111 156.685H187.693C188.348 156.685 188.894 157.188 188.947 157.842L191.113 184.388C191.229 185.812 190.104 187.033 188.675 187.033H188.674Z" fill="white"/>
<path d="M188.674 187.265H182.526C181.549 187.265 180.636 186.831 180.018 186.074C179.401 185.318 179.16 184.334 179.357 183.378L184.65 157.644C184.792 156.954 185.406 156.453 186.11 156.453H187.692C188.462 156.453 189.115 157.055 189.178 157.822L191.344 184.368C191.404 185.111 191.149 185.853 190.643 186.401C190.137 186.95 189.42 187.264 188.674 187.264V187.265ZM186.111 156.918C185.627 156.918 185.203 157.263 185.106 157.737L179.813 183.472C179.645 184.292 179.85 185.133 180.379 185.781C180.907 186.429 181.69 186.801 182.526 186.801H188.674C189.3 186.801 189.877 186.547 190.302 186.087C190.726 185.627 190.931 185.03 190.88 184.406L188.715 157.861C188.672 157.332 188.222 156.918 187.692 156.918H186.11H186.111Z" fill="#070709"/>
<path d="M180.301 169.183H155.496C155.368 169.183 155.263 169.078 155.263 168.95C155.263 168.822 155.368 168.717 155.496 168.717H180.301C180.931 168.717 181.473 168.289 181.618 167.676L183.805 158.445C183.834 158.32 183.959 158.243 184.084 158.273C184.21 158.302 184.287 158.427 184.257 158.553L182.07 167.783C181.875 168.607 181.147 169.183 180.3 169.183H180.301Z" fill="#070709"/>
<path d="M170.727 168.95L170.032 171.752C169.919 172.226 169.496 172.561 169.009 172.561H164.096C163.562 172.561 163.174 172.051 163.318 171.536L164.037 168.95H170.727Z" fill="white"/>
<path d="M169.01 172.794H164.097C163.77 172.794 163.467 172.644 163.269 172.383C163.07 172.122 163.007 171.79 163.094 171.474L163.813 168.887C163.842 168.787 163.933 168.717 164.038 168.717H170.728C170.8 168.717 170.867 168.751 170.911 168.806C170.955 168.862 170.97 168.935 170.953 169.005L170.258 171.808C170.121 172.387 169.607 172.793 169.01 172.793V172.794ZM164.214 169.183L163.542 171.599C163.493 171.774 163.528 171.957 163.638 172.102C163.748 172.247 163.915 172.33 164.096 172.33H169.009C169.39 172.33 169.718 172.071 169.806 171.699L170.431 169.183H164.214Z" fill="#070709"/>
<path d="M178.037 184.918H151.686C151.557 184.918 151.453 184.813 151.453 184.685C151.453 184.557 151.557 184.452 151.686 184.452H178.037C178.166 184.452 178.27 184.557 178.27 184.685C178.27 184.813 178.166 184.918 178.037 184.918Z" fill="#070709"/>
<path d="M165.201 155.625H163.144C162.589 155.625 162.138 156.076 162.138 156.631H166.208C166.208 156.076 165.757 155.625 165.201 155.625Z" fill="#070709"/>
<path d="M166.208 156.864H162.138C162.01 156.864 161.906 156.759 161.906 156.631C161.906 155.949 162.461 155.392 163.144 155.392H165.202C165.884 155.392 166.44 155.947 166.44 156.631C166.44 156.759 166.336 156.864 166.208 156.864ZM162.407 156.398H165.939C165.84 156.085 165.547 155.857 165.202 155.857H163.144C162.799 155.857 162.506 156.084 162.407 156.398Z" fill="#070709"/>
<path d="M181.687 155.625H179.63C179.075 155.625 178.624 156.076 178.624 156.631H182.693C182.693 156.076 182.242 155.625 181.687 155.625Z" fill="#070709"/>
<path d="M182.693 156.864H178.624C178.495 156.864 178.391 156.759 178.391 156.631C178.391 155.949 178.946 155.392 179.63 155.392H181.687C182.37 155.392 182.926 155.947 182.926 156.631C182.926 156.759 182.822 156.864 182.693 156.864ZM178.892 156.398H182.425C182.326 156.085 182.033 155.857 181.687 155.857H179.63C179.284 155.857 178.991 156.084 178.892 156.398Z" fill="#070709"/>
<path d="M181.15 155.571L181.482 153.602C181.716 152.206 180.775 151.074 179.378 151.074H167.044C165.647 151.074 164.325 152.207 164.09 153.602L163.758 155.571H164.702L164.959 154.038C165.142 152.952 166.171 152.071 167.259 152.071H178.826C179.913 152.071 180.646 152.952 180.463 154.038L180.205 155.571H181.149H181.15Z" fill="white"/>
<path d="M181.15 155.803H180.206C180.137 155.803 180.072 155.773 180.029 155.721C179.985 155.669 179.966 155.6 179.976 155.532L180.234 154C180.312 153.537 180.206 153.107 179.936 152.787C179.672 152.475 179.278 152.303 178.827 152.303H167.26C166.283 152.303 165.355 153.098 165.19 154.077L164.932 155.609C164.913 155.721 164.816 155.803 164.703 155.803H163.758C163.689 155.803 163.624 155.773 163.581 155.721C163.537 155.669 163.518 155.6 163.528 155.532L163.86 153.564C164.113 152.063 165.541 150.842 167.044 150.842H179.378C180.116 150.842 180.766 151.13 181.208 151.651C181.658 152.184 181.836 152.89 181.71 153.641L181.378 155.609C181.359 155.721 181.262 155.803 181.148 155.803H181.15ZM180.481 155.338H180.953L181.252 153.563C181.355 152.949 181.213 152.377 180.853 151.951C180.501 151.535 179.977 151.305 179.378 151.305H167.044C165.758 151.305 164.536 152.352 164.32 153.64L164.034 155.338H164.506L164.732 154C164.932 152.808 166.067 151.838 167.26 151.838H178.827C179.417 151.838 179.937 152.069 180.291 152.487C180.651 152.913 180.794 153.478 180.692 154.077L180.481 155.338Z" fill="#070709"/>
<path d="M178.766 150.258H167.931C167.495 150.258 167.08 150.612 167.007 151.048L166.847 151.995C166.774 152.431 167.069 152.785 167.505 152.785H178.34C178.776 152.785 179.19 152.431 179.263 151.995L179.423 151.048C179.496 150.612 179.202 150.258 178.766 150.258Z" fill="#070709"/>
<path d="M178.341 153.019H167.506C167.227 153.019 166.981 152.909 166.812 152.709C166.641 152.506 166.572 152.239 166.62 151.957L166.78 151.011C166.872 150.458 167.379 150.026 167.933 150.026H178.768C179.046 150.026 179.293 150.136 179.462 150.336C179.633 150.539 179.702 150.806 179.654 151.088L179.494 152.034C179.401 152.587 178.895 153.019 178.341 153.019ZM167.931 150.491C167.608 150.491 167.291 150.764 167.237 151.088L167.077 152.034C167.053 152.18 167.084 152.312 167.166 152.409C167.245 152.503 167.365 152.554 167.505 152.554H178.34C178.662 152.554 178.98 152.281 179.034 151.957L179.194 151.011C179.218 150.866 179.186 150.733 179.105 150.636C179.026 150.542 178.905 150.491 178.766 150.491H167.931Z" fill="#070709"/>
<path d="M182.468 184.918C182.387 184.918 182.308 184.876 182.265 184.801C182.202 184.689 182.24 184.547 182.352 184.484L186.482 182.131V158.499C186.482 158.371 186.586 158.267 186.715 158.267C186.843 158.267 186.947 158.371 186.947 158.499V182.267C186.947 182.35 186.903 182.428 186.831 182.469L182.584 184.889C182.547 184.91 182.507 184.919 182.469 184.919L182.468 184.918Z" fill="#070709"/>
</g>
<g style="mix-blend-mode:darken">
<path d="M121.368 86.6088C115.916 86.6088 110.581 87.114 105.408 88.0786C104.276 94.5114 103.652 101.118 103.652 107.875C103.652 162.892 142.804 208.755 194.764 219.147C203.12 205.829 207.952 190.077 207.952 173.195C207.952 125.377 169.186 86.6111 121.368 86.6111V86.6088Z" fill="#EC6371"/>
</g>
<defs>
<clipPath id="clip0_3029_24504">
<rect width="191.217" height="191" fill="white" transform="translate(0.135742 0.192383)"/>
</clipPath>
</defs>
</svg>
