<svg width="209" height="220" viewBox="0 0 209 220" fill="none" xmlns="http://www.w3.org/2000/svg">
<path d="M51.3942 37.7703C51.3438 37.7704 51.2942 37.757 51.2506 37.7315C51.2071 37.706 51.1711 37.6694 51.1465 37.6253C51.1219 37.5812 51.1095 37.5314 51.1107 37.4809C51.1118 37.4305 51.1264 37.3812 51.153 37.3383L67.6465 10.5193C67.6717 10.478 67.7072 10.4438 67.7494 10.4201C67.7917 10.3965 67.8393 10.3841 67.8877 10.3842C67.9363 10.3842 67.984 10.3968 68.0263 10.4207C68.0686 10.4446 68.1039 10.479 68.129 10.5206L83.9051 36.6235C83.944 36.6878 83.9557 36.765 83.9377 36.8379C83.9197 36.9109 83.8735 36.9737 83.8092 37.0125C83.7448 37.0514 83.6677 37.0631 83.5948 37.0451C83.5218 37.0271 83.459 36.9808 83.4202 36.9165L67.8865 11.2127L51.6355 37.6351C51.6102 37.6764 51.5747 37.7105 51.5325 37.7342C51.4902 37.7578 51.4427 37.7702 51.3942 37.7703Z" fill="#070709"/>
<path d="M68.4611 52.6889H67.4508C59.8469 52.6889 51.3879 46.6687 51.3879 39.0648H84.3749C84.3813 46.6687 76.0651 52.6889 68.4611 52.6889Z" fill="white"/>
<path d="M68.4612 52.9731H67.4508C59.8924 52.9731 51.1051 46.8973 51.1051 39.0647C51.1049 39.0275 51.1121 38.9906 51.1263 38.9561C51.1404 38.9216 51.1612 38.8903 51.1875 38.8639C51.2138 38.8375 51.245 38.8165 51.2794 38.8022C51.3138 38.7879 51.3507 38.7806 51.388 38.7806H84.375C84.4123 38.7806 84.4491 38.7879 84.4835 38.8022C84.5179 38.8165 84.5492 38.8375 84.5755 38.8639C84.6018 38.8903 84.6226 38.9216 84.6367 38.9561C84.6509 38.9906 84.6581 39.0275 84.6579 39.0647C84.6579 42.7133 82.8065 46.2229 79.4446 48.9482C76.2962 51.5056 72.2865 52.9731 68.4612 52.9731ZM51.6822 39.3527C51.8919 46.7293 60.2523 52.4111 67.4572 52.4111H68.4675C72.1147 52.4111 76.0904 50.9537 79.0999 48.5125C82.2394 45.969 84.0062 42.7259 84.0997 39.3527H51.6822Z" fill="#070709"/>
<path d="M85.2349 36.3394H49.9671C49.4091 36.3394 48.9568 36.7918 48.9568 37.3497V38.9145C48.9568 39.4725 49.4091 39.9248 49.9671 39.9248H85.2349C85.7929 39.9248 86.2452 39.4725 86.2452 38.9145V37.3497C86.2452 36.7918 85.7929 36.3394 85.2349 36.3394Z" fill="white"/>
<path d="M85.235 40.2089H49.9672C49.797 40.2091 49.6285 40.1758 49.4712 40.1108C49.3139 40.0458 49.171 39.9505 49.0506 39.8303C48.9301 39.7101 48.8346 39.5674 48.7693 39.4102C48.704 39.2531 48.6703 39.0846 48.6702 38.9145V37.3497C48.6708 37.0067 48.8075 36.678 49.0501 36.4356C49.2928 36.1932 49.6216 36.0569 49.9646 36.0565H85.2325C85.5754 36.0569 85.9043 36.1932 86.147 36.4356C86.3896 36.678 86.5263 37.0067 86.5269 37.3497V38.9145C86.5266 39.2572 86.3904 39.5859 86.1483 39.8285C85.9062 40.0712 85.5778 40.2079 85.235 40.2089ZM49.9672 36.6236C49.7746 36.6239 49.5899 36.7005 49.4536 36.8365C49.3173 36.9726 49.2404 37.1571 49.2397 37.3497V38.9145C49.2401 39.1073 49.3168 39.2921 49.4532 39.4285C49.5895 39.5648 49.7743 39.6416 49.9672 39.6419H85.235C85.4276 39.6412 85.6121 39.5643 85.7482 39.428C85.8842 39.2917 85.9608 39.1071 85.9612 38.9145V37.3497C85.9608 37.1572 85.8842 36.9727 85.7481 36.8366C85.612 36.7005 85.4275 36.6239 85.235 36.6236H49.9672Z" fill="#070709"/>
<path d="M106.132 128.712H100.702L102.335 4.32611C103.438 4.32611 104.339 5.12679 104.355 6.12322L106.132 128.712Z" fill="white"/>
<path d="M106.132 128.996H100.702C100.664 128.996 100.627 128.988 100.592 128.974C100.558 128.959 100.526 128.938 100.5 128.911C100.473 128.885 100.453 128.853 100.439 128.819C100.425 128.784 100.418 128.747 100.419 128.709L102.051 4.3223C102.052 4.24759 102.082 4.17629 102.135 4.12381C102.188 4.07134 102.26 4.04192 102.335 4.04193C103.588 4.04193 104.619 4.97395 104.637 6.11941L106.419 128.708C106.42 128.746 106.413 128.783 106.399 128.818C106.385 128.853 106.364 128.885 106.338 128.911C106.312 128.938 106.28 128.959 106.245 128.974C106.211 128.989 106.174 128.996 106.136 128.996H106.132ZM100.986 128.429H105.844L104.066 6.12698C104.055 5.36924 103.425 4.74789 102.61 4.62918L100.986 128.429Z" fill="#070709"/>
<path d="M135.398 25.1729L135.831 22.908L65.9477 9.53906L65.5144 11.8041L135.398 25.1729Z" fill="white"/>
<path d="M135.399 25.4608C135.381 25.4626 135.363 25.4626 135.346 25.4608L65.4668 12.0816C65.393 12.0675 65.3278 12.0248 65.2855 11.9628C65.2431 11.9008 65.227 11.8245 65.2407 11.7507L65.6739 9.48505C65.6808 9.44862 65.6949 9.41391 65.7152 9.38292C65.7356 9.35192 65.7619 9.32526 65.7926 9.30446C65.8551 9.26207 65.9318 9.24618 66.006 9.26026L135.889 22.6293C135.925 22.6362 135.96 22.6502 135.992 22.6706C136.023 22.691 136.05 22.7174 136.071 22.7483C136.092 22.7792 136.107 22.8139 136.114 22.8505C136.122 22.8871 136.122 22.9248 136.115 22.9615L135.684 25.2259C135.672 25.2926 135.637 25.353 135.585 25.3961C135.533 25.4391 135.466 25.4621 135.399 25.4608ZM65.8456 11.5777L135.179 24.8382L135.506 23.1307L66.1791 9.87024L65.8456 11.5777Z" fill="#070709"/>
<path d="M67.5733 13.5655C68.9236 13.5655 70.0182 12.4708 70.0182 11.1205C70.0182 9.77019 68.9236 8.67554 67.5733 8.67554C66.2229 8.67554 65.1283 9.77019 65.1283 11.1205C65.1283 12.4708 66.2229 13.5655 67.5733 13.5655Z" fill="white"/>
<path d="M67.5733 13.8484C67.0334 13.8486 66.5056 13.6888 66.0566 13.389C65.6076 13.0892 65.2576 12.663 65.0509 12.1642C64.8442 11.6655 64.79 11.1167 64.8953 10.5872C65.0005 10.0576 65.2605 9.57123 65.6422 9.18948C66.024 8.80773 66.5104 8.54778 67.0399 8.44252C67.5694 8.33725 68.1183 8.3914 68.617 8.59812C69.1157 8.80484 69.542 9.15484 69.8417 9.60383C70.1415 10.0528 70.3014 10.5807 70.3012 11.1205C70.3002 11.8437 70.0124 12.537 69.5011 13.0483C68.9897 13.5597 68.2965 13.8474 67.5733 13.8484ZM67.5733 8.95844C67.1456 8.95819 66.7275 9.08479 66.3718 9.32221C66.016 9.55963 65.7387 9.89722 65.5749 10.2923C65.411 10.6873 65.368 11.1221 65.4513 11.5416C65.5346 11.961 65.7404 12.3464 66.0428 12.6489C66.3451 12.9514 66.7303 13.1575 67.1498 13.241C67.5692 13.3245 68.004 13.2818 68.3991 13.1182C68.7943 12.9546 69.132 12.6774 69.3697 12.3219C69.6073 11.9663 69.7341 11.5482 69.7341 11.1205C69.7334 10.5475 69.5056 9.99818 69.1006 9.59289C68.6955 9.1876 68.1463 8.95944 67.5733 8.95844Z" fill="#070709"/>
<path d="M108.162 19.8204C108.805 17.1456 107.158 14.4564 104.483 13.8137C101.808 13.1711 99.1188 14.8184 98.4761 17.4932C97.8335 20.1679 99.4808 22.8572 102.156 23.4999C104.83 24.1425 107.52 22.4951 108.162 19.8204Z" fill="white"/>
<path d="M103.33 23.9288C102.289 23.9291 101.27 23.6205 100.404 23.0421C99.5385 22.4637 98.8634 21.6415 98.4647 20.6795C98.0661 19.7175 97.9616 18.6588 98.1646 17.6374C98.3676 16.616 98.869 15.6777 99.6052 14.9413C100.342 14.2048 101.28 13.7033 102.301 13.5C103.322 13.2967 104.381 13.4009 105.343 13.7994C106.305 14.1979 107.128 14.8727 107.706 15.7386C108.285 16.6044 108.594 17.6224 108.594 18.6638C108.592 20.0595 108.037 21.3977 107.051 22.3848C106.064 23.3719 104.726 23.9272 103.33 23.9288ZM103.33 13.9658C102.401 13.9655 101.492 14.2409 100.719 14.7569C99.9467 15.273 99.3444 16.0066 98.9886 16.8651C98.6329 17.7235 98.5396 18.6681 98.7208 19.5795C98.9019 20.4909 99.3492 21.3282 100.006 21.9853C100.663 22.6425 101.5 23.09 102.412 23.2714C103.323 23.4528 104.268 23.3598 105.126 23.0043C105.985 22.6487 106.719 22.0466 107.235 21.274C107.751 20.5014 108.027 19.593 108.027 18.6638C108.025 17.4189 107.529 16.2255 106.649 15.3454C105.768 14.4652 104.575 13.97 103.33 13.9683V13.9658Z" fill="#070709"/>
<path d="M117.585 50.9904C117.533 50.9901 117.482 50.9757 117.438 50.9487C117.406 50.9293 117.378 50.9038 117.356 50.8736C117.334 50.8435 117.318 50.8093 117.31 50.773C117.301 50.7367 117.3 50.6991 117.306 50.6623C117.311 50.6255 117.325 50.5902 117.344 50.5584L133.838 23.7394C133.863 23.6981 133.898 23.6639 133.941 23.6402C133.983 23.6166 134.031 23.6042 134.079 23.6043C134.127 23.6043 134.175 23.6169 134.217 23.6408C134.26 23.6647 134.295 23.6991 134.32 23.7407L150.096 49.8436C150.135 49.9079 150.147 49.9851 150.129 50.058C150.111 50.1309 150.065 50.1938 150 50.2326C149.936 50.2715 149.859 50.2832 149.786 50.2652C149.713 50.2472 149.65 50.2009 149.611 50.1366L134.078 24.4328L117.828 50.8552C117.802 50.8966 117.767 50.9308 117.724 50.9544C117.682 50.9781 117.634 50.9904 117.585 50.9904Z" fill="#070709"/>
<path d="M134.652 65.909H133.648C126.044 65.909 117.585 59.8887 117.585 52.2848H150.572C150.572 59.8887 142.251 65.909 134.652 65.909Z" fill="white"/>
<path d="M134.652 66.1931H133.648C126.09 66.1931 117.303 60.1173 117.303 52.2848C117.302 52.2475 117.31 52.2106 117.324 52.1761C117.338 52.1416 117.359 52.1103 117.385 52.0839C117.411 52.0575 117.443 52.0366 117.477 52.0223C117.511 52.008 117.548 52.0006 117.586 52.0006H150.573C150.61 52.0006 150.647 52.008 150.681 52.0223C150.715 52.0366 150.747 52.0575 150.773 52.0839C150.799 52.1103 150.82 52.1416 150.834 52.1761C150.848 52.2106 150.856 52.2475 150.855 52.2848C150.855 55.9333 149.004 59.4429 145.642 62.1682C142.487 64.7256 138.483 66.1931 134.652 66.1931ZM117.877 52.5677C118.087 59.9443 126.447 65.6261 133.652 65.6261H134.656C138.303 65.6261 142.279 64.1687 145.29 61.7287C148.428 59.184 150.195 55.9409 150.288 52.5677H117.877Z" fill="#070709"/>
<path d="M151.426 49.5594H116.158C115.6 49.5594 115.148 50.0118 115.148 50.5698V52.1345C115.148 52.6925 115.6 53.1448 116.158 53.1448H151.426C151.984 53.1448 152.437 52.6925 152.437 52.1345V50.5698C152.437 50.0118 151.984 49.5594 151.426 49.5594Z" fill="white"/>
<path d="M151.426 53.429H116.158C115.815 53.4286 115.486 53.2921 115.244 53.0495C115.001 52.8068 114.864 52.4777 114.864 52.1345V50.5698C114.865 50.2268 115.001 49.898 115.244 49.6556C115.487 49.4132 115.815 49.2769 116.158 49.2766H151.426C151.769 49.2769 152.098 49.4132 152.341 49.6556C152.583 49.898 152.72 50.2268 152.721 50.5698V52.1345C152.72 52.4777 152.584 52.8068 152.341 53.0495C152.099 53.2921 151.77 53.4286 151.426 53.429ZM116.158 49.8436C115.966 49.8439 115.781 49.9205 115.645 50.0566C115.509 50.1927 115.432 50.3772 115.431 50.5698V52.1345C115.431 52.3273 115.508 52.5122 115.644 52.6485C115.781 52.7848 115.966 52.8616 116.158 52.8619H151.426C151.619 52.8616 151.804 52.7848 151.94 52.6485C152.077 52.5122 152.153 52.3273 152.154 52.1345V50.5698C152.153 50.3772 152.076 50.1927 151.94 50.0566C151.804 49.9205 151.619 49.8439 151.426 49.8436H116.158Z" fill="#070709"/>
<path d="M134.752 26.4395C136.102 26.4395 137.197 25.3449 137.197 23.9945C137.197 22.6442 136.102 21.5496 134.752 21.5496C133.402 21.5496 132.307 22.6442 132.307 23.9945C132.307 25.3449 133.402 26.4395 134.752 26.4395Z" fill="white"/>
<path d="M134.752 26.7237C134.212 26.724 133.685 26.5641 133.236 26.2644C132.787 25.9647 132.437 25.5385 132.23 25.0398C132.023 24.5412 131.969 23.9924 132.074 23.4629C132.179 22.9334 132.439 22.447 132.821 22.0652C133.202 21.6834 133.689 21.4234 134.218 21.318C134.747 21.2126 135.296 21.2665 135.795 21.4731C136.294 21.6796 136.72 22.0294 137.02 22.4782C137.32 22.9271 137.48 23.4548 137.48 23.9946C137.479 24.7179 137.191 25.4113 136.68 25.9228C136.169 26.4344 135.475 26.7224 134.752 26.7237ZM134.752 21.8325C134.324 21.8322 133.906 21.9588 133.551 22.1963C133.195 22.4337 132.918 22.7713 132.754 23.1663C132.59 23.5614 132.547 23.9961 132.63 24.4156C132.713 24.8351 132.919 25.2205 133.222 25.523C133.524 25.8255 133.909 26.0315 134.329 26.115C134.748 26.1986 135.183 26.1558 135.578 25.9922C135.973 25.8286 136.311 25.5515 136.548 25.1959C136.786 24.8403 136.913 24.4223 136.913 23.9946C136.912 23.4216 136.684 22.8722 136.279 22.4669C135.874 22.0616 135.325 21.8335 134.752 21.8325Z" fill="#070709"/>
<path d="M137.114 95.6895V108.14C137.114 120.316 127.499 130.187 115.644 130.187C103.79 130.187 94.175 140.058 94.175 152.235C94.175 152.756 94.382 153.255 94.7502 153.623C95.1185 153.992 95.618 154.199 96.1389 154.199H152.983C170.764 154.199 185.177 139.401 185.177 121.147V94.582C185.177 87.3215 179.444 81.4364 172.373 81.4364H150.997C143.33 81.4364 137.114 87.8179 137.114 95.6895Z" fill="white"/>
<path d="M152.972 154.483H96.1276C95.5318 154.482 94.9607 154.244 94.5396 153.823C94.1184 153.402 93.8815 152.83 93.8809 152.235C93.8809 139.921 103.642 129.904 115.639 129.904C127.324 129.904 136.83 120.141 136.83 108.14V95.6895C136.83 87.6739 143.186 81.1522 150.997 81.1522H172.361C179.578 81.1522 185.449 87.1763 185.449 94.5819V121.147C185.449 139.529 170.88 154.483 152.972 154.483ZM150.997 81.7193C143.498 81.7193 137.397 87.9858 137.397 95.6895V108.14C137.397 120.454 127.637 130.471 115.639 130.471C103.954 130.471 94.4479 140.233 94.4479 152.235C94.4482 152.68 94.6253 153.107 94.9402 153.422C95.255 153.738 95.6821 153.915 96.1276 153.916H152.972C170.568 153.916 184.882 139.215 184.882 121.147V94.5819C184.882 87.4895 179.266 81.7193 172.361 81.7193H150.997Z" fill="#070709"/>
<path d="M143.671 131.762H138.519V191.74H143.671V131.762Z" fill="white"/>
<path d="M143.671 192.024H138.519C138.444 192.024 138.372 191.994 138.319 191.941C138.266 191.888 138.236 191.816 138.236 191.741V131.762C138.236 131.687 138.266 131.615 138.319 131.562C138.372 131.509 138.444 131.479 138.519 131.479H143.671C143.708 131.479 143.745 131.486 143.779 131.5C143.814 131.514 143.845 131.535 143.872 131.561C143.898 131.588 143.919 131.619 143.933 131.653C143.948 131.688 143.955 131.725 143.955 131.762V191.741C143.955 191.778 143.948 191.815 143.933 191.849C143.919 191.884 143.898 191.915 143.872 191.941C143.845 191.968 143.814 191.988 143.779 192.003C143.745 192.017 143.708 192.024 143.671 192.024ZM138.803 191.457H143.388V132.05H138.803V191.457Z" fill="#070709"/>
<path d="M116.952 193.687L139.749 191.685H141.84L165.114 193.687V195.274H116.952V193.687Z" fill="white"/>
<path d="M165.11 195.557H116.952C116.877 195.557 116.805 195.527 116.752 195.474C116.699 195.421 116.669 195.349 116.669 195.274V193.687C116.668 193.617 116.694 193.549 116.741 193.497C116.787 193.445 116.852 193.412 116.921 193.404L139.726 191.406H141.841L165.139 193.409C165.21 193.415 165.276 193.447 165.324 193.5C165.372 193.552 165.399 193.621 165.399 193.692V195.279C165.398 195.317 165.39 195.353 165.375 195.388C165.361 195.422 165.339 195.453 165.312 195.478C165.285 195.504 165.254 195.525 165.219 195.538C165.184 195.552 165.147 195.558 165.11 195.557ZM117.232 194.99H164.827V193.947L141.812 191.967H139.746L117.232 193.945V194.99Z" fill="#070709"/>
<path d="M125.569 183.22C125.04 182.686 121.985 173.184 121.985 173.184L115.95 177.49L122.568 186.384L125.569 183.22Z" fill="white"/>
<path d="M122.568 186.668H122.55C122.509 186.665 122.469 186.654 122.433 186.634C122.396 186.615 122.365 186.587 122.34 186.554L115.723 177.661C115.7 177.63 115.684 177.596 115.675 177.559C115.666 177.523 115.664 177.485 115.67 177.448C115.676 177.41 115.689 177.375 115.708 177.342C115.728 177.31 115.754 177.282 115.785 177.26L121.821 172.954C121.858 172.928 121.9 172.911 121.944 172.905C121.988 172.898 122.033 172.902 122.075 172.916C122.117 172.93 122.156 172.954 122.187 172.985C122.218 173.017 122.242 173.056 122.256 173.098C123.415 176.703 125.394 182.586 125.773 183.026C125.82 183.08 125.847 183.149 125.847 183.221C125.847 183.293 125.82 183.363 125.773 183.417L122.772 186.574C122.746 186.603 122.715 186.626 122.679 186.642C122.644 186.658 122.606 186.667 122.568 186.668ZM116.35 177.553L122.594 185.944L125.215 183.182C124.5 181.821 122.488 175.663 121.835 173.64L116.35 177.553Z" fill="#070709"/>
<path d="M114.692 195.235L118.706 195.211C120.013 195.204 121.298 194.872 122.446 194.245C123.593 193.618 124.567 192.717 125.28 191.621L129.25 185.337C129.508 184.925 129.679 184.465 129.752 183.985C129.825 183.505 129.798 183.015 129.673 182.546C129.548 182.076 129.328 181.638 129.026 181.257C128.724 180.877 128.347 180.563 127.919 180.334C126.262 179.45 124.526 178.597 124.12 178.636C123.294 178.714 122.96 182.62 122.96 182.62L119.384 182.758C119.384 182.758 117.616 190.105 116.062 190.94C115.063 191.495 114.219 192.292 113.607 193.258C113.481 193.452 113.41 193.676 113.402 193.907C113.393 194.139 113.448 194.368 113.559 194.571C113.67 194.773 113.834 194.942 114.034 195.059C114.233 195.176 114.461 195.237 114.692 195.235Z" fill="#070709"/>
<path d="M115.099 193.951C115.027 193.952 114.957 193.925 114.904 193.877C114.85 193.828 114.818 193.761 114.813 193.689C114.807 193.617 114.83 193.546 114.875 193.49C114.921 193.434 114.986 193.397 115.057 193.388L120.548 192.56C121.115 192.476 121.657 192.267 122.133 191.947C122.609 191.628 123.008 191.207 123.301 190.714L128.153 182.609C128.173 182.577 128.198 182.549 128.228 182.527C128.258 182.505 128.292 182.489 128.328 182.48C128.364 182.471 128.401 182.469 128.438 182.474C128.475 182.48 128.511 182.492 128.542 182.511C128.574 182.531 128.602 182.556 128.624 182.586C128.647 182.616 128.663 182.65 128.672 182.686C128.681 182.722 128.682 182.759 128.677 182.796C128.672 182.833 128.659 182.869 128.64 182.9L123.789 191.006C123.452 191.57 122.994 192.053 122.448 192.419C121.902 192.785 121.282 193.024 120.632 193.121L115.141 193.948C115.127 193.95 115.113 193.951 115.099 193.951Z" fill="white"/>
<path d="M121.873 187.856C121.848 187.856 121.823 187.853 121.799 187.846L118.74 187.012C118.704 187.003 118.67 186.986 118.641 186.963C118.611 186.94 118.587 186.912 118.568 186.88C118.55 186.847 118.538 186.812 118.533 186.775C118.528 186.738 118.531 186.7 118.541 186.665C118.551 186.629 118.567 186.595 118.59 186.566C118.613 186.536 118.641 186.512 118.674 186.493C118.706 186.475 118.742 186.463 118.778 186.458C118.815 186.453 118.853 186.456 118.889 186.466L121.948 187.299C122.013 187.318 122.069 187.36 122.106 187.417C122.143 187.474 122.159 187.542 122.15 187.61C122.141 187.677 122.108 187.739 122.057 187.784C122.006 187.829 121.941 187.855 121.873 187.856Z" fill="white"/>
<path d="M120.277 189.427C120.254 189.427 120.232 189.425 120.21 189.42L118.159 188.914C118.086 188.897 118.023 188.851 117.984 188.786C117.945 188.722 117.933 188.645 117.95 188.572C117.968 188.499 118.014 188.436 118.078 188.397C118.143 188.358 118.22 188.346 118.293 188.364L120.344 188.869C120.41 188.886 120.469 188.927 120.508 188.984C120.547 189.04 120.564 189.11 120.555 189.178C120.547 189.246 120.515 189.31 120.463 189.356C120.412 189.402 120.346 189.428 120.277 189.428V189.427Z" fill="white"/>
<path d="M104.973 181.408L97.965 188.448L94.2509 187.084L100.711 178.076L104.973 181.408Z" fill="white"/>
<path d="M97.9651 188.733C97.9319 188.732 97.899 188.726 97.8678 188.715L94.1524 187.35C94.1114 187.335 94.0744 187.31 94.0444 187.279C94.0144 187.247 93.992 187.209 93.9792 187.167C93.9664 187.126 93.9633 187.081 93.9704 187.038C93.9774 186.995 93.9943 186.954 94.0198 186.919L100.48 177.911C100.502 177.88 100.53 177.854 100.563 177.834C100.596 177.814 100.632 177.801 100.67 177.796C100.708 177.791 100.746 177.793 100.783 177.803C100.82 177.812 100.855 177.829 100.885 177.853L105.148 181.184C105.18 181.209 105.205 181.24 105.224 181.276C105.242 181.311 105.253 181.35 105.256 181.39C105.258 181.43 105.252 181.47 105.238 181.507C105.225 181.545 105.203 181.579 105.175 181.607L98.1671 188.649C98.1406 188.676 98.1091 188.697 98.0744 188.711C98.0397 188.725 98.0026 188.733 97.9651 188.733ZM94.6979 186.947L97.8931 188.12L104.547 181.434L100.769 178.482L94.6979 186.947Z" fill="#070709"/>
<path d="M100.179 187.347C100.179 187.347 100.519 190.343 99.944 192.99C99.789 193.674 99.405 194.285 98.8557 194.721C98.3064 195.157 97.6246 195.393 96.9231 195.389H79.7237C79.4535 195.389 79.1899 195.306 78.9686 195.151C78.7473 194.997 78.5792 194.777 78.487 194.523C78.3948 194.269 78.3831 193.993 78.4534 193.732C78.5237 193.472 78.6727 193.239 78.88 193.066C81.9375 190.503 87.5638 186.592 94.4794 185.443L96.4091 188.143L100.179 187.347Z" fill="#070709"/>
<path d="M98.3653 193.311H80.542C80.5032 193.313 80.4642 193.308 80.4276 193.295C80.3909 193.282 80.3573 193.261 80.3289 193.235C80.3005 193.208 80.2779 193.176 80.2624 193.14C80.2469 193.104 80.2389 193.066 80.2389 193.027C80.2389 192.988 80.2469 192.95 80.2624 192.914C80.2779 192.878 80.3005 192.846 80.3289 192.82C80.3573 192.793 80.3909 192.773 80.4276 192.759C80.4642 192.746 80.5032 192.741 80.542 192.744H98.3653C98.4041 192.741 98.4431 192.746 98.4797 192.759C98.5164 192.773 98.55 192.793 98.5784 192.82C98.6068 192.846 98.6294 192.878 98.6449 192.914C98.6604 192.95 98.6684 192.988 98.6684 193.027C98.6684 193.066 98.6604 193.104 98.6449 193.14C98.6294 193.176 98.6068 193.208 98.5784 193.235C98.55 193.261 98.5164 193.282 98.4797 193.295C98.4431 193.308 98.4041 193.313 98.3653 193.311Z" fill="white"/>
<path d="M90.4875 190.143C90.4312 190.143 90.3762 190.127 90.3295 190.095C90.2827 190.064 90.2463 190.02 90.2248 189.968L89.2814 187.679C89.2672 187.645 89.2599 187.608 89.26 187.571C89.2601 187.534 89.2675 187.497 89.2818 187.462C89.2961 187.428 89.317 187.397 89.3434 187.371C89.3698 187.344 89.401 187.323 89.4355 187.309C89.4699 187.295 89.5067 187.288 89.544 187.288C89.5812 187.288 89.618 187.295 89.6524 187.31C89.6867 187.324 89.718 187.345 89.7442 187.371C89.7705 187.398 89.7913 187.429 89.8055 187.463L90.7489 189.752C90.7633 189.786 90.7708 189.823 90.7708 189.86C90.7709 189.898 90.7635 189.935 90.7492 189.969C90.7348 190.003 90.7138 190.035 90.6873 190.061C90.6608 190.087 90.6294 190.108 90.5948 190.122C90.5608 190.136 90.5243 190.143 90.4875 190.143Z" fill="white"/>
<path d="M87.3844 190.747C87.3248 190.747 87.2668 190.728 87.2185 190.693C87.1703 190.658 87.1342 190.609 87.1154 190.552L86.4334 188.488C86.4217 188.452 86.4171 188.415 86.4198 188.378C86.4225 188.341 86.4325 188.305 86.4493 188.271C86.466 188.238 86.4891 188.208 86.5172 188.184C86.5454 188.16 86.578 188.141 86.6134 188.13C86.6487 188.118 86.686 188.113 86.7231 188.116C86.7602 188.119 86.7964 188.129 86.8297 188.145C86.8629 188.162 86.8925 188.185 86.9169 188.213C86.9412 188.241 86.9597 188.274 86.9714 188.309L87.6546 190.374C87.6663 190.41 87.6709 190.447 87.6681 190.484C87.6653 190.521 87.6552 190.557 87.6385 190.59C87.6217 190.624 87.5985 190.653 87.5703 190.677C87.5421 190.702 87.5094 190.72 87.4741 190.732C87.4452 190.742 87.4149 190.747 87.3844 190.747Z" fill="white"/>
<path d="M142.068 132.137C142.068 132.137 110.04 128.407 100.519 136.652C90.9976 144.896 115.547 180.348 115.547 180.348L123.313 174.588L115.946 149.532L145.552 141.124L142.068 132.137Z" fill="#070709"/>
<path d="M159.694 148.454C155.042 149.93 146.718 151.838 135.083 151.68C133.462 151.656 131.868 152.086 130.479 152.921C129.09 153.756 127.962 154.963 127.224 156.406C123.777 163.165 116.319 175.333 104.168 183.22L98.359 180.094L113.17 146.754C113.84 145.247 114.805 143.89 116.009 142.764C117.212 141.637 118.63 140.764 120.178 140.197L149.532 129.433C149.532 129.433 158.632 126.89 163.095 135.015C163.892 136.465 165.369 133.878 165.725 135.043C166.938 139.058 163.69 147.186 159.694 148.454Z" fill="#070709"/>
<path d="M106.483 162.107C106.444 162.107 106.404 162.098 106.368 162.081C106.334 162.066 106.303 162.044 106.277 162.017C106.251 161.99 106.23 161.958 106.217 161.922C106.204 161.887 106.197 161.849 106.199 161.812C106.2 161.774 106.209 161.737 106.224 161.703L112.918 146.637C113.606 145.098 114.594 143.712 115.825 142.559C117.056 141.407 118.506 140.513 120.087 139.929L134.143 134.775C134.178 134.762 134.215 134.756 134.253 134.758C134.29 134.759 134.326 134.768 134.36 134.784C134.394 134.799 134.424 134.821 134.449 134.849C134.475 134.876 134.494 134.908 134.507 134.943C134.52 134.978 134.526 135.015 134.524 135.052C134.523 135.089 134.514 135.126 134.498 135.16C134.483 135.193 134.461 135.224 134.433 135.249C134.406 135.274 134.374 135.294 134.339 135.307L120.283 140.462C118.772 141.019 117.389 141.873 116.213 142.973C115.037 144.073 114.093 145.397 113.436 146.867L106.742 161.932C106.721 161.984 106.685 162.027 106.639 162.058C106.593 162.089 106.539 162.106 106.483 162.107Z" fill="white"/>
<path d="M114.298 175.055C114.243 175.055 114.189 175.039 114.142 175.008C114.096 174.977 114.06 174.934 114.038 174.883C114.016 174.832 114.01 174.775 114.02 174.721C114.03 174.666 114.055 174.616 114.094 174.575C115.43 173.186 116.746 171.693 118.009 170.139C118.057 170.085 118.125 170.052 118.197 170.046C118.27 170.041 118.342 170.063 118.398 170.109C118.455 170.155 118.491 170.22 118.501 170.292C118.51 170.364 118.492 170.437 118.449 170.496C117.186 172.062 115.857 173.568 114.509 174.968C114.482 174.997 114.449 175.019 114.413 175.034C114.377 175.049 114.337 175.056 114.298 175.055Z" fill="white"/>
<path d="M118.222 170.601C118.157 170.602 118.094 170.579 118.044 170.538C118.015 170.515 117.99 170.486 117.973 170.453C117.955 170.42 117.943 170.384 117.94 170.347C117.936 170.31 117.939 170.272 117.95 170.237C117.961 170.201 117.978 170.168 118.002 170.139C118.617 169.381 119.234 168.585 119.831 167.782C119.876 167.722 119.943 167.682 120.017 167.671C120.054 167.666 120.091 167.668 120.128 167.677C120.164 167.686 120.198 167.702 120.227 167.724C120.257 167.746 120.282 167.774 120.302 167.806C120.321 167.838 120.333 167.874 120.339 167.91C120.344 167.947 120.342 167.985 120.333 168.021C120.324 168.057 120.308 168.091 120.286 168.121C119.683 168.93 119.063 169.73 118.443 170.496C118.416 170.529 118.383 170.556 118.344 170.574C118.306 170.592 118.264 170.601 118.222 170.601Z" fill="white"/>
<path d="M161.712 90.0102C158.042 89.1477 156.512 89.1363 143.173 89.62C139.914 89.7375 136.035 93.8293 135.651 97.0711C136.688 100.178 141.471 115.521 133.125 127.507C131.719 129.52 130.033 131.323 128.119 132.862C129.82 134.256 131.779 135.303 133.883 135.943C138.187 137.221 140.352 135.84 143.82 135.943C152.993 136.217 156.358 146.434 162.283 145.151C163.866 144.809 165.962 143.575 167.928 139.435C169.198 135.524 170.086 131.499 170.581 127.416C172.077 115.067 169.628 104.785 167.44 98.3328C166.793 96.2957 166.039 91.0281 161.712 90.0102Z" fill="white"/>
<path d="M161.24 145.549C158.788 145.549 156.759 143.737 154.455 141.679C151.666 139.189 148.504 136.366 143.807 136.227C142.582 136.191 141.5 136.346 140.453 136.496C138.558 136.769 136.611 137.051 133.8 136.215C131.659 135.566 129.667 134.502 127.937 133.083C127.905 133.056 127.878 133.022 127.86 132.984C127.842 132.946 127.832 132.904 127.833 132.862C127.832 132.82 127.842 132.778 127.86 132.74C127.878 132.702 127.905 132.668 127.937 132.642C129.829 131.118 131.496 129.335 132.889 127.345C140.555 116.338 137.183 102.569 135.382 97.1621C135.369 97.1214 135.365 97.0783 135.37 97.0358C135.749 93.7838 139.603 89.4659 143.163 89.3321C156.729 88.8421 158.121 88.8711 161.777 89.7311C165.668 90.6455 166.772 94.7739 167.431 97.2404C167.535 97.6306 167.625 97.9665 167.713 98.2431C170.983 107.888 172.044 117.715 170.87 127.446C170.37 131.547 169.476 135.59 168.2 139.519L168.186 139.553C166.567 142.962 164.602 144.936 162.345 145.425C161.982 145.505 161.612 145.547 161.24 145.549ZM143.441 135.654C143.567 135.654 143.693 135.654 143.82 135.654C148.722 135.801 151.967 138.695 154.827 141.25C157.353 143.503 159.529 145.45 162.214 144.868C164.288 144.419 166.119 142.553 167.656 139.324C168.917 135.435 169.802 131.434 170.296 127.376C171.466 117.73 170.414 107.986 167.17 98.4174C167.075 98.1231 166.984 97.7859 166.878 97.3843C166.246 95.0404 165.203 91.1178 161.643 90.2805C158.054 89.4369 156.674 89.4078 143.178 89.9016C140.195 90.0102 136.359 93.7977 135.935 97.0396C137.772 102.571 141.134 116.488 133.349 127.667C131.994 129.605 130.384 131.35 128.563 132.857C130.169 134.123 131.998 135.078 133.955 135.67C136.649 136.47 138.455 136.21 140.367 135.934C141.383 135.765 142.411 135.671 143.441 135.654Z" fill="#070709"/>
<path d="M132.69 106.076C133.448 101.077 135.468 91.6015 140.023 90.5204C137.837 97.2429 137.788 104.397 138.081 112.138C138.42 121.094 129.725 132.688 129.456 132.512C125.604 132.53 122.856 132.061 122.095 130.719L130.732 112.457C131.691 110.436 132.351 108.287 132.69 106.076Z" fill="#070709"/>
<path d="M90.1263 107.457H112.699C113.163 107.455 113.621 107.569 114.03 107.788C114.439 108.007 114.787 108.325 115.042 108.712L123.504 133.637H143.48V134.016C143.48 134.296 143.425 134.573 143.318 134.832C143.211 135.09 143.054 135.325 142.856 135.523C142.658 135.721 142.423 135.878 142.164 135.985C141.905 136.092 141.628 136.147 141.348 136.147H98.9539C98.3889 136.147 97.847 135.922 97.4474 135.523C97.0479 135.123 96.8234 134.581 96.8234 134.016V133.686L89.169 110.381C89.0528 110.026 88.9164 109.681 88.7762 109.333C88.699 109.119 88.6751 108.889 88.7066 108.663C88.7381 108.438 88.8241 108.224 88.957 108.039C89.09 107.854 89.2659 107.705 89.4696 107.603C89.6734 107.502 89.8987 107.452 90.1263 107.457Z" fill="white"/>
<path d="M141.351 136.426H98.9538C98.3137 136.425 97.7001 136.17 97.2475 135.717C96.7949 135.265 96.5402 134.651 96.5392 134.011V133.729L88.8999 110.464C88.819 110.218 88.7218 109.968 88.6271 109.727L88.5121 109.429C88.4186 109.18 88.3869 108.911 88.4199 108.647C88.4529 108.383 88.5496 108.131 88.7016 107.913C88.8601 107.682 89.0731 107.494 89.3215 107.366C89.5699 107.237 89.8463 107.171 90.1261 107.174H112.699C113.211 107.171 113.716 107.297 114.166 107.54C114.617 107.783 115 108.135 115.279 108.564C115.292 108.584 115.302 108.605 115.311 108.627L123.712 133.359H143.486C143.524 133.359 143.56 133.367 143.595 133.381C143.629 133.395 143.66 133.416 143.687 133.443C143.713 133.469 143.734 133.5 143.748 133.535C143.762 133.569 143.769 133.606 143.769 133.643V134.022C143.765 134.661 143.509 135.272 143.055 135.723C142.602 136.173 141.99 136.426 141.351 136.426ZM97.0847 133.574C97.099 133.608 97.1063 133.645 97.1062 133.681V134.011C97.1072 134.501 97.3022 134.97 97.6484 135.316C97.9947 135.663 98.4641 135.858 98.9538 135.859H141.351C141.841 135.858 142.31 135.663 142.656 135.317C143.003 134.97 143.198 134.501 143.198 134.011V133.92H123.505C123.446 133.92 123.388 133.901 123.34 133.867C123.292 133.833 123.256 133.784 123.237 133.728L114.775 108.838C114.545 108.497 114.234 108.219 113.87 108.027C113.506 107.836 113.1 107.737 112.689 107.74H90.1261C89.9383 107.737 89.7526 107.781 89.5857 107.867C89.4187 107.953 89.2755 108.079 89.1689 108.234C89.0692 108.377 89.0056 108.542 88.9836 108.715C88.9616 108.888 88.9819 109.063 89.0426 109.227L89.1562 109.521C89.2535 109.773 89.3545 110.026 89.4404 110.287L97.0847 133.574Z" fill="#070709"/>
<path d="M105.199 122.995C104.826 122.992 104.462 122.883 104.149 122.68C103.66 122.362 103.301 121.878 103.139 121.318C102.777 120.114 103.35 118.873 104.416 118.551C104.68 118.473 104.958 118.454 105.23 118.495C105.502 118.536 105.762 118.636 105.992 118.788C106.482 119.106 106.841 119.59 107.002 120.151C107.364 121.354 106.791 122.596 105.726 122.916C105.555 122.969 105.377 122.995 105.199 122.995ZM104.935 119.041C104.813 119.041 104.691 119.059 104.574 119.094C103.807 119.325 103.406 120.249 103.677 121.153C103.801 121.584 104.076 121.956 104.451 122.2C104.613 122.308 104.796 122.379 104.987 122.409C105.179 122.439 105.375 122.428 105.561 122.375C106.329 122.142 106.731 121.219 106.458 120.314C106.335 119.883 106.06 119.512 105.685 119.268C105.462 119.123 105.201 119.045 104.935 119.042V119.041Z" fill="#070709"/>
<path d="M118.875 133.966H104.166C104.127 133.968 104.088 133.963 104.051 133.95C104.015 133.937 103.981 133.916 103.953 133.89C103.924 133.863 103.902 133.831 103.886 133.795C103.871 133.759 103.863 133.721 103.863 133.682C103.863 133.643 103.871 133.605 103.886 133.569C103.902 133.533 103.924 133.501 103.953 133.475C103.981 133.448 104.015 133.427 104.051 133.414C104.088 133.401 104.127 133.396 104.166 133.399H118.875C118.947 133.403 119.014 133.435 119.063 133.488C119.113 133.541 119.14 133.61 119.14 133.682C119.14 133.754 119.113 133.824 119.063 133.876C119.014 133.929 118.947 133.961 118.875 133.966Z" fill="#070709"/>
<path d="M150.607 81.036L150.151 87.3808C150.101 87.7841 149.932 88.1633 149.664 88.4691C149.397 88.7749 149.043 88.9933 148.65 89.0959L146.421 89.6768L147.867 90.778C151.074 93.2192 155.514 93.7193 158.728 91.2832L161.017 89.548L158.248 88.9291C157.453 88.7511 156.841 87.6183 156.696 86.8163L155.474 78.4205L150.607 81.036Z" fill="white"/>
<path d="M153.85 93.175C151.76 93.175 149.591 92.4463 147.696 91.0028L146.251 89.9016C146.206 89.8702 146.172 89.8266 146.151 89.776C146.131 89.7254 146.126 89.67 146.136 89.6165C146.147 89.5631 146.173 89.5138 146.211 89.4747C146.249 89.4356 146.297 89.4084 146.351 89.3964L148.58 88.8155C148.918 88.7286 149.222 88.5415 149.452 88.2787C149.682 88.0159 149.828 87.6898 149.869 87.3429L150.324 81.012C150.327 80.9642 150.343 80.9181 150.369 80.8779C150.395 80.8378 150.431 80.8048 150.473 80.7822L155.336 78.1667C155.377 78.1456 155.421 78.1345 155.467 78.1345C155.512 78.1345 155.557 78.1456 155.598 78.1667C155.638 78.1875 155.673 78.2178 155.7 78.2549C155.726 78.292 155.744 78.335 155.75 78.3801L156.973 86.7746C157.113 87.5488 157.695 88.5162 158.307 88.6526L161.075 89.2714C161.128 89.2825 161.178 89.3089 161.216 89.3474C161.255 89.3859 161.282 89.4348 161.294 89.4883C161.305 89.5417 161.301 89.5974 161.282 89.6486C161.263 89.6998 161.229 89.7442 161.185 89.7766L158.896 91.5105C157.443 92.6045 155.669 93.1895 153.85 93.175ZM147.058 89.8043L148.039 90.552C151.377 93.0942 155.603 93.2963 158.554 91.0571L160.355 89.6907L158.183 89.2057C157.215 88.9898 156.565 87.7079 156.415 86.8668L155.249 78.8613L150.879 81.2116L150.435 87.3998C150.383 87.8627 150.191 88.2989 149.886 88.6505C149.58 89.0021 149.175 89.2525 148.724 89.3686L147.058 89.8043Z" fill="#070709"/>
<path d="M143.397 72.2045C144.922 71.3975 143.695 73.912 148.711 69.5688C150.709 67.8399 150.781 71.0679 151.301 70.6208C153.22 68.969 153.153 69.0233 154.363 68.8136C155.164 68.6747 156.237 69.7797 156.555 70.8267C156.975 72.2083 156.057 73.0342 156.371 76.2168C156.592 78.4521 157.294 79.5496 156.651 80.1848C156.008 80.82 154.94 80.0408 154.176 80.69C153.186 81.5285 154.315 83.3913 153.585 84.7123C153.124 85.5458 151.612 86.5258 148.431 86.4488C148.18 86.4427 147.939 86.3492 147.75 86.1846C147.561 86.02 147.436 85.7945 147.395 85.5471C147.288 84.8929 147.155 84.0657 147.096 83.265C146.812 79.4498 147.633 78.1831 146.823 77.5302C145.584 76.5312 143.479 78.3927 142.585 77.515C141.655 76.6083 141.308 73.3096 143.397 72.2045Z" fill="#070709"/>
<path d="M150.985 74.3439L150.922 75.3858C150.893 75.8768 150.897 76.3692 150.935 76.8596C151.006 77.7803 151.117 79.364 151.112 80.2543C151.103 81.564 147.057 81.8191 147.057 81.8191L146.543 81.2482L146.068 81.2684C145.976 81.2739 145.884 81.2552 145.801 81.2141C145.705 81.1648 145.627 81.0863 145.578 80.9899C145.529 80.8935 145.513 80.7841 145.53 80.6774C145.722 79.5206 146.056 76.9683 145.686 74.983C146.444 74.4383 147.327 74.0941 148.254 73.9824C149.18 73.8706 150.12 73.995 150.985 74.3439Z" fill="white"/>
<path d="M147.057 82.1032C147.017 82.1032 146.978 82.0948 146.941 82.0787C146.905 82.0627 146.872 82.0392 146.846 82.0098L146.419 81.5336L146.078 81.5475C145.936 81.5552 145.794 81.5256 145.667 81.4617C145.518 81.3846 145.397 81.2624 145.322 81.1124C145.247 80.9625 145.221 80.7925 145.248 80.6269C145.417 79.6014 145.773 77.0036 145.405 75.031C145.395 74.9809 145.4 74.9293 145.417 74.8815C145.435 74.8337 145.465 74.7915 145.504 74.7594C146.301 74.1792 147.232 73.8123 148.21 73.6938C149.188 73.5753 150.18 73.7091 151.092 74.0825C151.148 74.1042 151.195 74.1432 151.227 74.1939C151.26 74.2446 151.275 74.3042 151.271 74.3641L151.208 75.406C151.179 75.884 151.183 76.3633 151.22 76.8407C151.289 77.7247 151.402 79.3513 151.397 80.2594C151.388 81.7572 147.797 82.0603 147.077 82.1057L147.057 82.1032ZM146.544 80.9666C146.584 80.9665 146.623 80.9748 146.659 80.9909C146.696 81.007 146.728 81.0305 146.755 81.0601L147.177 81.5336C148.692 81.4187 150.825 80.9502 150.829 80.2594C150.829 79.3753 150.722 77.7664 150.653 76.8874C150.614 76.3832 150.61 75.8768 150.641 75.3719L150.691 74.5397C149.919 74.2585 149.092 74.1636 148.276 74.2626C147.46 74.3615 146.679 74.6516 145.997 75.1093C146.319 77.0655 146.022 79.4536 145.811 80.7267C145.804 80.7747 145.812 80.8238 145.835 80.8668C145.858 80.9097 145.894 80.9443 145.938 80.9653C145.977 80.9832 146.021 80.9906 146.064 80.9868L146.539 80.9679L146.544 80.9666Z" fill="#070709"/>
<path d="M151.697 77.5555C151.697 77.5555 151.846 75.0499 152.97 75.3669C154.094 75.6839 153.86 78.437 151.697 77.5555Z" fill="white"/>
<path d="M151.012 97.0294L146.137 109.175L149.738 117.265L154.407 110.204L152.799 97.258L155.253 93.8747L153.403 91.215L151.866 91.0142L149.739 93.4036L151.012 97.0294Z" fill="white"/>
<path d="M149.738 117.549H149.714C149.663 117.545 149.615 117.527 149.574 117.498C149.532 117.468 149.5 117.428 149.479 117.382L145.878 109.291C145.849 109.221 145.849 109.142 145.878 109.071L150.713 97.0244L149.476 93.4984C149.459 93.4506 149.456 93.3991 149.465 93.3493C149.475 93.2995 149.498 93.2533 149.532 93.2155L151.659 90.8261C151.69 90.7912 151.729 90.7646 151.773 90.7485C151.818 90.7325 151.865 90.7274 151.911 90.7339L153.447 90.9359C153.486 90.9408 153.524 90.9539 153.557 90.9744C153.591 90.9949 153.62 91.0222 153.643 91.0547L155.493 93.7067C155.527 93.7547 155.545 93.8121 155.545 93.8709C155.545 93.9298 155.527 93.9872 155.493 94.0351L153.105 97.3287L154.698 110.164C154.707 110.231 154.691 110.298 154.653 110.354L149.98 117.416C149.955 117.457 149.919 117.491 149.876 117.514C149.834 117.538 149.786 117.55 149.738 117.549ZM146.445 109.17L149.787 116.678L154.112 110.135L152.517 97.2921C152.509 97.2211 152.527 97.1494 152.569 97.0913L154.906 93.8709L153.239 91.4802L151.976 91.3148L150.06 93.4617L151.277 96.9309C151.302 96.9952 151.302 97.0662 151.277 97.1305L146.445 109.17Z" fill="#070709"/>
<path d="M158.193 96.9208C159.663 94.318 160.866 90.9587 159.239 88.8383L157.011 86.4324C157.011 86.4324 156.833 90.6909 153.331 91.0281L158.193 96.9208Z" fill="white"/>
<path d="M158.193 97.205C158.151 97.2049 158.109 97.1956 158.071 97.1777C158.033 97.1598 158 97.1338 157.973 97.1014L153.112 91.21C153.079 91.1704 153.058 91.1226 153.05 91.0718C153.042 91.021 153.049 90.969 153.068 90.9215C153.088 90.8739 153.12 90.8326 153.162 90.802C153.203 90.7714 153.252 90.7527 153.303 90.7478C156.514 90.4383 156.72 86.5802 156.728 86.4223C156.73 86.3665 156.749 86.3127 156.782 86.2675C156.815 86.2224 156.86 86.188 156.913 86.1687C156.965 86.1494 157.022 86.146 157.076 86.159C157.131 86.172 157.18 86.2008 157.218 86.2417L159.446 88.6412C161.234 90.9662 159.884 94.4986 158.435 97.056C158.412 97.0959 158.38 97.1297 158.342 97.1546C158.303 97.1794 158.259 97.1945 158.213 97.1987L158.193 97.205ZM153.87 91.234L158.15 96.4194C159.241 94.39 160.585 91.0534 159.018 89.0125L157.22 87.074C157.016 88.2485 156.307 90.7061 153.87 91.234Z" fill="#070709"/>
<path d="M152.733 91.0332C150.24 90.8399 149.955 86.6976 149.955 86.6976C149.955 86.6976 147.395 88.4265 146.886 90.9789C146.14 94.7297 147.656 97.2542 147.656 97.2542L152.733 91.0332Z" fill="white"/>
<path d="M147.663 97.5371H147.643C147.597 97.5335 147.553 97.5192 147.514 97.4953C147.475 97.4713 147.443 97.4385 147.419 97.3995C147.355 97.2934 145.854 94.7385 146.613 90.9233C147.137 88.2876 149.693 86.536 149.801 86.4628C149.842 86.4348 149.89 86.4182 149.94 86.4147C149.99 86.4111 150.04 86.4207 150.085 86.4425C150.13 86.4644 150.168 86.4978 150.196 86.5393C150.224 86.5808 150.24 86.6289 150.243 86.6787C150.243 86.7166 150.538 90.5785 152.756 90.7503C152.808 90.7539 152.857 90.7717 152.899 90.8018C152.942 90.8319 152.975 90.8731 152.995 90.9208C153.015 90.9685 153.022 91.0209 153.015 91.0723C153.008 91.1237 152.987 91.1722 152.954 91.2125L147.882 97.4336C147.856 97.4659 147.822 97.492 147.784 97.5099C147.746 97.5278 147.705 97.5371 147.663 97.5371ZM149.735 87.2255C149.022 87.809 147.531 89.2133 147.169 91.0345C146.615 93.8229 147.351 95.9194 147.718 96.7352L152.212 91.2252C150.437 90.7086 149.892 88.2965 149.735 87.2255Z" fill="#070709"/>
<path d="M149.177 87.2167C147.821 87.2621 145.176 88.424 143.456 88.4796C140.196 88.5983 136.318 92.6901 135.934 95.9307C136.971 99.0387 141.754 114.38 133.408 126.367C132.002 128.38 130.316 130.183 128.402 131.721C130.103 133.117 132.062 134.164 134.167 134.804C135.711 135.28 137.333 135.447 138.941 135.294L149.177 87.2167Z" fill="#070709"/>
<path d="M167.726 97.1999C167.076 95.1629 165.797 89.8663 161.821 87.8785C160.306 87.1207 158.363 85.9071 156.915 85.8022L146.818 135.154C150.218 137.987 158.815 146.097 162.293 145.346C163.876 145.002 166.243 142.441 168.208 138.302C169.478 134.391 170.366 130.366 170.86 126.283C172.363 113.935 169.909 103.653 167.726 97.1999Z" fill="#070709"/>
<path d="M127.826 135.113C127.787 135.116 127.748 135.116 127.709 135.113C127.638 135.102 127.573 135.064 127.529 135.006C127.485 134.949 127.464 134.877 127.471 134.805C127.478 134.733 127.513 134.666 127.567 134.619C127.622 134.571 127.692 134.546 127.765 134.549C127.794 134.549 129.67 134.675 132.601 132.007C132.658 131.961 132.729 131.938 132.802 131.944C132.874 131.949 132.942 131.982 132.99 132.036C133.039 132.09 133.065 132.16 133.063 132.233C133.062 132.306 133.032 132.375 132.98 132.426C130.215 134.935 128.31 135.113 127.826 135.113Z" fill="#070709"/>
<path d="M129.717 136.091C129.643 136.092 129.57 136.088 129.497 136.078C129.426 136.063 129.364 136.021 129.323 135.962C129.282 135.902 129.265 135.829 129.276 135.758C129.287 135.686 129.325 135.621 129.382 135.577C129.439 135.532 129.511 135.511 129.583 135.518C129.607 135.518 131.254 135.716 133.84 133.468C133.898 133.423 133.97 133.402 134.042 133.409C134.115 133.416 134.182 133.45 134.23 133.505C134.278 133.56 134.302 133.631 134.299 133.704C134.296 133.777 134.265 133.845 134.213 133.896C131.919 135.893 130.286 136.091 129.717 136.091Z" fill="#070709"/>
<path d="M130.356 131.449C131.648 129.428 134.018 128.402 135.324 128.477C141.26 128.812 152.688 122.812 161.192 119.912C162.665 117.765 161.594 113.083 162.263 107.46L173.11 108.397C174.191 113.758 173.78 122.858 172.843 124.057C172.222 125.533 168.849 129.822 161.995 133.162C151.284 138.384 136.943 134.971 136.943 134.971C136.943 134.971 129.677 138.813 126.538 134.639C126.538 134.645 129.064 133.47 130.356 131.449Z" fill="white"/>
<path d="M130.894 136.888C129.19 136.888 127.484 136.383 126.311 134.815C126.286 134.781 126.269 134.742 126.26 134.701C126.252 134.659 126.253 134.617 126.263 134.576C126.273 134.535 126.293 134.497 126.32 134.464C126.346 134.432 126.38 134.405 126.418 134.387C126.443 134.376 128.886 133.222 130.117 131.296C131.412 129.275 133.842 128.108 135.341 128.194C139.326 128.418 145.949 125.69 152.363 123.049C155.293 121.843 158.322 120.596 161.009 119.676C161.777 118.471 161.767 116.392 161.739 113.787C161.724 111.893 161.706 109.746 161.982 107.426C161.989 107.352 162.026 107.284 162.083 107.236C162.141 107.189 162.214 107.166 162.288 107.173L173.134 108.11C173.195 108.116 173.253 108.141 173.298 108.182C173.344 108.223 173.375 108.278 173.387 108.337C174.449 113.603 174.11 122.755 173.089 124.202C172.517 125.513 169.346 129.898 162.119 133.421C151.916 138.395 138.306 135.568 136.987 135.274C136.418 135.563 133.652 136.888 130.894 136.888ZM126.979 134.741C130.049 138.244 136.742 134.766 136.811 134.73C136.871 134.697 136.942 134.688 137.009 134.704C137.152 134.738 151.377 138.033 161.872 132.916C168.47 129.699 171.936 125.49 172.581 123.956C172.59 123.933 172.602 123.912 172.618 123.893C173.459 122.812 173.889 113.983 172.87 108.663L162.514 107.768C162.275 109.949 162.291 111.982 162.306 113.784C162.329 116.551 162.347 118.736 161.422 120.076C161.387 120.126 161.337 120.164 161.279 120.184C158.587 121.102 155.531 122.359 152.575 123.577C146.106 126.24 139.416 128.992 135.304 128.762C134.13 128.695 131.842 129.646 130.591 131.604C129.538 133.257 127.718 134.346 126.979 134.738V134.741Z" fill="#070709"/>
<path d="M173.527 123.771C173.722 123.487 173.839 123.156 173.867 122.813C174.059 120.576 174.6 112.23 174.597 112.167C174.521 110.937 173.936 101.759 173.109 98.0587C171.241 89.7071 159.932 87.1232 159.932 87.1232C162.051 94.2801 162.523 103.713 161.85 110.296C161.819 110.614 161.334 116.556 161.325 119.102C161.323 119.449 161.214 119.786 161.012 120.067C160.81 120.348 160.525 120.559 160.197 120.671L138.042 128.261L139.08 136.659C155.119 137.101 167.004 133.232 173.527 123.771Z" fill="#070709"/>
<path d="M151.857 124.124C151.79 124.123 151.726 124.099 151.676 124.056C151.625 124.013 151.591 123.954 151.58 123.888C151.568 123.823 151.58 123.756 151.613 123.698C151.646 123.64 151.699 123.596 151.761 123.573C153.982 122.78 158.477 119.993 158.988 119.406C158.958 118.312 158.69 107.935 159.18 102.104C159.187 102.029 159.223 101.96 159.28 101.912C159.337 101.863 159.411 101.839 159.486 101.845C159.56 101.852 159.628 101.888 159.675 101.946C159.723 102.003 159.745 102.077 159.739 102.15C159.233 108.249 159.548 119.37 159.552 119.481C159.553 119.528 159.543 119.575 159.521 119.616C159.165 120.329 154.068 123.35 151.944 124.107C151.916 124.117 151.887 124.123 151.857 124.124Z" fill="white"/>
<path d="M135.245 121.832H135.211C135.173 121.828 135.137 121.817 135.104 121.799C135.071 121.781 135.042 121.757 135.019 121.728C134.995 121.699 134.978 121.665 134.967 121.629C134.957 121.593 134.954 121.556 134.958 121.518C135.822 114.06 137.177 101.186 137.191 101.059C137.195 101.022 137.206 100.987 137.224 100.954C137.241 100.921 137.265 100.892 137.294 100.869C137.323 100.846 137.356 100.828 137.392 100.817C137.428 100.807 137.465 100.804 137.502 100.807C137.539 100.811 137.575 100.822 137.608 100.84C137.64 100.858 137.669 100.882 137.693 100.911C137.716 100.94 137.733 100.973 137.744 101.009C137.755 101.044 137.758 101.082 137.754 101.119C137.74 101.245 136.385 114.119 135.521 121.578C135.514 121.647 135.482 121.71 135.431 121.757C135.38 121.804 135.314 121.83 135.245 121.832Z" fill="white"/>
<path d="M140.343 196.987L152.884 144.94L165.425 196.987H168.431L154.652 139.381L151.117 139.376L137.337 196.987H140.343Z" fill="white"/>
<path d="M168.431 197.27H165.425C165.362 197.27 165.3 197.248 165.25 197.209C165.2 197.17 165.165 197.114 165.15 197.053L152.884 146.158L140.618 197.053C140.604 197.114 140.568 197.17 140.518 197.209C140.468 197.248 140.407 197.27 140.343 197.27H137.337C137.294 197.27 137.252 197.26 137.213 197.242C137.175 197.223 137.141 197.196 137.114 197.163C137.088 197.129 137.069 197.09 137.06 197.048C137.05 197.006 137.051 196.963 137.061 196.921L150.839 139.309C150.854 139.247 150.889 139.192 150.939 139.152C150.989 139.113 151.051 139.092 151.114 139.092H154.65C154.714 139.092 154.776 139.113 154.826 139.153C154.876 139.192 154.912 139.247 154.927 139.309L168.707 196.916C168.716 196.958 168.717 197.001 168.708 197.043C168.698 197.085 168.68 197.124 168.653 197.158C168.626 197.191 168.592 197.218 168.554 197.237C168.515 197.255 168.473 197.265 168.43 197.265L168.431 197.27ZM165.653 196.703H168.076L154.437 139.664H151.35L137.711 196.708H140.135L152.607 144.875C152.622 144.813 152.658 144.758 152.708 144.719C152.758 144.679 152.819 144.658 152.883 144.658C152.947 144.658 153.008 144.679 153.058 144.719C153.108 144.758 153.144 144.813 153.159 144.875L165.653 196.703Z" fill="#070709"/>
<path d="M69.1052 196.808L81.6459 144.762L94.1865 196.808H97.1934L83.4139 139.202L79.8791 139.196L66.0983 196.808H69.1052Z" fill="white"/>
<path d="M97.1934 197.089H94.1864C94.1228 197.089 94.061 197.068 94.011 197.028C93.9611 196.989 93.9259 196.934 93.9111 196.872L81.6458 145.969L69.3817 196.874C69.367 196.936 69.3318 196.991 69.2818 197.031C69.2318 197.07 69.1701 197.092 69.1064 197.092H66.0982C66.0554 197.092 66.0132 197.082 65.9747 197.063C65.9362 197.044 65.9025 197.017 65.876 196.983C65.8496 196.95 65.831 196.91 65.8218 196.869C65.8126 196.827 65.813 196.784 65.8229 196.742L79.6037 139.131C79.6184 139.069 79.6536 139.014 79.7036 138.974C79.7536 138.935 79.8153 138.914 79.879 138.914H83.4151C83.4787 138.914 83.5405 138.935 83.5905 138.974C83.6404 139.014 83.6757 139.069 83.6904 139.131L97.47 196.737C97.4798 196.778 97.4802 196.822 97.471 196.864C97.4618 196.905 97.4433 196.945 97.4168 196.978C97.3903 197.012 97.3566 197.039 97.3181 197.058C97.2796 197.077 97.2374 197.086 97.1946 197.087L97.1934 197.089ZM94.415 196.522H96.8385L83.1992 139.482H80.1114L66.472 196.526H68.8766L81.3654 144.696C81.3801 144.634 81.4152 144.579 81.4652 144.54C81.5152 144.5 81.577 144.479 81.6407 144.479C81.7044 144.479 81.7663 144.5 81.8163 144.54C81.8662 144.579 81.9014 144.634 81.916 144.696L94.415 196.522Z" fill="#070709"/>
<path d="M166.354 135.674H67.4331V140.38H166.354V135.674Z" fill="white"/>
<path d="M166.354 140.664H67.4331C67.3577 140.664 67.2854 140.634 67.2322 140.581C67.1789 140.527 67.1489 140.455 67.1489 140.38V135.674C67.1489 135.637 67.1563 135.6 67.1706 135.566C67.1849 135.531 67.2058 135.5 67.2322 135.474C67.2586 135.447 67.29 135.427 67.3244 135.413C67.3589 135.398 67.3958 135.391 67.4331 135.391H166.354C166.429 135.391 166.501 135.421 166.554 135.474C166.607 135.527 166.637 135.599 166.637 135.674V140.385C166.636 140.459 166.605 140.53 166.552 140.582C166.499 140.635 166.428 140.664 166.354 140.664ZM67.721 140.097H166.07V135.965H67.7172L67.721 140.097Z" fill="#070709"/>
<path d="M136.401 139.559C136.364 139.559 136.327 139.552 136.293 139.537C136.258 139.523 136.227 139.502 136.201 139.476C136.175 139.449 136.154 139.418 136.14 139.383C136.126 139.349 136.118 139.312 136.119 139.275V136.654C136.123 136.582 136.155 136.515 136.208 136.466C136.261 136.416 136.33 136.389 136.402 136.389C136.474 136.389 136.544 136.416 136.596 136.466C136.649 136.515 136.681 136.582 136.686 136.654V139.275C136.686 139.35 136.656 139.422 136.602 139.476C136.549 139.529 136.477 139.559 136.401 139.559Z" fill="#070709"/>
<path d="M173.432 186.178C173.432 186.178 165.653 169.129 170.116 147.02C170.116 147.02 182.173 157.123 177.82 186.178H173.432Z" fill="white"/>
<path d="M177.826 186.462H173.432C173.379 186.461 173.326 186.445 173.282 186.415C173.237 186.386 173.202 186.344 173.18 186.295C173.101 186.125 165.413 168.906 169.842 146.963C169.852 146.915 169.874 146.87 169.906 146.833C169.939 146.796 169.98 146.768 170.027 146.752C170.073 146.736 170.123 146.732 170.171 146.741C170.22 146.75 170.265 146.771 170.303 146.803C170.429 146.908 173.399 149.445 175.868 155.598C178.142 161.248 180.366 171.148 178.111 186.219C178.101 186.288 178.067 186.35 178.014 186.394C177.962 186.439 177.895 186.463 177.826 186.462ZM173.618 185.895H177.581C179.753 171.119 177.573 161.405 175.354 155.853C173.436 151.054 171.162 148.456 170.293 147.58C166.341 167.949 172.85 184.093 173.618 185.895Z" fill="#070709"/>
<path d="M175.339 184.684H175.323C175.286 184.682 175.249 184.673 175.216 184.656C175.182 184.64 175.152 184.618 175.127 184.59C175.102 184.563 175.083 184.53 175.071 184.495C175.058 184.46 175.053 184.423 175.055 184.386C175.651 173.491 170.736 150.228 170.687 149.994C170.671 149.921 170.686 149.844 170.726 149.781C170.767 149.718 170.832 149.674 170.905 149.658C170.979 149.643 171.056 149.657 171.119 149.698C171.182 149.739 171.226 149.803 171.241 149.877C171.292 150.11 176.221 173.446 175.622 184.416C175.618 184.488 175.586 184.556 175.534 184.606C175.481 184.656 175.412 184.684 175.339 184.684Z" fill="#070709"/>
<path d="M181.259 158.454C181.259 158.454 171.235 176.563 177.265 184.4H180.489C180.489 184.4 186.935 170.244 181.259 158.454Z" fill="white"/>
<path d="M180.489 184.684H177.265C177.222 184.684 177.179 184.674 177.14 184.654C177.101 184.635 177.067 184.607 177.04 184.573C170.967 176.679 180.598 159.062 181.011 158.317C181.035 158.271 181.072 158.234 181.117 158.208C181.161 158.182 181.212 158.169 181.264 158.17C181.316 158.171 181.368 158.187 181.413 158.215C181.457 158.244 181.493 158.284 181.516 158.332C187.184 170.105 180.814 184.374 180.75 184.517C180.727 184.567 180.69 184.609 180.644 184.638C180.598 184.668 180.544 184.684 180.489 184.684ZM177.407 184.117H180.304C180.982 182.523 186.065 169.837 181.242 159.091C179.713 162.032 172.274 177.182 177.407 184.117Z" fill="#070709"/>
<path d="M178.771 185.164C178.697 185.163 178.627 185.135 178.574 185.084C178.522 185.033 178.491 184.964 178.488 184.891C178.282 179.607 179.581 168.776 180.373 162.79C180.383 162.716 180.422 162.648 180.482 162.602C180.541 162.557 180.617 162.536 180.691 162.546C180.766 162.556 180.833 162.595 180.879 162.655C180.925 162.715 180.945 162.79 180.935 162.865C180.146 168.832 178.851 179.626 179.055 184.867C179.057 184.942 179.03 185.015 178.979 185.07C178.928 185.125 178.857 185.158 178.782 185.161L178.771 185.164Z" fill="#070709"/>
<path d="M162.123 165.205C162.123 165.205 170.662 168.118 173.753 185.366H170.394C170.394 185.366 163.386 175.894 162.123 165.205Z" fill="white"/>
<path d="M173.753 185.649H170.394C170.349 185.649 170.306 185.638 170.266 185.619C170.227 185.599 170.192 185.569 170.166 185.534C170.096 185.439 163.094 175.879 161.84 165.239C161.835 165.191 161.842 165.143 161.86 165.099C161.878 165.055 161.907 165.016 161.944 164.986C161.981 164.956 162.025 164.936 162.073 164.927C162.12 164.919 162.168 164.923 162.214 164.938C162.569 165.064 170.946 168.103 174.032 185.316C174.04 185.357 174.038 185.399 174.027 185.439C174.017 185.479 173.997 185.517 173.971 185.548C173.944 185.58 173.911 185.606 173.873 185.623C173.836 185.641 173.795 185.65 173.753 185.65V185.649ZM170.539 185.081H173.412C170.752 170.735 164.218 166.55 162.466 165.669C163.777 175.336 169.761 183.99 170.54 185.081H170.539Z" fill="#070709"/>
<path d="M171.917 185.164C171.85 185.164 171.785 185.14 171.734 185.096C171.683 185.053 171.649 184.992 171.638 184.926C170.375 177.262 164.876 169.534 164.818 169.457C164.795 169.427 164.779 169.392 164.77 169.356C164.761 169.319 164.759 169.281 164.765 169.244C164.771 169.207 164.784 169.171 164.803 169.139C164.823 169.107 164.849 169.079 164.88 169.057C164.91 169.035 164.945 169.02 164.982 169.011C165.018 169.003 165.056 169.002 165.093 169.009C165.13 169.015 165.166 169.029 165.198 169.049C165.229 169.07 165.256 169.096 165.278 169.127C165.335 169.204 170.903 177.037 172.193 184.833C172.205 184.907 172.188 184.983 172.144 185.044C172.1 185.106 172.034 185.147 171.96 185.16C171.946 185.162 171.931 185.163 171.917 185.164Z" fill="#070709"/>
<path d="M165.417 183.997H186.482L186.954 193.961C186.982 194.54 186.891 195.118 186.688 195.661C186.486 196.204 186.175 196.7 185.775 197.12C185.375 197.539 184.894 197.873 184.361 198.101C183.829 198.329 183.255 198.447 182.675 198.447H170.644C169.956 198.447 169.275 198.311 168.639 198.048C168.003 197.784 167.426 197.398 166.94 196.911C166.453 196.425 166.068 195.847 165.805 195.211C165.542 194.575 165.407 193.894 165.408 193.206L165.417 183.997Z" fill="white"/>
<path d="M182.675 198.731H170.644C169.919 198.731 169.2 198.588 168.53 198.31C167.86 198.032 167.252 197.625 166.739 197.112C166.226 196.599 165.82 195.99 165.543 195.32C165.266 194.649 165.123 193.931 165.124 193.206L165.133 183.997C165.133 183.921 165.163 183.849 165.216 183.796C165.269 183.743 165.341 183.713 165.417 183.713H186.482C186.555 183.712 186.625 183.741 186.678 183.791C186.73 183.841 186.761 183.91 186.765 183.983L187.237 193.947C187.266 194.564 187.17 195.181 186.954 195.76C186.738 196.339 186.407 196.868 185.98 197.315C185.554 197.763 185.041 198.119 184.473 198.362C183.905 198.605 183.293 198.731 182.675 198.731ZM165.7 184.28L165.691 193.207C165.69 193.858 165.818 194.502 166.067 195.103C166.316 195.705 166.681 196.251 167.14 196.711C167.6 197.172 168.147 197.537 168.748 197.786C169.349 198.035 169.993 198.164 170.644 198.164H182.675C183.217 198.164 183.752 198.054 184.25 197.84C184.747 197.627 185.196 197.315 185.57 196.924C185.943 196.532 186.234 196.069 186.423 195.562C186.612 195.054 186.697 194.514 186.671 193.974L186.212 184.28H165.7Z" fill="#070709"/>
<g style="mix-blend-mode:multiply">
<path d="M122.043 86.6088C116.589 86.6088 111.251 87.1142 106.075 88.0793C104.943 94.515 104.319 101.125 104.319 107.885C104.319 162.927 143.489 208.811 195.473 219.208C203.832 205.884 208.667 190.124 208.667 173.234C208.667 125.394 169.883 86.6111 122.043 86.6111V86.6088Z" fill="#EC6371"/>
</g>
</svg>
