<svg width="208" height="220" viewBox="0 0 208 220" fill="none" xmlns="http://www.w3.org/2000/svg">
<path d="M52.4471 188.135L176.052 190.945C176.336 190.945 176.608 190.832 176.809 190.631C177.01 190.43 177.123 190.157 177.123 189.873V15.7447C177.123 15.4606 177.01 15.1881 176.809 14.9871C176.608 14.7862 176.336 14.6733 176.052 14.6733H48.4919C48.3512 14.6732 48.2118 14.7008 48.0818 14.7546C47.9517 14.8084 47.8335 14.8873 47.734 14.9868C47.6345 15.0863 47.5556 15.2045 47.5018 15.3346C47.448 15.4646 47.4204 15.604 47.4205 15.7447V189.873C47.4205 190.465 51.8549 188.135 52.4471 188.135Z" fill="white"/>
<path d="M176.049 191.177L52.4385 188.367C52.2475 188.367 51.2933 188.789 50.5259 189.124C48.3546 190.074 47.6294 190.337 47.3265 190.138C47.2828 190.109 47.2471 190.07 47.2224 190.024C47.1977 189.977 47.1849 189.926 47.1851 189.873V15.7448C47.1853 15.3992 47.3228 15.0678 47.5672 14.8233C47.8116 14.5789 48.143 14.4415 48.4887 14.4412H176.049C176.394 14.4415 176.726 14.5789 176.97 14.8233C177.214 15.0678 177.352 15.3992 177.352 15.7448V189.873C177.352 190.219 177.214 190.55 176.97 190.795C176.726 191.039 176.394 191.177 176.049 191.177ZM52.4438 187.905H52.4491L176.054 190.716C176.275 190.713 176.486 190.623 176.642 190.467C176.798 190.31 176.886 190.098 176.888 189.877V15.7448C176.888 15.5209 176.799 15.3061 176.64 15.1477C176.482 14.9894 176.267 14.9004 176.043 14.9004H48.4918C48.2688 14.9018 48.0554 14.9914 47.8981 15.1496C47.7409 15.3078 47.6527 15.5218 47.6527 15.7448V189.735C48.0981 189.68 49.4851 189.073 50.3422 188.699C51.5054 188.193 52.1757 187.902 52.447 187.902L52.4438 187.905Z" fill="#070709"/>
<path d="M45.0698 190.945L172.626 190.945C173.218 190.945 173.698 190.465 173.698 189.873L173.698 15.7448C173.698 15.1531 173.218 14.6734 172.626 14.6734L45.0698 14.6734C44.4781 14.6734 43.9984 15.1531 43.9984 15.7448L43.9984 189.873C43.9984 190.465 44.4781 190.945 45.0698 190.945Z" fill="white"/>
<path d="M156.387 97.1402H60.7669C59.9425 97.1391 59.1522 96.8112 58.5693 96.2282C57.9863 95.6453 57.6583 94.855 57.6572 94.0306V93.9472C57.6583 93.1229 57.9864 92.3327 58.5693 91.75C59.1523 91.1672 59.9426 90.8395 60.7669 90.8386H156.387C157.211 90.8395 158.001 91.1672 158.584 91.75C159.167 92.3327 159.495 93.1229 159.497 93.9472V94.0306C159.495 94.855 159.167 95.6453 158.585 96.2282C158.002 96.8112 157.211 97.1391 156.387 97.1402ZM60.7669 91.3031C60.0666 91.3036 59.3951 91.5816 58.8993 92.0762C58.4035 92.5708 58.1239 93.2417 58.1217 93.9419V94.0253C58.1211 94.3732 58.1891 94.7177 58.3218 95.0392C58.4544 95.3608 58.6492 95.653 58.8948 95.8992C59.1405 96.1455 59.4322 96.3409 59.7535 96.4743C60.0747 96.6078 60.419 96.6766 60.7669 96.6769H156.387C157.088 96.6763 157.76 96.3976 158.256 95.9019C158.752 95.4061 159.031 94.7339 159.032 94.0327V93.9493C159.03 93.249 158.75 92.5782 158.254 92.0836C157.759 91.589 157.087 91.311 156.387 91.3105L60.7669 91.3031Z" fill="#070709"/>
<path d="M134.269 83.0085H62.0694C61.2452 83.0077 60.455 82.6799 59.8722 82.0971C59.2894 81.5143 58.9617 80.7241 58.9608 79.8999V79.8165C58.9617 78.9923 59.2894 78.2021 59.8722 77.6194C60.455 77.0366 61.2452 76.7088 62.0694 76.7079H134.269C135.093 76.7085 135.884 77.0362 136.467 77.619C137.05 78.2018 137.378 78.9922 137.379 79.8165V79.8999C137.378 80.7243 137.05 81.5147 136.467 82.0975C135.884 82.6803 135.093 83.008 134.269 83.0085ZM62.0694 77.1724C61.3693 77.1732 60.698 77.4513 60.2025 77.9459C59.707 78.4404 59.4275 79.1112 59.4253 79.8113V79.8946C59.4261 80.5957 59.7049 81.2677 60.2006 81.7634C60.6963 82.2591 61.3684 82.538 62.0694 82.5388H134.269C134.97 82.5382 135.642 82.2595 136.138 81.7638C136.634 81.2681 136.913 80.5958 136.914 79.8946V79.8113C136.912 79.111 136.632 78.4401 136.137 77.9455C135.641 77.4509 134.969 77.1729 134.269 77.1724H62.0694Z" fill="#070709"/>
<path d="M156.387 68.8779H79.7076C78.8832 68.8771 78.0929 68.5492 77.51 67.9661C76.9272 67.3831 76.5996 66.5926 76.599 65.7683V65.6859C76.5998 64.8617 76.9276 64.0713 77.5103 63.4884C78.0931 62.9054 78.8833 62.5774 79.7076 62.5763H156.387C157.211 62.5774 158.002 62.9054 158.584 63.4883C159.167 64.0713 159.495 64.8616 159.496 65.6859V65.7683C159.496 66.5927 159.168 67.3832 158.585 67.9662C158.002 68.5492 157.211 68.8771 156.387 68.8779ZM79.7076 63.0418C79.0075 63.0426 78.3362 63.3207 77.8407 63.8153C77.3451 64.3099 77.0657 64.9806 77.0634 65.6807V65.763C77.064 66.4642 77.3427 67.1365 77.8384 67.6324C78.3342 68.1284 79.0064 68.4074 79.7076 68.4082H156.387C157.088 68.4074 157.76 68.1284 158.256 67.6325C158.752 67.1366 159.031 66.4643 159.032 65.763V65.6807C159.03 64.9804 158.75 64.3095 158.254 63.8149C157.759 63.3203 157.087 63.0423 156.387 63.0418H79.7076Z" fill="#070709"/>
<path d="M132.294 125.299H60.0944C59.2699 125.298 58.4794 124.97 57.8965 124.387C57.3135 123.804 56.9856 123.014 56.9847 122.189V122.107C56.9856 121.283 57.3135 120.492 57.8965 119.909C58.4794 119.326 59.2699 118.998 60.0944 118.997H132.294C133.118 118.998 133.909 119.326 134.492 119.909C135.075 120.492 135.403 121.283 135.404 122.107V122.189C135.403 123.014 135.075 123.804 134.492 124.387C133.909 124.97 133.118 125.298 132.294 125.299ZM60.0944 119.462C59.3931 119.463 58.7208 119.742 58.2249 120.238C57.729 120.734 57.45 121.406 57.4492 122.107V122.189C57.45 122.891 57.729 123.563 58.2249 124.059C58.7208 124.555 59.3931 124.834 60.0944 124.835H132.294C132.995 124.834 133.668 124.555 134.163 124.059C134.659 123.563 134.938 122.891 134.939 122.189V122.107C134.938 121.406 134.659 120.734 134.163 120.238C133.668 119.742 132.995 119.463 132.294 119.462H60.0944Z" fill="#070709"/>
<path d="M154.877 111.167H78.194C77.3697 111.167 76.5794 110.839 75.9964 110.256C75.4135 109.673 75.0855 108.883 75.0844 108.059V107.971C75.0866 107.148 75.4151 106.359 75.9979 105.777C76.5808 105.195 77.3704 104.868 78.194 104.867H154.873C155.698 104.867 156.488 105.193 157.072 105.775C157.656 106.357 157.985 107.147 157.987 107.971V108.055C157.987 108.88 157.66 109.671 157.077 110.255C156.493 110.838 155.702 111.167 154.877 111.167ZM78.194 105.332C77.4948 105.335 76.8249 105.613 76.3305 106.108C75.8361 106.602 75.5574 107.272 75.5551 107.971V108.055C75.5574 108.754 75.8361 109.424 76.3305 109.918C76.8249 110.413 77.4948 110.691 78.194 110.694H154.873C155.572 110.691 156.242 110.413 156.737 109.918C157.231 109.424 157.51 108.754 157.512 108.055V107.971C157.51 107.272 157.231 106.602 156.737 106.108C156.242 105.613 155.572 105.335 154.873 105.332H78.194Z" fill="#070709"/>
<path d="M156.387 54.7473H60.7669C59.9425 54.7462 59.1522 54.4182 58.5693 53.8353C57.9863 53.2523 57.6583 52.462 57.6572 51.6377V51.5553C57.6581 50.7309 57.986 49.9404 58.5689 49.3574C59.1519 48.7744 59.9424 48.4465 60.7669 48.4457H156.387C157.211 48.4465 158.002 48.7744 158.585 49.3574C159.168 49.9404 159.496 50.7309 159.497 51.5553V51.6377C159.495 52.462 159.167 53.2523 158.585 53.8353C158.002 54.4182 157.211 54.7462 156.387 54.7473ZM60.7669 48.9101C60.0656 48.911 59.3932 49.1899 58.8974 49.6858C58.4015 50.1817 58.1225 50.854 58.1217 51.5553V51.6377C58.1225 52.3389 58.4015 53.0111 58.8974 53.5068C59.3933 54.0025 60.0657 54.2812 60.7669 54.2818H156.387C157.088 54.2812 157.76 54.0025 158.256 53.5068C158.752 53.0111 159.031 52.3389 159.032 51.6377V51.5553C159.031 50.854 158.752 50.1817 158.256 49.6858C157.761 49.1899 157.088 48.911 156.387 48.9101H60.7669Z" fill="#070709"/>
<path d="M129.123 36.7766H88.0307C87.2063 36.7755 86.416 36.4475 85.833 35.8646C85.2501 35.2816 84.9221 34.4913 84.921 33.667V33.5836C84.9221 32.7593 85.2502 31.9691 85.8331 31.3863C86.4161 30.8036 87.2064 30.4758 88.0307 30.475H129.123C129.948 30.4744 130.74 30.8015 131.324 31.3845C131.908 31.9674 132.237 32.7584 132.238 33.5836V33.667C132.237 34.4923 131.908 35.2834 131.324 35.8664C130.74 36.4495 129.948 36.7769 129.123 36.7766ZM88.0307 30.9394C87.3306 30.9403 86.6593 31.2184 86.1638 31.7129C85.6682 32.2075 85.3888 32.8782 85.3865 33.5783V33.6617C85.3874 34.3627 85.6662 35.0348 86.1619 35.5304C86.6576 36.0261 87.3297 36.305 88.0307 36.3058H129.123C129.823 36.3036 130.494 36.0241 130.989 35.5286C131.483 35.033 131.761 34.3618 131.762 33.6617V33.5783C131.76 32.8791 131.481 32.2092 130.987 31.7148C130.492 31.2204 129.822 30.9416 129.123 30.9394H88.0307Z" fill="#070709"/>
<path d="M156.871 177.982H129.58C128.835 177.981 128.121 177.684 127.594 177.158C127.067 176.631 126.771 175.917 126.77 175.172V175.097C126.771 174.352 127.067 173.638 127.594 173.111C128.121 172.584 128.835 172.288 129.58 172.287H156.871C157.616 172.288 158.331 172.584 158.857 173.111C159.384 173.638 159.68 174.352 159.681 175.097V175.172C159.68 175.917 159.384 176.631 158.857 177.158C158.331 177.684 157.616 177.981 156.871 177.982ZM129.58 172.751C128.958 172.752 128.362 173 127.923 173.439C127.483 173.879 127.236 174.475 127.235 175.097V175.172C127.236 175.793 127.483 176.39 127.923 176.829C128.362 177.269 128.958 177.516 129.58 177.517H156.871C157.493 177.516 158.089 177.269 158.529 176.829C158.969 176.39 159.216 175.793 159.217 175.172V175.097C159.216 174.475 158.969 173.879 158.529 173.439C158.089 173 157.493 172.752 156.871 172.751H129.58Z" fill="#070709"/>
<path d="M156.871 165.766H129.096C128.351 165.765 127.636 165.469 127.109 164.942C126.582 164.415 126.286 163.701 126.285 162.956V162.881C126.286 162.136 126.582 161.422 127.109 160.895C127.636 160.368 128.351 160.072 129.096 160.071H156.871C157.617 160.072 158.331 160.368 158.858 160.895C159.385 161.421 159.682 162.136 159.682 162.881V162.956C159.682 163.701 159.385 164.415 158.858 164.942C158.331 165.469 157.617 165.765 156.871 165.766ZM129.096 160.538C128.474 160.538 127.878 160.785 127.438 161.224C126.998 161.664 126.751 162.259 126.749 162.881V162.956C126.75 163.578 126.998 164.174 127.437 164.614C127.877 165.053 128.474 165.301 129.096 165.301H156.871C157.493 165.3 158.089 165.053 158.529 164.613C158.969 164.174 159.216 163.578 159.217 162.956V162.881C159.216 162.259 158.969 161.663 158.529 161.223C158.089 160.784 157.493 160.536 156.871 160.535L129.096 160.538Z" fill="#070709"/>
<path d="M136.55 177.884C134.871 177.883 133.206 177.579 131.635 176.987C124.41 174.281 120.735 166.201 123.441 158.976C126.147 151.752 134.229 148.077 141.452 150.782C148.675 153.487 152.353 161.569 149.646 168.793C148.645 171.459 146.856 173.757 144.516 175.381C142.177 177.005 139.398 177.879 136.55 177.884ZM136.558 150.357C133.179 150.353 129.921 151.613 127.424 153.891C124.928 156.168 123.374 159.297 123.068 162.662C122.763 166.028 123.728 169.386 125.773 172.075C127.819 174.765 130.797 176.592 134.122 177.196C137.446 177.801 140.877 177.139 143.738 175.342C146.6 173.545 148.685 170.741 149.584 167.484C150.482 164.226 150.13 160.751 148.595 157.74C147.06 154.73 144.454 152.403 141.289 151.217C139.776 150.65 138.174 150.359 136.558 150.357Z" fill="#070709"/>
<path d="M136.532 174.231C134.328 174.229 132.183 173.522 130.409 172.216C128.635 170.909 127.324 169.069 126.669 166.966C126.013 164.862 126.046 162.604 126.763 160.52C127.48 158.437 128.843 156.637 130.655 155.382C132.467 154.128 134.632 153.485 136.834 153.546C139.037 153.608 141.162 154.372 142.901 155.726C144.639 157.08 145.9 158.954 146.499 161.074C147.098 163.195 147.004 165.451 146.231 167.515C145.5 169.495 144.177 171.202 142.442 172.403C140.706 173.605 138.643 174.243 136.532 174.231ZM136.554 154.004C134.086 153.997 131.705 154.915 129.88 156.576C128.054 158.237 126.916 160.52 126.69 162.978C126.464 165.436 127.165 167.889 128.656 169.855C130.147 171.822 132.321 173.159 134.748 173.604C137.176 174.049 139.682 173.569 141.773 172.259C143.865 170.949 145.391 168.904 146.051 166.526C146.71 164.148 146.456 161.609 145.338 159.409C144.221 157.209 142.32 155.506 140.01 154.637C138.905 154.221 137.735 154.007 136.554 154.004Z" fill="#070709"/>
<path d="M117.709 162.031L151.97 174.869L155.394 165.732L121.132 152.895L117.709 162.031Z" fill="white"/>
<path d="M151.963 175.104C151.935 175.104 151.908 175.099 151.882 175.089L117.62 162.254C117.591 162.243 117.565 162.227 117.542 162.207C117.52 162.186 117.502 162.161 117.489 162.133C117.476 162.105 117.469 162.075 117.468 162.045C117.467 162.014 117.473 161.984 117.484 161.955L120.906 152.818C120.928 152.761 120.971 152.714 121.028 152.689C121.084 152.663 121.148 152.661 121.205 152.682L155.467 165.518C155.525 165.539 155.572 165.583 155.597 165.639C155.623 165.696 155.625 165.76 155.604 165.817L152.18 174.953C152.164 174.998 152.134 175.036 152.095 175.063C152.057 175.09 152.01 175.104 151.963 175.104ZM118 161.899L151.827 174.576L155.087 165.875L121.26 153.197L118 161.899Z" fill="#070709"/>
<path d="M130.068 167.806C129.939 167.806 129.813 167.776 129.698 167.718C129.584 167.66 129.484 167.576 129.408 167.472L123.039 159.001C123.018 158.977 123.003 158.948 122.994 158.918C122.984 158.888 122.981 158.856 122.985 158.825C122.988 158.793 122.998 158.763 123.014 158.735C123.03 158.708 123.051 158.684 123.076 158.665C123.101 158.646 123.13 158.632 123.161 158.624C123.192 158.617 123.224 158.616 123.255 158.621C123.286 158.627 123.316 158.638 123.343 158.656C123.369 158.673 123.392 158.696 123.409 158.722L129.78 167.193C129.826 167.254 129.891 167.299 129.964 167.322C130.038 167.345 130.117 167.344 130.19 167.319C130.263 167.295 130.327 167.248 130.372 167.186C130.417 167.123 130.441 167.048 130.441 166.971V161.224C130.443 160.967 130.531 160.718 130.69 160.516C130.849 160.315 131.071 160.173 131.321 160.112C131.571 160.051 131.833 160.076 132.067 160.182C132.301 160.287 132.493 160.468 132.613 160.696L134.449 164.214C134.486 164.285 134.545 164.342 134.617 164.376C134.689 164.411 134.77 164.421 134.849 164.405C134.927 164.389 134.998 164.348 135.051 164.289C135.104 164.229 135.136 164.153 135.142 164.074C135.156 163.902 135.223 163.739 135.333 163.607C135.444 163.475 135.593 163.381 135.759 163.337C135.925 163.293 136.101 163.302 136.263 163.362C136.424 163.422 136.563 163.53 136.66 163.673L138.647 166.593C138.689 166.652 138.747 166.698 138.815 166.724C138.882 166.75 138.956 166.756 139.027 166.741C139.097 166.725 139.162 166.689 139.212 166.637C139.263 166.585 139.297 166.52 139.31 166.449L140.347 160.874C140.391 160.633 140.512 160.412 140.692 160.244C140.871 160.076 141.099 159.969 141.343 159.94C141.587 159.911 141.834 159.961 142.048 160.083C142.261 160.204 142.431 160.39 142.531 160.615L144.86 165.832C144.879 165.887 144.877 165.947 144.854 166C144.831 166.053 144.788 166.096 144.735 166.12C144.683 166.143 144.623 166.146 144.568 166.128C144.513 166.11 144.466 166.072 144.438 166.021L142.108 160.805C142.049 160.671 141.948 160.56 141.82 160.488C141.693 160.415 141.546 160.386 141.401 160.403C141.255 160.42 141.119 160.483 141.012 160.583C140.905 160.683 140.833 160.815 140.806 160.959L139.769 166.533C139.739 166.695 139.662 166.845 139.546 166.963C139.431 167.081 139.283 167.162 139.122 167.196C138.96 167.23 138.792 167.215 138.639 167.154C138.486 167.092 138.355 166.986 138.262 166.85L136.274 163.929C136.232 163.866 136.17 163.818 136.099 163.791C136.028 163.764 135.95 163.761 135.876 163.78C135.803 163.799 135.737 163.841 135.688 163.9C135.64 163.958 135.61 164.03 135.604 164.106C135.589 164.286 135.516 164.456 135.396 164.59C135.276 164.725 135.116 164.817 134.939 164.853C134.763 164.888 134.579 164.866 134.416 164.788C134.254 164.711 134.12 164.583 134.037 164.423L132.2 160.905C132.129 160.769 132.014 160.661 131.874 160.598C131.734 160.536 131.578 160.521 131.429 160.558C131.28 160.594 131.147 160.679 131.053 160.799C130.958 160.92 130.906 161.068 130.905 161.222V166.976C130.907 167.151 130.853 167.322 130.751 167.464C130.648 167.606 130.503 167.712 130.337 167.766C130.25 167.794 130.159 167.807 130.068 167.806Z" fill="#070709"/>
<path d="M173.697 109.826C173.666 109.826 173.636 109.82 173.608 109.808C173.58 109.797 173.554 109.78 173.532 109.758C173.511 109.737 173.494 109.711 173.482 109.683C173.47 109.654 173.464 109.624 173.465 109.594V15.7448C173.466 15.6355 173.447 15.5268 173.406 15.4251C173.366 15.3235 173.306 15.2307 173.23 15.1523C173.154 15.0738 173.063 15.0112 172.962 14.9679C172.862 14.9247 172.754 14.9018 172.644 14.9004H45.0497C44.9404 14.9019 44.8324 14.925 44.732 14.9682C44.6316 15.0115 44.5407 15.0741 44.4646 15.1526C44.3884 15.231 44.3284 15.3237 44.2881 15.4253C44.2478 15.5269 44.2279 15.6355 44.2296 15.7448L44.2053 57.3113C44.2053 57.3729 44.1808 57.4319 44.1373 57.4755C44.0937 57.519 44.0347 57.5435 43.9731 57.5435C43.9115 57.5435 43.8524 57.519 43.8089 57.4755C43.7653 57.4319 43.7408 57.3729 43.7408 57.3113L43.7693 15.7448C43.7674 15.4025 43.9009 15.0733 44.1408 14.8291C44.3807 14.5848 44.7074 14.4454 45.0497 14.4412H172.644C172.988 14.4435 173.317 14.582 173.558 14.8265C173.8 15.0709 173.934 15.4012 173.932 15.7448V109.594C173.932 109.624 173.926 109.655 173.915 109.683C173.903 109.712 173.885 109.738 173.863 109.759C173.841 109.781 173.815 109.798 173.787 109.809C173.758 109.821 173.728 109.826 173.697 109.826Z" fill="#070709"/>
<path d="M138.647 191.299L120.845 191.148C120.784 191.148 120.725 191.124 120.681 191.08C120.638 191.037 120.613 190.978 120.613 190.916C120.613 190.855 120.638 190.796 120.681 190.752C120.725 190.708 120.784 190.684 120.845 190.684L138.645 190.838C138.704 190.842 138.76 190.868 138.8 190.912C138.84 190.955 138.863 191.012 138.863 191.071C138.863 191.13 138.84 191.187 138.8 191.23C138.76 191.273 138.704 191.3 138.645 191.304L138.647 191.299Z" fill="#070709"/>
<path d="M105.483 191.299L90.4193 191.148C90.3887 191.148 90.3585 191.142 90.3303 191.13C90.3022 191.118 90.2767 191.1 90.2553 191.079C90.2339 191.057 90.2171 191.031 90.2057 191.002C90.1944 190.974 90.1887 190.944 90.1892 190.913C90.1884 190.882 90.194 190.852 90.2056 190.823C90.2173 190.794 90.2347 190.769 90.2568 190.747C90.2789 190.726 90.3052 190.709 90.3341 190.698C90.3629 190.687 90.3937 190.682 90.4245 190.684L105.485 190.832C105.544 190.836 105.599 190.862 105.64 190.905C105.68 190.948 105.703 191.005 105.703 191.065C105.703 191.124 105.68 191.181 105.64 191.224C105.599 191.267 105.544 191.293 105.485 191.297L105.483 191.299Z" fill="#070709"/>
<path d="M38.575 88.6547C38.575 88.6547 42.8711 75.5965 38.1444 57.572C37.8868 56.5871 33.558 57.7725 33.2466 56.7687C32.8444 55.4757 36.1599 50.6465 35.6606 49.3313C31.4596 38.248 23.6517 26.3657 9.60549 15.9063C9.60549 15.9063 8.23961 21.3646 8.23328 29.7034C8.23328 30.6671 12.161 33.3123 12.2011 34.3478C12.238 35.3347 8.38528 34.7099 8.46655 35.7548C9.65932 51.0202 15.9377 72.2103 38.575 88.6547Z" fill="white"/>
<path d="M38.575 88.8848C38.5257 88.885 38.4776 88.8695 38.4378 88.8405C15.6073 72.2578 9.41127 50.8291 8.23433 35.7717C8.17522 35.0149 9.27405 34.9009 10.337 34.7911C10.9503 34.7278 11.9773 34.6222 11.9678 34.3541C11.9509 33.9319 10.8785 32.9376 10.0161 32.1374C8.76105 30.9763 8 30.2375 8 29.696C8.00739 21.4236 9.37221 15.8968 9.38066 15.8419C9.39046 15.8051 9.40914 15.7713 9.43506 15.7435C9.46099 15.7156 9.49335 15.6946 9.52932 15.6822C9.56528 15.6698 9.60374 15.6664 9.64132 15.6723C9.6789 15.6783 9.71444 15.6934 9.74482 15.7163C22.157 24.9587 30.9497 36.2404 35.8781 49.2458C36.1694 50.0142 35.4284 51.5975 34.6442 53.2737C34.0108 54.6227 33.2983 56.1522 33.4683 56.6958C33.5738 57.0304 34.8679 56.9777 35.725 56.9418C37.0497 56.8869 38.1929 56.8362 38.3639 57.5097C43.0537 75.3938 38.8336 88.5935 38.7861 88.7243C38.7711 88.7709 38.7416 88.8115 38.7019 88.8401C38.6622 88.8688 38.6145 88.8841 38.5655 88.8837L38.575 88.8848ZM9.75221 16.3032C9.46299 17.6247 8.47077 22.6565 8.46444 29.7012C8.46444 30.077 9.54321 31.0735 10.3317 31.8018C11.6237 32.9946 12.4101 33.7609 12.4322 34.3351C12.4586 35.0381 11.4506 35.1415 10.3845 35.2513C9.7026 35.322 8.67344 35.4276 8.69561 35.7326C9.85671 50.6328 15.9789 71.8155 38.4441 88.2673C39.0405 86.19 42.1755 73.8612 37.9164 57.6247C37.8361 57.3154 36.5747 57.3682 35.7409 57.402C34.394 57.4579 33.2308 57.5076 33.0207 56.8309C32.798 56.1153 33.4577 54.7061 34.2209 53.0742C34.8964 51.6292 35.6617 49.992 35.44 49.4073C30.5887 36.5897 21.9417 25.4527 9.75221 16.3032Z" fill="#070709"/>
<path d="M51.2585 97.9372C51.2585 97.9372 70.2584 66.1198 49.9433 27.0962C49.4408 26.1303 44.9505 27.8984 44.4006 26.9273C43.8507 25.9562 46.4431 19.2893 45.8414 18.313C42.7607 13.3335 39.265 8.62307 35.3915 4.23193C35.3915 4.23193 11.3197 53.5113 51.2585 97.9372Z" fill="white"/>
<path d="M51.2586 98.1694C51.2259 98.1694 51.1936 98.1626 51.1638 98.1493C51.134 98.136 51.1073 98.1166 51.0854 98.0923C41.9528 87.9337 35.4327 76.6731 31.7077 64.6219C28.7268 54.9806 27.5172 44.8167 28.1188 34.4121C29.129 16.6969 35.1182 4.25407 35.1783 4.13058C35.1951 4.09618 35.2201 4.06645 35.2511 4.04403C35.2821 4.02161 35.3181 4.00721 35.3561 4.00209C35.394 3.99697 35.4326 4.0013 35.4684 4.01469C35.5043 4.02808 35.5362 4.05012 35.5615 4.07885C39.4431 8.48094 42.9479 13.2014 46.0389 18.1905C46.3735 18.733 45.9977 20.2815 45.3412 22.7684C44.9115 24.3929 44.3774 26.4164 44.6023 26.8133C44.7997 27.1595 46.1666 26.941 47.1651 26.7826C48.5901 26.5546 49.822 26.3604 50.1502 26.9885C54.7946 35.9142 57.7555 45.2041 58.9482 54.5995C59.9022 62.1123 59.7332 69.7252 58.4468 77.1882C56.2545 89.9213 51.5056 97.9762 51.4581 98.0564C51.4393 98.0876 51.4135 98.114 51.3827 98.1334C51.3519 98.1529 51.317 98.1648 51.2807 98.1683L51.2586 98.1694ZM35.4443 4.65413C34.5112 6.704 29.49 18.4016 28.5738 34.4575C27.6512 50.6549 30.8358 74.7299 51.2163 97.5413C52.0555 96.0298 56.0423 88.4277 57.9919 77.0911C59.9974 65.4231 60.1959 47.2962 49.7375 27.2038C49.5644 26.8703 48.2196 27.0845 47.238 27.2418C45.7982 27.4709 44.5537 27.6693 44.198 27.0423C43.8951 26.5071 44.2645 25.0252 44.8925 22.6491C45.3148 21.0436 45.8964 18.8491 45.6441 18.4343C42.6285 13.5685 39.2171 8.9595 35.4443 4.65413Z" fill="#070709"/>
<path d="M49.2456 85.6992C49.1917 85.699 49.1396 85.6802 49.098 85.6459C49.0565 85.6117 49.028 85.5641 49.0176 85.5113C47.4944 77.8406 46.0314 70.8782 44.6698 64.8225C44.6558 64.7623 44.6662 64.699 44.6989 64.6466C44.7316 64.5941 44.7837 64.5568 44.8439 64.5428C44.9041 64.5288 44.9674 64.5393 45.0199 64.572C45.0723 64.6046 45.1096 64.6568 45.1236 64.717C46.4853 70.78 47.9493 77.7456 49.4736 85.4215C49.4795 85.4552 49.4781 85.4897 49.4695 85.5227C49.4608 85.5557 49.4451 85.5864 49.4234 85.6128C49.4018 85.6392 49.3747 85.6606 49.344 85.6755C49.3133 85.6904 49.2797 85.6985 49.2456 85.6992Z" fill="#070709"/>
<path d="M41.9411 52.6911C41.8896 52.6909 41.8397 52.6738 41.799 52.6423C41.7584 52.6108 41.7293 52.5667 41.7162 52.517C41.6634 52.3143 36.4385 31.9464 37.5056 21.9863C37.508 21.9554 37.5165 21.9254 37.5308 21.8979C37.545 21.8704 37.5646 21.8461 37.5885 21.8264C37.6123 21.8067 37.6399 21.792 37.6696 21.7832C37.6992 21.7744 37.7303 21.7717 37.7611 21.7752C37.7918 21.7779 37.8216 21.7868 37.8489 21.8011C37.8761 21.8155 37.9002 21.8351 37.9199 21.8589C37.9395 21.8826 37.9542 21.91 37.9632 21.9395C37.9722 21.969 37.9752 21.9999 37.9722 22.0306C36.9166 31.9095 42.1173 52.1929 42.1701 52.3956C42.1856 52.4552 42.1768 52.5185 42.1458 52.5717C42.1147 52.6249 42.0639 52.6636 42.0044 52.6795C41.9838 52.6857 41.9625 52.6896 41.9411 52.6911Z" fill="#070709"/>
<path d="M27.5276 144.845C27.4934 144.845 27.4597 144.837 27.4288 144.823C27.3979 144.808 27.3707 144.787 27.3492 144.76C20.7298 136.795 16.172 127.766 13.8023 117.941C11.4801 108.296 11.3661 98.3531 13.4729 88.3855C13.4857 88.3252 13.5219 88.2724 13.5735 88.2387C13.6252 88.2051 13.6881 88.1933 13.7484 88.2061C13.8088 88.2188 13.8616 88.255 13.8952 88.3067C13.9289 88.3583 13.9406 88.4212 13.9279 88.4816C9.70568 108.443 14.7301 128.847 27.707 144.462C27.7349 144.496 27.7526 144.537 27.758 144.581C27.7634 144.624 27.7563 144.669 27.7376 144.709C27.7188 144.749 27.6891 144.782 27.6519 144.806C27.6148 144.83 27.5716 144.842 27.5276 144.843V144.845Z" fill="#070709"/>
<path d="M28.4713 139.287C28.4342 139.287 28.3976 139.279 28.3646 139.262C28.3315 139.245 28.303 139.22 28.2813 139.19C19.2683 126.691 15.3415 111.235 17.2963 95.9496C17.2984 95.9181 17.307 95.8873 17.3214 95.8593C17.3358 95.8312 17.3558 95.8063 17.3802 95.7862C17.4045 95.7661 17.4327 95.7512 17.463 95.7424C17.4933 95.7336 17.5251 95.731 17.5565 95.7349C17.5878 95.7388 17.618 95.749 17.6453 95.765C17.6725 95.7809 17.6962 95.8023 17.7149 95.8277C17.7337 95.8531 17.747 95.8821 17.7541 95.9129C17.7613 95.9436 17.7621 95.9755 17.7565 96.0066C15.8702 111.251 19.742 126.491 28.6592 138.92C28.6844 138.954 28.6995 138.995 28.7029 139.038C28.7062 139.081 28.6977 139.123 28.6782 139.161C28.6588 139.199 28.6291 139.231 28.5926 139.254C28.5561 139.276 28.5141 139.287 28.4713 139.287Z" fill="#070709"/>
<path d="M19.764 93.2526C19.7378 93.2525 19.7118 93.2483 19.687 93.24L16.6903 92.1844C16.651 92.1707 16.6162 92.1467 16.5895 92.1149C16.5627 92.0831 16.5449 92.0448 16.538 92.0038C16.5311 91.9628 16.5353 91.9208 16.5502 91.882C16.5651 91.8432 16.5902 91.8091 16.6227 91.7833C17.6783 90.9515 18.8182 90.2 18.8299 90.1905C18.86 90.1707 18.8944 90.1583 18.9302 90.1541C18.966 90.1499 19.0023 90.1541 19.0362 90.1664C19.0701 90.1787 19.1007 90.1987 19.1255 90.2249C19.1504 90.2511 19.1687 90.2826 19.1792 90.3171L19.9867 92.956C19.9973 92.9908 19.9996 93.0275 19.9934 93.0633C19.9871 93.0991 19.9726 93.1329 19.951 93.1621C19.9293 93.1912 19.9011 93.2149 19.8686 93.2312C19.8362 93.2474 19.8003 93.2559 19.764 93.2558V93.2526ZM17.2465 91.8899L19.4072 92.6489L18.8267 90.7552C18.4921 90.9821 17.8756 91.4086 17.2465 91.8899Z" fill="#070709"/>
<path d="M193.487 101.216C193.444 101.215 193.401 101.203 193.364 101.181C193.312 101.148 193.276 101.097 193.262 101.038C193.248 100.978 193.258 100.916 193.29 100.864L194.24 99.3336C194.255 99.3059 194.276 99.2815 194.301 99.262C194.325 99.2424 194.354 99.2282 194.385 99.2201C194.415 99.2121 194.447 99.2103 194.478 99.215C194.51 99.2197 194.54 99.2308 194.567 99.2475C194.593 99.2642 194.617 99.2862 194.635 99.3122C194.653 99.3382 194.665 99.3675 194.671 99.3985C194.678 99.4295 194.678 99.4615 194.671 99.4924C194.665 99.5234 194.652 99.5527 194.634 99.5785L193.684 101.109C193.662 101.142 193.633 101.169 193.599 101.187C193.565 101.206 193.526 101.216 193.487 101.216Z" fill="#070709"/>
<path d="M191.268 104.781C191.226 104.782 191.185 104.771 191.149 104.75C191.113 104.729 191.084 104.699 191.064 104.663C191.043 104.626 191.033 104.585 191.035 104.544C191.036 104.502 191.048 104.462 191.07 104.427L192.02 102.896C192.036 102.869 192.057 102.846 192.082 102.827C192.107 102.809 192.135 102.795 192.165 102.788C192.195 102.78 192.227 102.779 192.257 102.784C192.288 102.789 192.317 102.8 192.344 102.816C192.37 102.833 192.393 102.854 192.411 102.88C192.429 102.905 192.441 102.934 192.448 102.964C192.454 102.995 192.455 103.026 192.449 103.057C192.443 103.087 192.431 103.116 192.414 103.142L191.464 104.672C191.443 104.705 191.414 104.733 191.38 104.752C191.346 104.771 191.307 104.781 191.268 104.781Z" fill="#070709"/>
<path d="M191.836 101.601C191.793 101.601 191.751 101.589 191.714 101.565L190.183 100.615C190.131 100.583 190.094 100.53 190.08 100.47C190.066 100.41 190.076 100.347 190.109 100.295C190.142 100.242 190.194 100.205 190.254 100.191C190.314 100.177 190.377 100.188 190.429 100.22L191.959 101.17C192.002 101.197 192.035 101.237 192.053 101.284C192.071 101.331 192.074 101.383 192.06 101.431C192.046 101.48 192.017 101.523 191.976 101.553C191.936 101.584 191.887 101.6 191.836 101.6V101.601Z" fill="#070709"/>
<path d="M195.401 103.821C195.358 103.821 195.315 103.808 195.279 103.785L193.748 102.835C193.696 102.802 193.658 102.75 193.644 102.69C193.631 102.63 193.641 102.567 193.674 102.515C193.706 102.462 193.758 102.425 193.818 102.411C193.878 102.397 193.942 102.408 193.994 102.44L195.523 103.39C195.566 103.417 195.599 103.457 195.618 103.504C195.636 103.551 195.638 103.603 195.624 103.651C195.611 103.7 195.581 103.742 195.541 103.773C195.501 103.803 195.452 103.82 195.401 103.82V103.821Z" fill="#070709"/>
<path d="M191.454 88.9386C191.232 88.9387 191.011 88.8971 190.804 88.8161C190.577 88.7281 190.37 88.5954 190.195 88.4259C190.02 88.2563 189.881 88.0535 189.786 87.8292C189.59 87.3808 189.577 86.8735 189.751 86.4161C189.925 85.9587 190.271 85.5876 190.715 85.3824C190.932 85.2843 191.167 85.2305 191.405 85.2244C191.643 85.2182 191.88 85.2597 192.101 85.3466C192.328 85.4348 192.535 85.5676 192.71 85.7371C192.885 85.9066 193.024 86.1094 193.119 86.3335C193.313 86.7817 193.325 87.2882 193.15 87.7446C192.976 88.2011 192.63 88.5713 192.187 88.776C191.957 88.8812 191.707 88.9366 191.454 88.9386ZM191.454 85.6928C191.266 85.6933 191.081 85.7336 190.91 85.811C190.577 85.9652 190.318 86.2433 190.188 86.5859C190.058 86.9285 190.067 87.3084 190.213 87.6445C190.284 87.8121 190.388 87.9638 190.518 88.0907C190.649 88.2176 190.803 88.3171 190.973 88.3834C191.137 88.4482 191.313 88.4792 191.489 88.4747C191.666 88.4702 191.839 88.4301 192 88.357C192.333 88.2028 192.591 87.9247 192.722 87.5821C192.852 87.2395 192.843 86.8596 192.697 86.5235C192.626 86.3558 192.522 86.204 192.392 86.0771C192.261 85.9502 192.106 85.8507 191.937 85.7846C191.783 85.7241 191.619 85.6929 191.454 85.6928Z" fill="#070709"/>
<path d="M114.792 81.9118H41.94C38.9475 81.9118 36.2865 84.0408 35.9973 86.6618L24.3863 192.013C24.097 194.638 26.2862 196.763 29.2808 196.763L98.3042 197.571C101.297 197.571 107.786 194.634 108.075 192.009L119.686 86.6576C119.977 84.0408 117.784 81.9118 114.792 81.9118Z" fill="#070709"/>
<path d="M108.947 81.5825H37.8573C34.9366 81.5825 32.3326 83.7327 32.0391 86.3863L20.3056 192.837C20.0133 195.491 22.1434 197.642 25.0641 197.642H96.1552C99.0759 197.642 101.68 195.491 101.972 192.837L113.706 86.3832C113.998 83.7295 111.866 81.5825 108.947 81.5825Z" fill="white"/>
<path d="M96.1552 198H25.064C23.4807 198 22.0262 197.387 21.0688 196.318C20.6434 195.846 20.3241 195.288 20.132 194.681C19.9399 194.075 19.8796 193.435 19.9552 192.804L31.6886 86.3451C31.999 83.5215 34.7666 81.2257 37.8573 81.2257H108.947C110.531 81.2257 111.985 81.8379 112.943 82.9061C113.368 83.3791 113.687 83.9375 113.88 84.5438C114.072 85.1501 114.132 85.7905 114.057 86.4222L102.324 192.881C102.012 195.704 99.2448 198 96.1552 198ZM37.8573 81.9319C35.1128 81.9319 32.664 83.9459 32.3906 86.4222L20.6571 192.881C20.5934 193.413 20.6442 193.953 20.806 194.465C20.9678 194.976 21.237 195.448 21.5955 195.847C22.4188 196.766 23.6834 197.293 25.064 197.293H96.1552C98.8996 197.293 101.349 195.279 101.621 192.804L113.354 86.3451C113.419 85.8121 113.368 85.2714 113.206 84.7595C113.044 84.2475 112.775 83.7761 112.416 83.3769C111.593 82.4586 110.328 81.9308 108.947 81.9308L37.8573 81.9319Z" fill="#070709"/>
<path d="M43.2975 154.591H34.4362C34.0147 154.6 33.5961 154.518 33.2093 154.351C32.8225 154.183 32.4767 153.933 32.1957 153.619C31.9148 153.304 31.7053 152.933 31.5819 152.53C31.4584 152.126 31.4239 151.701 31.4806 151.284L32.4201 142.754C32.6175 140.972 34.2293 139.524 36.0142 139.524H44.8808C45.3023 139.514 45.7208 139.596 46.1075 139.764C46.4942 139.932 46.8399 140.182 47.1208 140.496C47.4017 140.81 47.6112 141.182 47.7347 141.585C47.8582 141.988 47.8929 142.413 47.8363 142.831L46.8959 151.361C46.6953 153.141 45.0835 154.591 43.2975 154.591ZM36.0142 140.235C34.5776 140.235 33.2814 141.402 33.1231 142.835L32.1826 151.365C32.1407 151.685 32.1676 152.011 32.2615 152.321C32.3554 152.63 32.5142 152.916 32.7272 153.159C32.9429 153.395 33.2066 153.583 33.5006 153.709C33.7946 153.835 34.1121 153.897 34.4319 153.891H43.2975C44.7341 153.891 46.0314 152.73 46.1897 151.291L47.1291 142.761C47.1747 142.442 47.1502 142.118 47.0573 141.81C46.9644 141.502 46.8053 141.217 46.5912 140.977C46.3771 140.737 46.1131 140.546 45.8177 140.419C45.5223 140.291 45.2025 140.229 44.8808 140.238L36.0142 140.235Z" fill="#070709"/>
<path d="M41.2498 173.196H32.3831C31.9617 173.205 31.5432 173.123 31.1565 172.955C30.7698 172.787 30.4241 172.538 30.1431 172.223C29.8622 171.909 29.6528 171.538 29.5293 171.135C29.4057 170.731 29.3711 170.306 29.4276 169.889L30.3671 161.359C30.5644 159.578 32.1763 158.129 33.9559 158.129H42.8225C43.244 158.119 43.6625 158.201 44.0492 158.369C44.4359 158.537 44.7816 158.787 45.0625 159.101C45.3435 159.415 45.5529 159.787 45.6764 160.19C45.7999 160.593 45.8346 161.018 45.7781 161.436L44.8386 169.966C44.6455 171.746 43.0326 173.196 41.2498 173.196ZM33.9665 158.84C32.5309 158.84 31.2337 160.001 31.0753 161.44L30.1359 169.97C30.0901 170.289 30.1145 170.613 30.2073 170.921C30.3001 171.23 30.4592 171.514 30.6734 171.754C30.8875 171.994 31.1516 172.185 31.4471 172.313C31.7426 172.44 32.0625 172.502 32.3842 172.493H41.2508C42.6864 172.493 43.9836 171.332 44.142 169.893L45.0814 161.363C45.127 161.044 45.1025 160.72 45.0096 160.412C44.9167 160.103 44.7576 159.819 44.5435 159.579C44.3294 159.339 44.0654 159.148 43.7699 159.021C43.4745 158.893 43.1548 158.831 42.8331 158.84H33.9665Z" fill="#070709"/>
<path d="M39.1798 191.956H30.3132C29.8917 191.966 29.4731 191.884 29.0863 191.716C28.6996 191.548 28.3538 191.298 28.0728 190.984C27.7918 190.67 27.5824 190.298 27.459 189.895C27.3355 189.492 27.301 189.067 27.3577 188.649L28.2982 180.119C28.4945 178.338 30.1063 176.889 31.8871 176.889H40.7537C41.1751 176.88 41.5936 176.962 41.9803 177.129C42.367 177.297 42.7128 177.547 42.9937 177.861C43.2746 178.176 43.484 178.547 43.6076 178.95C43.7311 179.353 43.7658 179.778 43.7092 180.196L42.7698 188.726C42.5777 190.508 40.9648 191.956 39.1798 191.956ZM31.8966 177.6C30.461 177.6 29.1637 178.767 29.0065 180.2L28.066 188.73C28.0202 189.049 28.0446 189.374 28.1374 189.682C28.2302 189.99 28.3893 190.274 28.6034 190.515C28.8176 190.755 29.0816 190.946 29.3771 191.074C29.6726 191.201 29.9925 191.263 30.3143 191.254H39.1809C40.6164 191.254 41.9137 190.087 42.072 188.653L43.0125 180.123C43.0547 179.803 43.0279 179.477 42.9339 179.167C42.84 178.858 42.6811 178.572 42.4679 178.329C42.2521 178.093 41.9884 177.905 41.6944 177.779C41.4005 177.653 41.083 177.591 40.7632 177.597L31.8966 177.6Z" fill="#070709"/>
<path d="M60.9136 154.591H52.047C51.6255 154.6 51.207 154.518 50.8203 154.35C50.4336 154.182 50.0879 153.933 49.807 153.618C49.526 153.304 49.3166 152.932 49.1931 152.529C49.0696 152.126 49.0349 151.701 49.0914 151.284L50.0309 142.754C50.2283 140.972 51.8401 139.524 53.625 139.524H62.4916C62.9131 139.514 63.3316 139.596 63.7183 139.764C64.105 139.932 64.4507 140.182 64.7316 140.496C65.0125 140.81 65.222 141.182 65.3455 141.585C65.469 141.988 65.5037 142.413 65.4472 142.831L64.5067 151.361C64.3114 153.141 62.6996 154.591 60.9136 154.591ZM53.6303 140.235C52.1937 140.235 50.8975 141.402 50.7391 142.835L49.7997 151.361C49.7578 151.681 49.7847 152.007 49.8786 152.317C49.9725 152.626 50.1313 152.912 50.3444 153.155C50.5602 153.391 50.8238 153.579 51.1178 153.705C51.4118 153.831 51.7293 153.893 52.0491 153.887H60.9157C62.3523 153.887 63.6496 152.725 63.8079 151.287L64.7473 142.757C64.7931 142.438 64.7688 142.113 64.6759 141.805C64.5831 141.497 64.424 141.213 64.2099 140.973C63.9957 140.732 63.7316 140.542 63.4361 140.414C63.1406 140.287 62.8208 140.225 62.499 140.234L53.6303 140.235Z" fill="#070709"/>
<path d="M58.8636 173.196H49.997C49.5756 173.205 49.1571 173.123 48.7704 172.955C48.3837 172.787 48.0379 172.538 47.757 172.223C47.4761 171.909 47.2667 171.538 47.1431 171.135C47.0196 170.731 46.9849 170.306 47.0415 169.889L47.9809 161.359C48.1783 159.578 49.7902 158.129 51.5698 158.129H60.4364C60.8579 158.119 61.2764 158.201 61.6631 158.369C62.0498 158.537 62.3955 158.787 62.6764 159.101C62.9573 159.415 63.1668 159.787 63.2903 160.19C63.4138 160.593 63.4485 161.018 63.392 161.436L62.4525 169.966C62.2615 171.746 60.6486 173.196 58.8636 173.196ZM51.5804 158.84C50.1448 158.84 48.8475 160.001 48.6892 161.44L47.7498 169.97C47.704 170.289 47.7284 170.613 47.8212 170.921C47.914 171.23 48.0731 171.514 48.2872 171.754C48.5014 171.994 48.7655 172.185 49.061 172.313C49.3565 172.44 49.6763 172.502 49.9981 172.493H58.8647C60.3002 172.493 61.5975 171.332 61.7558 169.893L62.6963 161.363C62.7387 161.042 62.7121 160.716 62.6181 160.407C62.5242 160.097 62.3651 159.812 62.1517 159.569C61.9362 159.332 61.6725 159.144 61.3785 159.018C61.0845 158.892 60.7669 158.83 60.447 158.836L51.5804 158.84Z" fill="#070709"/>
<path d="M56.7959 191.956H47.9293C47.5078 191.966 47.0892 191.884 46.7024 191.716C46.3156 191.548 45.9698 191.298 45.6889 190.984C45.4079 190.67 45.1985 190.298 45.0751 189.895C44.9516 189.492 44.917 189.067 44.9738 188.649L45.9143 180.119C46.1106 178.338 47.7224 176.889 49.5084 176.889H58.3698C58.7912 176.88 59.2097 176.962 59.5964 177.129C59.9831 177.297 60.3288 177.547 60.6098 177.861C60.8907 178.176 61.1001 178.547 61.2236 178.95C61.3472 179.353 61.3818 179.778 61.3253 180.196L60.3859 188.726C60.1937 190.508 58.5809 191.956 56.7959 191.956ZM49.5126 177.6C48.076 177.6 46.7788 178.767 46.6215 180.2L45.6831 188.726C45.6373 189.045 45.6617 189.369 45.7545 189.678C45.8474 189.986 46.0064 190.27 46.2206 190.511C46.4347 190.751 46.6988 190.942 46.9943 191.069C47.2898 191.197 47.6096 191.259 47.9314 191.25H56.798C58.2336 191.25 59.5309 190.082 59.6892 188.649L60.6297 180.119C60.6718 179.798 60.645 179.472 60.5511 179.163C60.4571 178.854 60.2983 178.568 60.085 178.325C59.8692 178.088 59.6055 177.901 59.3116 177.775C59.0176 177.649 58.7001 177.587 58.3803 177.593L49.5126 177.6Z" fill="#070709"/>
<path d="M78.5295 154.591H69.6682C69.2467 154.6 68.8281 154.518 68.4413 154.351C68.0545 154.183 67.7087 153.933 67.4278 153.619C67.1468 153.304 66.9374 152.933 66.8139 152.53C66.6905 152.126 66.6559 151.701 66.7127 151.284L67.6521 142.754C67.8485 140.972 69.4613 139.524 71.2463 139.524H80.1129C80.5343 139.514 80.9528 139.596 81.3395 139.764C81.7262 139.932 82.072 140.182 82.3529 140.496C82.6338 140.81 82.8432 141.182 82.9668 141.585C83.0903 141.988 83.125 142.413 83.0684 142.831L82.1279 151.361C81.9274 153.141 80.3155 154.591 78.5295 154.591ZM71.2463 140.235C69.8097 140.235 68.5134 141.402 68.3551 142.835L67.4146 151.365C67.3727 151.685 67.3996 152.011 67.4935 152.321C67.5874 152.63 67.7462 152.916 67.9593 153.159C68.175 153.395 68.4387 153.583 68.7326 153.709C69.0266 153.835 69.3442 153.897 69.664 153.891H78.5253C79.9619 153.891 81.2592 152.73 81.4175 151.291L82.357 142.761C82.4028 142.442 82.3784 142.118 82.2856 141.809C82.1927 141.501 82.0337 141.217 81.8195 140.977C81.6053 140.737 81.3413 140.546 81.0457 140.418C80.7502 140.291 80.4304 140.229 80.1087 140.238L71.2463 140.235Z" fill="#070709"/>
<path d="M76.4798 173.196H67.6132C67.1917 173.205 66.7731 173.123 66.3863 172.956C65.9995 172.788 65.6537 172.538 65.3727 172.224C65.0918 171.909 64.8823 171.538 64.7589 171.135C64.6354 170.732 64.6009 170.306 64.6576 169.889L65.5971 161.359C65.7945 159.578 67.4063 158.129 69.1859 158.129H78.0525C78.474 158.119 78.8925 158.201 79.2792 158.369C79.6659 158.537 80.0116 158.787 80.2925 159.101C80.5735 159.415 80.7829 159.787 80.9064 160.19C81.03 160.593 81.0646 161.018 81.0081 161.436L80.0686 169.966C79.8829 171.746 78.2647 173.196 76.4798 173.196ZM69.1965 158.84C67.7609 158.84 66.4637 160.001 66.3053 161.44L65.3659 169.97C65.3201 170.289 65.3445 170.613 65.4373 170.921C65.5302 171.23 65.6892 171.514 65.9034 171.754C66.1175 171.994 66.3816 172.185 66.6771 172.313C66.9726 172.44 67.2925 172.502 67.6142 172.493H76.4808C77.9164 172.493 79.2136 171.332 79.372 169.893L80.3125 161.363C80.3549 161.042 80.3282 160.716 80.2342 160.407C80.1403 160.097 79.9813 159.812 79.7678 159.569C79.5523 159.332 79.2887 159.144 78.9947 159.018C78.7007 158.892 78.383 158.83 78.0631 158.836L69.1965 158.84Z" fill="#070709"/>
<path d="M74.4119 191.956H65.5453C65.1238 191.966 64.7052 191.884 64.3184 191.716C63.9316 191.548 63.5858 191.298 63.3049 190.984C63.0239 190.67 62.8145 190.298 62.691 189.895C62.5676 189.492 62.533 189.067 62.5898 188.649L63.5303 180.119C63.7266 178.338 65.3384 176.889 67.1244 176.889H75.9857C76.4072 176.88 76.8257 176.962 77.2124 177.129C77.5991 177.297 77.9448 177.547 78.2257 177.861C78.5067 178.176 78.7161 178.547 78.8396 178.95C78.9631 179.353 78.9978 179.778 78.9413 180.196L78.0018 188.726C77.8097 190.508 76.1968 191.956 74.4119 191.956ZM67.1286 177.6C65.692 177.6 64.3947 178.767 64.2375 180.2L63.297 188.73C63.2512 189.049 63.2756 189.374 63.3684 189.682C63.4612 189.99 63.6203 190.274 63.8344 190.515C64.0486 190.755 64.3126 190.946 64.6081 191.074C64.9036 191.201 65.2235 191.263 65.5453 191.254H74.4119C75.8474 191.254 77.1447 190.087 77.303 188.653L78.2435 180.123C78.2857 179.803 78.2589 179.477 78.1649 179.167C78.071 178.858 77.9121 178.572 77.6989 178.329C77.4831 178.093 77.2194 177.905 76.9254 177.779C76.6315 177.653 76.314 177.591 75.9942 177.597L67.1286 177.6Z" fill="#070709"/>
<path d="M96.0538 154.591H87.1872C86.7657 154.6 86.3472 154.518 85.9605 154.35C85.5738 154.182 85.2281 153.932 84.9472 153.618C84.6663 153.303 84.4569 152.932 84.3333 152.528C84.2098 152.125 84.1751 151.7 84.2317 151.282L85.1711 142.754C85.3685 140.972 86.9803 139.524 88.7653 139.524H97.6319C98.0534 139.514 98.472 139.596 98.8588 139.764C99.2455 139.931 99.5913 140.181 99.8723 140.496C100.153 140.81 100.363 141.181 100.486 141.585C100.61 141.988 100.644 142.413 100.587 142.831L99.648 151.361C99.4516 153.141 97.8388 154.591 96.0538 154.591ZM88.7705 140.23C87.335 140.23 86.0377 141.397 85.8794 142.831L84.9399 151.361C84.8943 151.679 84.9188 152.004 85.0117 152.312C85.1047 152.62 85.2637 152.904 85.4778 153.144C85.692 153.385 85.956 153.575 86.2514 153.703C86.5468 153.831 86.8666 153.892 87.1883 153.883H96.0549C97.4904 153.883 98.7877 152.722 98.946 151.282L99.8855 142.754C99.9312 142.435 99.9069 142.11 99.814 141.802C99.7212 141.494 99.5622 141.209 99.348 140.969C99.1339 140.729 98.8698 140.538 98.5743 140.41C98.2788 140.283 97.9589 140.221 97.6371 140.23H88.7705Z" fill="#070709"/>
<path d="M45.5068 135.959H36.6454C36.224 135.968 35.8055 135.886 35.4189 135.718C35.0323 135.55 34.6867 135.3 34.4058 134.986C34.125 134.671 33.9155 134.3 33.7919 133.897C33.6684 133.494 33.6335 133.069 33.6899 132.651L34.6304 124.122C34.8267 122.34 36.4385 120.892 38.2245 120.892H47.0911C47.5125 120.883 47.931 120.965 48.3176 121.133C48.7042 121.301 49.0498 121.551 49.3307 121.865C49.6116 122.179 49.8211 122.551 49.9446 122.954C50.0682 123.357 50.103 123.781 50.0467 124.199L49.1062 132.729C48.9046 134.51 47.2927 135.959 45.5068 135.959ZM38.2235 121.598C36.7869 121.598 35.4907 122.766 35.3323 124.199L34.3918 132.729C34.3473 133.048 34.3727 133.372 34.466 133.68C34.5594 133.987 34.7187 134.271 34.9327 134.511C35.1467 134.751 35.4103 134.942 35.7054 135.07C36.0004 135.198 36.3197 135.26 36.6412 135.252H45.5025C46.9391 135.252 48.2364 134.091 48.3937 132.651L49.3342 124.122C49.38 123.804 49.3556 123.479 49.2627 123.17C49.1699 122.862 49.0109 122.578 48.7967 122.338C48.5826 122.097 48.3185 121.907 48.023 121.779C47.7275 121.651 47.4077 121.59 47.0859 121.598H38.2235Z" fill="#070709"/>
<path d="M63.1228 135.959H54.2561C53.8347 135.968 53.4163 135.886 53.0296 135.718C52.643 135.55 52.2974 135.3 52.0165 134.986C51.7357 134.671 51.5262 134.3 51.4027 133.897C51.2791 133.494 51.2443 133.069 51.3006 132.651L52.2411 124.122C52.4374 122.34 54.0493 120.892 55.8352 120.892H64.7019C65.1233 120.883 65.5417 120.965 65.9283 121.133C66.3149 121.301 66.6606 121.551 66.9414 121.865C67.2223 122.179 67.4318 122.551 67.5554 122.954C67.679 123.357 67.7138 123.781 67.6574 124.199L66.7169 132.729C66.5206 134.51 64.9087 135.959 63.1228 135.959ZM55.8395 121.598C54.4029 121.598 53.1067 122.766 52.9483 124.199L52.0163 132.729C51.9718 133.048 51.9971 133.372 52.0905 133.68C52.1839 133.987 52.3431 134.271 52.5571 134.511C52.7711 134.751 53.0348 134.942 53.3298 135.07C53.6248 135.198 53.9442 135.26 54.2656 135.252H63.1323C64.5689 135.252 65.8661 134.091 66.0234 132.651L66.9639 124.122C67.0097 123.804 66.9853 123.479 66.8925 123.17C66.7996 122.862 66.6406 122.578 66.4265 122.338C66.2123 122.097 65.9483 121.907 65.6527 121.779C65.3572 121.651 65.0374 121.59 64.7156 121.598H55.8395Z" fill="#070709"/>
<path d="M80.7388 135.959H71.8722C71.4508 135.968 71.0324 135.886 70.6457 135.718C70.2591 135.55 69.9135 135.3 69.6326 134.986C69.3518 134.671 69.1423 134.3 69.0187 133.897C68.8952 133.494 68.8603 133.069 68.9167 132.651L69.8572 124.122C70.0535 122.34 71.6664 120.892 73.4461 120.892H82.3127C82.7341 120.883 83.1525 120.965 83.5391 121.133C83.9257 121.301 84.2714 121.551 84.5523 121.865C84.8331 122.179 85.0426 122.551 85.1662 122.954C85.2898 123.357 85.3246 123.781 85.2682 124.199L84.3277 132.729C84.1367 134.51 82.5217 135.959 80.7388 135.959ZM73.4556 121.598C72.02 121.598 70.7227 122.766 70.5644 124.199L69.6239 132.729C69.5794 133.048 69.6047 133.372 69.6981 133.68C69.7915 133.987 69.9507 134.271 70.1648 134.511C70.3788 134.751 70.6424 134.942 70.9375 135.07C71.2325 135.198 71.5518 135.26 71.8733 135.252H80.7399C82.1765 135.252 83.4738 134.091 83.631 132.651L84.5715 124.122C84.6173 123.804 84.5929 123.479 84.5001 123.17C84.4073 122.862 84.2482 122.578 84.0341 122.338C83.82 122.097 83.5559 121.907 83.2604 121.779C82.9649 121.651 82.645 121.59 82.3232 121.598H73.4556Z" fill="#070709"/>
<path d="M98.262 135.958H89.3954C88.9739 135.968 88.5553 135.886 88.1685 135.718C87.7817 135.55 87.4359 135.301 87.155 134.986C86.874 134.672 86.6646 134.3 86.5411 133.897C86.4177 133.494 86.3831 133.069 86.4399 132.651L87.3793 124.121C87.5756 122.34 89.1885 120.891 90.9682 120.891H99.8348C100.256 120.882 100.675 120.964 101.061 121.132C101.448 121.3 101.794 121.55 102.075 121.864C102.356 122.179 102.565 122.55 102.689 122.953C102.812 123.356 102.847 123.781 102.79 124.199L101.85 132.729C101.66 134.51 100.044 135.958 98.262 135.958ZM90.9787 121.603C89.5432 121.603 88.2459 122.769 88.0876 124.203L87.1481 132.733C87.1025 133.052 87.127 133.377 87.2199 133.685C87.3128 133.993 87.4719 134.277 87.686 134.517C87.9001 134.757 88.1641 134.948 88.4596 135.076C88.755 135.203 89.0747 135.265 89.3964 135.256H98.2631C99.6997 135.256 100.997 134.095 101.155 132.655L102.095 124.125C102.14 123.807 102.116 123.482 102.023 123.174C101.93 122.866 101.771 122.582 101.557 122.341C101.343 122.101 101.079 121.911 100.783 121.783C100.488 121.655 100.168 121.594 99.8464 121.603H90.9787Z" fill="#070709"/>
<path d="M91.9234 191.705H83.0568C81.4429 191.705 80.2786 190.4 80.456 188.789L83.4759 161.397C83.6532 159.787 85.1046 158.482 86.7185 158.482H95.5851C97.1991 158.482 98.3633 159.787 98.186 161.397L95.1661 188.789C94.9887 190.4 93.5374 191.705 91.9234 191.705Z" fill="#070709"/>
<path d="M100.009 113.777H40.0179C37.9427 113.777 36.4459 112.098 36.6739 110.028L38.4684 93.7276C38.6974 91.6577 40.5636 89.9794 42.6378 89.9794H102.632C104.706 89.9794 106.203 91.6577 105.975 93.7276L104.18 110.028C103.949 112.096 102.083 113.777 100.009 113.777Z" fill="white"/>
<path d="M100.009 114.127H40.0179C39.4906 114.139 38.9672 114.036 38.4836 113.825C38 113.615 37.5678 113.302 37.2166 112.909C36.8655 112.515 36.6038 112.05 36.4496 111.546C36.2954 111.042 36.2524 110.51 36.3234 109.987L38.1179 93.6876C38.3659 91.4466 40.3936 89.6247 42.6388 89.6247H102.631C103.158 89.6134 103.682 89.7164 104.165 89.9268C104.649 90.1372 105.081 90.4498 105.432 90.8433C105.783 91.2368 106.045 91.7017 106.199 92.206C106.353 92.7103 106.396 93.2421 106.325 93.7646L104.531 110.064C104.283 112.305 102.254 114.127 100.009 114.127ZM42.6398 90.3309C40.7399 90.3309 39.0309 91.871 38.8219 93.7646L37.0275 110.064C36.9673 110.488 37.0003 110.92 37.1242 111.33C37.2481 111.74 37.4598 112.118 37.7447 112.437C38.0296 112.757 38.3808 113.01 38.7738 113.18C39.1667 113.35 39.592 113.432 40.02 113.421H100.009C101.909 113.421 103.618 111.881 103.827 109.987L105.621 93.6876C105.682 93.2637 105.649 92.8317 105.525 92.4218C105.401 92.0119 105.189 91.634 104.904 91.3144C104.619 90.9948 104.268 90.7412 103.875 90.5713C103.482 90.4015 103.057 90.3194 102.629 90.3309H42.6398Z" fill="#070709"/>
<path d="M73.3786 89.9023L91.155 113.876L81.444 113.711L63.734 89.9023H73.3786Z" fill="white"/>
<path d="M91.155 114.23H91.1487L81.4377 114.065C81.3835 114.064 81.3303 114.051 81.2822 114.026C81.234 114.001 81.1922 113.966 81.16 113.922L63.4501 90.1134C63.4109 90.0608 63.3872 89.9984 63.3815 89.933C63.3758 89.8677 63.3884 89.8021 63.4178 89.7435C63.4473 89.6849 63.4924 89.6356 63.5483 89.6012C63.6041 89.5669 63.6684 89.5487 63.734 89.5487H73.3785C73.4338 89.5489 73.4882 89.5619 73.5375 89.5869C73.5868 89.6118 73.6296 89.6479 73.6625 89.6923L91.439 113.671C91.4778 113.724 91.5013 113.786 91.5069 113.851C91.5124 113.916 91.4998 113.982 91.4703 114.04C91.4409 114.099 91.3959 114.148 91.3402 114.182C91.2845 114.216 91.2204 114.235 91.155 114.235V114.23ZM81.6234 113.361L90.4436 113.511L73.2002 90.2559H64.4391L81.6234 113.361Z" fill="#070709"/>
<path d="M58.5312 89.9023L76.2644 113.802C74.0533 113.909 71.8376 113.879 69.6303 113.711L52.2876 89.9023H58.5312Z" fill="white"/>
<path d="M73.747 114.218C71.3815 114.218 69.6229 114.066 69.5987 114.064C69.5485 114.059 69.4999 114.044 69.4561 114.019C69.4122 113.995 69.3741 113.961 69.3443 113.92L52.0027 90.1103C51.9644 90.0576 51.9413 89.9953 51.9362 89.9304C51.931 89.8655 51.9439 89.8004 51.9733 89.7423C52.0028 89.6842 52.0478 89.6354 52.1032 89.6012C52.1587 89.5671 52.2225 89.5489 52.2877 89.5487H58.5312C58.5865 89.5489 58.6409 89.5619 58.6902 89.5869C58.7395 89.6118 58.7823 89.6479 58.8152 89.6923L76.5484 113.592C76.5864 113.643 76.6098 113.704 76.6162 113.768C76.6225 113.831 76.6115 113.895 76.5843 113.953C76.5572 114.011 76.5148 114.06 76.4619 114.096C76.4089 114.132 76.3472 114.152 76.2834 114.156C75.3978 114.199 74.5376 114.218 73.747 114.218ZM69.8203 113.373C71.7382 113.51 73.662 113.546 75.5836 113.479L58.3497 90.2559H52.9833L69.8203 113.373Z" fill="#070709"/>
<path d="M100.009 114.127H40.0179C39.4906 114.139 38.9672 114.036 38.4836 113.825C38 113.615 37.5678 113.302 37.2166 112.909C36.8655 112.515 36.6038 112.05 36.4496 111.546C36.2954 111.042 36.2524 110.51 36.3234 109.987L38.1179 93.6876C38.3659 91.4466 40.3936 89.6247 42.6388 89.6247H102.631C103.158 89.6134 103.682 89.7164 104.165 89.9268C104.649 90.1372 105.081 90.4498 105.432 90.8433C105.783 91.2368 106.045 91.7017 106.199 92.206C106.353 92.7103 106.396 93.2421 106.325 93.7646L104.531 110.064C104.283 112.305 102.254 114.127 100.009 114.127ZM42.6398 90.3309C40.7399 90.3309 39.0309 91.871 38.8219 93.7646L37.0275 110.064C36.9673 110.488 37.0003 110.92 37.1242 111.33C37.2481 111.74 37.4598 112.118 37.7447 112.437C38.0296 112.757 38.3808 113.01 38.7738 113.18C39.1667 113.35 39.592 113.432 40.02 113.421H100.009C101.909 113.421 103.618 111.881 103.827 109.987L105.621 93.6876C105.682 93.2637 105.649 92.8317 105.525 92.4218C105.401 92.0119 105.189 91.634 104.904 91.3144C104.619 90.9948 104.268 90.7412 103.875 90.5713C103.482 90.4015 103.057 90.3194 102.629 90.3309H42.6398Z" fill="#070709"/>
<path d="M187.792 74.9524C188.139 67.3515 181.867 60.8898 173.782 60.5199C165.698 60.1499 158.862 66.0117 158.514 73.6126C158.166 81.2135 164.438 87.6752 172.523 88.0451C180.608 88.4151 187.444 82.5532 187.792 74.9524Z" fill="#070709"/>
<path d="M186.75 74.495C187.088 67.1195 181.002 60.8494 173.157 60.4905C165.312 60.1315 158.679 65.8195 158.341 73.195C158.004 80.5705 164.09 86.8406 171.935 87.1995C179.78 87.5585 186.413 81.8705 186.75 74.495Z" fill="#070709"/>
<path d="M172.639 87.4524C172.4 87.4524 172.161 87.4471 171.921 87.4366C163.957 87.0713 157.758 80.681 158.101 73.1867C158.444 65.6923 165.198 59.8867 173.165 60.2551C177.02 60.4314 180.58 62.0095 183.192 64.6979C185.805 67.3864 187.154 70.875 186.992 74.5082C186.831 78.1414 185.165 81.4875 182.317 83.93C179.643 86.2142 176.232 87.4524 172.639 87.4524ZM158.576 73.2025C158.246 80.434 164.242 86.608 171.942 86.9573C175.676 87.1294 179.248 85.9229 182 83.5627C184.751 81.2025 186.35 77.981 186.509 74.485C186.668 70.989 185.369 67.6239 182.848 65.0283C180.328 62.4327 176.876 60.9011 173.137 60.7301C165.439 60.3818 158.907 65.973 158.576 73.2057V73.2025Z" fill="white"/>
<path d="M184.466 74.3904C184.75 68.2012 179.642 62.9396 173.059 62.6383C166.475 62.337 160.909 67.1102 160.625 73.2995C160.342 79.4887 165.45 84.7503 172.033 85.0516C178.617 85.3528 184.183 80.5797 184.466 74.3904Z" fill="white"/>
<path d="M172.624 85.3023C172.423 85.3023 172.221 85.3023 172.02 85.2885C168.775 85.1408 165.778 83.8108 163.575 81.5487C161.372 79.2867 160.24 76.3481 160.379 73.288C160.519 70.2269 161.918 67.4107 164.316 65.3535C166.714 63.2962 169.817 62.2512 173.061 62.3979C179.765 62.7051 184.989 68.0884 184.696 74.3995C184.555 77.4606 183.158 80.2768 180.759 82.3341C178.49 84.2654 175.604 85.3186 172.624 85.3023ZM172.462 62.8613C169.595 62.843 166.816 63.8543 164.632 65.7113C162.334 67.682 160.994 70.38 160.86 73.3112C160.726 76.2425 161.81 79.046 163.921 81.2184C166.032 83.3907 168.917 84.6711 172.041 84.8146C175.164 84.9582 178.151 83.9491 180.453 81.9741C182.755 79.9992 184.091 77.3065 184.224 74.3742C184.501 68.3259 179.485 63.1653 173.043 62.8687C172.85 62.8666 172.655 62.8613 172.462 62.8613Z" fill="#070709"/>
<path d="M180.264 42.6225C180.57 35.9359 175.053 30.2515 167.94 29.926C160.828 29.6006 154.814 34.7573 154.508 41.4439C154.203 48.1305 159.72 53.8149 166.832 54.1403C173.945 54.4658 179.958 49.3091 180.264 42.6225Z" fill="#070709"/>
<path d="M179.347 42.2204C179.644 35.7324 174.29 30.2169 167.389 29.9011C160.488 29.5853 154.653 34.5889 154.356 41.0769C154.059 47.5649 159.413 53.0805 166.314 53.3962C173.215 53.712 179.05 48.7084 179.347 42.2204Z" fill="#070709"/>
<path d="M166.927 53.6485C166.715 53.6485 166.512 53.6432 166.301 53.6337C162.903 53.4785 159.764 52.0873 157.463 49.7165C155.161 47.3458 153.97 44.2699 154.116 41.061C154.409 34.6507 160.028 29.6442 166.771 29.6442C166.983 29.6442 167.187 29.6442 167.397 29.6579C170.796 29.8142 173.935 31.2043 176.235 33.5751C178.536 35.9459 179.729 39.0217 179.583 42.2306C179.289 48.642 173.673 53.6485 166.927 53.6485ZM154.591 41.0874C154.451 44.1591 155.592 47.1041 157.805 49.3851C160.017 51.6661 163.046 53.0077 166.323 53.1576C173.073 53.4669 178.816 48.5554 179.108 42.2084C179.248 39.1368 178.107 36.1918 175.895 33.9108C173.682 31.6297 170.653 30.2881 167.376 30.1382C160.621 29.8289 154.882 34.7404 154.591 41.0874Z" fill="white"/>
<path d="M177.339 42.1285C177.588 36.6835 173.095 32.0546 167.304 31.7896C161.512 31.5246 156.615 35.7238 156.366 41.1688C156.117 46.6138 160.61 51.2427 166.401 51.5077C172.193 51.7728 177.09 47.5736 177.339 42.1285Z" fill="white"/>
<path d="M166.915 51.7569C166.74 51.7569 166.565 51.7569 166.387 51.7443C163.526 51.6134 160.883 50.4417 158.945 48.4457C157.007 46.4496 156.002 43.8572 156.125 41.155C156.38 35.588 161.394 31.2824 167.314 31.5495C173.233 31.8166 177.831 36.5697 177.577 42.1367C177.327 47.5389 172.596 51.7559 166.915 51.7569ZM166.784 32.0182C161.355 32.0182 156.837 36.0345 156.601 41.1814C156.483 43.7485 157.437 46.2111 159.287 48.1163C161.136 50.0216 163.669 51.1458 166.409 51.2714C172.06 51.5289 176.859 47.4239 177.098 42.1187C177.336 36.8135 172.941 32.2873 167.29 32.0298C167.121 32.0192 166.952 32.0161 166.784 32.0161V32.0182Z" fill="#070709"/>
<path d="M172.998 81.3983C171.929 81.3983 170.944 81.211 170.042 80.8364C169.155 80.4479 168.371 79.9068 167.691 79.213C167.025 78.5193 166.504 77.7145 166.13 76.7988C165.769 75.8692 165.589 74.8702 165.589 73.8018C165.589 72.7335 165.769 71.7414 166.13 70.8257C166.504 69.8961 167.025 69.0913 167.691 68.4114C168.357 67.7316 169.134 67.2043 170.022 66.8297C170.924 66.4412 171.909 66.247 172.977 66.247C174.101 66.247 175.1 66.4343 175.974 66.8089C176.862 67.1835 177.646 67.6969 178.326 68.349L176.14 70.5551C175.752 70.125 175.294 69.792 174.767 69.5561C174.254 69.3064 173.643 69.1815 172.935 69.1815C172.131 69.1815 171.423 69.3757 170.813 69.7642C170.216 70.1389 169.751 70.673 169.418 71.3668C169.085 72.0605 168.919 72.8722 168.919 73.8018C168.919 74.7314 169.085 75.5501 169.418 76.2577C169.765 76.9514 170.244 77.4925 170.854 77.881C171.465 78.2556 172.179 78.443 172.998 78.443C173.692 78.443 174.302 78.325 174.829 78.0891C175.357 77.8533 175.821 77.5203 176.224 77.0902L178.43 79.2963C177.722 79.9484 176.924 80.4617 176.036 80.8364C175.162 81.211 174.149 81.3983 172.998 81.3983ZM164.194 73.1983V71.2211H174.205L173.705 73.1983H164.194ZM164.194 76.5282V74.5511H173.456L172.956 76.5282H164.194Z" fill="#070709"/>
<path d="M167.274 48.2888C166.378 48.2888 165.552 48.1317 164.795 47.8175C164.051 47.4917 163.393 47.0378 162.823 46.456C162.264 45.8741 161.828 45.1992 161.514 44.4311C161.211 43.6515 161.06 42.8136 161.06 41.9176C161.06 41.0215 161.211 40.1895 161.514 39.4214C161.828 38.6418 162.264 37.9668 162.823 37.3966C163.381 36.8264 164.033 36.3842 164.778 36.07C165.534 35.7442 166.361 35.5812 167.257 35.5812C168.199 35.5812 169.037 35.7383 169.77 36.0525C170.515 36.3667 171.172 36.7973 171.743 37.3442L169.91 39.1945C169.584 38.8338 169.2 38.5545 168.758 38.3567C168.327 38.1472 167.815 38.0425 167.222 38.0425C166.547 38.0425 165.953 38.2054 165.441 38.5312C164.941 38.8454 164.551 39.2934 164.272 39.8753C163.992 40.4571 163.853 41.1379 163.853 41.9176C163.853 42.6972 163.992 43.3838 164.272 43.9773C164.563 44.5592 164.964 45.013 165.476 45.3388C165.988 45.653 166.587 45.8101 167.274 45.8101C167.856 45.8101 168.368 45.7112 168.81 45.5134C169.252 45.3156 169.642 45.0363 169.98 44.6755L171.83 46.5258C171.236 47.0727 170.567 47.5033 169.823 47.8175C169.089 48.1317 168.24 48.2888 167.274 48.2888ZM159.89 41.4114V39.7531H168.286L167.868 41.4114H159.89ZM159.89 44.2042V42.546H167.658L167.239 44.2042H159.89Z" fill="#070709"/>
<g style="mix-blend-mode:multiply">
<path d="M121.368 86.6088C115.916 86.6088 110.581 87.114 105.408 88.0786C104.276 94.5114 103.652 101.118 103.652 107.875C103.652 162.892 142.804 208.755 194.764 219.147C203.12 205.829 207.952 190.077 207.952 173.195C207.952 125.377 169.186 86.6111 121.368 86.6111V86.6088Z" fill="#EC6371"/>
</g>
</svg>
